<svg width="600" height="400" viewBox="0 0 600 400" fill="none" xmlns="http://www.w3.org/2000/svg">
<rect width="600" height="400" fill="white"/>
<path d="M145.603 216.922C142.07 216.922 138.654 216.492 135.371 215.634C132.074 214.776 129.129 213.487 126.538 211.769C123.933 210.051 121.857 207.893 120.311 205.292C118.765 202.691 118 199.624 118 196.091C118 193.49 118.456 190.718 119.398 187.773C119.928 186.105 120.709 184.682 121.71 183.504C122.725 182.326 123.756 181.418 124.845 180.781C125.92 180.143 126.774 179.824 127.422 179.824C128.246 179.824 128.599 180.217 128.452 181.001C128.158 181.344 127.657 181.749 126.936 182.216C126.229 182.683 125.464 183.283 124.654 184.019C123.844 184.755 123.094 185.701 122.372 186.853C121.666 188.006 121.165 189.466 120.871 191.233C120.768 191.87 120.679 192.509 120.606 193.147C120.532 193.784 120.503 194.398 120.503 194.987C120.503 198.177 121.18 200.998 122.564 203.452C123.933 205.906 125.743 207.942 127.966 209.561C130.204 211.181 132.662 212.395 135.327 213.205C138.006 214.014 140.642 214.394 143.247 214.346C147.222 214.247 150.755 213.695 153.847 212.69C156.938 211.684 159.677 210.346 162.091 208.678C164.49 207.01 166.596 205.17 168.421 203.157C169.937 201.489 171.454 199.452 172.985 197.048C174.501 194.644 175.988 192.054 177.431 189.282C178.888 186.51 180.257 183.75 181.553 181.001C182.863 178.253 184.07 175.653 185.204 173.199C186.322 170.745 187.309 168.647 188.148 166.906C188.972 165.164 189.664 163.949 190.209 163.262C186.322 162.084 182.613 161.164 179.05 160.502C175.502 159.839 171.704 159.409 167.685 159.214C164.005 159.018 160.722 159.434 157.851 160.465C154.98 161.495 152.551 162.882 150.564 164.624C148.577 166.365 147.06 168.267 146 170.328C144.955 172.389 144.425 174.377 144.425 176.291C144.425 177.958 144.852 179.444 145.706 180.744C146.574 182.044 147.885 182.989 149.651 183.578C150.829 183.921 151.977 184.093 153.111 184.093C154.877 184.093 156.423 183.725 157.748 182.989C159.073 182.253 160.192 181.358 161.09 180.302C162.002 179.247 162.694 178.241 163.151 177.284C163.622 176.327 163.857 175.628 163.857 175.186V175.113C164.093 174.818 164.343 174.671 164.593 174.671C165.079 174.671 165.33 175.014 165.33 175.702C165.079 177.811 164.329 179.651 163.077 181.222C161.826 182.793 160.324 183.994 158.558 184.829C156.791 185.664 154.922 186.08 152.964 186.08C151.58 186.08 150.255 185.86 148.989 185.418C146.28 184.436 144.248 182.853 142.879 180.67C141.495 178.487 140.818 176.118 140.818 173.567C140.818 171.407 141.275 169.261 142.217 167.126C143.144 164.992 144.572 163.029 146.486 161.238C148.4 159.446 150.77 158.011 153.626 156.932C156.467 155.853 159.809 155.312 163.637 155.312H165.182C165.565 155.312 166.228 155.361 167.17 155.46C169.466 155.655 171.807 156.037 174.162 156.601C176.518 157.164 178.77 157.79 180.934 158.477C183.084 159.165 185.071 159.827 186.897 160.465C188.707 161.102 190.209 161.569 191.387 161.863C191.534 161.668 191.961 161.323 192.667 160.833C193.389 160.343 194.125 159.827 194.876 159.287C195.641 158.747 196.245 158.282 196.686 157.889C197.128 157.496 197.143 157.3 196.76 157.3H196.686C196.834 157.251 197.025 157.226 197.275 157.226C197.761 157.226 198.129 157.385 198.379 157.705C198.615 158.024 198.747 158.355 198.747 158.698C198.747 159.336 198.453 159.655 197.864 159.655C197.761 159.655 197.57 159.607 197.275 159.508C197.069 159.312 196.716 159.409 196.201 159.802C195.685 160.196 195.17 160.649 194.655 161.164C194.14 161.679 193.742 162.109 193.448 162.452C194.522 162.795 195.891 163.2 197.525 163.667C199.174 164.134 200.941 164.599 202.825 165.065C204.724 165.532 206.564 165.912 208.39 166.206C210.201 166.501 211.82 166.648 213.248 166.648C214.617 166.648 215.707 166.476 216.516 166.133C217.326 165.79 217.738 165.224 217.738 164.44C217.738 164.145 217.797 163.888 217.915 163.667C218.047 163.446 218.268 163.336 218.621 163.336C218.857 163.336 219.034 163.545 219.137 163.961C219.225 164.378 219.284 164.709 219.284 164.955C219.284 166.133 218.651 167.09 217.399 167.826C216.148 168.562 214.588 168.93 212.733 168.93C212.438 168.93 212.144 168.918 211.85 168.893C211.555 168.868 211.231 168.831 210.893 168.783C205.387 168.095 201.118 167.212 198.041 166.133C194.979 165.054 193.05 164.341 192.27 163.998C190.062 167.531 188.236 171.163 186.823 174.892C185.395 178.621 184.055 182.351 182.804 186.08C181.553 189.809 180.11 193.416 178.461 196.901C176.827 200.385 174.648 203.673 171.954 206.764C169.982 208.972 167.597 210.838 164.77 212.358C161.958 213.879 158.896 215.02 155.613 215.781C152.316 216.542 148.989 216.922 145.603 216.922Z" fill="#CCAD7A"/>
<path d="M180.713 210.592C182.774 206.371 184.924 201.943 187.147 197.305C189.384 192.668 191.681 187.994 194.036 183.283C196.392 178.572 198.718 174.082 201.029 169.813C201.853 168.341 202.634 167.188 203.34 166.354C204.062 165.519 205.004 165.102 206.182 165.102C206.623 165.102 207.138 165.176 207.727 165.323C208.316 165.47 208.876 165.495 209.42 165.397C208.773 166.084 207.904 167.285 206.8 169.003C205.696 170.721 204.474 172.782 203.119 175.186C201.78 177.59 200.352 180.18 198.85 182.952C197.363 185.724 195.891 188.521 194.434 191.343C192.991 194.165 191.651 196.802 190.43 199.256C191.401 197.98 192.417 196.778 193.448 195.649C194.478 194.52 195.479 193.54 196.465 192.705C197.54 191.723 198.909 190.693 200.543 189.613C202.192 188.534 203.841 187.601 205.475 186.816C207.124 186.032 208.434 185.639 209.42 185.639C209.759 185.639 210.009 185.664 210.156 185.712C210.156 185.712 209.877 186.202 209.347 187.184C208.802 188.166 208.125 189.418 207.315 190.938C206.505 192.459 205.681 194.104 204.813 195.87C203.959 197.637 203.208 199.318 202.575 200.912C201.927 202.507 201.515 203.82 201.324 204.85C201.176 205.635 201.103 206.297 201.103 206.838C201.103 207.622 201.25 208.151 201.544 208.42C201.839 208.69 202.148 208.825 202.501 208.825C203.326 208.825 204.238 208.31 205.225 207.279C206.196 206.249 207.153 204.986 208.095 203.488C209.023 201.991 209.877 200.532 210.627 199.109C211.393 197.685 211.967 196.581 212.365 195.797C212.659 195.256 212.953 194.987 213.248 194.987C213.542 194.987 213.69 195.183 213.69 195.576C213.69 195.771 213.616 196.066 213.469 196.459C212.821 197.735 212.1 199.171 211.29 200.765C210.48 202.359 209.582 203.882 208.566 205.329C207.565 206.776 206.461 207.967 205.254 208.899C204.062 209.83 202.766 210.297 201.397 210.297C200.411 210.297 199.41 209.954 198.379 209.267C197.349 208.579 196.833 207.328 196.833 205.513C196.833 204.972 196.878 204.397 196.981 203.783C197.069 203.169 197.246 202.47 197.496 201.685C197.79 200.703 198.276 199.612 198.968 198.41C199.645 197.207 200.528 195.698 201.618 193.883C202.104 193.048 202.354 192.386 202.354 191.895C202.354 191.306 202.06 191.012 201.471 191.012C200.97 191.012 200.308 191.258 199.483 191.748C198.644 192.238 197.584 193.098 196.318 194.324C195.082 195.502 193.565 197.22 191.755 199.477C189.929 201.734 188 204.899 185.939 208.972C185.586 209.61 185.218 209.941 184.791 209.966C184.379 209.991 183.82 210.028 183.142 210.076C182.701 210.125 182.259 210.162 181.817 210.187C181.376 210.212 181.008 210.346 180.713 210.592Z" fill="#CCAD7A"/>
<path d="M217.591 210.297C215.765 210.297 214.146 209.708 212.688 208.531C211.246 207.353 210.524 205.561 210.524 203.157C210.524 200.949 211.054 198.582 212.144 196.054C213.218 193.526 214.588 191.306 216.266 189.393C217.679 187.725 219.284 186.35 221.05 185.271C222.817 184.192 224.48 183.651 226.055 183.651C227.13 183.651 228.058 183.946 228.853 184.535C229.677 185.172 230.104 186.08 230.104 187.258C230.104 188.484 229.633 189.834 228.705 191.306C227.763 192.779 226.438 194.152 224.731 195.428C223.995 195.969 223.052 196.484 221.934 196.974C220.8 197.464 219.666 197.869 218.548 198.189C217.414 198.508 216.487 198.667 215.75 198.667C215.5 199.256 215.265 200.041 215.044 201.023C214.823 202.005 214.72 203.01 214.72 204.041C214.72 205.267 214.956 206.371 215.456 207.353C215.942 208.335 216.855 208.825 218.18 208.825C219.799 208.825 221.271 208.358 222.596 207.426C223.921 206.495 225.099 205.329 226.129 203.93C227.16 202.532 228.028 201.121 228.735 199.698C229.456 198.274 230.03 197.073 230.472 196.091C230.766 195.403 231.149 195.06 231.65 195.06C231.885 195.06 232.018 195.183 232.018 195.428C232.018 195.624 231.944 195.87 231.797 196.165C231.105 197.637 230.369 199.194 229.589 200.839C228.794 202.483 227.866 204.029 226.792 205.476C225.702 206.923 224.421 208.089 222.92 208.972C221.433 209.856 219.652 210.297 217.591 210.297ZM216.266 197.342C216.943 197.342 218.106 197.085 219.725 196.569C221.345 196.054 222.817 195.233 224.142 194.104C225.408 192.974 226.394 191.736 227.086 190.386C227.763 189.036 228.117 187.895 228.117 186.964C228.117 185.885 227.719 185.344 226.939 185.344C226.35 185.344 225.54 185.737 224.51 186.522C223.479 187.307 222.199 188.632 220.682 190.497C219.74 191.674 218.857 192.951 218.032 194.324C217.193 195.698 216.604 196.705 216.266 197.342Z" fill="#CCAD7A"/>
<path d="M258.737 212.873C257.648 212.873 256.544 212.8 255.425 212.653C252.334 212.26 250.067 211.353 248.609 209.929C247.166 208.506 246.445 206.96 246.445 205.292C246.445 203.477 247.255 201.821 248.874 200.323C250.493 198.826 252.775 198.078 255.72 198.078C257.677 198.078 259.812 198.471 262.123 199.256C263.389 199.698 264.921 200.434 266.687 201.464C268.454 202.495 270.485 203.574 272.796 204.703C275.24 202.348 277.493 199.428 279.524 195.944C281.571 192.459 283.602 188.718 285.634 184.719C287.68 180.719 289.888 176.707 292.258 172.684C294.643 168.66 297.396 164.881 300.547 161.348L304.816 156.564C302.99 156.269 301.106 156.037 299.148 155.864C297.175 155.692 295.144 155.607 293.039 155.607C290.389 155.607 287.665 155.742 284.868 156.012C282.071 156.281 279.274 156.711 276.477 157.3C271.854 158.282 267.953 159.851 264.773 162.011C261.579 164.17 259.164 166.512 257.515 169.04C255.881 171.568 255.057 173.935 255.057 176.143C255.057 177.664 255.484 179.026 256.338 180.228C257.206 181.431 258.487 182.301 260.21 182.842C261.284 183.185 262.388 183.357 263.522 183.357C265.186 183.357 266.658 183.014 267.938 182.326C269.204 181.639 270.294 180.792 271.177 179.787C272.06 178.781 272.708 177.811 273.12 176.879C273.547 175.947 273.724 175.26 273.68 174.818C273.68 174.475 273.915 174.303 274.416 174.303C274.902 174.303 275.152 174.671 275.152 175.407V175.481C275.152 177.493 274.534 179.235 273.312 180.707C272.075 182.179 270.544 183.308 268.704 184.093C266.864 184.878 265.009 185.271 263.154 185.271C261.976 185.271 260.74 185.075 259.474 184.682C256.824 183.75 254.851 182.388 253.585 180.597C252.304 178.805 251.671 176.831 251.671 174.671C251.671 172.659 252.216 170.586 253.32 168.451C254.424 166.317 256.058 164.281 258.222 162.342C260.372 160.403 263.066 158.723 266.275 157.3C269.499 155.876 273.209 154.871 277.434 154.282C279.686 153.939 281.924 153.693 284.132 153.546C286.34 153.399 288.475 153.325 290.536 153.325C293.377 153.325 296.16 153.46 298.883 153.73C301.607 153.999 304.168 154.404 306.582 154.944C307.26 154.355 307.966 153.84 308.673 153.399C309.394 152.957 310.042 152.614 310.631 152.368C310.969 152.221 311.264 152.122 311.514 152.074C311.75 152.025 311.956 152 312.103 152C312.397 152 312.545 152.099 312.545 152.294C312.545 152.54 312.176 152.932 311.44 153.472C310.94 153.815 310.484 154.196 310.042 154.613C309.6 155.03 309.32 155.337 309.232 155.533C314.237 156.81 318.301 158.563 321.407 160.796C324.528 163.029 326.088 165.666 326.088 168.709C326.088 170.28 325.573 171.996 324.543 173.861C323.453 175.677 321.966 177.137 320.053 178.241C318.139 179.345 316.092 180.155 313.943 180.67C311.779 181.185 309.762 181.492 307.907 181.59C309.527 182.08 311.308 182.805 313.237 183.762C315.18 184.719 316.976 185.884 318.61 187.258C320.259 188.632 321.348 190.251 321.893 192.116C322.231 193.294 322.408 194.497 322.408 195.723C322.408 198.324 321.657 200.68 320.156 202.789C318.669 204.899 316.681 206.702 314.193 208.199C311.72 209.697 309.011 210.849 306.067 211.659C303.123 212.469 300.193 212.873 297.308 212.873C296.218 212.873 295.114 212.8 293.995 212.653C289.285 212.064 285.398 211.328 282.321 210.444C279.259 209.561 276.565 208.579 274.269 207.5C269.499 211.082 264.332 212.873 258.737 212.873ZM296.277 210.739C299.31 210.739 302.092 210.272 304.595 209.34C307.098 208.408 309.262 207.181 311.102 205.66C312.942 204.139 314.37 202.446 315.371 200.581C316.387 198.716 316.887 196.876 316.887 195.06C316.887 193.342 316.372 191.674 315.342 190.055C314.311 188.436 312.692 187.086 310.484 186.007C308.57 185.075 306.597 184.302 304.551 183.688C302.519 183.074 300.767 182.535 299.295 182.069C297.823 181.602 296.954 181.124 296.719 180.633C296.719 180.044 296.969 179.64 297.484 179.419C298 179.198 298.677 179.088 299.516 179.088C300.488 179.088 301.665 179.161 303.049 179.308C304.418 179.456 305.861 179.529 307.392 179.529C308.952 179.529 310.572 179.173 312.206 178.462C313.855 177.751 315.356 176.794 316.74 175.591C318.109 174.388 319.228 173.064 320.082 171.616C320.95 170.169 321.377 168.684 321.377 167.163C321.377 165.79 320.906 164.44 319.979 163.115C319.037 161.79 317.491 160.637 315.342 159.655C313.178 158.673 310.852 157.889 308.349 157.3C305.89 160.686 303.432 164.476 300.988 168.672C298.53 172.868 296.071 177.112 293.627 181.406C291.169 185.7 288.696 189.761 286.193 193.588C283.69 197.416 281.188 200.703 278.685 203.452C278.096 204.089 277.625 204.568 277.287 204.887C276.933 205.206 276.477 205.635 275.888 206.175C278.185 207.107 280.82 207.99 283.764 208.825C286.708 209.66 290.065 210.249 293.848 210.592C294.231 210.64 294.643 210.677 295.055 210.702C295.482 210.727 295.88 210.739 296.277 210.739ZM257.265 210.592C260.004 210.739 262.521 210.408 264.803 209.598C267.085 208.788 269.204 207.647 271.177 206.175C269.455 205.34 267.703 204.47 265.907 203.562C264.126 202.654 262.212 201.832 260.21 201.096C258.782 200.606 257.486 200.36 256.308 200.36C254.483 200.36 253.114 200.839 252.186 201.795C251.244 202.752 250.788 203.845 250.788 205.071C250.788 206.347 251.318 207.562 252.407 208.715C253.482 209.867 255.101 210.493 257.265 210.592Z" fill="#CCAD7A"/>
<path d="M332.051 210.297C330.225 210.297 328.606 209.708 327.148 208.531C325.706 207.353 324.984 205.561 324.984 203.157C324.984 200.949 325.514 198.582 326.604 196.054C327.678 193.526 329.048 191.306 330.726 189.393C332.139 187.725 333.744 186.35 335.51 185.271C337.277 184.192 338.94 183.651 340.515 183.651C341.59 183.651 342.518 183.946 343.313 184.535C344.137 185.172 344.564 186.08 344.564 187.258C344.564 188.484 344.093 189.834 343.165 191.306C342.223 192.779 340.898 194.152 339.191 195.428C338.455 195.969 337.512 196.484 336.394 196.974C335.26 197.464 334.126 197.869 333.008 198.189C331.874 198.508 330.946 198.667 330.21 198.667C329.96 199.256 329.725 200.041 329.504 201.023C329.283 202.005 329.18 203.01 329.18 204.041C329.18 205.267 329.416 206.371 329.916 207.353C330.402 208.335 331.315 208.825 332.639 208.825C334.259 208.825 335.731 208.358 337.056 207.426C338.381 206.495 339.559 205.329 340.589 203.93C341.62 202.532 342.488 201.121 343.195 199.698C343.916 198.274 344.49 197.073 344.932 196.091C345.226 195.403 345.609 195.06 346.11 195.06C346.345 195.06 346.478 195.183 346.478 195.428C346.478 195.624 346.404 195.87 346.257 196.165C345.565 197.637 344.829 199.194 344.049 200.839C343.254 202.483 342.326 204.029 341.252 205.476C340.162 206.923 338.881 208.089 337.38 208.972C335.893 209.856 334.112 210.297 332.051 210.297ZM330.726 197.342C331.403 197.342 332.566 197.085 334.185 196.569C335.805 196.054 337.277 195.233 338.602 194.104C339.868 192.974 340.854 191.736 341.546 190.386C342.223 189.036 342.577 187.895 342.577 186.964C342.577 185.885 342.179 185.344 341.399 185.344C340.81 185.344 340 185.737 338.97 186.522C337.939 187.307 336.659 188.632 335.142 190.497C334.2 191.674 333.317 192.951 332.492 194.324C331.653 195.698 331.064 196.705 330.726 197.342Z" fill="#CCAD7A"/>
<path d="M348.76 210.224C346.699 210.224 345.3 209.672 344.564 208.567C343.828 207.463 343.46 206.15 343.46 204.629C343.46 203.059 343.681 201.439 344.122 199.771C344.564 198.103 344.947 196.705 345.3 195.576C346.08 192.827 347.081 189.896 348.274 186.78C349.481 183.663 350.806 180.597 352.249 177.579C353.706 174.561 355.134 171.849 356.562 169.445C357.681 167.531 358.903 166.096 360.198 165.139C361.508 164.182 362.642 163.704 363.628 163.704C364.408 163.704 365.042 163.986 365.498 164.55C365.969 165.114 366.205 165.96 366.205 167.09C366.205 167.874 366.072 168.808 365.792 169.887C365.527 170.966 365.071 172.194 364.438 173.567C362.715 177.395 360.669 181.222 358.284 185.05C355.914 188.877 352.896 192.459 349.275 195.797C349.069 196.434 348.818 197.183 348.495 198.042C348.185 198.9 347.891 199.771 347.655 200.655C347.361 201.98 347.214 203.109 347.214 204.041C347.214 205.561 347.523 206.702 348.126 207.463C348.745 208.224 349.496 208.604 350.379 208.604C351.159 208.604 351.998 208.322 352.882 207.758C353.765 207.194 354.589 206.371 355.384 205.292C356.562 203.574 357.622 201.821 358.579 200.029C359.536 198.237 360.257 196.852 360.757 195.87C361.052 195.33 361.361 195.06 361.714 195.06C361.95 195.06 362.082 195.208 362.082 195.502C362.082 195.748 362.009 196.017 361.862 196.312C361.42 197.294 360.846 198.557 360.125 200.103C359.418 201.648 358.535 203.194 357.475 204.74C356.429 206.286 355.178 207.585 353.721 208.641C352.278 209.697 350.615 210.224 348.76 210.224ZM349.864 193.441C351.63 191.626 353.338 189.528 355.016 187.148C356.68 184.767 358.24 182.29 359.683 179.713C361.14 177.137 362.347 174.696 363.334 172.389C363.672 171.653 363.952 170.844 364.173 169.96C364.394 169.077 364.512 168.341 364.512 167.752C364.512 167.065 364.335 166.722 363.996 166.722C363.79 166.722 363.496 166.906 363.113 167.274C362.716 167.642 362.2 168.267 361.567 169.151C360.625 170.377 359.609 172.046 358.505 174.156C357.401 176.265 356.282 178.524 355.163 180.928C354.03 183.332 352.999 185.65 352.072 187.884C351.13 190.117 350.394 191.969 349.864 193.441Z" fill="#CCAD7A"/>
<path d="M363.408 210.518C361.877 210.518 360.831 210.125 360.242 209.34C359.654 208.556 359.359 207.549 359.359 206.322C359.359 205.046 359.595 203.599 360.051 201.98C360.522 200.36 361.023 198.766 361.567 197.195C361.214 197.685 360.876 197.931 360.537 197.931C360.331 197.931 360.184 197.832 360.095 197.637C359.992 197.441 360.022 197.22 360.169 196.974C360.404 196.533 360.655 196.103 360.905 195.686C361.14 195.269 361.361 194.84 361.567 194.398C361.95 193.563 362.289 192.57 362.554 191.417C362.833 190.264 362.966 189.197 362.966 188.215C362.966 187.43 362.863 186.768 362.671 186.228C362.465 185.687 362.171 185.369 361.788 185.271C361.788 185.271 362.039 185.222 362.554 185.123C363.069 185.025 363.628 184.928 364.217 184.829C364.806 184.73 365.189 184.682 365.395 184.682C365.689 184.633 365.954 184.596 366.205 184.571C366.44 184.546 366.661 184.535 366.867 184.535C367.353 184.535 367.692 184.73 367.853 185.123C368.03 185.516 368.089 186.375 368.045 187.7C367.986 188.926 367.75 190.411 367.309 192.153C366.867 193.894 366.396 195.403 365.91 196.68C365.262 198.348 364.674 200.041 364.144 201.759C363.599 203.477 363.334 204.899 363.334 206.028C363.334 207.01 363.599 207.647 364.144 207.942C364.526 208.089 364.88 208.163 365.174 208.163C366.293 208.163 367.412 207.599 368.516 206.47C369.62 205.34 370.695 203.832 371.725 201.943C372.756 200.054 373.713 198.03 374.596 195.87C374.242 195.183 374.007 194.423 373.86 193.588C373.713 192.754 373.639 191.944 373.639 191.159C373.639 190.227 373.757 189.344 374.007 188.509C374.596 186.547 375.42 185.135 376.465 184.277C377.525 183.419 378.423 182.989 379.159 182.989C380.087 182.989 380.558 183.405 380.558 184.24C380.558 184.436 380.484 184.73 380.337 185.123C380.234 185.222 380.19 185.369 380.19 185.565C379.837 186.596 379.336 188.093 378.674 190.055C378.011 192.017 377.202 194.165 376.245 196.496C375.288 198.826 374.169 201.059 372.859 203.194C371.563 205.329 370.121 207.084 368.56 208.457C366.985 209.831 365.262 210.518 363.408 210.518Z" fill="#CCAD7A"/>
<path d="M385.416 210.297C383.591 210.297 381.971 209.708 380.514 208.531C379.071 207.353 378.35 205.561 378.35 203.157C378.35 200.949 378.88 198.582 379.969 196.054C381.044 193.526 382.413 191.306 384.091 189.393C385.505 187.725 387.109 186.35 388.876 185.271C390.642 184.192 392.306 183.651 393.881 183.651C394.956 183.651 395.883 183.946 396.678 184.535C397.502 185.172 397.929 186.08 397.929 187.258C397.929 188.484 397.458 189.834 396.531 191.306C395.589 192.779 394.264 194.152 392.556 195.428C391.82 195.969 390.878 196.484 389.759 196.974C388.625 197.464 387.492 197.869 386.373 198.189C385.239 198.508 384.312 198.667 383.576 198.667C383.326 199.256 383.09 200.041 382.869 201.023C382.648 202.005 382.545 203.01 382.545 204.041C382.545 205.267 382.781 206.371 383.282 207.353C383.767 208.335 384.68 208.825 386.005 208.825C387.624 208.825 389.096 208.358 390.421 207.426C391.746 206.495 392.924 205.329 393.955 203.93C394.985 202.532 395.854 201.121 396.56 199.698C397.282 198.274 397.856 197.073 398.297 196.091C398.592 195.403 398.975 195.06 399.475 195.06C399.711 195.06 399.843 195.183 399.843 195.428C399.843 195.624 399.77 195.87 399.622 196.165C398.93 197.637 398.194 199.194 397.414 200.839C396.619 202.483 395.692 204.029 394.617 205.476C393.528 206.923 392.247 208.089 390.745 208.972C389.258 209.856 387.477 210.297 385.416 210.297ZM384.091 197.342C384.768 197.342 385.931 197.085 387.551 196.569C389.17 196.054 390.642 195.233 391.967 194.104C393.233 192.974 394.22 191.736 394.912 190.386C395.589 189.036 395.942 187.895 395.942 186.964C395.942 185.885 395.545 185.344 394.764 185.344C394.175 185.344 393.366 185.737 392.335 186.522C391.305 187.307 390.024 188.632 388.508 190.497C387.566 191.674 386.682 192.951 385.858 194.324C385.019 195.698 384.43 196.705 384.091 197.342Z" fill="#CCAD7A"/>
<path d="M414.712 210.003C413.387 210.003 412.283 209.34 411.4 208.015C411.149 207.622 410.929 207.107 410.737 206.47C410.531 205.832 410.443 205.12 410.443 204.335C410.443 203.893 410.457 203.44 410.516 202.973C410.561 202.507 410.664 202.028 410.811 201.538C410.119 202.617 409.324 203.808 408.411 205.108C407.513 206.408 406.483 207.537 405.32 208.494C404.171 209.451 402.876 209.929 401.463 209.929C400.962 209.929 400.447 209.856 399.917 209.708C398.592 209.315 397.65 208.629 397.076 207.647C396.516 206.665 396.237 205.488 396.237 204.114C396.237 202.593 396.546 200.924 397.149 199.109C397.768 197.294 398.548 195.527 399.505 193.809C400.462 192.091 401.463 190.619 402.493 189.393C403.965 187.675 405.658 186.301 407.572 185.271C409.486 184.24 411.414 183.725 413.387 183.725C415.154 183.725 416.817 184.192 418.392 185.123C419.128 183.75 419.909 182.216 420.748 180.523C421.572 178.83 422.411 177.149 423.251 175.481C424.075 173.813 424.811 172.279 425.459 170.88C426.092 169.482 426.578 168.414 426.931 167.678C427.667 165.96 428.359 164.87 429.021 164.403C429.684 163.936 430.479 163.704 431.421 163.704C431.951 163.704 432.555 163.765 433.217 163.888C433.879 164.01 434.527 164.047 435.175 163.998C434.88 164.292 434.277 165.139 433.364 166.538C432.466 167.936 431.391 169.714 430.17 171.874C428.933 174.034 427.623 176.401 426.224 178.977C424.826 181.553 423.457 184.155 422.102 186.78C420.763 189.404 419.511 191.884 418.348 194.214C417.2 196.544 416.272 198.545 415.595 200.213C415.389 200.606 415.109 201.402 414.741 202.605C414.373 203.808 414.197 204.85 414.197 205.734C414.197 206.371 414.344 206.923 414.638 207.39C414.933 207.856 415.419 208.089 416.111 208.089C417.038 208.089 417.98 207.611 418.937 206.654C419.894 205.697 420.821 204.519 421.705 203.12C422.588 201.722 423.368 200.348 424.06 198.998C424.737 197.649 425.253 196.581 425.606 195.797C425.841 195.256 426.136 194.987 426.489 194.987C426.784 194.987 426.931 195.208 426.931 195.649V195.907C426.931 196.029 426.872 196.165 426.784 196.312C426.342 197.342 425.738 198.619 424.973 200.139C424.222 201.66 423.324 203.182 422.294 204.703C421.263 206.224 420.1 207.488 418.834 208.494C417.553 209.499 416.184 210.003 414.712 210.003ZM401.978 207.795C402.655 207.795 403.524 207.415 404.554 206.654C405.585 205.893 406.689 204.678 407.866 203.01C409.236 201.048 410.811 198.594 412.577 195.649C414.344 192.705 416.081 189.588 417.803 186.301C417.156 185.712 416.42 185.418 415.595 185.418C414.211 185.418 412.68 186.055 410.987 187.332C409.294 188.608 407.66 190.227 406.056 192.19C404.466 194.152 403.126 196.14 402.051 198.152C401.315 199.526 400.786 200.777 400.462 201.906C400.152 203.035 399.99 204.016 399.99 204.85C399.99 206.813 400.653 207.795 401.978 207.795Z" fill="#CCAD7A"/>
<path d="M430.832 210.297C429.007 210.297 427.387 209.708 425.93 208.531C424.487 207.353 423.766 205.561 423.766 203.157C423.766 200.949 424.296 198.582 425.385 196.054C426.46 193.526 427.829 191.306 429.507 189.393C430.92 187.725 432.525 186.35 434.292 185.271C436.058 184.192 437.722 183.651 439.297 183.651C440.372 183.651 441.299 183.946 442.094 184.535C442.918 185.172 443.345 186.08 443.345 187.258C443.345 188.484 442.874 189.834 441.947 191.306C441.005 192.779 439.68 194.152 437.972 195.428C437.236 195.969 436.294 196.484 435.175 196.974C434.041 197.464 432.908 197.869 431.789 198.189C430.655 198.508 429.728 198.667 428.992 198.667C428.742 199.256 428.506 200.041 428.285 201.023C428.064 202.005 427.961 203.01 427.961 204.041C427.961 205.267 428.197 206.371 428.697 207.353C429.183 208.335 430.096 208.825 431.421 208.825C433.04 208.825 434.512 208.358 435.837 207.426C437.162 206.495 438.34 205.329 439.37 203.93C440.401 202.532 441.27 201.121 441.976 199.698C442.698 198.274 443.272 197.073 443.713 196.091C444.008 195.403 444.391 195.06 444.891 195.06C445.127 195.06 445.259 195.183 445.259 195.428C445.259 195.624 445.185 195.87 445.038 196.165C444.346 197.637 443.61 199.194 442.83 200.839C442.035 202.483 441.108 204.029 440.033 205.476C438.944 206.923 437.663 208.089 436.161 208.972C434.674 209.856 432.893 210.297 430.832 210.297ZM429.507 197.342C430.184 197.342 431.347 197.085 432.967 196.569C434.586 196.054 436.058 195.233 437.383 194.104C438.649 192.974 439.636 191.736 440.327 190.386C441.005 189.036 441.358 187.895 441.358 186.964C441.358 185.885 440.96 185.344 440.18 185.344C439.591 185.344 438.782 185.737 437.751 186.522C436.721 187.307 435.44 188.632 433.924 190.497C432.981 191.674 432.098 192.951 431.274 194.324C430.434 195.698 429.846 196.705 429.507 197.342Z" fill="#CCAD7A"/>
<path d="M452.62 210.076C451.677 210.076 450.75 209.697 449.822 208.935C448.88 208.174 448.424 206.936 448.424 205.218C448.424 203.893 448.733 202.373 449.381 200.655C449.97 198.987 450.765 197.367 451.766 195.797C452.782 194.226 453.503 192.951 453.945 191.969C454.092 191.576 454.165 191.233 454.165 190.938C454.165 190.055 453.606 189.418 452.502 189.025C451.398 188.632 449.97 188.411 448.203 188.362L447.32 190.791C446.775 192.362 446.024 194.202 445.067 196.312C444.11 198.421 443.065 200.459 441.902 202.421C440.754 204.384 439.562 205.954 438.34 207.132C438.237 207.231 438.119 207.279 437.972 207.279C437.766 207.279 437.633 207.157 437.559 206.911C437.486 206.665 437.604 206.371 437.898 206.028C439.812 203.477 441.52 200.643 443.051 197.526C444.567 194.41 445.862 191.233 446.908 187.994C447.968 184.755 448.733 181.763 449.234 179.014C449.381 178.229 449.646 177.652 450.043 177.284C450.426 176.916 450.853 176.732 451.295 176.732C451.928 176.732 452.517 177.038 453.061 177.652C453.591 178.266 453.871 179.136 453.871 180.265C453.871 180.461 453.856 180.682 453.827 180.928C453.812 181.174 453.768 181.418 453.724 181.664C453.518 182.694 452.944 183.663 451.987 184.571C451.03 185.48 450.264 186.154 449.675 186.596C450.161 186.644 450.676 186.681 451.221 186.706C451.751 186.731 452.34 186.743 452.988 186.743C455.284 186.743 457.566 186.596 459.833 186.301C459.921 186.596 459.98 186.816 459.98 186.964C459.98 187.601 459.789 188.411 459.421 189.393C459.053 190.375 458.67 191.258 458.287 192.043C458.081 192.484 457.699 193.282 457.11 194.435C456.521 195.587 455.873 196.889 455.196 198.336C454.504 199.783 453.93 201.207 453.459 202.605C453.002 204.004 452.767 205.193 452.767 206.175C452.767 207.452 453.253 208.089 454.239 208.089C454.975 208.089 455.785 207.611 456.668 206.654C457.551 205.697 458.42 204.519 459.274 203.12C460.142 201.722 460.923 200.348 461.629 198.998C462.351 197.648 462.895 196.581 463.293 195.797C463.484 195.306 463.749 195.06 464.102 195.06C464.294 195.06 464.397 195.233 464.397 195.576C464.397 195.772 464.323 196.066 464.176 196.459C463.631 197.588 462.998 198.863 462.262 200.287C461.526 201.71 460.702 203.109 459.789 204.482C458.891 205.856 457.905 207.047 456.845 208.052C455.799 209.058 454.651 209.708 453.429 210.003C453.282 210.051 453.002 210.076 452.62 210.076Z" fill="#CCAD7A"/>
<path d="M468.298 210.297C466.473 210.297 464.853 209.708 463.396 208.531C461.953 207.353 461.232 205.561 461.232 203.157C461.232 200.949 461.762 198.582 462.851 196.054C463.926 193.526 465.295 191.306 466.973 189.393C468.386 187.725 469.991 186.35 471.758 185.271C473.524 184.192 475.188 183.651 476.763 183.651C477.838 183.651 478.765 183.946 479.56 184.535C480.385 185.172 480.812 186.08 480.812 187.258C480.812 188.484 480.34 189.834 479.413 191.306C478.471 192.779 477.146 194.152 475.438 195.428C474.702 195.969 473.76 196.484 472.641 196.974C471.507 197.464 470.374 197.869 469.255 198.189C468.122 198.508 467.194 198.667 466.458 198.667C466.208 199.256 465.972 200.041 465.751 201.023C465.531 202.005 465.427 203.01 465.427 204.041C465.427 205.267 465.663 206.371 466.164 207.353C466.649 208.335 467.562 208.825 468.887 208.825C470.506 208.825 471.979 208.358 473.304 207.426C474.628 206.495 475.806 205.329 476.837 203.93C477.867 202.532 478.736 201.121 479.442 199.698C480.164 198.274 480.738 197.073 481.18 196.091C481.474 195.403 481.857 195.06 482.357 195.06C482.593 195.06 482.725 195.183 482.725 195.428C482.725 195.624 482.652 195.87 482.505 196.165C481.813 197.637 481.077 199.194 480.296 200.839C479.501 202.483 478.574 204.029 477.499 205.476C476.41 206.923 475.129 208.089 473.627 208.972C472.14 209.856 470.359 210.297 468.298 210.297ZM466.973 197.342C467.65 197.342 468.813 197.085 470.433 196.569C472.052 196.054 473.524 195.233 474.849 194.104C476.115 192.974 477.102 191.736 477.794 190.386C478.471 189.036 478.824 187.895 478.824 186.964C478.824 185.885 478.427 185.344 477.646 185.344C477.057 185.344 476.248 185.737 475.217 186.522C474.187 187.307 472.906 188.632 471.39 190.497C470.447 191.674 469.564 192.951 468.74 194.324C467.901 195.698 467.312 196.705 466.973 197.342Z" fill="#CCAD7A"/>
<path d="M138.927 247.006C139.381 247.006 139.775 246.935 140.112 246.795C140.449 246.655 140.758 246.457 141.038 246.199L141.316 246.775C140.959 247.148 140.577 247.421 140.164 247.595C139.752 247.77 139.294 247.857 138.791 247.857C138.018 247.857 137.334 247.676 136.739 247.315C136.147 246.954 135.684 246.439 135.349 245.77C135.017 245.1 134.851 244.307 134.851 243.389C134.851 242.482 135.02 241.694 135.359 241.026C135.696 240.358 136.172 239.841 136.786 239.473C137.401 239.106 138.115 238.922 138.927 238.922C139.433 238.922 139.903 238.975 140.342 239.082C140.781 239.189 141.184 239.346 141.551 239.553C141.616 239.592 141.65 239.627 141.658 239.657C141.665 239.687 141.658 239.728 141.635 239.778L141.38 240.282C141.355 240.332 141.326 240.366 141.293 240.384C141.261 240.402 141.214 240.395 141.155 240.364C140.927 240.239 140.691 240.133 140.449 240.046C140.208 239.958 139.96 239.891 139.71 239.844C139.457 239.797 139.197 239.773 138.927 239.773C138.318 239.773 137.783 239.923 137.324 240.222C136.868 240.522 136.511 240.942 136.256 241.482C136.003 242.023 135.877 242.658 135.877 243.389C135.877 244.112 136.003 244.745 136.256 245.29C136.511 245.835 136.868 246.257 137.324 246.556C137.783 246.856 138.318 247.006 138.927 247.006ZM140.89 247.606V243.94C140.89 243.857 140.929 243.816 141.009 243.816H141.69C141.769 243.816 141.809 243.857 141.809 243.94V247.606C141.809 247.688 141.769 247.729 141.69 247.729H141.009C140.929 247.729 140.89 247.688 140.89 247.606Z" fill="#403F41"/>
<path d="M146.735 244.657V239.173C146.735 239.091 146.772 239.05 146.851 239.05H147.592C147.671 239.05 147.711 239.091 147.711 239.173V244.728C147.711 245.435 147.921 245.992 148.348 246.398C148.771 246.803 149.334 247.006 150.035 247.006C150.734 247.006 151.296 246.803 151.722 246.398C152.146 245.992 152.359 245.435 152.359 244.728V239.173C152.359 239.091 152.399 239.05 152.476 239.05H153.216C153.296 239.05 153.335 239.091 153.335 239.173V244.657C153.335 245.303 153.199 245.866 152.931 246.348C152.661 246.828 152.282 247.2 151.789 247.463C151.296 247.725 150.711 247.857 150.035 247.857C149.356 247.857 148.771 247.725 148.278 247.463C147.788 247.2 147.406 246.828 147.136 246.348C146.868 245.866 146.735 245.303 146.735 244.657Z" fill="#403F41"/>
<path d="M158.4 247.606V239.173C158.4 239.091 158.437 239.05 158.516 239.05H159.257C159.336 239.05 159.376 239.091 159.376 239.173V247.606C159.376 247.688 159.336 247.729 159.257 247.729H158.516C158.437 247.729 158.4 247.688 158.4 247.606ZM162.793 242.73C162.875 242.73 162.917 242.769 162.917 242.848V243.443C162.917 243.522 162.875 243.561 162.793 243.561H158.789V242.73H162.793ZM164.071 239.05C164.153 239.05 164.193 239.089 164.193 239.168V239.763C164.193 239.841 164.153 239.881 164.071 239.881H158.789V239.05H164.071ZM164.071 246.898C164.153 246.898 164.193 246.937 164.193 247.016V247.611C164.193 247.69 164.153 247.729 164.071 247.729H158.789V246.898H164.071Z" fill="#403F41"/>
<path d="M171.346 247.006C171.777 247.006 172.134 246.939 172.419 246.807C172.704 246.675 172.917 246.498 173.058 246.276C173.199 246.055 173.271 245.815 173.271 245.558C173.271 245.248 173.207 244.984 173.078 244.767C172.949 244.55 172.716 244.349 172.379 244.165C172.045 243.98 171.562 243.787 170.935 243.586C170.268 243.373 169.748 243.148 169.369 242.913C168.992 242.676 168.727 242.415 168.576 242.128C168.422 241.84 168.348 241.515 168.348 241.152C168.348 240.773 168.445 240.414 168.638 240.073C168.831 239.732 169.138 239.455 169.557 239.242C169.978 239.029 170.518 238.922 171.178 238.922C171.658 238.922 172.139 238.988 172.617 239.12C173.095 239.251 173.522 239.424 173.893 239.638C173.953 239.675 173.985 239.707 173.992 239.736C174 239.765 173.992 239.804 173.967 239.855L173.727 240.374C173.7 240.432 173.67 240.47 173.638 240.488C173.606 240.506 173.554 240.496 173.479 240.457C173.284 240.344 173.058 240.234 172.805 240.129C172.55 240.023 172.283 239.938 172 239.872C171.72 239.806 171.433 239.773 171.145 239.773C170.704 239.773 170.352 239.836 170.09 239.963C169.827 240.089 169.639 240.252 169.525 240.452C169.411 240.652 169.354 240.859 169.354 241.072C169.354 241.326 169.421 241.544 169.552 241.725C169.681 241.907 169.904 242.072 170.216 242.222C170.526 242.371 170.952 242.534 171.487 242.711C172.176 242.935 172.724 243.169 173.13 243.416C173.539 243.662 173.831 243.947 174.01 244.269C174.188 244.592 174.277 244.985 174.277 245.448C174.277 245.906 174.163 246.316 173.933 246.679C173.7 247.042 173.365 247.329 172.924 247.54C172.483 247.751 171.953 247.857 171.329 247.857C170.749 247.857 170.209 247.794 169.706 247.669C169.2 247.545 168.752 247.374 168.355 247.157C168.279 247.115 168.236 247.076 168.229 247.04C168.219 247.005 168.227 246.959 168.254 246.904L168.502 246.389C168.556 246.289 168.63 246.264 168.725 246.314C169.101 246.522 169.508 246.689 169.949 246.816C170.392 246.942 170.855 247.006 171.346 247.006Z" fill="#403F41"/>
<path d="M181.398 247.606V239.173C181.398 239.091 181.438 239.05 181.517 239.05H182.255C182.335 239.05 182.374 239.091 182.374 239.173V247.606C182.374 247.688 182.335 247.729 182.255 247.729H181.517C181.438 247.729 181.398 247.688 181.398 247.606ZM178.442 239.881C178.36 239.881 178.318 239.841 178.318 239.763V239.168C178.318 239.089 178.36 239.05 178.442 239.05H185.335C185.417 239.05 185.457 239.089 185.457 239.168V239.763C185.457 239.841 185.417 239.881 185.335 239.881H178.442Z" fill="#403F41"/>
<path d="M190.065 247.606V239.173C190.065 239.091 190.105 239.05 190.184 239.05H190.923C191.002 239.05 191.042 239.091 191.042 239.173V247.606C191.042 247.688 191.002 247.729 190.923 247.729H190.184C190.105 247.729 190.065 247.688 190.065 247.606ZM196.114 247.606V239.173C196.114 239.091 196.153 239.05 196.233 239.05H196.971C197.05 239.05 197.09 239.091 197.09 239.173V247.606C197.09 247.688 197.05 247.729 196.971 247.729H196.233C196.153 247.729 196.114 247.688 196.114 247.606ZM190.457 243.513V242.682H196.622V243.513H190.457Z" fill="#403F41"/>
<path d="M205.92 247.857C205.128 247.857 204.431 247.673 203.839 247.305C203.244 246.938 202.781 246.419 202.452 245.748C202.122 245.077 201.956 244.291 201.956 243.389C201.956 242.482 202.122 241.694 202.452 241.026C202.781 240.358 203.244 239.841 203.839 239.473C204.431 239.106 205.128 238.922 205.92 238.922C206.716 238.922 207.412 239.106 208.004 239.473C208.596 239.841 209.06 240.358 209.389 241.026C209.719 241.694 209.885 242.482 209.885 243.389C209.885 244.291 209.719 245.077 209.389 245.748C209.06 246.419 208.596 246.938 208.004 247.305C207.412 247.673 206.716 247.857 205.92 247.857ZM205.92 247.006C206.513 247.006 207.03 246.856 207.469 246.556C207.91 246.257 208.252 245.835 208.495 245.29C208.738 244.745 208.859 244.112 208.859 243.389C208.859 242.658 208.738 242.023 208.495 241.482C208.252 240.942 207.91 240.522 207.469 240.222C207.03 239.923 206.513 239.773 205.92 239.773C205.333 239.773 204.818 239.923 204.374 240.222C203.933 240.522 203.589 240.942 203.346 241.482C203.103 242.023 202.979 242.658 202.979 243.389C202.979 244.112 203.103 244.745 203.346 245.29C203.589 245.835 203.933 246.257 204.374 246.556C204.818 246.856 205.333 247.006 205.92 247.006Z" fill="#403F41"/>
<path d="M214.597 244.657V239.173C214.597 239.091 214.637 239.05 214.716 239.05H215.457C215.536 239.05 215.576 239.091 215.576 239.173V244.728C215.576 245.435 215.787 245.992 216.213 246.398C216.637 246.803 217.199 247.006 217.9 247.006C218.599 247.006 219.161 246.803 219.588 246.398C220.011 245.992 220.224 245.435 220.224 244.728V239.173C220.224 239.091 220.264 239.05 220.341 239.05H221.082C221.161 239.05 221.201 239.091 221.201 239.173V244.657C221.201 245.303 221.064 245.866 220.797 246.348C220.527 246.828 220.148 247.2 219.654 247.463C219.161 247.725 218.577 247.857 217.9 247.857C217.221 247.857 216.637 247.725 216.144 247.463C215.653 247.2 215.271 246.828 215.001 246.348C214.734 245.866 214.597 245.303 214.597 244.657Z" fill="#403F41"/>
<path d="M228.731 247.006C229.162 247.006 229.521 246.939 229.806 246.807C230.088 246.675 230.304 246.498 230.445 246.276C230.586 246.055 230.656 245.815 230.656 245.558C230.656 245.248 230.591 244.984 230.463 244.767C230.334 244.55 230.103 244.349 229.766 244.165C229.429 243.98 228.949 243.787 228.319 243.586C227.655 243.373 227.132 243.148 226.756 242.913C226.379 242.676 226.114 242.415 225.961 242.128C225.809 241.84 225.733 241.515 225.733 241.152C225.733 240.773 225.832 240.414 226.025 240.073C226.218 239.732 226.525 239.455 226.944 239.242C227.363 239.029 227.903 238.922 228.562 238.922C229.043 238.922 229.524 238.988 230.004 239.12C230.482 239.251 230.909 239.424 231.28 239.638C231.34 239.675 231.372 239.707 231.377 239.736C231.384 239.765 231.377 239.804 231.355 239.855L231.114 240.374C231.084 240.432 231.057 240.47 231.025 240.488C230.993 240.506 230.941 240.496 230.864 240.457C230.671 240.344 230.445 240.234 230.19 240.129C229.937 240.023 229.667 239.938 229.387 239.872C229.105 239.806 228.82 239.773 228.532 239.773C228.091 239.773 227.74 239.836 227.477 239.963C227.214 240.089 227.026 240.252 226.912 240.452C226.798 240.652 226.741 240.859 226.741 241.072C226.741 241.326 226.805 241.544 226.937 241.725C227.068 241.907 227.289 242.072 227.601 242.222C227.913 242.371 228.337 242.534 228.874 242.711C229.563 242.935 230.111 243.169 230.517 243.416C230.923 243.662 231.218 243.947 231.397 244.269C231.575 244.592 231.664 244.985 231.664 245.448C231.664 245.906 231.548 246.316 231.317 246.679C231.087 247.042 230.752 247.329 230.311 247.54C229.87 247.751 229.338 247.857 228.716 247.857C228.136 247.857 227.596 247.794 227.09 247.669C226.587 247.545 226.139 247.374 225.74 247.157C225.666 247.115 225.624 247.076 225.614 247.04C225.604 247.005 225.614 246.959 225.641 246.904L225.886 246.389C225.943 246.289 226.017 246.264 226.112 246.314C226.486 246.522 226.895 246.689 227.336 246.816C227.777 246.942 228.243 247.006 228.731 247.006Z" fill="#403F41"/>
<path d="M236.793 247.606V239.173C236.793 239.091 236.833 239.05 236.912 239.05H237.653C237.732 239.05 237.769 239.091 237.769 239.173V247.606C237.769 247.688 237.732 247.729 237.653 247.729H236.912C236.833 247.729 236.793 247.688 236.793 247.606ZM241.189 242.73C241.271 242.73 241.313 242.769 241.313 242.848V243.443C241.313 243.522 241.271 243.561 241.189 243.561H237.185V242.73H241.189ZM242.465 239.05C242.549 239.05 242.589 239.089 242.589 239.168V239.763C242.589 239.841 242.549 239.881 242.465 239.881H237.185V239.05H242.465ZM242.465 246.898C242.549 246.898 242.589 246.937 242.589 247.016V247.611C242.589 247.69 242.549 247.729 242.465 247.729H237.185V246.898H242.465Z" fill="#403F41"/>
<path d="M253.548 241.8L255.448 243.701L253.548 245.602L251.647 243.701L253.548 241.8Z" fill="#403F41"/>
<path d="M263.516 247.606V239.173C263.516 239.091 263.555 239.05 263.635 239.05H264.375C264.452 239.05 264.492 239.091 264.492 239.173V247.606C264.492 247.688 264.452 247.729 264.375 247.729H263.635C263.555 247.729 263.516 247.688 263.516 247.606ZM268.04 243.144C268.122 243.144 268.161 243.183 268.161 243.262V243.856C268.161 243.935 268.122 243.975 268.04 243.975H263.907V243.144H268.04ZM268.892 239.05C268.974 239.05 269.016 239.089 269.016 239.168V239.763C269.016 239.841 268.974 239.881 268.892 239.881H263.907V239.05H268.892Z" fill="#403F41"/>
<path d="M273.422 247.606V239.173C273.422 239.091 273.461 239.05 273.538 239.05H274.279C274.358 239.05 274.398 239.091 274.398 239.173V247.606C274.398 247.688 274.358 247.729 274.279 247.729H273.538C273.461 247.729 273.422 247.688 273.422 247.606Z" fill="#403F41"/>
<path d="M282.399 247.006C282.83 247.006 283.186 246.939 283.471 246.807C283.756 246.675 283.969 246.498 284.111 246.276C284.252 246.055 284.324 245.815 284.324 245.558C284.324 245.248 284.259 244.984 284.13 244.767C284.002 244.55 283.769 244.349 283.432 244.165C283.097 243.98 282.614 243.787 281.987 243.586C281.321 243.373 280.8 243.148 280.421 242.913C280.045 242.676 279.78 242.415 279.628 242.128C279.475 241.84 279.4 241.515 279.4 241.152C279.4 240.773 279.497 240.414 279.69 240.073C279.884 239.732 280.191 239.455 280.612 239.242C281.031 239.029 281.571 238.922 282.23 238.922C282.711 238.922 283.191 238.988 283.67 239.12C284.148 239.251 284.574 239.424 284.946 239.638C285.005 239.675 285.037 239.707 285.045 239.736C285.052 239.765 285.045 239.804 285.022 239.855L284.78 240.374C284.752 240.432 284.723 240.47 284.69 240.488C284.658 240.506 284.606 240.496 284.532 240.457C284.336 240.344 284.111 240.234 283.858 240.129C283.603 240.023 283.335 239.938 283.053 239.872C282.773 239.806 282.488 239.773 282.198 239.773C281.757 239.773 281.405 239.836 281.142 239.963C280.88 240.089 280.691 240.252 280.577 240.452C280.463 240.652 280.406 240.859 280.406 241.072C280.406 241.326 280.473 241.544 280.605 241.725C280.736 241.907 280.956 242.072 281.269 242.222C281.578 242.371 282.005 242.534 282.54 242.711C283.229 242.935 283.776 243.169 284.185 243.416C284.591 243.662 284.884 243.947 285.062 244.269C285.241 244.592 285.33 244.985 285.33 245.448C285.33 245.906 285.216 246.316 284.985 246.679C284.755 247.042 284.418 247.329 283.977 247.54C283.538 247.751 283.006 247.857 282.381 247.857C281.804 247.857 281.261 247.794 280.758 247.669C280.255 247.545 279.804 247.374 279.408 247.157C279.331 247.115 279.289 247.076 279.282 247.04C279.272 247.005 279.279 246.959 279.306 246.904L279.554 246.389C279.609 246.289 279.683 246.264 279.777 246.314C280.154 246.522 280.56 246.689 281.001 246.816C281.445 246.942 281.908 247.006 282.399 247.006Z" fill="#403F41"/>
<path d="M290.461 247.606V239.173C290.461 239.091 290.501 239.05 290.58 239.05H291.318C291.398 239.05 291.437 239.091 291.437 239.173V247.606C291.437 247.688 291.398 247.729 291.318 247.729H290.58C290.501 247.729 290.461 247.688 290.461 247.606ZM296.509 247.606V239.173C296.509 239.091 296.546 239.05 296.626 239.05H297.366C297.446 239.05 297.485 239.091 297.485 239.173V247.606C297.485 247.688 297.446 247.729 297.366 247.729H296.626C296.546 247.729 296.509 247.688 296.509 247.606ZM290.85 243.513V242.682H297.017V243.513H290.85Z" fill="#403F41"/>
<path d="M307.691 247.606V239.173C307.691 239.091 307.731 239.05 307.81 239.05H308.549C308.628 239.05 308.668 239.091 308.668 239.173V247.606C308.668 247.688 308.628 247.729 308.549 247.729H307.81C307.731 247.729 307.691 247.688 307.691 247.606ZM313.74 247.606V239.173C313.74 239.091 313.779 239.05 313.858 239.05H314.597C314.676 239.05 314.716 239.091 314.716 239.173V247.606C314.716 247.688 314.676 247.729 314.597 247.729H313.858C313.779 247.729 313.74 247.688 313.74 247.606ZM308.083 243.513V242.682H314.247V243.513H308.083Z" fill="#403F41"/>
<path d="M323.546 247.857C322.754 247.857 322.057 247.673 321.465 247.305C320.87 246.938 320.407 246.419 320.078 245.748C319.748 245.077 319.582 244.291 319.582 243.389C319.582 242.482 319.748 241.694 320.078 241.026C320.407 240.358 320.87 239.841 321.465 239.473C322.057 239.106 322.754 238.922 323.546 238.922C324.342 238.922 325.038 239.106 325.63 239.473C326.222 239.841 326.686 240.358 327.015 241.026C327.345 241.694 327.511 242.482 327.511 243.389C327.511 244.291 327.345 245.077 327.015 245.748C326.686 246.419 326.222 246.938 325.63 247.305C325.038 247.673 324.342 247.857 323.546 247.857ZM323.546 247.006C324.139 247.006 324.656 246.856 325.095 246.556C325.536 246.257 325.878 245.835 326.121 245.29C326.364 244.745 326.485 244.112 326.485 243.389C326.485 242.658 326.364 242.023 326.121 241.482C325.878 240.942 325.536 240.522 325.095 240.222C324.656 239.923 324.139 239.773 323.546 239.773C322.959 239.773 322.444 239.923 322 240.222C321.559 240.522 321.215 240.942 320.972 241.482C320.729 242.023 320.605 242.658 320.605 243.389C320.605 244.112 320.729 244.745 320.972 245.29C321.215 245.835 321.559 246.257 322 246.556C322.444 246.856 322.959 247.006 323.546 247.006Z" fill="#403F41"/>
<path d="M332.377 247.606V239.173C332.377 239.091 332.417 239.05 332.496 239.05H333.234C333.314 239.05 333.353 239.091 333.353 239.173V247.606C333.353 247.688 333.314 247.729 333.234 247.729H332.496C332.417 247.729 332.377 247.688 332.377 247.606ZM336.772 242.73C336.854 242.73 336.896 242.769 336.896 242.848V243.443C336.896 243.522 336.854 243.561 336.772 243.561H332.768V242.73H336.772ZM338.048 239.05C338.13 239.05 338.172 239.089 338.172 239.168V239.763C338.172 239.841 338.13 239.881 338.048 239.881H332.768V239.05H338.048ZM338.048 246.898C338.13 246.898 338.172 246.937 338.172 247.016V247.611C338.172 247.69 338.13 247.729 338.048 247.729H332.768V246.898H338.048Z" fill="#403F41"/>
<path d="M342.855 247.606V239.173C342.855 239.091 342.895 239.05 342.974 239.05H343.715C343.792 239.05 343.832 239.091 343.832 239.173V247.606C343.832 247.688 343.792 247.729 343.715 247.729H342.974C342.895 247.729 342.855 247.688 342.855 247.606ZM343.527 243.159L347.818 239.162C347.868 239.112 347.91 239.081 347.947 239.068C347.982 239.056 348.041 239.05 348.126 239.05H348.866C348.936 239.05 348.975 239.068 348.988 239.103C349 239.139 348.98 239.183 348.928 239.235L344.568 243.274L344.545 242.963L349.293 247.53C349.357 247.594 349.379 247.643 349.359 247.678C349.34 247.712 349.298 247.729 349.231 247.729H348.381C348.289 247.729 348.222 247.718 348.18 247.696C348.138 247.674 348.096 247.637 348.051 247.585L343.527 243.159Z" fill="#403F41"/>
<path d="M360.44 241.8L362.34 243.701L360.44 245.602L358.54 243.701L360.44 241.8Z" fill="#403F41"/>
<path d="M373.924 247.857C373.133 247.857 372.437 247.676 371.835 247.315C371.231 246.954 370.76 246.439 370.42 245.77C370.081 245.1 369.912 244.307 369.912 243.389C369.912 242.482 370.078 241.694 370.413 241.026C370.745 240.358 371.213 239.841 371.818 239.473C372.42 239.106 373.121 238.922 373.924 238.922C374.407 238.922 374.863 238.977 375.291 239.088C375.72 239.199 376.112 239.358 376.466 239.566C376.563 239.618 376.587 239.69 376.54 239.782L376.288 240.282C376.263 240.332 376.233 240.366 376.203 240.384C376.174 240.402 376.129 240.395 376.07 240.364C375.775 240.196 375.44 240.055 375.066 239.942C374.692 239.829 374.31 239.773 373.924 239.773C373.329 239.773 372.806 239.923 372.358 240.222C371.909 240.522 371.56 240.942 371.312 241.482C371.062 242.023 370.936 242.658 370.936 243.389C370.936 244.112 371.064 244.745 371.317 245.29C371.57 245.835 371.927 246.257 372.383 246.556C372.841 246.856 373.374 247.006 373.983 247.006C374.338 247.006 374.682 246.965 375.021 246.885C375.358 246.804 375.698 246.684 376.042 246.524C376.131 246.48 376.201 246.51 376.253 246.615L376.473 247.122C376.493 247.164 376.498 247.201 376.488 247.232C376.478 247.264 376.451 247.292 376.404 247.317C376.146 247.441 375.884 247.544 375.616 247.625C375.348 247.707 375.073 247.766 374.791 247.802C374.511 247.839 374.221 247.857 373.924 247.857Z" fill="#403F41"/>
<path d="M384.303 239.802L381.31 247.557C381.268 247.672 381.184 247.729 381.06 247.729H380.477C380.396 247.729 380.341 247.713 380.316 247.682C380.292 247.65 380.292 247.598 380.316 247.524L383.659 239.173C383.694 239.091 383.751 239.05 383.835 239.05H384.62C384.712 239.05 384.774 239.091 384.811 239.173L388.144 247.524C388.176 247.598 388.176 247.65 388.146 247.682C388.114 247.713 388.059 247.729 387.982 247.729H387.348C387.284 247.729 387.229 247.717 387.19 247.694C387.152 247.671 387.12 247.626 387.096 247.561L384.102 239.802H384.303ZM381.942 245.005V244.214H386.578V245.005H381.942Z" fill="#403F41"/>
<path d="M393.268 247.606V239.173C393.268 239.091 393.307 239.05 393.387 239.05H394.125C394.204 239.05 394.244 239.091 394.244 239.173V247.606C394.244 247.688 394.204 247.729 394.125 247.729H393.387C393.307 247.729 393.268 247.688 393.268 247.606ZM395.782 244.648H393.699V243.816H395.713C396.196 243.816 396.62 243.733 396.979 243.566C397.341 243.4 397.621 243.169 397.822 242.874C398.022 242.58 398.121 242.238 398.121 241.849C398.121 241.438 398.022 241.087 397.822 240.795C397.621 240.503 397.341 240.277 396.984 240.119C396.627 239.96 396.209 239.881 395.725 239.881H393.699V239.05H395.77C396.449 239.05 397.041 239.164 397.547 239.393C398.055 239.623 398.446 239.946 398.726 240.365C399.006 240.783 399.147 241.278 399.147 241.849C399.147 242.401 399.006 242.887 398.726 243.306C398.446 243.726 398.055 244.055 397.549 244.292C397.044 244.529 396.456 244.648 395.782 244.648Z" fill="#403F41"/>
<path d="M404.105 247.606V239.173C404.105 239.091 404.142 239.05 404.222 239.05H404.963C405.042 239.05 405.081 239.091 405.081 239.173V247.606C405.081 247.688 405.042 247.729 404.963 247.729H404.222C404.142 247.729 404.105 247.688 404.105 247.606ZM408.498 242.73C408.583 242.73 408.622 242.769 408.622 242.848V243.443C408.622 243.522 408.583 243.561 408.498 243.561H404.494V242.73H408.498ZM409.777 239.05C409.859 239.05 409.898 239.089 409.898 239.168V239.763C409.898 239.841 409.859 239.881 409.777 239.881H404.494V239.05H409.777ZM409.777 246.898C409.859 246.898 409.898 246.937 409.898 247.016V247.611C409.898 247.69 409.859 247.729 409.777 247.729H404.494V246.898H409.777Z" fill="#403F41"/>
<path d="M421.526 247.606V239.173C421.526 239.091 421.566 239.05 421.645 239.05H422.383C422.463 239.05 422.502 239.091 422.502 239.173V247.606C422.502 247.688 422.463 247.729 422.383 247.729H421.645C421.566 247.729 421.526 247.688 421.526 247.606ZM418.57 239.881C418.488 239.881 418.446 239.841 418.446 239.763V239.168C418.446 239.089 418.488 239.05 418.57 239.05H425.461C425.543 239.05 425.585 239.089 425.585 239.168V239.763C425.585 239.841 425.543 239.881 425.461 239.881H418.57Z" fill="#403F41"/>
<path d="M433.347 247.857C432.555 247.857 431.861 247.673 431.266 247.305C430.671 246.938 430.208 246.419 429.879 245.748C429.549 245.077 429.383 244.291 429.383 243.389C429.383 242.482 429.549 241.694 429.879 241.026C430.208 240.358 430.671 239.841 431.266 239.473C431.861 239.106 432.555 238.922 433.347 238.922C434.143 238.922 434.839 239.106 435.431 239.473C436.026 239.841 436.487 240.358 436.816 241.026C437.148 241.694 437.312 242.482 437.312 243.389C437.312 244.291 437.148 245.077 436.816 245.748C436.487 246.419 436.026 246.938 435.431 247.305C434.839 247.673 434.143 247.857 433.347 247.857ZM433.347 247.006C433.942 247.006 434.458 246.856 434.896 246.556C435.337 246.257 435.679 245.835 435.922 245.29C436.165 244.745 436.289 244.112 436.289 243.389C436.289 242.658 436.165 242.023 435.922 241.482C435.679 240.942 435.337 240.522 434.896 240.222C434.458 239.923 433.942 239.773 433.347 239.773C432.76 239.773 432.245 239.923 431.804 240.222C431.36 240.522 431.018 240.942 430.773 241.482C430.53 242.023 430.409 242.658 430.409 243.389C430.409 244.112 430.53 244.745 430.773 245.29C431.018 245.835 431.36 246.257 431.804 246.556C432.245 246.856 432.76 247.006 433.347 247.006Z" fill="#403F41"/>
<path d="M444.906 247.606C444.882 247.688 444.822 247.729 444.728 247.729H443.888C443.838 247.729 443.796 247.718 443.767 247.696C443.734 247.674 443.712 247.644 443.697 247.606L441.086 239.255C441.068 239.181 441.071 239.129 441.096 239.097C441.12 239.065 441.17 239.05 441.247 239.05H441.901C441.975 239.05 442.032 239.061 442.072 239.085C442.111 239.108 442.139 239.153 442.156 239.218L444.478 247.032L444.245 247.023L446.725 239.218C446.747 239.155 446.775 239.111 446.809 239.087C446.842 239.062 446.899 239.05 446.98 239.05H447.572C447.644 239.05 447.701 239.061 447.741 239.085C447.778 239.108 447.808 239.153 447.823 239.218L450.291 247.023L450.06 247.014L452.389 239.222C452.429 239.107 452.511 239.05 452.639 239.05H453.237C453.321 239.05 453.373 239.064 453.398 239.093C453.422 239.121 453.422 239.175 453.398 239.255L450.776 247.606C450.747 247.688 450.687 247.729 450.6 247.729H449.703C449.654 247.729 449.612 247.718 449.579 247.696C449.547 247.674 449.525 247.644 449.515 247.606L447.094 240.117H447.342L444.906 247.606Z" fill="#403F41"/>
<path d="M459.21 247.606C459.21 247.688 459.171 247.729 459.091 247.729H458.393C458.313 247.729 458.274 247.688 458.274 247.606V239.173C458.274 239.091 458.313 239.05 458.393 239.05H459.151C459.245 239.05 459.317 239.088 459.366 239.166L464.223 246.543L464.027 246.629V239.173C464.027 239.091 464.067 239.05 464.146 239.05H464.845C464.924 239.05 464.964 239.091 464.964 239.173V247.606C464.964 247.688 464.924 247.729 464.845 247.729H464.114C464.064 247.729 464.025 247.717 463.992 247.694C463.96 247.67 463.923 247.629 463.881 247.569L459.015 240.236L459.21 240.159V247.606Z" fill="#403F41"/>
</svg>
