<svg width="600" height="400" viewBox="0 0 600 400" fill="none" xmlns="http://www.w3.org/2000/svg">
<rect width="600" height="400" fill="white"/>
<rect width="600" height="400" fill="#369CCC"/>
<path fill-rule="evenodd" clip-rule="evenodd" d="M151.072 157L133.642 162.676L133.627 162.674L133.634 162.679L133.627 162.682L133.639 162.684L162.768 184.973L180.198 179.296L180.213 179.299L180.206 179.293L180.213 179.291L180.2 179.289L151.072 157Z" fill="#EEEEEE"/>
<path fill-rule="evenodd" clip-rule="evenodd" d="M118 194.65L118.012 212.98L118.004 212.995L118.011 212.989V212.997L118.018 212.986L148.217 192.171L148.205 173.839L148.212 173.825L148.205 173.83V173.823L148.198 173.834L118 194.65Z" fill="#EEEEEE"/>
<path fill-rule="evenodd" clip-rule="evenodd" d="M143.578 237.742L161.016 243.394L161.027 243.405L161.025 243.397L161.032 243.398L161.023 243.39L150.558 208.235L133.12 202.583L133.109 202.572L133.112 202.58L133.104 202.577L133.114 202.587L143.578 237.742Z" fill="#EEEEEE"/>
<path fill-rule="evenodd" clip-rule="evenodd" d="M192.464 226.72L203.228 211.883L203.242 211.876H203.233L203.239 211.87L203.227 211.874L166.56 210.964L155.795 225.803L155.782 225.81L155.791 225.81L155.786 225.816L155.798 225.81L192.464 226.72Z" fill="#EEEEEE"/>
<path fill-rule="evenodd" clip-rule="evenodd" d="M197.1 176.821L186.315 161.999L186.314 161.984L186.311 161.991L186.307 161.985V161.999L174.11 196.589L184.895 211.412L184.898 211.427L184.902 211.419L184.906 211.424L184.904 211.411L197.1 176.821Z" fill="#EEEEEE"/>
<path fill-rule="evenodd" clip-rule="evenodd" d="M311.154 199.129L311.169 182.29L310.632 182.295C310.632 182.295 298.898 199.079 298.863 199.129H311.154ZM262.932 199.773L265.833 199.778C266.145 199.778 266.451 199.776 266.756 199.77C267.176 199.763 267.597 199.759 268.018 199.756C269.132 199.747 270.283 199.737 271.393 199.641C273.299 199.475 274.984 198.826 276.399 197.71C277.786 196.618 278.59 195.161 278.79 193.381C279.049 191.069 278.716 188.936 277.8 187.043C276.657 184.678 274.715 183.282 271.864 182.773C271.056 182.629 270.214 182.611 269.35 182.604C268.118 182.595 266.887 182.593 265.655 182.593L261.067 182.597V225.732H253.302V174.818C253.302 174.818 260.565 174.831 261.771 174.831C263.469 174.831 265.165 174.824 266.862 174.802C267.172 174.799 267.482 174.796 267.792 174.796C269.294 174.796 271.274 174.847 273.274 175.247C277.177 176.029 280.207 177.547 282.535 179.887C284.685 182.048 286.012 184.721 286.594 188.06C286.876 189.673 287.126 191.391 286.839 193.091C286.148 197.179 284.685 200.437 282.37 203.049C280.711 204.92 278.697 206.143 276.372 206.695L280.336 213.117L301.584 182.669C303.291 180.222 307.133 174.731 307.133 174.731H318.147V225.738H311.194L311.23 207L293.394 207.01L279.653 227.089L262.932 199.773Z" fill="#EEEEEE"/>
<path fill-rule="evenodd" clip-rule="evenodd" d="M456.003 181.22C453.001 181.22 450.035 182.094 447.187 183.82C441.379 187.337 438.294 192.85 438.018 200.204V200.29C438.016 200.362 438.016 200.433 438.019 200.504L438.038 200.838C438.326 206.74 440.708 211.562 445.117 215.171C448.226 217.712 452.14 219.113 456.138 219.113H456.14C461.436 219.113 466.394 216.742 469.74 212.609C473.958 207.397 475.226 201.492 473.506 195.062C471.993 189.401 468.587 185.319 463.385 182.928C460.917 181.794 458.435 181.22 456.003 181.22ZM455.782 226.679C449.875 226.679 444.456 224.701 439.678 220.803C435.183 217.135 432.176 212.346 430.742 206.567C430.23 204.51 429.978 202.368 429.99 200.199C430.039 193.812 432.041 188.164 435.937 183.412C440.832 177.443 447.098 174.222 454.559 173.838C455.078 173.811 455.594 173.799 456.103 173.799C463.929 173.799 470.579 176.951 475.87 183.168C479.19 187.069 481.185 191.652 481.797 196.788C482.71 204.443 480.766 211.278 476.016 217.103C471.614 222.501 465.939 225.654 459.148 226.473C458.015 226.61 456.881 226.679 455.782 226.679Z" fill="#EEEEEE"/>
<path fill-rule="evenodd" clip-rule="evenodd" d="M398.959 218.1C400.064 218.1 401.169 218.106 402.275 218.128C402.484 218.132 402.695 218.135 402.903 218.135C404.797 218.135 406.446 217.952 407.943 217.576C413.65 216.147 417.356 212.66 418.961 207.212C420.142 203.195 420.256 198.922 419.297 194.51C418.643 191.5 417.32 188.982 415.365 187.027C412.473 184.137 408.756 182.57 404.317 182.37C403.044 182.312 401.659 182.285 399.963 182.285C398.96 182.285 397.955 182.295 396.952 182.303C396.032 182.312 395.113 182.32 394.194 182.322V218.114C394.963 218.114 395.731 218.111 396.499 218.107C397.32 218.104 398.139 218.1 398.959 218.1ZM401.716 225.791H386.516V174.718H390.477C391.47 174.718 392.462 174.723 393.455 174.727C394.444 174.732 395.434 174.737 396.424 174.737C397.652 174.737 398.879 174.73 400.106 174.705C400.667 174.695 401.23 174.688 401.791 174.688C404.395 174.688 407.818 174.819 411.198 175.845C417.814 177.852 422.628 182.124 425.509 188.541C426.956 191.768 427.783 194.766 428.038 197.71C428.208 199.677 428.042 201.582 427.741 203.836C427.226 207.683 426.158 210.985 424.478 213.93C421.923 218.402 418.097 221.675 413.103 223.658C409.541 225.073 405.709 225.791 401.716 225.791Z" fill="#EEEEEE"/>
<path fill-rule="evenodd" clip-rule="evenodd" d="M229.277 195.626C229.694 195.626 230.111 195.629 230.529 195.639C230.668 195.642 230.807 195.643 230.946 195.643C232.611 195.643 234.131 195.413 235.592 194.94C238.524 193.991 239.909 192.352 240.083 189.626C240.23 187.328 239.502 185.602 237.857 184.346C236.531 183.334 234.897 182.762 233.001 182.645C231.608 182.559 230.176 182.556 228.791 182.554C228.384 182.553 227.977 182.552 227.57 182.549V195.633L229.277 195.626ZM229.476 218.267C230.626 218.268 231.775 218.27 232.924 218.297C233.078 218.3 233.231 218.302 233.384 218.302C234.835 218.302 236.115 218.134 237.297 217.787C239.822 217.046 241.423 215.675 242.191 213.596C242.772 212.022 242.877 210.345 242.502 208.61C242.103 206.759 241.072 205.411 239.352 204.489C237.897 203.709 236.268 203.288 234.512 203.239C233.524 203.211 232.473 203.199 231.103 203.199C230.488 203.199 228.135 203.208 227.573 203.208V218.262H227.611L229.476 218.267ZM220.121 225.79V174.849C220.121 174.849 223.553 174.844 224.65 174.84C225.75 174.835 226.85 174.83 227.95 174.83C229.409 174.83 230.868 174.838 232.325 174.866C235.698 174.93 238.558 175.552 241.071 176.765C244.303 178.326 246.39 180.939 247.275 184.529C248.123 187.975 248.094 190.833 247.185 193.523C246.563 195.364 245.521 196.979 244.081 198.333C244.095 198.343 244.109 198.352 244.122 198.361C244.708 198.756 245.315 199.164 245.879 199.629C248.242 201.573 249.715 204.161 250.257 207.32C250.821 210.603 250.495 213.87 249.291 217.032C248.009 220.396 245.462 222.865 241.721 224.369C239.404 225.302 236.88 225.777 234.218 225.786C232.459 225.792 230.698 225.793 228.938 225.793L220.121 225.79Z" fill="#EEEEEE"/>
<path fill-rule="evenodd" clip-rule="evenodd" d="M376.293 199.131L376.289 182.294L375.775 182.297L364.001 199.131H376.293ZM336.794 225.742L372.241 174.735H383.289V225.73H376.332V207.023C376.332 207.023 362.733 207.022 358.535 207.015C358.482 207.015 358.462 207.02 358.461 207.02C356.729 209.528 345.415 225.742 345.415 225.742H336.794Z" fill="#EEEEEE"/>
<path fill-rule="evenodd" clip-rule="evenodd" d="M321.429 225.746V174.756H328.399V218.194L328.965 218.188L359.352 174.731H368.14L332.466 225.746H321.429Z" fill="#EEEEEE"/>
</svg>
