<svg width="600" height="400" viewBox="0 0 600 400" fill="none" xmlns="http://www.w3.org/2000/svg">
<rect width="600" height="400" fill="white"/>
<rect width="600" height="400" fill="#F7C02F"/>
<path d="M264.152 209.222H259.829C258.181 209.222 257.198 208.316 257.198 206.797V203.955C257.198 202.436 258.181 201.53 259.829 201.53H264.289C267.336 201.53 269.665 201.817 269.665 205.438C269.665 208.951 267.38 209.222 264.152 209.222ZM257.265 186.659C257.265 185.141 258.249 184.234 259.896 184.234H263.605C266.833 184.234 269.116 184.577 269.116 189.007C269.116 193.436 266.833 193.779 263.605 193.779H259.896C258.249 193.779 257.265 192.872 257.265 191.353V186.659ZM276.628 198.491L275.835 198.161L276.446 197.557C278.904 195.128 279.778 191.433 279.778 189.007C279.778 178.883 274.774 174.753 262.506 174.753H248.093C246.789 174.813 246.606 175.434 246.606 176.097V215.568C246.606 216.418 247.107 216.849 248.093 216.849H265.044C278.456 216.849 281.148 212.72 281.148 206.055C281.148 202.606 279.374 199.637 276.628 198.491Z" fill="#231F20"/>
<path d="M319.722 176.035C319.722 175.369 319.542 174.753 318.235 174.753H310.548C309.23 174.753 309.062 175.439 309.062 176.035V200.248C309.062 205.068 308.632 208.48 303.067 208.48C297.505 208.48 297.074 205.068 297.074 200.248V176.035C297.074 175.369 296.895 174.753 295.586 174.753H287.901C286.582 174.753 286.414 175.439 286.414 176.035V203.522C286.414 210.109 289.303 217.96 303.067 217.96C316.833 217.96 319.722 210.109 319.722 203.522V176.035Z" fill="#231F20"/>
<path d="M349.828 189.006V202.595C349.828 207.016 347.438 207.368 344.315 207.368H340.608C338.985 207.368 337.978 206.439 337.978 204.943V186.659C337.978 185.14 338.961 184.234 340.608 184.234H344.315C347.543 184.234 349.828 184.576 349.828 189.006ZM328.804 174.753C327.5 174.812 327.317 175.434 327.317 176.096V215.567C327.317 216.417 327.818 216.848 328.804 216.848H344.109C356.045 216.848 360.694 212.835 360.694 202.534V189.006C360.694 178.749 356.045 174.753 344.109 174.753H328.804Z" fill="#231F20"/>
<path d="M390.525 189.006V202.595C390.525 207.016 388.136 207.368 385.013 207.368H381.306C379.683 207.368 378.676 206.439 378.676 204.943V186.659C378.676 185.14 379.659 184.234 381.306 184.234H385.013C388.241 184.234 390.525 184.576 390.525 189.006ZM369.502 174.753C368.198 174.812 368.015 175.434 368.015 176.096V215.567C368.015 216.417 368.516 216.848 369.502 216.848H384.807C396.742 216.848 401.392 212.835 401.392 202.534V189.006C401.392 178.749 396.742 174.753 384.807 174.753H369.502Z" fill="#231F20"/>
<path d="M440.398 174.753H432.71C431.724 174.753 431.223 175.185 431.223 176.035V191.478C431.223 192.996 430.241 193.902 428.593 193.902H422.005C420.382 193.902 419.374 192.973 419.374 191.478V176.035C419.374 175.185 418.874 174.753 417.887 174.753H410.201C408.894 174.753 408.714 175.37 408.714 176.035V215.568C408.714 216.418 409.214 216.849 410.201 216.849H417.887C419.206 216.849 419.374 216.164 419.374 215.568V205.807C419.374 204.289 420.356 203.383 422.005 203.383H428.593C430.29 203.383 431.223 204.245 431.223 205.807V215.568C431.223 216.418 431.724 216.849 432.71 216.849H440.398C441.716 216.849 441.885 216.164 441.885 215.568V176.035C441.885 175.37 441.706 174.753 440.398 174.753Z" fill="#231F20"/>
<path d="M471.374 195.801C471.374 196.685 471.036 198.185 468.77 198.287H462.841C461.218 198.287 460.21 197.359 460.21 195.862V189.13C460.21 185.729 461.046 184.11 465.792 184.11C470.539 184.11 471.374 185.729 471.374 189.13V195.801ZM465.792 173.642C450.806 173.642 449.551 181.636 449.551 189.13V215.32C449.551 216.349 450.037 216.848 451.038 216.848H458.723C460.031 216.848 460.21 216.233 460.21 215.567V210.194C460.21 208.675 461.194 207.768 462.841 207.768H468.744C470.441 207.768 471.374 208.629 471.374 210.194V215.567C471.374 216.164 471.543 216.848 472.861 216.848H480.548C481.59 216.848 482.034 216.392 482.034 215.32V189.13C482.034 181.636 480.779 173.642 465.792 173.642Z" fill="#231F20"/>
<path d="M146.054 172.786C146.995 172.782 147.938 172.773 148.879 172.793C150.762 172.831 152.645 172.941 154.514 173.155C154.98 173.208 155.445 173.268 155.91 173.336C156.376 173.402 156.839 173.478 157.3 173.56C157.761 173.646 158.226 173.72 158.683 173.82C159.143 173.911 159.599 174.021 160.053 174.131C160.506 174.252 160.96 174.368 161.404 174.512C161.564 174.559 161.719 174.612 161.876 174.665C161.359 174.799 160.807 174.949 160.233 175.114C159.778 175.24 159.31 175.388 158.836 175.529C158.364 175.682 157.886 175.832 157.409 175.994C156.935 176.164 156.458 176.315 155.995 176.495C155.534 176.67 155.079 176.834 154.645 177.017C154.209 177.196 153.79 177.36 153.398 177.542C153.007 177.722 152.635 177.875 152.3 178.045C151.966 178.21 151.66 178.362 151.387 178.496C151.12 178.634 150.89 178.767 150.7 178.87C150.32 179.078 150.105 179.197 150.105 179.197C150.105 179.197 150.345 179.139 150.765 179.037C150.976 178.988 151.225 178.919 151.518 178.857C151.81 178.8 152.141 178.735 152.504 178.664C152.86 178.589 153.258 178.538 153.669 178.47C154.081 178.399 154.523 178.351 154.975 178.293C155.424 178.232 155.895 178.194 156.372 178.147C156.846 178.096 157.333 178.074 157.816 178.036C158.299 178.005 158.785 177.988 159.258 177.964C159.737 177.953 160.203 177.933 160.657 177.93C161.562 177.916 162.406 177.923 163.126 177.94C163.43 177.948 163.712 177.957 163.968 177.966C163.828 178.176 163.685 178.383 163.539 178.585C163.229 179.009 162.891 179.414 162.51 179.768C162.319 179.943 162.118 180.104 161.901 180.24C161.793 180.307 161.68 180.364 161.567 180.416L161.393 180.482L161.213 180.529L161.262 180.802L161.496 180.833C161.574 180.836 161.654 180.832 161.735 180.829C161.893 180.817 162.051 180.794 162.208 180.759C162.366 180.725 162.518 180.675 162.664 180.617C162.812 180.561 162.955 180.495 163.096 180.428C163.379 180.291 163.653 180.139 163.903 179.964C164.158 179.792 164.402 179.611 164.63 179.417C165.098 179.035 165.514 178.614 165.916 178.18C166.11 177.959 166.299 177.735 166.485 177.505C166.578 177.391 166.672 177.275 166.759 177.154C166.848 177.029 166.929 176.923 167.03 176.766C167.446 176.119 167.327 175.246 166.722 174.737L166.309 174.389L166.036 174.158L166.022 174.148C166.005 174.138 166.054 174.166 165.983 174.123L165.962 174.108L165.921 174.078L165.678 173.9C165.457 173.749 165.236 173.585 165.009 173.45C164.783 173.312 164.558 173.16 164.325 173.034L163.623 172.666C163.154 172.431 162.673 172.217 162.19 172.033C161.711 171.831 161.222 171.676 160.732 171.523L159.995 171.308C159.751 171.236 159.502 171.189 159.256 171.128C159.008 171.069 158.761 171.017 158.515 170.968C158.268 170.919 158.021 170.861 157.773 170.829C157.277 170.752 156.78 170.681 156.284 170.622C155.789 170.573 155.293 170.536 154.8 170.505C154.303 170.474 153.807 170.475 153.315 170.469C152.822 170.465 152.328 170.491 151.837 170.513C151.345 170.532 150.854 170.591 150.367 170.634C149.878 170.689 149.39 170.76 148.904 170.835C148.418 170.927 147.936 171.008 147.455 171.125C146.973 171.231 146.493 171.363 146.017 171.499C145.541 171.643 145.068 171.799 144.597 171.977C144.127 172.161 143.663 172.36 143.204 172.6L143.228 172.878C144.167 172.82 145.112 172.796 146.054 172.786Z" fill="#231F20"/>
<path d="M180.299 177.154C180.386 177.275 180.478 177.391 180.571 177.505C180.757 177.735 180.947 177.959 181.141 178.179C181.543 178.613 181.959 179.035 182.426 179.417C182.655 179.611 182.9 179.793 183.155 179.964C183.404 180.139 183.679 180.291 183.96 180.427C184.102 180.494 184.245 180.561 184.394 180.616C184.539 180.675 184.692 180.725 184.849 180.759C185.006 180.794 185.166 180.817 185.324 180.829C185.405 180.832 185.483 180.835 185.562 180.832L185.795 180.801L185.844 180.53L185.665 180.482L185.49 180.416C185.375 180.365 185.264 180.307 185.156 180.239C184.941 180.104 184.739 179.943 184.547 179.767C184.166 179.414 183.829 179.01 183.519 178.584C183.352 178.354 183.189 178.117 183.033 177.878C183.227 177.871 183.434 177.866 183.654 177.86C184.373 177.843 185.217 177.836 186.123 177.848C186.575 177.852 187.043 177.871 187.52 177.884C187.996 177.907 188.48 177.924 188.965 177.956C189.446 177.994 189.934 178.017 190.407 178.067C190.883 178.113 191.355 178.152 191.805 178.215C192.257 178.271 192.699 178.319 193.109 178.391C193.522 178.458 193.919 178.507 194.278 178.583C194.637 178.655 194.969 178.72 195.262 178.777C195.555 178.839 195.806 178.907 196.016 178.957C196.435 179.059 196.676 179.117 196.676 179.117C196.676 179.117 196.458 178.998 196.081 178.789C195.89 178.687 195.662 178.553 195.391 178.416C195.121 178.281 194.814 178.13 194.479 177.964C194.145 177.794 193.772 177.643 193.381 177.462C192.99 177.28 192.57 177.116 192.136 176.937C191.702 176.753 191.246 176.59 190.783 176.416C190.323 176.234 189.847 176.082 189.371 175.915C188.896 175.751 188.417 175.602 187.943 175.449C187.47 175.308 187.002 175.16 186.548 175.033C186.049 174.89 185.57 174.759 185.113 174.64L185.63 174.465C186.08 174.33 186.525 174.19 186.979 174.079C187.432 173.958 187.889 173.86 188.347 173.757C188.806 173.666 189.264 173.575 189.728 173.496C190.189 173.408 190.653 173.342 191.116 173.267C191.581 173.204 192.047 173.138 192.513 173.089C194.38 172.875 196.261 172.775 198.144 172.748C199.086 172.732 200.026 172.748 200.967 172.759C201.91 172.778 202.852 172.81 203.789 172.877L203.817 172.601C203.36 172.356 202.897 172.151 202.429 171.963C201.961 171.781 201.489 171.621 201.013 171.472C200.538 171.333 200.06 171.198 199.58 171.088C199.099 170.968 198.617 170.883 198.131 170.791C197.644 170.713 197.156 170.636 196.669 170.581C196.179 170.532 195.688 170.476 195.197 170.454C194.706 170.43 194.211 170.401 193.716 170.405C193.222 170.412 192.726 170.406 192.232 170.438C191.734 170.466 191.238 170.51 190.74 170.554C190.244 170.62 189.748 170.682 189.251 170.766C188.754 170.838 188.26 170.963 187.764 171.066C187.267 171.183 186.775 171.315 186.286 171.475C185.795 171.618 185.305 171.799 184.824 171.992L184.102 172.297C183.863 172.398 183.629 172.531 183.394 172.646C183.158 172.76 182.926 172.893 182.695 173.025C182.463 173.152 182.236 173.294 182.013 173.447C181.79 173.6 181.566 173.738 181.35 173.903L180.714 174.41L180.366 174.687C179.746 175.184 179.587 176.082 180.029 176.766C180.129 176.923 180.208 177.029 180.299 177.154Z" fill="#231F20"/>
<path d="M174.6 209.896C174.243 209.875 173.885 209.86 173.528 209.86L172.736 209.878C172.63 209.885 172.527 209.891 172.424 209.896C163.607 209.639 155.951 206.331 152.666 201.489C152.925 201.28 153.174 201.058 153.422 200.836C153.466 200.798 153.5 200.751 153.541 200.711C153.775 200.915 154.064 201.209 154.493 201.484C154.983 201.824 155.552 202.275 156.293 202.646C156.656 202.848 157.042 203.062 157.449 203.288C157.857 203.507 158.324 203.665 158.789 203.868C159.261 204.064 159.751 204.267 160.259 204.479C160.776 204.66 161.33 204.793 161.889 204.96C162.451 205.119 163.029 205.285 163.618 205.452C164.208 205.621 164.837 205.674 165.463 205.792C166.723 205.964 168.015 206.308 169.352 206.31C170.685 206.382 172.038 206.456 173.391 206.53C174.75 206.456 176.108 206.382 177.446 206.31C178.788 206.307 180.073 205.964 181.334 205.792C181.96 205.674 182.587 205.621 183.177 205.452C183.767 205.285 184.345 205.121 184.906 204.962C185.465 204.794 186.018 204.66 186.536 204.479C187.044 204.267 187.535 204.064 188.006 203.868C188.472 203.665 188.937 203.507 189.347 203.288C189.753 203.062 190.138 202.848 190.5 202.646C191.243 202.275 191.813 201.824 192.303 201.484C192.802 201.162 193.12 200.804 193.373 200.608C193.384 200.599 193.387 200.596 193.397 200.585C193.476 200.67 193.548 200.759 193.635 200.836C193.821 201.003 194.006 201.17 194.195 201.331C190.911 206.266 183.308 209.639 174.6 209.896ZM153.975 200.259L154.5 199.662C154.65 199.463 154.796 199.262 154.935 199.056C159.691 201.242 166.332 202.479 173.525 202.479H173.533C180.727 202.479 187.37 201.242 192.125 199.054C192.266 199.259 192.408 199.463 192.56 199.662L193.085 200.259C193.149 200.331 193.219 200.396 193.284 200.467C193.27 200.477 193.267 200.481 193.253 200.491C192.98 200.662 192.638 200.954 192.117 201.238C191.607 201.531 191.019 201.92 190.257 202.225C189.521 202.569 188.691 202.938 187.74 203.244C187.272 203.408 186.786 203.581 186.282 203.759C185.769 203.91 185.219 204.011 184.666 204.145C184.112 204.271 183.544 204.401 182.964 204.535C182.382 204.657 181.77 204.718 181.157 204.815C179.922 204.957 178.676 205.269 177.357 205.246C176.069 205.293 174.761 205.341 173.453 205.388C172.097 205.341 170.743 205.293 169.409 205.246L168.414 205.211C168.087 205.192 167.781 205.124 167.468 205.084C166.843 204.993 166.227 204.903 165.621 204.814C165.016 204.715 164.413 204.662 163.832 204.537C163.249 204.405 162.681 204.275 162.128 204.148C161.576 204.013 161.026 203.914 160.513 203.763C160.009 203.583 159.521 203.411 159.055 203.246C158.102 202.939 157.274 202.571 156.536 202.227C155.774 201.922 155.187 201.532 154.677 201.239C154.229 200.994 153.922 200.753 153.668 200.578C153.77 200.472 153.876 200.369 153.975 200.259ZM156.354 196.267C156.434 196.029 156.49 195.786 156.557 195.549C156.615 195.309 156.69 195.077 156.727 194.84C156.769 194.602 156.804 194.366 156.832 194.133C156.905 193.669 156.91 193.209 156.913 192.767C156.918 192.622 156.913 192.477 156.905 192.334C157.469 192.627 158.081 192.695 158.628 192.672C159.181 192.648 159.685 192.543 160.138 192.418C161.045 192.166 161.742 191.814 162.223 191.569C162.318 191.52 162.402 191.475 162.477 191.432C162.547 191.506 162.616 191.581 162.683 191.656C162.882 191.873 163.088 192.075 163.289 192.285C163.492 192.493 163.702 192.689 163.907 192.892C164.111 193.096 164.328 193.283 164.537 193.477C164.748 193.674 164.962 193.861 165.179 194.046C165.396 194.23 165.608 194.422 165.83 194.599L165.91 194.666L165.932 194.683L165.943 194.691L165.949 194.694L165.951 194.697C165.976 194.714 165.918 194.678 165.926 194.683L165.984 194.725L166.22 194.892C166.379 195.003 166.54 195.119 166.7 195.206C166.858 195.299 167.024 195.395 167.188 195.477L167.676 195.7C167.842 195.778 168.001 195.831 168.165 195.896C168.33 195.962 168.492 196.023 168.654 196.067C168.982 196.17 169.304 196.251 169.628 196.33C169.949 196.403 170.275 196.471 170.594 196.51C170.916 196.558 171.236 196.593 171.555 196.623C171.874 196.656 172.193 196.665 172.517 196.67C172.676 196.673 172.841 196.673 173.003 196.671C173.136 196.67 173.249 196.667 173.397 196.662C173.484 196.663 173.568 196.664 173.653 196.663C173.804 196.669 173.919 196.67 174.053 196.672C174.217 196.674 174.382 196.674 174.539 196.671C174.862 196.664 175.181 196.661 175.5 196.626C175.822 196.597 176.142 196.562 176.462 196.513C176.783 196.472 177.109 196.409 177.43 196.335C177.754 196.256 178.075 196.174 178.403 196.071L178.648 195.997L178.894 195.903C179.057 195.837 179.217 195.783 179.381 195.707L179.872 195.481C180.048 195.395 180.247 195.287 180.426 195.18L180.562 195.099L180.628 195.059L180.671 195.026L180.839 194.898L181.009 194.769L181.051 194.738C181.04 194.743 181.158 194.675 181.109 194.702L181.118 194.697L181.127 194.689L181.149 194.671L181.231 194.605C181.454 194.43 181.665 194.236 181.881 194.051C182.098 193.866 182.313 193.68 182.524 193.483C182.732 193.287 182.948 193.101 183.154 192.897C183.359 192.695 183.569 192.498 183.772 192.29C183.972 192.079 184.178 191.877 184.376 191.661C184.444 191.584 184.513 191.51 184.583 191.434C184.659 191.475 184.739 191.52 184.832 191.569C185.314 191.814 186.012 192.165 186.92 192.418C187.371 192.543 187.877 192.648 188.429 192.672C188.977 192.695 189.59 192.626 190.158 192.332C190.151 192.476 190.146 192.619 190.151 192.767C190.152 193.208 190.158 193.668 190.232 194.13C190.261 194.364 190.295 194.6 190.336 194.837C190.374 195.075 190.45 195.306 190.507 195.545C190.573 195.783 190.629 196.027 190.708 196.265C190.752 196.373 190.795 196.483 190.838 196.592C186.478 198.554 180.173 199.702 173.528 199.703C166.887 199.702 160.584 198.555 156.224 196.594C156.267 196.486 156.311 196.376 156.354 196.267ZM205.824 201.543C205.319 201.665 204.74 201.773 204.103 201.831C203.785 201.866 203.452 201.873 203.106 201.88C202.783 201.878 202.401 201.845 202.032 201.826C201.664 201.798 201.306 201.718 200.929 201.664C200.553 201.587 200.176 201.472 199.79 201.376C199.421 201.23 199.032 201.107 198.66 200.936C198.476 200.846 198.292 200.756 198.105 200.664C198.013 200.617 197.918 200.576 197.826 200.526L197.561 200.361C197.383 200.251 197.205 200.141 197.026 200.03C196.851 199.915 196.689 199.779 196.518 199.654C196.354 199.521 196.17 199.41 196.021 199.259L195.553 198.828C195.39 198.693 195.249 198.534 195.106 198.377L194.676 197.911L194.294 197.408C194.167 197.239 194.031 197.078 193.929 196.895C193.715 196.537 193.476 196.195 193.313 195.819C193.221 195.634 193.133 195.451 193.043 195.27C192.967 195.082 192.901 194.893 192.831 194.707C192.764 194.518 192.68 194.337 192.632 194.147C192.583 193.959 192.534 193.771 192.484 193.586C192.368 193.217 192.33 192.842 192.267 192.482C192.194 192.122 192.197 191.765 192.171 191.422C192.169 191.253 192.14 191.07 192.156 190.924C192.164 190.755 192.171 190.589 192.18 190.426C192.187 189.763 192.309 189.204 192.379 188.69C192.489 188.184 192.623 187.747 192.718 187.385C192.991 186.686 193.15 186.287 193.15 186.287L192.899 186.167C192.899 186.167 192.809 186.244 192.654 186.403C192.506 186.566 192.26 186.797 191.995 187.129C191.937 187.214 191.874 187.305 191.807 187.401C191.774 187.332 191.738 187.264 191.697 187.198C191.357 186.62 190.838 186.21 190.315 185.918C189.788 185.622 189.242 185.441 188.723 185.301C188.203 185.161 187.703 185.074 187.243 185.011C186.319 184.888 185.545 184.88 185.007 184.88C184.467 184.883 184.156 184.907 184.156 184.907L184.169 185.184C184.169 185.184 184.244 185.232 184.386 185.31C184.529 185.382 184.734 185.511 184.99 185.642C185.5 185.916 186.216 186.275 186.99 186.685C187.375 186.888 187.775 187.11 188.148 187.341C188.333 187.465 188.514 187.576 188.677 187.698C188.837 187.825 188.985 187.945 189.102 188.06C189.219 188.179 189.301 188.294 189.351 188.377C189.402 188.46 189.389 188.529 189.385 188.547C189.374 188.571 189.35 188.569 189.334 188.592C189.33 188.611 189.33 188.666 189.309 188.766C189.284 188.862 189.267 189.003 189.214 189.165C189.17 189.326 189.087 189.511 189.017 189.709L188.957 189.859L188.949 189.878L188.946 189.888C189.011 189.773 188.961 189.859 188.976 189.835L188.972 189.842L188.948 189.892L188.922 189.943C188.917 189.956 188.901 189.988 188.909 189.973C188.951 189.922 188.927 189.973 188.944 189.986C188.96 190.02 188.983 190.043 188.981 190.09C188.982 190.143 188.943 190.211 188.854 190.274C188.769 190.35 188.636 190.417 188.481 190.47C188.325 190.529 188.146 190.582 187.957 190.615C187.766 190.656 187.565 190.69 187.366 190.71C187.162 190.736 186.963 190.757 186.766 190.768C186.565 190.788 186.372 190.798 186.185 190.807C185.812 190.831 185.47 190.84 185.181 190.855C185.147 190.858 185.116 190.859 185.082 190.861C185.237 190.683 185.388 190.503 185.537 190.319C185.716 190.074 185.907 189.846 186.079 189.587L185.936 189.349L183.006 191.007L180.097 192.704L180.006 192.758L179.919 192.806L179.735 192.905C179.612 192.973 179.488 193.045 179.368 193.091C179.245 193.142 179.126 193.197 179.002 193.246L178.615 193.379C178.354 193.458 178.093 193.538 177.823 193.593C177.558 193.656 177.287 193.701 177.015 193.746C176.743 193.784 176.47 193.823 176.196 193.845C175.92 193.874 175.644 193.889 175.368 193.902C175.092 193.913 174.815 193.919 174.539 193.916C174.265 193.915 173.985 193.907 173.718 193.889L173.708 193.888H173.699L173.358 193.889H173.349L173.337 193.89C173.073 193.907 172.793 193.916 172.518 193.918C172.241 193.92 171.965 193.914 171.689 193.903C171.413 193.89 171.138 193.875 170.862 193.847C170.586 193.824 170.315 193.785 170.043 193.747C169.771 193.701 169.499 193.657 169.233 193.593C168.964 193.538 168.702 193.458 168.44 193.38L168.055 193.246C167.929 193.197 167.807 193.14 167.682 193.087C167.555 193.038 167.438 192.97 167.323 192.905C167.206 192.843 167.082 192.778 166.96 192.705L164.051 191.009L161.122 189.349L160.979 189.587C161.15 189.845 161.341 190.073 161.523 190.317L161.982 190.861C161.947 190.859 161.914 190.858 161.877 190.855C161.587 190.84 161.245 190.831 160.871 190.807C160.685 190.798 160.492 190.789 160.291 190.768C160.095 190.758 159.893 190.736 159.691 190.71C159.491 190.69 159.292 190.656 159.101 190.615C158.912 190.583 158.732 190.531 158.574 190.47C158.42 190.417 158.286 190.35 158.203 190.274C158.115 190.211 158.076 190.143 158.076 190.09C158.072 190.043 158.097 190.02 158.113 189.986C158.128 189.973 158.107 189.922 158.149 189.973C158.157 189.988 158.14 189.956 158.134 189.944L158.11 189.892L158.085 189.842L158.081 189.836C158.094 189.859 158.047 189.773 158.111 189.888L158.107 189.878L158.1 189.859L158.038 189.709C157.969 189.511 157.888 189.326 157.842 189.165C157.791 189.003 157.774 188.862 157.747 188.766C157.728 188.666 157.726 188.611 157.723 188.592C157.707 188.569 157.681 188.571 157.673 188.547C157.668 188.529 157.656 188.46 157.706 188.377C157.755 188.294 157.839 188.179 157.953 188.06C158.072 187.945 158.22 187.825 158.38 187.698C158.543 187.576 158.724 187.465 158.91 187.341C159.282 187.11 159.682 186.888 160.067 186.685C160.842 186.275 161.556 185.916 162.068 185.642C162.323 185.511 162.529 185.382 162.669 185.31C162.812 185.232 162.889 185.184 162.889 185.184L162.9 184.907C162.9 184.907 162.591 184.883 162.051 184.88C161.512 184.88 160.739 184.888 159.814 185.011C159.353 185.074 158.855 185.161 158.334 185.301C157.816 185.441 157.268 185.622 156.743 185.918C156.219 186.21 155.699 186.62 155.36 187.198C155.321 187.26 155.288 187.325 155.255 187.391C155.193 187.297 155.131 187.209 155.071 187.126C154.795 186.798 154.555 186.565 154.404 186.403C154.248 186.244 154.159 186.167 154.159 186.167L153.907 186.287C153.907 186.287 154.064 186.686 154.339 187.385C154.432 187.747 154.569 188.184 154.677 188.69C154.748 189.204 154.871 189.763 154.877 190.425C154.887 190.589 154.892 190.755 154.901 190.924C154.917 191.07 154.889 191.253 154.884 191.422C154.859 191.765 154.864 192.122 154.788 192.482C154.728 192.842 154.687 193.217 154.573 193.586C154.524 193.771 154.475 193.959 154.426 194.147C154.375 194.337 154.292 194.518 154.227 194.707C154.157 194.892 154.089 195.082 154.013 195.27C153.925 195.451 153.835 195.634 153.745 195.818C153.579 196.195 153.342 196.537 153.127 196.894C153.025 197.077 152.89 197.239 152.763 197.408L152.381 197.911L151.951 198.377C151.807 198.534 151.667 198.692 151.504 198.828C151.192 199.116 150.889 199.413 150.54 199.654C150.371 199.78 150.207 199.915 150.031 200.03C149.852 200.141 149.675 200.251 149.497 200.361L149.231 200.526C149.14 200.577 149.045 200.618 148.952 200.665C148.766 200.756 148.581 200.847 148.397 200.938C148.026 201.107 147.637 201.23 147.266 201.376C146.882 201.472 146.504 201.587 146.129 201.665C145.752 201.718 145.394 201.798 145.025 201.826C144.657 201.845 144.275 201.878 143.949 201.88C143.606 201.874 143.273 201.866 142.955 201.831C142.635 201.814 142.335 201.749 142.044 201.713C141.758 201.657 141.486 201.61 141.233 201.545C140.729 201.418 140.295 201.274 139.946 201.141C139.775 201.071 139.62 201.008 139.485 200.955C139.352 200.892 139.239 200.838 139.147 200.795C138.964 200.706 138.864 200.66 138.864 200.66L138.74 200.909C138.74 200.909 138.814 201.004 138.959 201.169C139.032 201.25 139.123 201.35 139.23 201.469C139.346 201.585 139.487 201.713 139.652 201.85C139.982 202.121 140.391 202.441 140.914 202.738C141.063 202.827 141.224 202.908 141.391 202.987C141.391 202.996 141.391 203.004 141.392 203.012C141.404 203.364 141.424 203.772 141.468 204.206C141.514 204.641 141.57 205.105 141.666 205.562C141.705 205.79 141.767 206.016 141.821 206.239C141.873 206.461 141.955 206.675 142.018 206.882C142.088 207.088 142.176 207.283 142.25 207.466C142.336 207.646 142.431 207.812 142.508 207.964C142.596 208.115 142.695 208.241 142.773 208.357C142.845 208.476 142.936 208.56 143.003 208.633C143.139 208.779 143.216 208.862 143.216 208.862C143.216 208.862 143.156 208.766 143.051 208.598C143.001 208.516 142.93 208.42 142.882 208.29C142.829 208.165 142.76 208.03 142.705 207.872C142.66 207.713 142.6 207.543 142.554 207.36C142.52 207.173 142.472 206.981 142.445 206.776C142.424 206.57 142.385 206.362 142.379 206.146C142.367 205.928 142.351 205.711 142.358 205.49C142.35 205.052 142.381 204.61 142.416 204.201C142.442 203.933 142.473 203.678 142.506 203.444C142.599 203.476 142.688 203.509 142.784 203.535C143.144 203.657 143.528 203.731 143.932 203.816C144.319 203.862 144.72 203.912 145.132 203.962L145.273 203.978C145.328 203.98 145.392 203.98 145.451 203.979C145.57 203.976 145.692 203.972 145.813 203.969C146.059 203.961 146.309 203.952 146.559 203.94C146.674 203.936 146.779 203.924 146.883 203.91C146.903 203.967 146.923 204.024 146.946 204.083C147.037 204.341 147.157 204.601 147.269 204.874C147.394 205.145 147.522 205.42 147.663 205.696C147.815 205.968 147.95 206.251 148.123 206.516C148.286 206.784 148.45 207.053 148.634 207.3C148.722 207.426 148.811 207.55 148.897 207.675C148.993 207.792 149.086 207.908 149.18 208.022C149.271 208.134 149.364 208.246 149.453 208.353C149.549 208.455 149.645 208.556 149.737 208.653C149.92 208.849 150.091 209.032 150.271 209.18C150.445 209.334 150.603 209.474 150.746 209.599C150.896 209.711 151.028 209.807 151.137 209.887C151.353 210.046 151.476 210.138 151.476 210.138C151.476 210.138 151.366 210.03 151.175 209.84C151.08 209.749 150.964 209.634 150.833 209.505C150.713 209.363 150.576 209.205 150.429 209.032C150.276 208.863 150.134 208.661 149.985 208.448C149.911 208.344 149.833 208.234 149.754 208.123C149.684 208.009 149.611 207.888 149.539 207.768C149.466 207.646 149.393 207.524 149.317 207.4C149.252 207.271 149.185 207.142 149.119 207.009C148.977 206.751 148.858 206.475 148.743 206.202C148.615 205.931 148.525 205.642 148.42 205.37C148.324 205.093 148.241 204.818 148.162 204.55C148.092 204.28 148.016 204.023 147.967 203.772C147.964 203.762 147.963 203.75 147.96 203.739C147.973 203.737 147.986 203.735 147.998 203.733C148.768 203.549 149.557 203.303 150.314 202.951C153.187 207.204 158.785 210.428 165.56 211.867C165.313 212.008 165.072 212.155 164.842 212.309C164.079 212.821 163.412 213.391 162.871 213.991C162.327 214.586 161.912 215.21 161.623 215.799C161.332 216.388 161.155 216.937 161.06 217.399C160.962 217.859 160.931 218.229 160.918 218.48C160.914 218.733 160.911 218.867 160.911 218.867H161.188C161.188 218.867 161.245 218.736 161.337 218.504C161.378 218.391 161.452 218.252 161.524 218.093C161.56 218.016 161.614 217.932 161.659 217.845C161.706 217.758 161.749 217.667 161.807 217.573C162.022 217.195 162.341 216.782 162.721 216.364C163.106 215.947 163.581 215.535 164.136 215.149C164.684 214.76 165.322 214.407 166.02 214.092C166.714 213.771 167.486 213.513 168.292 213.286C168.702 213.187 169.111 213.075 169.537 212.997C169.96 212.913 170.396 212.854 170.832 212.789C171.273 212.732 171.716 212.702 172.166 212.671C172.184 212.669 172.198 212.669 172.216 212.667C172.65 212.683 173.086 212.691 173.525 212.691H173.533C173.961 212.691 174.386 212.683 174.81 212.667C175.285 212.695 175.754 212.74 176.223 212.791C176.66 212.857 177.095 212.921 177.518 213.002C177.945 213.08 178.354 213.194 178.763 213.29C179.567 213.518 180.34 213.778 181.032 214.099C181.731 214.411 182.369 214.766 182.917 215.154C183.471 215.538 183.947 215.951 184.331 216.366C184.718 216.782 185.02 217.2 185.243 217.575C185.303 217.667 185.348 217.759 185.396 217.846C185.441 217.932 185.495 218.018 185.53 218.091C185.602 218.245 185.676 218.375 185.72 218.499C185.811 218.741 185.869 218.871 185.869 218.871L186.146 218.862C186.146 218.862 186.144 218.73 186.139 218.485C186.127 218.234 186.096 217.857 185.996 217.399C185.903 216.937 185.724 216.388 185.435 215.799C185.145 215.21 184.729 214.586 184.185 213.991C183.646 213.391 182.979 212.821 182.216 212.309C181.972 212.146 181.718 211.992 181.455 211.842C188.115 210.384 193.637 207.13 196.511 202.845C197.337 203.261 198.211 203.534 199.058 203.739C199.071 203.741 199.083 203.743 199.095 203.746C199.094 203.755 199.093 203.764 199.09 203.772C199.04 204.023 198.963 204.28 198.894 204.55C198.817 204.818 198.731 205.093 198.637 205.37C198.532 205.642 198.442 205.931 198.315 206.202C198.199 206.475 198.08 206.751 197.938 207.009C197.872 207.142 197.806 207.271 197.739 207.4C197.665 207.524 197.592 207.646 197.518 207.768C197.447 207.888 197.373 208.007 197.304 208.123C197.224 208.234 197.147 208.344 197.073 208.448C196.923 208.661 196.782 208.863 196.629 209.03C196.48 209.205 196.345 209.363 196.225 209.505C196.091 209.634 195.976 209.749 195.882 209.84C195.69 210.03 195.581 210.138 195.581 210.138C195.581 210.138 195.704 210.046 195.921 209.887C196.028 209.807 196.161 209.711 196.312 209.599C196.453 209.474 196.612 209.334 196.787 209.18C196.966 209.032 197.138 208.849 197.321 208.653C197.412 208.556 197.507 208.455 197.604 208.353C197.693 208.246 197.785 208.134 197.878 208.022C197.969 207.908 198.064 207.792 198.16 207.674C198.246 207.55 198.333 207.426 198.423 207.3C198.606 207.053 198.771 206.784 198.932 206.516C199.106 206.251 199.24 205.968 199.392 205.696C199.533 205.42 199.663 205.145 199.787 204.874C199.9 204.601 200.02 204.341 200.111 204.083C200.132 204.025 200.151 203.971 200.171 203.915C200.277 203.931 200.382 203.945 200.496 203.947C200.748 203.957 200.996 203.967 201.244 203.976C201.365 203.979 201.488 203.983 201.607 203.985C201.665 203.986 201.727 203.987 201.783 203.986L201.926 203.967C202.338 203.917 202.738 203.868 203.125 203.821C203.53 203.738 203.914 203.661 204.274 203.542C204.369 203.516 204.46 203.48 204.551 203.448C204.584 203.683 204.615 203.936 204.642 204.201C204.676 204.61 204.707 205.052 204.7 205.49C204.704 205.711 204.69 205.927 204.678 206.146C204.672 206.362 204.634 206.57 204.612 206.776C204.585 206.981 204.537 207.173 204.503 207.36C204.457 207.543 204.398 207.712 204.352 207.872C204.297 208.028 204.226 208.165 204.175 208.29C204.126 208.42 204.056 208.513 204.006 208.598C203.9 208.766 203.84 208.862 203.84 208.862C203.84 208.862 203.919 208.779 204.052 208.633C204.121 208.56 204.213 208.476 204.285 208.357C204.362 208.241 204.461 208.114 204.549 207.964C204.627 207.812 204.72 207.646 204.807 207.466C204.879 207.283 204.97 207.088 205.04 206.882C205.101 206.675 205.184 206.46 205.234 206.238C205.29 206.016 205.352 205.79 205.391 205.56C205.488 205.105 205.544 204.641 205.59 204.206C205.632 203.772 205.654 203.364 205.665 203.012V202.993C205.833 202.913 205.995 202.832 206.145 202.743C206.666 202.441 207.08 202.137 207.409 201.857C207.571 201.715 207.712 201.587 207.83 201.471C207.936 201.352 208.025 201.251 208.098 201.17C208.244 201.005 208.318 200.909 208.318 200.909L208.193 200.66C208.193 200.66 208.096 200.706 207.911 200.795C207.818 200.838 207.706 200.892 207.572 200.955C207.437 201.008 207.283 201.071 207.111 201.141C206.762 201.274 206.329 201.418 205.824 201.543Z" fill="#231F20"/>
<path d="M170.632 159.352C171.466 159.352 172.143 158.676 172.143 157.841C172.143 157.006 171.466 156.329 170.632 156.329C169.798 156.329 169.121 157.006 169.121 157.841C169.121 158.676 169.798 159.352 170.632 159.352Z" fill="#231F20"/>
<path d="M176.248 159.352C177.082 159.352 177.761 158.676 177.761 157.841C177.761 157.006 177.082 156.329 176.248 156.329C175.414 156.329 174.737 157.006 174.737 157.841C174.737 158.676 175.414 159.352 176.248 159.352Z" fill="#231F20"/>
<path d="M170.632 164.836C171.466 164.836 172.143 164.159 172.143 163.325C172.143 162.49 171.466 161.812 170.632 161.812C169.798 161.812 169.121 162.49 169.121 163.325C169.121 164.159 169.798 164.836 170.632 164.836Z" fill="#231F20"/>
<path d="M176.248 164.836C177.082 164.836 177.761 164.159 177.761 163.325C177.761 162.49 177.082 161.812 176.248 161.812C175.414 161.812 174.737 162.49 174.737 163.325C174.737 164.159 175.414 164.836 176.248 164.836Z" fill="#231F20"/>
<path d="M170.616 170.321C171.45 170.321 172.127 169.643 172.127 168.808C172.127 167.973 171.45 167.297 170.616 167.297C169.781 167.297 169.105 167.973 169.105 168.808C169.105 169.643 169.781 170.321 170.616 170.321Z" fill="#231F20"/>
<path d="M176.231 170.321C177.066 170.321 177.742 169.643 177.742 168.808C177.742 167.973 177.066 167.297 176.231 167.297C175.397 167.297 174.72 167.973 174.72 168.808C174.72 169.643 175.397 170.321 176.231 170.321Z" fill="#231F20"/>
<path d="M138.519 222.955C138.493 222.875 138.466 222.799 138.442 222.732C138.41 222.664 138.384 222.604 138.358 222.549C138.312 222.437 138.253 222.359 138.223 222.303C138.191 222.247 138.172 222.217 138.172 222.217L138.054 222.29C138.054 222.29 138.05 222.331 138.042 222.407C138.036 222.479 138.027 222.582 138.008 222.704C137.995 222.826 137.958 222.971 137.923 223.116C137.883 223.265 137.831 223.417 137.771 223.569C137.701 223.719 137.631 223.867 137.54 224.004C137.46 224.143 137.351 224.268 137.255 224.387C137.154 224.506 137.039 224.605 136.93 224.705L136.844 224.774C136.811 224.802 136.798 224.796 136.78 224.816L136.758 224.838C136.757 224.842 136.709 224.872 136.685 224.886L136.558 224.97C136.566 224.965 136.563 224.967 136.565 224.966L136.558 224.968L136.547 224.975L136.475 225.02C136.445 225.041 136.411 225.055 136.379 225.071C136.312 225.104 136.247 225.135 136.181 225.169C136.044 225.217 135.904 225.28 135.752 225.316C135.602 225.35 135.444 225.392 135.283 225.402C135.119 225.421 134.956 225.419 134.791 225.413C134.63 225.404 134.468 225.381 134.319 225.352C134.244 225.335 134.174 225.315 134.101 225.302C134.035 225.287 133.973 225.269 133.918 225.253C133.804 225.222 133.693 225.165 133.627 225.14C133.557 225.113 133.517 225.1 133.517 225.1L133.401 225.179C133.401 225.179 133.421 225.207 133.453 225.261C133.492 225.312 133.53 225.392 133.612 225.487C133.649 225.535 133.693 225.589 133.74 225.645C133.79 225.698 133.846 225.754 133.907 225.815C134.03 225.931 134.18 226.05 134.36 226.159C134.542 226.262 134.747 226.362 134.979 226.429C135.207 226.505 135.461 226.541 135.724 226.553C135.987 226.566 136.259 226.532 136.53 226.467C136.8 226.396 137.052 226.288 137.309 226.138C137.525 225.995 137.758 225.801 137.937 225.594C138.113 225.381 138.267 225.153 138.374 224.912C138.479 224.671 138.559 224.427 138.592 224.188C138.637 223.951 138.637 223.724 138.625 223.514C138.609 223.306 138.568 223.117 138.519 222.955Z" fill="#231F20"/>
<path d="M180.701 238.371C180.626 238.187 180.545 238.02 180.478 237.87C180.444 237.794 180.412 237.723 180.382 237.656C180.348 237.59 180.311 237.531 180.28 237.475C180.215 237.363 180.159 237.269 180.116 237.193C180.028 237.039 179.98 236.957 179.98 236.957L179.769 237.09C179.769 237.09 179.773 237.196 179.79 237.379C179.805 237.566 179.84 237.825 179.848 238.152C179.853 238.315 179.864 238.49 179.864 238.677C179.845 238.871 179.845 239.07 179.834 239.278C179.821 239.486 179.791 239.706 179.768 239.928C179.738 240.152 179.686 240.382 179.647 240.613C179.582 240.846 179.534 241.081 179.457 241.317C179.363 241.55 179.316 241.791 179.196 242.021C179.019 242.495 178.745 242.944 178.474 243.38C178.398 243.485 178.318 243.588 178.248 243.696C178.176 243.804 178.083 243.898 178.005 244.001L177.884 244.153L177.745 244.292C177.651 244.383 177.575 244.487 177.48 244.575L177.19 244.837L177.119 244.902L177.054 244.946C177.012 244.977 176.971 245.011 176.932 245.043L176.817 245.145C176.808 245.155 176.803 245.161 176.786 245.173L176.726 245.211L176.612 245.29L176.38 245.445L176.264 245.52L176.231 245.543C175.784 245.812 175.316 246.033 174.832 246.212C174.711 246.259 174.583 246.282 174.46 246.322L174.274 246.385L174.085 246.427C173.957 246.451 173.831 246.492 173.704 246.507C173.576 246.52 173.447 246.547 173.32 246.569C172.81 246.619 172.286 246.664 171.785 246.61C171.277 246.588 170.792 246.492 170.324 246.389C170.099 246.322 169.868 246.266 169.657 246.194C169.447 246.116 169.238 246.045 169.044 245.967C168.853 245.883 168.676 245.795 168.494 245.724C168.332 245.646 168.183 245.567 168.041 245.494C167.969 245.455 167.903 245.419 167.837 245.386C167.771 245.344 167.71 245.305 167.653 245.267C167.538 245.194 167.438 245.131 167.362 245.08C167.2 244.979 167.108 244.93 167.108 244.93L166.903 245.073C166.903 245.073 166.952 245.151 167.048 245.295C167.098 245.368 167.157 245.457 167.228 245.562C167.262 245.615 167.298 245.672 167.341 245.733C167.388 245.789 167.437 245.851 167.49 245.916C167.596 246.045 167.713 246.19 167.844 246.342C167.985 246.484 168.139 246.638 168.302 246.8C168.47 246.961 168.668 247.107 168.868 247.274C169.072 247.436 169.312 247.57 169.549 247.73C169.801 247.866 170.063 248.009 170.344 248.134C170.63 248.244 170.919 248.382 171.239 248.462C171.863 248.668 172.556 248.762 173.27 248.796C173.988 248.825 174.728 248.726 175.46 248.55C176.192 248.357 176.897 248.045 177.56 247.659C177.884 247.423 178.179 247.252 178.474 246.976C178.78 246.733 179.033 246.449 179.292 246.174C179.774 245.596 180.194 244.977 180.488 244.322C180.772 243.668 180.997 243.005 181.09 242.355C181.16 242.035 181.166 241.713 181.196 241.407C181.206 241.099 181.196 240.8 181.186 240.516C181.149 240.232 181.135 239.957 181.081 239.702C181.018 239.449 180.977 239.206 180.908 238.985C180.834 238.767 180.767 238.561 180.701 238.371Z" fill="#231F20"/>
<path d="M221.549 194.374H221.535C221.081 193.365 220.564 192.434 220.005 191.588C219.523 190.858 219.02 190.183 218.512 189.558C217.996 188.938 217.473 188.369 216.956 187.841C215.918 186.79 214.886 185.925 213.927 185.192C211.993 183.746 210.371 182.808 209.238 182.223C208.671 181.93 208.238 181.71 207.939 181.578C207.642 181.44 207.489 181.369 207.489 181.369C207.489 181.369 207.617 181.477 207.87 181.687C208.12 181.897 208.491 182.209 208.972 182.615C209.911 183.452 211.305 184.66 212.842 186.379C214.38 188.082 216.11 190.285 217.437 193.045C218.081 194.429 218.637 195.941 218.918 197.562C219.068 198.37 219.155 199.201 219.164 200.046C219.169 200.259 219.169 200.471 219.157 200.684C219.148 200.898 219.139 201.113 219.13 201.328C219.123 201.448 219.12 201.583 219.11 201.689L219.081 201.989C219.068 202.182 219.036 202.405 219.006 202.622C218.768 204.365 218.178 206.148 217.272 207.873C216.365 209.6 215.158 211.275 213.722 212.85C212.279 214.423 210.606 215.893 208.762 217.235C206.92 218.582 204.915 219.815 202.785 220.908C202.502 221.054 202.212 221.19 201.926 221.329C201.647 221.304 201.365 221.29 201.081 221.29C198.271 221.29 195.749 222.526 194.023 224.483C193.469 224.658 192.915 224.826 192.354 224.986C191.403 224.72 190.405 224.575 189.372 224.575C186.772 224.575 184.381 225.477 182.489 226.981C180.938 227.178 179.377 227.32 177.807 227.409C176.437 226.939 174.968 226.679 173.44 226.679C171.922 226.679 170.464 226.935 169.101 227.399C167.58 227.31 166.067 227.169 164.565 226.979C162.672 225.477 160.283 224.575 157.686 224.575C156.656 224.575 155.657 224.72 154.71 224.984C154.146 224.823 153.587 224.653 153.031 224.476C151.304 222.524 148.783 221.29 145.977 221.29C145.695 221.29 145.418 221.304 145.143 221.328C144.854 221.188 144.561 221.05 144.276 220.904C142.147 219.809 140.139 218.581 138.303 217.23C136.459 215.888 134.783 214.418 133.342 212.848C131.904 211.275 130.7 209.598 129.793 207.871C128.887 206.146 128.297 204.365 128.057 202.622C128.03 202.405 127.996 202.189 127.981 201.973C127.961 201.755 127.943 201.541 127.935 201.326L127.92 201.005C127.919 201.078 127.919 200.999 127.919 201.004L127.916 200.958L127.915 200.867L127.908 200.684L127.899 200.326L127.9 200.03C127.898 199.841 127.909 199.628 127.92 199.418C127.928 199.208 127.951 199 127.969 198.793C128.01 198.378 128.068 197.969 128.145 197.565C128.429 195.946 128.981 194.433 129.628 193.051C130.952 190.29 132.679 188.085 134.217 186.384C135.753 184.664 137.144 183.455 138.084 182.617C138.567 182.21 138.936 181.898 139.187 181.688C139.437 181.478 139.568 181.37 139.568 181.37C139.568 181.37 139.414 181.44 139.117 181.579C138.815 181.711 138.383 181.931 137.816 182.223C136.684 182.807 135.06 183.745 133.123 185.19C132.167 185.923 131.133 186.787 130.094 187.839C129.579 188.368 129.056 188.936 128.537 189.555C128.031 190.182 127.527 190.855 127.045 191.585C126.485 192.436 125.965 193.373 125.507 194.388C122.927 194.385 121.054 192.345 121.054 189.533C121.054 187.815 121.973 186.212 123.454 185.342C123.713 185.207 125.202 184.414 126.888 183.257C127.855 182.592 128.696 181.938 129.418 181.295C129.269 181.64 129.139 181.981 128.984 182.276C128.808 182.623 128.666 182.96 128.537 183.264C128.381 183.543 128.261 183.805 128.156 184.02C128.048 184.231 127.978 184.414 127.923 184.533C127.872 184.657 127.845 184.723 127.845 184.723L127.946 184.819C127.946 184.819 128.126 184.621 128.442 184.274C128.601 184.101 128.792 183.889 129.014 183.648C129.211 183.386 129.433 183.091 129.677 182.769C129.929 182.455 130.154 182.079 130.4 181.688C130.522 181.492 130.652 181.293 130.776 181.084C130.889 180.871 131.007 180.652 131.125 180.43C131.243 180.207 131.37 179.983 131.484 179.751C131.589 179.515 131.698 179.276 131.809 179.035C132.038 178.558 132.223 178.053 132.417 177.552C132.516 177.303 132.602 177.048 132.679 176.792C132.759 176.536 132.84 176.282 132.921 176.03C133.064 175.522 133.201 175.02 133.319 174.531C133.427 174.039 133.542 173.567 133.618 173.112C133.707 172.66 133.776 172.229 133.832 171.831C133.898 171.433 133.927 171.065 133.965 170.74C133.99 170.414 134.02 170.131 134.029 169.896C134.061 169.428 134.061 169.158 134.061 169.158L133.924 169.155C133.924 169.155 133.896 169.22 133.846 169.343C133.805 169.465 133.725 169.641 133.646 169.868C133.569 170.092 133.45 170.363 133.353 170.672C133.297 170.826 133.236 170.99 133.171 171.163C133.113 171.334 133.052 171.516 132.987 171.704C132.97 171.755 132.949 171.811 132.931 171.863C132.78 171.289 132.541 170.718 132.188 170.162C131.694 169.384 131.534 168.457 131.738 167.555C131.945 166.64 132.496 165.862 133.29 165.363C134.071 164.871 135.032 164.728 135.997 164.957C136.953 165.183 137.782 165.763 138.275 166.548C138.371 166.701 138.493 166.826 138.627 166.931C138.351 167.631 138.104 168.318 137.892 168.981C137.742 169.496 137.581 169.989 137.453 170.474C137.336 170.96 137.223 171.43 137.114 171.881C137.016 172.333 136.945 172.773 136.864 173.191C136.828 173.4 136.789 173.604 136.754 173.803C136.73 174.003 136.703 174.198 136.679 174.389C136.631 174.771 136.586 175.132 136.542 175.472C136.508 175.811 136.491 176.131 136.468 176.429C136.447 176.727 136.426 177.002 136.407 177.255C136.394 177.506 136.397 177.736 136.39 177.942C136.376 178.765 136.368 179.203 136.368 179.203H136.924C136.924 179.203 136.951 179.095 137.003 178.886C137.055 178.679 137.139 178.371 137.226 177.973C137.277 177.774 137.318 177.552 137.386 177.311C137.454 177.071 137.532 176.808 137.612 176.524C137.694 176.244 137.782 175.943 137.876 175.62C137.98 175.305 138.092 174.968 138.208 174.612C138.266 174.437 138.326 174.257 138.387 174.071C138.456 173.888 138.527 173.702 138.6 173.51C138.746 173.129 138.885 172.73 139.056 172.322C139.236 171.918 139.42 171.499 139.602 171.066C139.794 170.636 140.023 170.203 140.239 169.753C141.149 167.97 142.312 166.065 143.782 164.188C144.175 163.736 144.534 163.252 144.946 162.793C145.363 162.336 145.765 161.863 146.226 161.422C147.102 160.509 148.082 159.639 149.108 158.787C151.192 157.117 153.542 155.58 156.139 154.329C156.776 153.998 157.461 153.743 158.121 153.434C158.46 153.299 158.799 153.164 159.139 153.028C159.477 152.885 159.827 152.764 160.177 152.646C161.567 152.147 163.011 151.759 164.473 151.407C165.934 151.042 167.443 150.859 168.949 150.655L170.085 150.539C170.458 150.504 170.798 150.496 171.158 150.47L171.689 150.436L172.337 150.425L173.529 150.41C176.609 150.397 179.642 150.752 182.582 151.414C182.951 151.487 183.313 151.585 183.675 151.685C184.034 151.786 184.401 151.868 184.754 151.983C185.112 152.09 185.469 152.195 185.825 152.3C186.182 152.403 186.526 152.539 186.876 152.655C187.226 152.774 187.576 152.894 187.914 153.037C188.253 153.172 188.593 153.308 188.932 153.443C189.589 153.754 190.273 154.009 190.912 154.341C193.507 155.59 195.857 157.127 197.938 158.797C198.963 159.648 199.946 160.515 200.82 161.432C201.282 161.87 201.683 162.344 202.1 162.8C202.514 163.257 202.869 163.744 203.264 164.195C204.735 166.07 205.899 167.973 206.809 169.756C207.025 170.205 207.254 170.639 207.446 171.068C207.629 171.501 207.812 171.92 207.993 172.325C208.165 172.731 208.303 173.13 208.452 173.511C208.523 173.703 208.596 173.89 208.663 174.073C208.726 174.258 208.786 174.437 208.843 174.614C208.961 174.968 209.073 175.306 209.176 175.62C209.271 175.938 209.359 176.237 209.441 176.514C209.524 176.794 209.599 177.055 209.669 177.294C209.736 177.535 209.78 177.766 209.828 177.967C209.915 178.374 210.002 178.683 210.053 178.893C210.105 179.102 210.134 179.211 210.134 179.211L210.689 179.195C210.689 179.195 210.681 178.76 210.665 177.945C210.659 177.74 210.664 177.514 210.648 177.262C210.632 177.009 210.61 176.732 210.59 176.434C210.567 176.135 210.55 175.812 210.515 175.472C210.472 175.132 210.426 174.771 210.378 174.389C210.354 174.198 210.328 174.003 210.304 173.803C210.268 173.604 210.229 173.4 210.192 173.189C210.113 172.773 210.042 172.333 209.943 171.881C209.836 171.429 209.721 170.96 209.604 170.474C209.477 169.989 209.315 169.495 209.166 168.981C208.954 168.318 208.707 167.631 208.43 166.93C208.563 166.826 208.685 166.7 208.781 166.548C209.818 164.899 212.146 164.345 213.766 165.363C214.561 165.862 215.113 166.64 215.318 167.555C215.522 168.458 215.363 169.384 214.87 170.162C214.493 170.755 214.247 171.368 214.096 171.98C214.096 171.977 214.093 171.974 214.092 171.97C214.028 171.781 213.966 171.601 213.908 171.429C213.844 171.256 213.784 171.093 213.726 170.938C213.629 170.628 213.512 170.358 213.434 170.133C213.357 169.907 213.278 169.732 213.233 169.609C213.184 169.487 213.159 169.42 213.159 169.42L213.019 169.424C213.019 169.424 213.019 169.694 213.05 170.162C213.06 170.397 213.09 170.681 213.115 171.007C213.154 171.331 213.183 171.699 213.248 172.096C213.305 172.495 213.374 172.925 213.462 173.378C213.537 173.832 213.655 174.306 213.76 174.797C213.881 175.286 214.018 175.788 214.16 176.296C214.24 176.549 214.321 176.803 214.402 177.058C214.479 177.314 214.565 177.568 214.662 177.819C214.857 178.32 215.043 178.824 215.273 179.301C215.381 179.543 215.49 179.782 215.599 180.017C215.712 180.251 215.839 180.474 215.954 180.696C216.075 180.919 216.19 181.137 216.304 181.351C216.429 181.559 216.56 181.758 216.681 181.955C216.929 182.345 217.15 182.721 217.404 183.036C217.647 183.357 217.868 183.652 218.067 183.913C218.287 184.156 218.48 184.366 218.638 184.541C218.954 184.888 219.137 185.086 219.137 185.086L219.235 184.99C219.235 184.99 219.208 184.923 219.157 184.8C219.102 184.681 219.033 184.498 218.925 184.286C218.821 184.071 218.701 183.808 218.545 183.529C218.416 183.226 218.274 182.888 218.096 182.543C217.915 182.199 217.772 181.795 217.59 181.394C217.557 181.312 217.518 181.231 217.48 181.15C218.235 181.839 219.13 182.543 220.17 183.257C221.855 184.414 223.345 185.207 223.604 185.342C225.085 186.212 226.004 187.815 226.004 189.533C226.004 192.338 224.13 194.374 221.549 194.374ZM223.726 210.529C223.726 211.666 222.799 212.594 221.661 212.594C221.016 212.594 220.438 212.294 220.06 211.829C220.456 211.164 220.822 210.487 221.148 209.795C221.357 209.359 221.546 208.914 221.724 208.466C222.834 208.501 223.726 209.411 223.726 210.529ZM217.734 219.628C216.569 219.628 215.62 218.687 215.604 217.525C216.134 216.988 216.644 216.438 217.131 215.873C217.273 215.707 217.412 215.54 217.551 215.372C217.612 215.369 217.671 215.364 217.734 215.364C218.909 215.364 219.865 216.32 219.865 217.496C219.865 218.671 218.909 219.628 217.734 219.628ZM211.181 227.495C210.707 227.495 210.259 227.403 209.842 227.244C209.588 226.608 209.271 226.003 208.891 225.444C208.9 225.46 208.912 225.472 208.925 225.487C208.964 225.535 209.005 225.589 209.052 225.645C209.105 225.699 209.161 225.755 209.219 225.814C209.343 225.931 209.494 226.05 209.673 226.159C209.856 226.262 210.06 226.362 210.292 226.429C210.52 226.505 210.774 226.541 211.037 226.555C211.3 226.567 211.573 226.532 211.843 226.468C212.113 226.396 212.366 226.288 212.621 226.139C212.837 225.996 213.073 225.802 213.251 225.594C213.428 225.381 213.58 225.153 213.688 224.912C213.791 224.671 213.873 224.427 213.907 224.188C213.948 223.951 213.948 223.723 213.94 223.515C213.922 223.306 213.882 223.117 213.834 222.955C213.804 222.875 213.78 222.8 213.756 222.732C213.725 222.664 213.698 222.605 213.671 222.549C213.624 222.437 213.566 222.359 213.536 222.303C213.503 222.247 213.487 222.218 213.487 222.218L213.369 222.29C213.369 222.29 213.365 222.331 213.356 222.407C213.349 222.479 213.34 222.582 213.322 222.705C213.309 222.826 213.273 222.971 213.238 223.116C213.198 223.266 213.145 223.418 213.084 223.569C213.016 223.719 212.946 223.866 212.853 224.004C212.774 224.143 212.665 224.269 212.569 224.387C212.468 224.507 212.352 224.607 212.244 224.706L212.157 224.774C212.126 224.803 212.112 224.798 212.093 224.816L212.071 224.839C212.07 224.843 212.022 224.872 211.999 224.887L211.872 224.97C211.907 224.947 211.87 224.971 211.881 224.963L211.878 224.966L211.872 224.968L211.859 224.975L211.836 224.991L211.79 225.019C211.759 225.042 211.724 225.055 211.692 225.071C211.626 225.104 211.562 225.136 211.494 225.169C211.356 225.217 211.216 225.281 211.066 225.317C210.917 225.35 210.756 225.392 210.597 225.402C210.432 225.422 210.269 225.42 210.104 225.414C209.942 225.404 209.781 225.381 209.631 225.352C209.557 225.335 209.489 225.315 209.416 225.302C209.35 225.287 209.289 225.27 209.231 225.253C209.118 225.223 209.005 225.165 208.941 225.14C208.869 225.113 208.829 225.1 208.829 225.1L208.715 225.18C208.715 225.18 208.733 225.207 208.767 225.261C208.787 225.287 208.808 225.326 208.836 225.367C208.427 224.776 207.953 224.234 207.423 223.751V223.738C207.423 221.667 209.109 219.982 211.181 219.982C213.253 219.982 214.939 221.667 214.939 223.738C214.939 225.81 213.253 227.495 211.181 227.495ZM202.251 233.434C202.254 233.433 202.257 233.432 202.26 233.429L202.254 233.433L202.251 233.434ZM201.081 237.365C200.829 237.365 200.583 237.346 200.339 237.318C200.395 236.952 200.431 236.578 200.449 236.201C200.58 236.217 200.712 236.228 200.845 236.235C201.315 236.255 201.799 236.193 202.278 236.078C202.756 235.955 203.221 235.752 203.656 235.5C203.872 235.342 204.052 235.237 204.251 235.052C204.454 234.89 204.617 234.705 204.787 234.524C205.101 234.146 205.372 233.739 205.562 233.31C205.749 232.881 205.893 232.448 205.952 232.023C205.998 231.813 206 231.604 206.019 231.403C206.027 231.203 206.018 231.009 206.012 230.821C205.987 230.638 205.978 230.459 205.94 230.292C205.899 230.129 205.869 229.97 205.822 229.826C205.773 229.684 205.726 229.55 205.684 229.428C205.631 229.309 205.58 229.199 205.535 229.102C205.453 228.904 205.348 228.766 205.295 228.666C205.236 228.567 205.205 228.514 205.205 228.514L204.992 228.646C204.992 228.646 204.985 228.717 204.968 228.853C204.954 228.983 204.94 229.165 204.9 229.387C204.884 229.492 204.865 229.609 204.842 229.735C204.807 229.86 204.783 229.986 204.75 230.118C204.677 230.382 204.584 230.654 204.471 230.92C204.349 231.187 204.223 231.447 204.059 231.691C203.916 231.937 203.723 232.157 203.551 232.367C203.451 232.465 203.367 232.569 203.268 232.658C203.223 232.708 203.173 232.753 203.118 232.792C203.065 232.832 203.026 232.884 202.975 232.924C202.921 232.964 202.87 233.004 202.82 233.045L202.783 233.075L202.755 233.087C202.739 233.096 202.724 233.107 202.711 233.118C202.698 233.131 202.684 233.143 202.671 233.156C202.666 233.16 202.667 233.162 202.657 233.168L202.619 233.195L202.545 233.242L202.395 233.34L202.339 233.378C202.117 233.515 201.888 233.627 201.651 233.742C201.593 233.768 201.53 233.784 201.468 233.809C201.41 233.841 201.348 233.864 201.284 233.883C201.16 233.936 201.03 233.958 200.895 234.007C200.723 234.048 200.54 234.093 200.354 234.124C199.925 231.051 198.231 228.38 195.819 226.651C197.035 225.08 198.939 224.068 201.081 224.068C204.751 224.068 207.73 227.044 207.73 230.716C207.73 234.388 204.751 237.365 201.081 237.365ZM189.372 243.983C188.371 243.983 187.416 243.803 186.531 243.481C186.645 243.017 186.736 242.546 186.805 242.068C186.986 242.144 187.171 242.222 187.372 242.271C187.883 242.441 188.449 242.52 189.035 242.548C189.622 242.573 190.23 242.492 190.83 242.349C191.434 242.189 191.997 241.943 192.561 241.615C193.052 241.291 193.569 240.867 193.97 240.402C194.364 239.929 194.706 239.421 194.946 238.883C195.179 238.346 195.362 237.805 195.438 237.272C195.495 237.008 195.5 236.747 195.524 236.496C195.533 236.244 195.521 236.001 195.513 235.766C195.483 235.534 195.472 235.31 195.428 235.1C195.375 234.895 195.341 234.696 195.281 234.515C195.222 234.336 195.166 234.168 195.113 234.013C195.044 233.864 194.983 233.728 194.929 233.603C194.825 233.353 194.696 233.181 194.629 233.052C194.556 232.927 194.517 232.861 194.517 232.861L194.304 232.993C194.304 232.993 194.3 233.083 194.301 233.239C194.301 233.396 194.314 233.615 194.294 233.888C194.286 234.018 194.278 234.163 194.269 234.32C194.246 234.479 194.232 234.639 194.211 234.807C194.184 234.975 194.146 235.15 194.114 235.326C194.074 235.502 194.022 235.683 193.975 235.863C193.856 236.226 193.727 236.589 193.544 236.939C193.385 237.293 193.155 237.624 192.933 237.94C192.806 238.092 192.698 238.25 192.561 238.389L192.467 238.5L192.359 238.598C192.288 238.664 192.231 238.739 192.158 238.804L191.938 238.991L191.885 239.039L191.84 239.064C191.812 239.083 191.784 239.105 191.758 239.128C191.733 239.151 191.707 239.173 191.684 239.198C191.673 239.204 191.673 239.206 191.66 239.216L191.613 239.247L191.519 239.311L191.226 239.503C191.222 239.505 191.22 239.508 191.231 239.5L191.226 239.501L191.219 239.506L191.171 239.533L191.108 239.568L190.984 239.644C190.905 239.7 190.814 239.735 190.729 239.775C190.639 239.811 190.558 239.867 190.468 239.899L190.204 240.011C190.113 240.049 190.021 240.067 189.928 240.099L189.793 240.153L189.652 240.19C189.56 240.21 189.466 240.246 189.372 240.26C189.276 240.272 189.182 240.298 189.086 240.321C188.703 240.377 188.306 240.437 187.919 240.421C187.583 240.43 187.257 240.394 186.934 240.352C186.934 240.295 186.939 240.238 186.939 240.179C186.939 236.393 185.37 232.968 182.852 230.515C184.374 228.59 186.727 227.352 189.372 227.352C193.963 227.352 197.686 231.076 197.686 235.668C197.686 240.26 193.963 243.983 189.372 243.983ZM173.44 250.902C167.517 250.902 162.716 246.101 162.716 240.179C162.716 234.257 167.517 229.457 173.44 229.457C179.361 229.457 184.162 234.257 184.162 240.179C184.162 246.101 179.361 250.902 173.44 250.902ZM159.915 239.501L159.906 239.506L159.892 239.515L159.86 239.533L159.797 239.568L159.672 239.644C159.594 239.7 159.503 239.735 159.416 239.775C159.327 239.811 159.245 239.867 159.155 239.899L158.892 240.011C158.802 240.049 158.708 240.067 158.617 240.099L158.481 240.153L158.341 240.19C158.248 240.21 158.155 240.246 158.058 240.26C157.965 240.272 157.87 240.298 157.774 240.321C157.392 240.377 156.994 240.437 156.608 240.421C156.213 240.431 155.829 240.384 155.453 240.33C155.273 240.291 155.086 240.26 154.909 240.216C154.738 240.168 154.563 240.124 154.402 240.072C154.24 240.017 154.093 239.958 153.941 239.91C153.799 239.854 153.669 239.801 153.553 239.754C153.49 239.729 153.431 239.705 153.373 239.682C153.318 239.651 153.262 239.622 153.213 239.595C153.11 239.541 153.023 239.494 152.952 239.456C152.81 239.383 152.728 239.347 152.728 239.347L152.522 239.49C152.522 239.49 152.564 239.554 152.643 239.674C152.728 239.788 152.816 239.97 152.999 240.179C153.086 240.286 153.179 240.405 153.287 240.53C153.403 240.647 153.528 240.773 153.66 240.907C153.798 241.038 153.959 241.158 154.121 241.297C154.287 241.43 154.484 241.538 154.678 241.671C154.883 241.781 155.098 241.898 155.328 242.003C155.563 242.093 155.8 242.206 156.061 242.271C156.571 242.441 157.138 242.52 157.723 242.548C158.311 242.573 158.919 242.492 159.518 242.349C159.711 242.298 159.9 242.235 160.089 242.166C160.156 242.632 160.248 243.092 160.365 243.54C159.521 243.825 158.622 243.983 157.686 243.983C153.094 243.983 149.37 240.26 149.37 235.668C149.37 231.076 153.094 227.352 157.686 227.352C160.286 227.352 162.603 228.549 164.128 230.42C161.71 232.727 160.141 235.919 159.958 239.475L159.915 239.503C159.91 239.505 159.908 239.508 159.92 239.5L159.915 239.501ZM146.727 233.949C146.664 233.967 146.601 233.983 146.536 234.007C146.273 234.068 145.992 234.142 145.707 234.159C145.418 234.199 145.127 234.197 144.834 234.189C144.547 234.17 144.26 234.134 143.992 234.082C143.86 234.054 143.737 234.019 143.607 233.995C143.489 233.963 143.379 233.934 143.281 233.91C143.177 233.885 143.076 233.849 142.985 233.809C142.895 233.77 142.819 233.739 142.757 233.715C142.633 233.665 142.559 233.643 142.559 233.643L142.354 233.785C142.354 233.785 142.386 233.835 142.447 233.929C142.514 234.022 142.583 234.165 142.727 234.334C142.796 234.419 142.874 234.513 142.955 234.615C143.046 234.709 143.146 234.81 143.251 234.916C143.359 235.022 143.488 235.12 143.616 235.23C143.749 235.337 143.904 235.424 144.059 235.529C144.222 235.619 144.394 235.712 144.576 235.795C144.763 235.868 144.953 235.958 145.161 236.011C145.567 236.147 146.019 236.21 146.487 236.235C146.527 236.236 146.567 236.234 146.608 236.235C146.627 236.601 146.663 236.963 146.716 237.318C146.473 237.346 146.226 237.365 145.977 237.365C142.305 237.365 139.328 234.388 139.328 230.716C139.328 227.044 142.305 224.068 145.977 224.068C148.117 224.068 150.022 225.08 151.238 226.651C148.871 228.348 147.196 230.951 146.727 233.949ZM137.216 227.244C136.798 227.403 136.348 227.495 135.876 227.495C133.805 227.495 132.119 225.81 132.119 223.738C132.119 221.667 133.805 219.982 135.876 219.982C137.948 219.982 139.634 221.667 139.634 223.738C139.634 223.743 139.632 223.746 139.632 223.751C138.581 224.709 137.75 225.901 137.216 227.244ZM129.322 219.628C128.147 219.628 127.19 218.671 127.19 217.496C127.19 216.32 128.147 215.364 129.322 215.364C129.383 215.364 129.44 215.369 129.497 215.372C129.638 215.543 129.777 215.712 129.921 215.88C130.411 216.445 130.922 216.996 131.452 217.535C131.431 218.693 130.485 219.628 129.322 219.628ZM125.394 212.594C124.256 212.594 123.332 211.666 123.332 210.529C123.332 209.414 124.219 208.505 125.324 208.466C125.503 208.916 125.693 209.362 125.902 209.8C126.23 210.492 126.595 211.171 126.992 211.835C126.615 212.297 126.038 212.594 125.394 212.594ZM229.059 189.533C229.059 186.718 227.544 184.093 225.105 182.683L225.041 182.648C223.438 181.817 219.015 179.157 217.835 176.851L217.798 176.786C217.781 176.756 216.16 173.827 217.447 171.8C218.379 170.331 218.683 168.584 218.297 166.881C217.912 165.169 216.879 163.71 215.392 162.776C213.911 161.846 212.122 161.564 210.353 161.985C209.075 162.288 207.913 162.956 207.025 163.873C206.77 163.39 206.503 162.905 206.211 162.418C204.845 160.154 203.087 157.868 200.938 155.732C198.767 153.624 196.226 151.643 193.343 150.026C192.634 149.602 191.88 149.244 191.137 148.857C190.755 148.683 190.372 148.507 189.989 148.332C189.608 148.15 189.214 147.991 188.818 147.834C187.25 147.18 185.606 146.653 183.932 146.208C182.257 145.747 180.532 145.445 178.793 145.205C177.054 144.968 175.289 144.883 173.529 144.858L172.212 144.889L171.56 144.907L170.897 144.954C170.455 144.988 170.011 145.009 169.574 145.054L168.264 145.206C166.525 145.446 164.8 145.748 163.126 146.208C161.45 146.654 159.807 147.181 158.239 147.835C157.843 147.992 157.45 148.15 157.069 148.333C156.686 148.508 156.303 148.683 155.921 148.857C155.177 149.245 154.423 149.603 153.714 150.027C150.831 151.643 148.291 153.624 146.12 155.733C143.971 157.868 142.21 160.154 140.844 162.418C140.555 162.905 140.286 163.39 140.032 163.873C139.143 162.956 137.982 162.288 136.704 161.985C134.935 161.565 133.146 161.846 131.666 162.776C130.179 163.709 129.146 165.167 128.758 166.881C128.375 168.583 128.676 170.33 129.609 171.8C130.902 173.833 129.273 176.762 129.259 176.786L129.223 176.851C128.04 179.157 123.618 181.817 122.015 182.647L121.952 182.683C119.513 184.093 117.999 186.718 117.999 189.533C117.999 193.66 120.706 196.856 124.447 197.369C124.377 197.642 124.312 197.919 124.254 198.2C124.202 198.458 124.147 198.716 124.109 198.98C124.068 199.242 124.026 199.507 124 199.797L123.953 200.226L123.925 200.596L123.913 200.779L123.905 200.87L123.901 200.916C123.9 200.951 123.9 200.902 123.899 201.006V201.421C123.894 201.699 123.906 201.978 123.922 202.259C123.931 202.54 123.96 202.82 123.987 203.103C124.072 203.994 124.233 204.89 124.455 205.782C122.235 206.219 120.554 208.181 120.554 210.529C120.554 213.036 122.471 215.104 124.916 215.346C124.597 215.996 124.413 216.724 124.413 217.496C124.413 220.203 126.616 222.406 129.322 222.406C129.377 222.406 129.427 222.399 129.482 222.397C129.391 222.83 129.343 223.28 129.343 223.738C129.343 227.34 132.273 230.273 135.876 230.273C136.109 230.273 136.337 230.256 136.562 230.232C136.555 230.392 136.55 230.554 136.55 230.716C136.55 235.913 140.78 240.143 145.977 240.143C146.49 240.143 146.991 240.1 147.484 240.019C149.177 243.978 153.113 246.76 157.686 246.76C158.963 246.76 160.188 246.539 161.331 246.139C163.536 250.602 168.135 253.679 173.44 253.679C178.767 253.679 183.382 250.578 185.575 246.085C186.759 246.521 188.037 246.76 189.372 246.76C193.944 246.76 197.878 243.978 199.573 240.019C200.065 240.1 200.566 240.143 201.081 240.143C206.278 240.143 210.507 235.913 210.507 230.716C210.507 230.554 210.503 230.392 210.496 230.232C210.72 230.256 210.948 230.273 211.181 230.273C214.784 230.273 217.715 227.34 217.715 223.738C217.715 223.28 217.667 222.83 217.575 222.397C217.629 222.399 217.681 222.406 217.734 222.406C220.442 222.406 222.644 220.203 222.644 217.496C222.644 216.724 222.46 215.996 222.142 215.346C224.586 215.104 226.503 213.036 226.503 210.529C226.503 208.178 224.818 206.216 222.596 205.78C222.817 204.887 222.978 203.992 223.065 203.101C223.289 201.085 223.052 199.131 222.597 197.357C226.345 196.853 229.059 193.659 229.059 189.533Z" fill="#231F20"/>
</svg>
