<svg width="600" height="400" viewBox="0 0 600 400" fill="none" xmlns="http://www.w3.org/2000/svg">
<rect width="600" height="400" fill="white"/>
<path d="M300.432 185.311L300.719 157.26L321.484 193.257L300.432 185.311ZM348.964 243.482L278.751 230.163H325.584L348.964 243.482ZM274.168 229.266L274.044 229.479L251.132 242.889L297.437 189.202L274.168 229.266ZM329.429 207.03L350.016 242.721L317.256 214.024L329.429 207.03ZM329.82 206.115L329.721 205.943L315.985 213.836L324.995 229.367H275.031L300.027 186.329L309.209 202.155L322.951 194.207L300.336 155L248.504 244.886L351.819 244.85H352.164L329.82 206.115Z" fill="#231F20"/>
<path d="M452.015 194.119L440.002 201.068L431.472 186.365L452.015 194.119ZM430.935 185.311L431.223 157.26L451.988 193.257L430.935 185.311ZM430.138 185.424L430.122 185.454L382.075 241.159L430.426 157.311L430.138 185.424ZM479.467 243.482L409.255 230.163H456.088L479.467 243.482ZM478.514 242.023L456.479 229.469L448.518 215.747L478.514 242.023ZM404.962 230.16L478.213 244.055L381.163 244.088L404.962 230.16ZM404.671 229.266L404.548 229.479L381.635 242.889L427.941 189.202L404.671 229.266ZM459.932 207.03L480.519 242.721L447.759 214.024L459.932 207.03ZM460.323 206.115L460.224 205.943L446.488 213.835L455.498 229.367H405.534L430.531 186.329L439.712 202.155L453.455 194.207L430.839 155L379.007 244.886L482.323 244.85H482.667L460.323 206.115Z" fill="#231F20"/>
<path d="M199.317 206.115L199.217 205.943L185.481 213.836L194.491 229.367H144.527L169.524 186.329L178.705 202.156L192.448 194.207L169.832 155L118 244.886L221.316 244.85H221.661L199.317 206.115Z" fill="#231F20"/>
</svg>
