<svg width="600" height="400" viewBox="0 0 600 400" fill="none" xmlns="http://www.w3.org/2000/svg">
<rect width="600" height="400" fill="white"/>
<path d="M209.893 200.62C209.893 205.693 213.975 209.723 219.048 209.723C221.304 209.723 223.485 208.938 225.209 207.264C225.387 207.086 225.437 206.758 225.237 206.58L223.663 204.956C223.51 204.803 223.231 204.778 223.028 204.956C221.963 205.818 220.67 206.402 219.149 206.402C215.903 206.402 213.469 203.712 213.469 200.542C213.469 197.349 215.878 194.634 219.124 194.634C220.545 194.634 221.963 195.19 223.028 196.131C223.231 196.334 223.485 196.334 223.663 196.131L225.209 194.531C225.412 194.328 225.412 194.025 225.184 193.822C223.46 192.276 221.61 191.464 219.048 191.464C213.975 191.464 209.893 195.547 209.893 200.62Z" fill="#231F20"/>
<path d="M231.036 208.988C231.036 209.241 231.239 209.47 231.517 209.47H233.85C234.103 209.47 234.331 209.241 234.331 208.988V202.522H237.146L240.52 209.242C240.57 209.344 240.698 209.47 240.926 209.47H243.59C244.021 209.47 244.197 209.064 244.021 208.735L240.545 202.294C242.753 201.407 244.299 199.504 244.299 197.171C244.299 194.153 241.813 191.717 238.77 191.717H231.517C231.239 191.717 231.036 191.945 231.036 192.201V208.988ZM234.356 199.808V194.76H238.492C239.836 194.76 241.004 195.878 241.004 197.221C241.004 198.642 239.836 199.808 238.492 199.808H234.356Z" fill="#231F20"/>
<path d="M248.552 209.469H250.757C251.163 209.469 251.392 209.216 251.494 208.963L252.738 206.224H260.319L261.563 208.963C261.741 209.317 261.919 209.469 262.297 209.469H264.505C264.883 209.469 265.086 209.141 264.936 208.81L257.124 191.742C257.049 191.592 256.946 191.464 256.693 191.464H256.44C256.211 191.464 256.084 191.592 256.008 191.742L248.121 208.81C247.968 209.141 248.171 209.469 248.552 209.469ZM253.978 203.409L256.465 197.83H256.54L259.076 203.409H253.978Z" fill="#231F20"/>
<path d="M269.745 208.988C269.745 209.241 269.948 209.47 270.229 209.47H272.563C272.816 209.47 273.044 209.241 273.044 208.988V202.572H279.307C279.56 202.572 279.788 202.344 279.788 202.091V200.011C279.788 199.757 279.56 199.529 279.307 199.529H273.044V194.76H280.55C280.828 194.76 281.031 194.531 281.031 194.278V192.201C281.031 191.945 280.828 191.717 280.55 191.717H270.229C269.948 191.717 269.745 191.945 269.745 192.201V208.988Z" fill="#231F20"/>
<path d="M288.936 208.988C288.936 209.241 289.164 209.47 289.42 209.47H291.778C292.031 209.47 292.259 209.241 292.259 208.988V194.76H296.139C296.417 194.76 296.62 194.531 296.62 194.278V192.201C296.62 191.945 296.417 191.717 296.139 191.717H285.056C284.778 191.717 284.575 191.945 284.575 192.201V194.278C284.575 194.531 284.778 194.76 285.056 194.76H288.936V208.988Z" fill="#231F20"/>
<path d="M310.268 209.141C310.268 209.317 310.421 209.47 310.599 209.47H311.13C311.333 209.47 311.461 209.317 311.461 209.141V200.898H322.847V209.141C322.847 209.317 323 209.47 323.178 209.47H323.71C323.913 209.47 324.041 209.317 324.041 209.141V192.048C324.041 191.87 323.913 191.717 323.71 191.717H323.178C323 191.717 322.847 191.87 322.847 192.048V199.833H311.461V192.048C311.461 191.87 311.333 191.717 311.13 191.717H310.599C310.421 191.717 310.268 191.87 310.268 192.048V209.141Z" fill="#231F20"/>
<path d="M330.652 200.62C330.652 205.718 334.709 209.723 339.782 209.723C344.878 209.723 348.936 205.718 348.936 200.62C348.936 195.547 344.878 191.464 339.782 191.464C334.709 191.464 330.652 195.547 330.652 200.62ZM331.767 200.62C331.767 196.181 335.344 192.579 339.782 192.579C344.219 192.579 347.82 196.181 347.82 200.62C347.82 205.058 344.219 208.607 339.782 208.607C335.344 208.607 331.767 205.058 331.767 200.62Z" fill="#231F20"/>
<path d="M354.559 207.645C354.89 207.948 356.918 209.723 359.935 209.723C362.853 209.723 365.465 207.745 365.465 205.209C365.465 202.269 363.259 201.051 359.782 199.857C357.221 199.02 355.574 198.083 355.574 195.928C355.574 194.481 356.74 192.554 359.86 192.554C361.813 192.554 363.512 193.694 363.587 193.747C363.84 193.897 363.993 193.822 364.146 193.619C364.196 193.519 364.271 193.391 364.349 193.291C364.527 193.01 364.349 192.832 364.246 192.757C364.246 192.757 362.397 191.464 359.885 191.464C355.928 191.464 354.406 194.05 354.406 195.953C354.406 198.87 356.359 199.91 359.301 200.948C362.369 201.988 364.221 203.003 364.221 205.261C364.221 207.111 362.269 208.657 359.96 208.657C357.399 208.657 355.522 206.933 355.269 206.705C355.065 206.527 354.89 206.605 354.712 206.808L354.484 207.111C354.281 207.389 354.406 207.517 354.559 207.645Z" fill="#231F20"/>
<path d="M372.101 209.141C372.101 209.317 372.254 209.47 372.429 209.47H372.888C373.141 209.47 373.294 209.317 373.294 209.141V203.156H377.908C381.028 203.156 383.615 200.57 383.615 197.399C383.615 194.278 381.028 191.717 377.883 191.717H372.429C372.254 191.717 372.101 191.87 372.101 192.048V209.141ZM373.294 201.988V192.91H377.808C380.316 192.91 382.422 194.887 382.422 197.374C382.422 199.935 380.316 201.988 377.833 201.988H373.294Z" fill="#231F20"/>
<path d="M389.667 209.141C389.667 209.317 389.82 209.47 389.998 209.47H390.529C390.707 209.47 390.885 209.344 390.885 209.141V192.048C390.885 191.87 390.732 191.717 390.554 191.717H389.998C389.82 191.717 389.667 191.87 389.667 192.048V209.141Z" fill="#231F20"/>
<path d="M401.454 209.141C401.454 209.317 401.604 209.47 401.782 209.47H402.238C402.494 209.47 402.644 209.317 402.644 209.141V192.807H407.514C407.717 192.807 407.845 192.657 407.845 192.479V192.048C407.845 191.87 407.717 191.717 407.514 191.717H396.609C396.431 191.717 396.281 191.845 396.281 192.048V192.429C396.281 192.657 396.356 192.807 396.609 192.807H401.454V209.141Z" fill="#231F20"/>
<path d="M409.906 209.47H410.615C410.793 209.47 410.921 209.344 410.971 209.241L413.002 204.575H422.689L424.741 209.241C424.794 209.344 424.919 209.47 425.097 209.47H425.756C426.035 209.47 426.035 209.317 425.984 209.166L418.25 191.514C418.175 191.364 418.047 191.336 417.922 191.336H417.844C417.719 191.336 417.591 191.414 417.541 191.514L409.728 209.166C409.653 209.369 409.728 209.47 409.906 209.47ZM413.458 203.587L417.869 193.366H417.922L422.258 203.587H413.458Z" fill="#231F20"/>
<path d="M431.327 209.141C431.327 209.317 431.48 209.47 431.658 209.47H440.611C440.789 209.47 440.939 209.369 440.939 209.191V208.735C440.939 208.557 440.914 208.404 440.611 208.404H432.52V192.048C432.52 191.87 432.367 191.717 432.217 191.717H431.658C431.48 191.717 431.327 191.87 431.327 192.048V209.141Z" fill="#231F20"/>
<path d="M446.232 209.141C446.232 209.317 446.385 209.47 446.563 209.47H447.094C447.272 209.47 447.45 209.344 447.45 209.141V192.048C447.45 191.87 447.297 191.717 447.122 191.717H446.563C446.385 191.717 446.232 191.87 446.232 192.048V209.141Z" fill="#231F20"/>
<path d="M458.019 209.141C458.019 209.317 458.169 209.47 458.347 209.47H458.803C459.059 209.47 459.209 209.317 459.209 209.141V192.807H464.08C464.283 192.807 464.41 192.657 464.41 192.479V192.048C464.41 191.87 464.283 191.717 464.08 191.717H453.174C452.996 191.717 452.846 191.845 452.846 192.048V192.429C452.846 192.657 452.921 192.807 453.174 192.807H458.019V209.141Z" fill="#231F20"/>
<path d="M474.645 209.141C474.645 209.547 475.177 209.47 475.508 209.47C475.683 209.47 475.836 209.317 475.836 209.141V200.823L482.43 192.098C482.583 191.895 482.48 191.717 482.227 191.717H481.465C481.34 191.717 481.212 191.767 481.137 191.87L475.252 199.757L469.469 191.87C469.394 191.767 469.266 191.717 469.141 191.717H468.379C468.126 191.717 468.026 191.895 468.176 192.098L474.645 200.848V209.141Z" fill="#231F20"/>
<path d="M147.843 195.163C147.843 200.414 152.137 204.686 157.416 204.686C159.899 204.686 162.133 203.796 163.868 202.108C164.016 201.96 164.099 201.752 164.094 201.543C164.085 201.365 164.013 201.206 163.893 201.101L162.686 199.922C162.442 199.719 162.083 199.718 161.794 199.944C160.673 200.809 159.374 201.61 157.469 201.61C153.987 201.61 151.15 198.695 151.15 195.11C151.15 191.514 153.973 188.585 157.444 188.585C158.954 188.585 160.575 189.217 161.774 190.259C161.933 190.418 162.099 190.499 162.272 190.499C162.394 190.499 162.578 190.454 162.728 190.257L163.871 189.094C164.016 188.95 164.091 188.76 164.085 188.568C164.08 188.374 163.991 188.19 163.832 188.051C161.869 186.346 159.888 185.587 157.416 185.587C152.137 185.587 147.843 189.884 147.843 195.163Z" fill="#231F20"/>
<path d="M190.858 199.73L156.74 233.847L122.622 199.73L156.74 165.609L190.858 199.73ZM157.196 161.176C156.96 160.942 156.523 160.94 156.284 161.179L118.186 199.271C118.064 199.396 118 199.557 118 199.73C118 199.902 118.064 200.063 118.189 200.188L156.284 238.281C156.404 238.4 156.57 238.47 156.74 238.47C156.912 238.47 157.079 238.4 157.199 238.281L195.291 200.188C195.413 200.066 195.48 199.902 195.48 199.73C195.48 199.557 195.413 199.393 195.291 199.271L157.196 161.176Z" fill="#231F20"/>
<path d="M150.126 209.614V211.775C150.126 212.134 150.396 212.426 150.733 212.426H162.748C163.084 212.426 163.354 212.134 163.354 211.775V209.614C163.354 209.255 163.084 208.966 162.748 208.966H150.733C150.396 208.966 150.126 209.255 150.126 209.614Z" fill="#231F20"/>
</svg>
