<svg width="600" height="400" viewBox="0 0 600 400" fill="none" xmlns="http://www.w3.org/2000/svg">
<rect width="600" height="400" fill="white"/>
<path d="M600 0H0V400H600V0Z" fill="#405766"/>
<path d="M194.574 283.33H195.039C199.809 283.33 203.066 281.643 203.066 276.844C203.066 272.366 200.419 270.01 195.854 270.01H194.574V283.33ZM190.415 266.491H196.348C201.611 266.491 207.515 269.224 207.515 276.583C207.515 284.115 201.67 286.849 196.086 286.849H190.415V266.491Z" fill="#E5EDF2"/>
<path d="M228.652 286.849V266.492H241.711V270.01H232.811V274.605H241.711V278.125H232.811V283.33H241.711V286.849H228.652Z" fill="#E5EDF2"/>
<path d="M272.969 283.563C274.51 283.563 276.052 282.952 277.302 281.877L279.63 284.901C277.651 286.414 275.295 287.199 272.795 287.199C266.687 287.199 262.121 282.894 262.121 276.671C262.121 270.709 266.979 266.143 272.969 266.143C275.295 266.143 277.215 266.87 279.222 268.121L277.215 271.348C275.994 270.418 274.539 269.778 272.969 269.778C269.276 269.778 266.571 272.804 266.571 276.671C266.571 280.743 268.985 283.563 272.969 283.563Z" fill="#E5EDF2"/>
<path d="M304.198 266.492H300.039V286.849H304.198V266.492Z" fill="#E5EDF2"/>
<path d="M339.238 286.849H336.272L330.339 271.93V286.849H326.179V266.492H332.317L337.784 280.684L343.455 266.492H349.476V286.849H345.316V271.988L339.238 286.849Z" fill="#E5EDF2"/>
<path d="M387.77 277.253C387.77 283.65 385.328 287.199 379.511 287.199C373.81 287.199 371.367 283.65 371.367 277.253V266.492H375.526V277.805C375.526 281.702 377.097 283.563 379.569 283.563C382.04 283.563 383.612 281.702 383.612 277.805V266.492H387.77V277.253Z" fill="#E5EDF2"/>
<path d="M416.818 269.69C415.422 269.69 414.171 270.388 414.171 271.726C414.171 273.296 416.09 273.733 417.661 274.286C420.54 275.274 424 276.612 424 280.887C424 285.307 419.842 287.198 416.294 287.198C413.153 287.198 410.71 286.006 408.5 283.796L411.263 281.091C412.921 282.69 414.2 283.65 416.322 283.65C417.951 283.65 419.551 282.865 419.551 281.061C419.551 279.317 417.69 278.648 415.624 277.891C412.979 276.903 410.012 275.739 410.012 271.842C410.012 267.974 413.298 266.142 416.672 266.142C419.289 266.142 421.354 266.986 423.419 268.556L421.034 271.523C419.901 270.563 418.388 269.69 416.818 269.69Z" fill="#E5EDF2"/>
<path d="M267.14 222.382L302.117 233.748L337.095 222.382L358.713 192.628V155.85L337.095 126.095L302.117 114.731L267.14 126.095L245.522 155.85V192.628L267.14 222.382ZM302.479 236.098H301.755L266.052 224.497L265.465 224.07L243.398 193.7L243.174 193.01V155.469L243.398 154.779L265.465 124.408L266.052 123.982L301.755 112.38H302.479L338.183 123.982L338.77 124.408L360.836 154.779L361.061 155.469V193.01L360.836 193.7L338.77 224.07L338.183 224.497L302.479 236.098Z" fill="#E5EDF2"/>
<path d="M303.233 235.345H301.001L265.298 125.462L267.531 124.735L302.117 231.184L336.705 124.735L338.938 125.462L303.233 235.345Z" fill="#7F8F9A"/>
<path d="M336.705 223.744L302.117 117.296L267.532 223.744L265.298 223.018L301.001 113.135H303.233L338.938 223.018L336.705 223.744Z" fill="#9CB2C3"/>
<path d="M359.888 194.183H244.349V191.836H356.276L265.726 126.047L267.105 124.148L360.578 192.06L359.888 194.183Z" fill="#7F8F9A"/>
<path d="M337.132 224.33L243.658 156.419L244.348 154.295H359.888V156.643H247.96L338.512 222.432L337.132 224.33Z" fill="#9CB2C3"/>
<path d="M303.234 235.345L301.001 234.62L335.588 128.172L245.038 193.959L243.658 192.06L337.132 124.148L338.938 125.462L303.234 235.345Z" fill="#7F8F9A"/>
<path d="M267.105 224.33L265.298 223.018L301.001 113.135L303.234 113.86L268.647 220.308L359.198 154.519L360.578 156.418L267.105 224.33Z" fill="#9CB2C3"/>
<path d="M267.268 222.207H336.969L358.508 155.917L302.117 114.948L245.728 155.917L267.268 222.207ZM337.821 224.555H266.414L265.298 223.744L243.233 155.832L243.659 154.519L301.427 112.548H302.807L360.578 154.519L361.004 155.832L338.938 223.744L337.821 224.555Z" fill="#E5EDF2"/>
<path d="M245.728 192.561L302.117 233.532L358.508 192.561L336.968 126.271H267.268L245.728 192.561ZM302.807 235.932H301.427L243.658 193.959L243.232 192.647L265.298 124.735L266.414 123.924H337.821L338.938 124.735L361.004 192.647L360.577 193.959L302.807 235.932Z" fill="#E5EDF2"/>
</svg>
