<svg width="600" height="400" viewBox="0 0 600 400" fill="none" xmlns="http://www.w3.org/2000/svg">
<g clip-path="url(#clip0_1_12)">
<rect width="600" height="400" fill="white"/>
<rect y="-1" width="600" height="401" fill="#0F172A"/>
<path fill-rule="evenodd" clip-rule="evenodd" d="M233.212 212.464C235.396 211.2 237.209 209.385 238.471 207.2L246.785 212C244.682 215.642 241.659 218.667 238.019 220.773C234.379 222.879 230.25 223.992 226.045 224C221.839 224.008 217.706 222.91 214.058 220.818C210.41 218.726 207.376 215.711 205.26 212.077L213.556 207.246C214.826 209.427 216.646 211.235 218.835 212.491C221.024 213.746 223.504 214.405 226.027 214.4C228.55 214.395 231.028 213.728 233.212 212.464Z" fill="url(#paint0_radial_1_12)"/>
<path d="M246.785 212C248.11 209.704 247.324 206.769 245.028 205.443C242.732 204.118 239.796 204.904 238.471 207.2L246.785 212Z" fill="url(#paint1_radial_1_12)"/>
<path fill-rule="evenodd" clip-rule="evenodd" d="M211.6 200.014C211.602 202.537 212.268 205.015 213.529 207.2L205.215 212C203.113 208.358 202.004 204.228 202 200.023C201.996 195.817 203.097 191.685 205.193 188.039C207.289 184.393 210.306 181.362 213.942 179.249C217.578 177.136 221.705 176.016 225.911 176L225.946 185.6C223.423 185.61 220.947 186.282 218.765 187.55C216.584 188.817 214.773 190.636 213.516 192.823C212.258 195.011 211.598 197.49 211.6 200.014Z" fill="url(#paint2_radial_1_12)"/>
<path d="M205.215 212C206.541 214.296 209.477 215.083 211.772 213.757C214.068 212.432 214.855 209.496 213.529 207.2L205.215 212Z" fill="url(#paint3_radial_1_12)"/>
<path fill-rule="evenodd" clip-rule="evenodd" d="M233.188 187.523C231.002 186.263 228.523 185.6 226 185.6L226 176C230.205 176 234.337 177.105 237.981 179.204C241.625 181.304 244.653 184.323 246.762 187.961C248.872 191.599 249.988 195.728 250 199.933C250.012 204.138 248.918 208.273 246.829 211.923L238.498 207.154C239.751 204.964 240.407 202.483 240.4 199.96C240.393 197.437 239.723 194.96 238.457 192.777C237.192 190.594 235.375 188.782 233.188 187.523Z" fill="url(#paint4_radial_1_12)"/>
<path d="M226 176C223.349 176 221.2 178.149 221.2 180.8C221.2 183.451 223.349 185.6 226 185.6L226 176Z" fill="url(#paint5_radial_1_12)"/>
<path d="M270.648 211.616V204.064H276.44C281.432 204.064 284.312 201.056 284.312 196.224C284.312 191.2 281.56 188.288 276.44 188.288H265.464V211.616H270.648ZM270.648 192.896H275.8C277.688 192.896 278.84 193.76 278.84 195.424V197.152C278.84 198.688 277.752 199.776 275.736 199.776H270.648V192.896Z" fill="white"/>
<path d="M289.472 208.736C291.52 210.88 294.304 211.936 297.792 211.936C301.28 211.936 304.064 210.88 306.08 208.736C308.128 206.592 309.152 203.68 309.152 200C309.152 196.32 308.128 193.408 306.048 191.264C304 189.088 301.248 188 297.792 188C294.336 188 291.584 189.088 289.504 191.264C287.456 193.408 286.432 196.32 286.432 200C286.432 203.68 287.456 206.592 289.472 208.736ZM291.904 198.304C291.904 194.752 294.08 192.512 297.792 192.512C301.376 192.512 303.712 194.688 303.712 198.304V201.6C303.712 205.152 301.504 207.424 297.792 207.424C294.208 207.424 291.904 205.28 291.904 201.6V198.304Z" fill="white"/>
<path d="M317.898 211.616V203.392H326.57V211.616H331.85V204C331.85 201.984 330.922 200.992 329.098 200.992H328.202V200.768C330.41 200 331.818 197.92 331.818 195.136C331.818 190.912 329.386 188.288 324.746 188.288H312.714V211.616H317.898ZM317.898 192.704H323.338C325.354 192.704 326.346 193.536 326.346 195.232V196.704C326.346 198.272 325.258 199.264 323.338 199.264H317.898V192.704Z" fill="white"/>
<path d="M333.067 188.288V192.768H339.435V211.616H344.587V192.768H351.019V188.288H333.067Z" fill="white"/>
<path d="M371.346 211.616L362.802 188.288H356.786L348.562 211.616H353.906L355.282 207.552H364.338L365.682 211.616H371.346ZM357.522 200.928L359.794 193.696H359.986L362.13 200.928L363.026 203.584H356.626L357.522 200.928Z" fill="white"/>
<path d="M387.839 211.616V207.04H378.335V188.288H373.151V211.616H387.839Z" fill="white"/>
<path d="M242.971 102.029L236.182 108.818C230.559 103.194 221.441 103.194 215.818 108.818L209.029 102.029C218.402 92.6569 233.598 92.6569 242.971 102.029Z" fill="url(#paint6_linear_1_12)"/>
<path d="M209.029 135.971L215.818 129.182C221.441 134.806 230.559 134.806 236.182 129.182L242.971 135.971C233.598 145.343 218.402 145.343 209.029 135.971Z" fill="url(#paint7_linear_1_12)"/>
<path d="M242.971 135.971L236.182 129.182C241.806 123.559 241.806 114.441 236.182 108.818L242.971 102.029C252.343 111.402 252.343 126.598 242.971 135.971Z" fill="url(#paint8_linear_1_12)"/>
<path d="M209.029 102.029L215.818 108.818C210.194 114.441 210.194 123.559 215.818 129.182L209.029 135.971C199.657 126.598 199.657 111.402 209.029 102.029Z" fill="url(#paint9_linear_1_12)"/>
<circle cx="239.576" cy="105.424" r="4.8" transform="rotate(45 239.576 105.424)" fill="#3B82F6"/>
<path d="M270.648 130.328V122.104H279.32V130.328H284.6V122.712C284.6 120.696 283.672 119.704 281.848 119.704H280.952V119.48C283.16 118.712 284.568 116.632 284.568 113.848C284.568 109.624 282.136 107 277.496 107H265.464V130.328H270.648ZM270.648 111.416H276.088C278.104 111.416 279.096 112.248 279.096 113.944V115.416C279.096 116.984 278.008 117.976 276.088 117.976H270.648V111.416Z" fill="white"/>
<path d="M309.221 130.328L300.677 107H294.661L286.437 130.328H291.781L293.157 126.264H302.213L303.557 130.328H309.221ZM295.397 119.64L297.669 112.408H297.861L300.005 119.64L300.901 122.296H294.501L295.397 119.64Z" fill="white"/>
<path d="M321.01 130.328C328.018 130.328 331.538 126.456 331.538 118.68C331.538 110.904 328.018 107 321.01 107H311.026V130.328H321.01ZM316.21 111.448H320.882C324.434 111.448 326.13 112.792 326.13 116.664V120.664C326.13 124.28 324.754 125.88 320.882 125.88H316.21V111.448Z" fill="white"/>
<path d="M354.564 130.328L346.02 107H340.004L331.78 130.328H337.124L338.5 126.264H347.556L348.9 130.328H354.564ZM340.74 119.64L343.012 112.408H343.204L345.348 119.64L346.244 122.296H339.844L340.74 119.64Z" fill="white"/>
<path d="M361.554 130.328V122.104H370.226V130.328H375.506V122.712C375.506 120.696 374.578 119.704 372.754 119.704H371.858V119.48C374.066 118.712 375.474 116.632 375.474 113.848C375.474 109.624 373.042 107 368.402 107H356.37V130.328H361.554ZM361.554 111.416H366.994C369.01 111.416 370.002 112.248 370.002 113.944V115.416C370.002 116.984 368.914 117.976 366.994 117.976H361.554V111.416Z" fill="white"/>
<path fill-rule="evenodd" clip-rule="evenodd" d="M226 257V266.6C231.351 266.6 236.02 269.518 238.502 273.85L246.833 269.085C244.734 265.414 241.701 262.362 238.042 260.24C234.384 258.118 230.23 257 226 257Z" fill="url(#paint10_linear_1_12)"/>
<path fill-rule="evenodd" clip-rule="evenodd" d="M250 280.933C249.988 276.744 248.88 272.629 246.785 269L238.473 273.799C239.698 275.917 240.4 278.377 240.4 281C240.4 283.644 239.687 286.122 238.443 288.252L246.735 293.085C248.862 289.436 249.988 285.29 250 281.066C250 281.044 250 281.022 250 281C250 280.978 250 280.956 250 280.933Z" fill="url(#paint11_linear_1_12)"/>
<path fill-rule="evenodd" clip-rule="evenodd" d="M226.087 305C230.253 304.985 234.344 303.886 237.958 301.809C239.689 300.814 241.282 299.612 242.703 298.234C242.862 298.08 243.018 297.924 243.173 297.766C244.565 296.34 245.78 294.74 246.785 293L238.473 288.201C235.983 292.505 231.33 295.4 226 295.4C225.98 295.4 225.961 295.4 225.941 295.4L225.902 305M226.087 305C226.058 305 226.029 305 226 305C225.971 305 225.942 305 225.913 305" fill="url(#paint12_linear_1_12)"/>
<path fill-rule="evenodd" clip-rule="evenodd" d="M226 257C212.745 257 202 267.745 202 281C202 294.255 212.745 305 226 305V295.4C218.047 295.4 211.6 288.953 211.6 281C211.6 273.047 218.047 266.6 226 266.6V257Z" fill="url(#paint13_linear_1_12)"/>
<path d="M263.96 285.672C263.96 287.944 264.824 289.768 266.584 291.208C268.344 292.616 270.712 293.32 273.72 293.32C276.632 293.32 278.968 292.648 280.696 291.336C282.456 289.992 283.32 288.136 283.32 285.768C283.32 282.152 281.208 279.912 276.984 279.08L273.144 278.28L272.312 278.12L271.512 277.896C271.128 277.736 270.84 277.608 270.648 277.448C270.296 277.16 269.88 276.584 269.88 275.848C269.88 274.344 271.128 273.416 273.304 273.416C275.512 273.416 277.08 274.472 277.208 276.296H282.552C282.52 274.184 281.656 272.52 279.992 271.272C278.328 270.024 276.152 269.384 273.432 269.384C270.712 269.384 268.536 270.024 266.904 271.336C265.272 272.648 264.44 274.376 264.44 276.584C264.44 277.992 264.888 279.24 265.4 280.04C265.912 280.808 267.032 281.576 267.672 281.96C267.992 282.12 268.44 282.312 269.016 282.504L270.2 282.888L271.288 283.112L274.904 283.88C275.704 284.04 275.928 284.072 276.664 284.456C277.432 284.808 277.816 285.48 277.816 286.408C277.816 288.168 276.344 289.224 273.912 289.224C271.128 289.224 269.336 287.944 269.304 285.672H263.96ZM292.179 269.672H286.995V293H292.179V269.672ZM295.744 281.608C295.744 285.288 296.64 288.136 298.432 290.216C300.256 292.296 302.752 293.32 305.952 293.32C309.248 293.32 311.872 292.104 313.28 289.896H313.504L313.792 293H317.984V280.168H305.856V284.264H312.384C312.16 287.112 309.888 289 306.816 289C303.392 289 301.216 286.728 301.216 283.304V279.656C301.216 276.168 303.456 273.896 307.072 273.896C309.632 273.896 311.424 275.016 312.032 276.904H317.408C317.088 274.632 315.968 272.84 314.048 271.464C312.16 270.088 309.792 269.384 307.008 269.384C303.584 269.384 300.864 270.44 298.816 272.552C296.768 274.632 295.744 277.672 295.744 281.608ZM327.679 293V283.464L327.359 277.032H327.583L336.927 293H342.911V269.672H337.791V279.08L338.079 285.768H337.887L328.479 269.672H322.495V293H327.679ZM368.127 293L359.583 269.672H353.567L345.343 293H350.687L352.063 288.936H361.119L362.463 293H368.127ZM354.303 282.312L356.575 275.08H356.767L358.911 282.312L359.807 284.968H353.407L354.303 282.312ZM384.621 293V288.424H375.117V269.672H369.933V293H384.621Z" fill="white"/>
</g>
<defs>
<radialGradient id="paint0_radial_1_12" cx="0" cy="0" r="1" gradientUnits="userSpaceOnUse" gradientTransform="translate(242.655 209.734) rotate(180) scale(33.36 73.2644)">
<stop stop-color="#06B6D4"/>
<stop offset="1" stop-color="#06B6D4" stop-opacity="0.2"/>
</radialGradient>
<radialGradient id="paint1_radial_1_12" cx="0" cy="0" r="1" gradientUnits="userSpaceOnUse" gradientTransform="translate(242.655 209.734) rotate(180) scale(33.36 73.2644)">
<stop stop-color="#06B6D4"/>
<stop offset="1" stop-color="#06B6D4" stop-opacity="0.2"/>
</radialGradient>
<radialGradient id="paint2_radial_1_12" cx="0" cy="0" r="1" gradientUnits="userSpaceOnUse" gradientTransform="translate(209.242 209.557) rotate(-60) scale(33.36 73.2644)">
<stop stop-color="#06B6D4"/>
<stop offset="1" stop-color="#06B6D4" stop-opacity="0.2"/>
</radialGradient>
<radialGradient id="paint3_radial_1_12" cx="0" cy="0" r="1" gradientUnits="userSpaceOnUse" gradientTransform="translate(209.242 209.557) rotate(-60) scale(33.36 73.2644)">
<stop stop-color="#06B6D4"/>
<stop offset="1" stop-color="#06B6D4" stop-opacity="0.2"/>
</radialGradient>
<radialGradient id="paint4_radial_1_12" cx="0" cy="0" r="1" gradientUnits="userSpaceOnUse" gradientTransform="translate(226.102 180.709) rotate(60) scale(33.36 73.2644)">
<stop stop-color="#06B6D4"/>
<stop offset="1" stop-color="#06B6D4" stop-opacity="0.2"/>
</radialGradient>
<radialGradient id="paint5_radial_1_12" cx="0" cy="0" r="1" gradientUnits="userSpaceOnUse" gradientTransform="translate(226.102 180.709) rotate(60) scale(33.36 73.2644)">
<stop stop-color="#06B6D4"/>
<stop offset="1" stop-color="#06B6D4" stop-opacity="0.2"/>
</radialGradient>
<linearGradient id="paint6_linear_1_12" x1="215.68" y1="108.68" x2="236.08" y2="108.68" gradientUnits="userSpaceOnUse">
<stop stop-color="#3B82F6" stop-opacity="0.81"/>
<stop offset="1" stop-color="#3B82F6"/>
</linearGradient>
<linearGradient id="paint7_linear_1_12" x1="236.32" y1="129.32" x2="215.68" y2="129.32" gradientUnits="userSpaceOnUse">
<stop stop-color="#3B82F6" stop-opacity="0.4"/>
<stop offset="1" stop-color="#3B82F6" stop-opacity="0.6"/>
</linearGradient>
<linearGradient id="paint8_linear_1_12" x1="236.32" y1="108.68" x2="236.32" y2="129.08" gradientUnits="userSpaceOnUse">
<stop stop-color="#3B82F6" stop-opacity="0.2"/>
<stop offset="1" stop-color="#3B82F6" stop-opacity="0.4"/>
</linearGradient>
<linearGradient id="paint9_linear_1_12" x1="215.68" y1="129.32" x2="215.44" y2="108.92" gradientUnits="userSpaceOnUse">
<stop stop-color="#3B82F6" stop-opacity="0.6"/>
<stop offset="1" stop-color="#3B82F6" stop-opacity="0.8"/>
</linearGradient>
<linearGradient id="paint10_linear_1_12" x1="226" y1="266" x2="238.5" y2="274" gradientUnits="userSpaceOnUse">
<stop stop-color="#8B5CF6"/>
<stop offset="1" stop-color="#8B5CF6" stop-opacity="0.2"/>
</linearGradient>
<linearGradient id="paint11_linear_1_12" x1="239" y1="274" x2="239" y2="288.5" gradientUnits="userSpaceOnUse">
<stop stop-color="#8B5CF6"/>
<stop offset="1" stop-color="#8B5CF6" stop-opacity="0.2"/>
</linearGradient>
<linearGradient id="paint12_linear_1_12" x1="238.5" y1="288" x2="226" y2="295.5" gradientUnits="userSpaceOnUse">
<stop stop-color="#8B5CF6"/>
<stop offset="1" stop-color="#8B5CF6" stop-opacity="0.2"/>
</linearGradient>
<linearGradient id="paint13_linear_1_12" x1="226" y1="300" x2="226" y2="262" gradientUnits="userSpaceOnUse">
<stop stop-color="#8B5CF6"/>
<stop offset="1" stop-color="#8B5CF6" stop-opacity="0.19"/>
</linearGradient>
<clipPath id="clip0_1_12">
<rect width="600" height="400" fill="white"/>
</clipPath>
</defs>
</svg>
