<svg width="600" height="400" viewBox="0 0 600 400" fill="none" xmlns="http://www.w3.org/2000/svg">
<rect width="600" height="400" fill="white"/>
<path d="M180.995 169.324L199.521 155.071C195.283 152.518 189.948 151 183.625 151H136.133L132.738 169.324H180.995Z" fill="#94B7CB"/>
<path d="M121.444 230.476L118 248.77H171.354C189.506 248.77 199.133 240.303 202.708 230.476H121.444Z" fill="#94B7CB"/>
<path d="M186.866 173.027C188.033 174.449 188.755 176.195 188.824 178.118C189.023 183.834 186.157 189.842 176.04 189.842H149.804L152.507 175.342H131.616L122.509 224.458H143.37L146.335 208.162H172.43C179.026 208.162 183.267 212.123 183.461 217.689C183.548 220.151 182.941 222.479 181.718 224.458H204.108C204.321 222.836 204.399 221.204 204.344 219.595C204.048 211.095 198.752 202.301 189.585 199.957C201.418 198.786 211.433 187.5 210.977 174.454C210.776 168.791 208.62 163.44 204.732 159.283L186.866 173.027Z" fill="#033649"/>
<path d="M238.02 179.543L247.562 169.547H255.373L243.529 181.021L251.569 193.782H243.405L237.312 183.271H237.247L235.209 193.782H228.909L233.58 169.547H239.88L237.956 179.543H238.02Z" fill="#033649"/>
<path d="M261.779 182.146L255.276 169.547H262.83L266.103 176.136L271.894 169.547H279.447L268.079 182.146L265.84 193.782H259.541L261.779 182.146Z" fill="#033649"/>
<path d="M287.193 169.547L283.544 188.446H291.098L290.076 193.782H276.222L280.894 169.547H287.193Z" fill="#033649"/>
<path d="M309.571 174.882H302.082L301.297 178.932H308.401L307.379 184.268H300.276L299.455 188.446H306.944L305.921 193.782H292.133L296.804 169.547H310.593L309.571 174.882Z" fill="#033649"/>
<path d="M329.061 183.753L328.075 188.96H329.747C329.875 188.96 330.181 188.945 330.664 188.912C331.148 188.88 331.492 188.837 331.698 188.784C331.903 188.73 332.19 188.645 332.559 188.527C332.927 188.409 333.211 188.259 333.41 188.077C333.609 187.894 333.805 187.659 333.997 187.37C334.189 187.08 334.313 186.754 334.369 186.389C334.469 185.961 334.488 185.586 334.424 185.264C334.36 184.943 334.208 184.691 333.968 184.509C333.728 184.327 333.498 184.177 333.277 184.059C333.056 183.941 332.732 183.861 332.305 183.818C331.878 183.775 331.541 183.753 331.294 183.753H329.061ZM330.543 193.782H320.836L325.507 169.547H334.507C339.307 169.547 341.301 171.647 340.49 175.847C340.042 178.247 338.838 179.897 336.878 180.796L336.876 180.861C338.518 181.075 339.637 181.718 340.232 182.79C340.826 183.861 340.954 185.275 340.614 187.032C340.379 188.254 339.929 189.314 339.265 190.214C338.602 191.114 337.801 191.816 336.861 192.319C335.923 192.823 334.929 193.193 333.882 193.428C332.834 193.664 331.721 193.782 330.543 193.782ZM330.899 174.368L329.996 179.061H330.703C331.175 179.061 331.593 179.034 331.96 178.98C332.326 178.927 332.699 178.825 333.079 178.675C333.459 178.525 333.773 178.284 334.02 177.952C334.268 177.62 334.443 177.207 334.546 176.715C334.625 176.286 334.616 175.922 334.52 175.622C334.423 175.322 334.287 175.091 334.11 174.931C333.933 174.77 333.67 174.647 333.319 174.561C332.968 174.475 332.655 174.422 332.377 174.4C332.099 174.379 331.756 174.368 331.349 174.368H330.899Z" fill="#033649"/>
<path d="M356.421 183.85L362.118 193.782H354.275L350.133 184.461H350.068L348.264 193.782H341.965L346.635 169.547H356.053C358.582 169.547 360.499 170.168 361.806 171.411C363.112 172.654 363.53 174.518 363.057 177.004C362.718 178.739 361.958 180.239 360.778 181.504C359.599 182.768 358.146 183.55 356.421 183.85ZM352.028 174.368L350.853 180.411H351.463C352.042 180.411 352.568 180.373 353.042 180.298C353.516 180.223 354.003 180.089 354.503 179.897C355.002 179.704 355.415 179.393 355.741 178.964C356.066 178.536 356.288 178.011 356.406 177.389C356.524 176.768 356.5 176.243 356.332 175.814C356.166 175.386 355.877 175.075 355.465 174.882C355.054 174.69 354.625 174.556 354.178 174.481C353.73 174.406 353.217 174.368 352.639 174.368H352.028Z" fill="#033649"/>
<path d="M380.172 168.743C381.907 168.743 383.531 169.054 385.041 169.675C386.551 170.297 387.818 171.143 388.841 172.215C389.865 173.286 390.595 174.609 391.033 176.184C391.471 177.759 391.519 179.436 391.179 181.214C390.682 183.786 389.664 186.094 388.124 188.141C386.585 190.187 384.687 191.773 382.43 192.898C380.173 194.023 377.759 194.585 375.187 194.585C372.616 194.585 370.423 194.023 368.609 192.898C366.794 191.773 365.511 190.187 364.757 188.141C364.004 186.094 363.875 183.786 364.372 181.214C364.819 178.836 365.864 176.682 367.507 174.754C369.149 172.825 371.092 171.341 373.335 170.302C375.579 169.263 377.858 168.743 380.172 168.743ZM379.01 174.85C377.157 174.85 375.425 175.493 373.816 176.779C372.207 178.064 371.244 179.554 370.928 181.247C370.535 183.304 370.866 185.023 371.921 186.405C372.976 187.787 374.457 188.478 376.365 188.478C378.272 188.478 380.026 187.787 381.628 186.405C383.23 185.023 384.228 183.304 384.621 181.247C384.937 179.554 384.544 178.064 383.443 176.779C382.341 175.493 380.864 174.85 379.01 174.85Z" fill="#033649"/>
<path d="M400.361 169.547L401.55 185.2H401.614L409.714 169.547H414.728L416.464 185.2H416.528L424.114 169.547H430.671L418.254 193.782H411.825L410.29 179.736H410.226L402.761 193.782H396.364L393.804 169.547H400.361Z" fill="#033649"/>
<path d="M427.575 193.782L432.246 169.547H438.546L447.221 184.364H447.285L450.149 169.547H456.449L451.778 193.782H445.478L436.804 178.932H436.74L433.875 193.782H427.575Z" fill="#033649"/>
<path d="M244.222 201.689L240.773 206.575C239.696 205.503 238.408 204.968 236.908 204.968C236.244 204.968 235.589 205.149 234.944 205.514C234.299 205.878 233.923 206.371 233.815 206.992C233.739 207.336 233.761 207.635 233.881 207.892C234 208.15 234.212 208.375 234.516 208.568C234.82 208.76 235.078 208.899 235.289 208.986C235.5 209.071 235.786 209.178 236.145 209.307L237.671 209.789C239.452 210.346 240.769 211.134 241.623 212.151C242.476 213.169 242.722 214.589 242.358 216.41C241.805 219.346 240.551 221.521 238.594 222.935C236.506 224.457 234.068 225.217 231.283 225.217C228.219 225.217 225.551 224.296 223.28 222.453L226.96 217.374C228.552 219.046 230.258 219.881 232.08 219.881C232.916 219.881 233.673 219.672 234.352 219.255C235.03 218.837 235.448 218.231 235.604 217.439C235.68 217.117 235.653 216.817 235.523 216.538C235.394 216.26 235.235 216.035 235.049 215.864C234.862 215.692 234.589 215.526 234.231 215.366C233.871 215.205 233.587 215.087 233.375 215.012C233.163 214.937 232.877 214.846 232.517 214.738C232.432 214.717 232.368 214.696 232.326 214.674C231.86 214.524 231.463 214.396 231.134 214.289C230.805 214.182 230.446 214.053 230.054 213.903C229.664 213.753 229.342 213.603 229.09 213.453C228.838 213.303 228.577 213.121 228.306 212.907C228.034 212.692 227.817 212.473 227.654 212.248C227.49 212.023 227.344 211.755 227.216 211.444C227.087 211.134 226.997 210.801 226.945 210.448C226.893 210.094 226.88 209.698 226.906 209.258C226.932 208.819 226.997 208.342 227.101 207.828C227.572 205.385 228.728 203.419 230.569 201.93C232.41 200.441 234.563 199.696 237.027 199.696C238.249 199.696 239.512 199.878 240.817 200.242C242.123 200.607 243.257 201.089 244.222 201.689Z" fill="#033649"/>
<path d="M260.583 205.675H253.094L252.309 209.724H259.413L258.391 215.06H251.287L250.467 219.239H257.956L256.934 224.574H243.145L247.816 200.339H261.605L260.583 205.675Z" fill="#033649"/>
<path d="M269.801 200.339L272.823 215.06L281.533 200.339H288.38L273.359 224.574H268.473L262.955 200.339H269.801Z" fill="#033649"/>
<path d="M302.721 205.675H295.232L294.448 209.724H301.551L300.529 215.06H293.426L292.605 219.239H300.094L299.072 224.574H285.283L289.954 200.339H303.744L302.721 205.675Z" fill="#033649"/>
<path d="M302.962 224.574L307.632 200.339H313.932L322.607 215.156H322.672L325.536 200.339H331.836L327.164 224.574H320.865L312.19 209.724H312.126L309.261 224.574H302.962Z" fill="#033649"/>
<path d="M351.524 201.689L348.075 206.575C346.998 205.503 345.709 204.968 344.209 204.968C343.545 204.968 342.891 205.149 342.246 205.514C341.601 205.878 341.225 206.371 341.118 206.992C341.041 207.336 341.063 207.635 341.182 207.892C341.302 208.15 341.514 208.375 341.818 208.568C342.122 208.76 342.379 208.899 342.591 208.986C342.802 209.071 343.087 209.178 343.447 209.307L344.973 209.789C346.754 210.346 348.071 211.134 348.925 212.151C349.778 213.169 350.023 214.589 349.66 216.41C349.107 219.346 347.853 221.521 345.896 222.935C343.808 224.457 341.37 225.217 338.585 225.217C335.52 225.217 332.853 224.296 330.581 222.453L334.262 217.374C335.854 219.046 337.56 219.881 339.382 219.881C340.217 219.881 340.975 219.672 341.653 219.255C342.332 218.837 342.75 218.231 342.906 217.439C342.981 217.117 342.954 216.817 342.825 216.538C342.695 216.26 342.537 216.035 342.351 215.864C342.163 215.692 341.891 215.526 341.532 215.366C341.174 215.205 340.888 215.087 340.677 215.012C340.465 214.937 340.179 214.846 339.818 214.738C339.733 214.717 339.67 214.696 339.628 214.674C339.162 214.524 338.764 214.396 338.436 214.289C338.108 214.182 337.748 214.053 337.357 213.903C336.965 213.753 336.644 213.603 336.392 213.453C336.14 213.303 335.878 213.121 335.607 212.907C335.336 212.692 335.119 212.473 334.955 212.248C334.792 212.023 334.646 211.755 334.518 211.444C334.389 211.134 334.299 210.801 334.247 210.448C334.195 210.094 334.182 209.698 334.208 209.258C334.234 208.819 334.299 208.342 334.403 207.828C334.874 205.385 336.03 203.419 337.871 201.93C339.712 200.441 341.865 199.696 344.329 199.696C345.551 199.696 346.814 199.878 348.119 200.242C349.424 200.607 350.559 201.089 351.524 201.689Z" fill="#033649"/>
<path d="M376.56 214.642L382.256 224.574H374.413L370.271 215.253H370.207L368.403 224.574H362.103L366.774 200.339H376.192C378.72 200.339 380.638 200.96 381.944 202.203C383.251 203.446 383.668 205.31 383.195 207.796C382.856 209.531 382.097 211.031 380.917 212.296C379.737 213.56 378.285 214.342 376.56 214.642ZM372.166 205.16L370.991 211.203H371.602C372.181 211.203 372.706 211.165 373.181 211.091C373.655 211.016 374.142 210.881 374.641 210.689C375.141 210.496 375.553 210.185 375.879 209.757C376.205 209.328 376.427 208.803 376.545 208.182C376.663 207.56 376.638 207.035 376.471 206.607C376.304 206.178 376.015 205.867 375.604 205.675C375.193 205.482 374.763 205.348 374.316 205.273C373.868 205.198 373.356 205.16 372.777 205.16H372.166Z" fill="#033649"/>
<path d="M403.352 200.339H409.652L407.023 213.967C406.838 214.932 406.666 215.724 406.506 216.346C406.344 216.967 406.111 217.68 405.804 218.483C405.497 219.287 405.097 220.021 404.602 220.685C404.107 221.349 403.518 221.96 402.835 222.517C401.709 223.46 400.388 224.146 398.873 224.574C397.358 225.002 395.824 225.217 394.271 225.217C392.717 225.217 391.273 225.002 389.938 224.574C388.603 224.146 387.545 223.46 386.763 222.517C386.29 221.96 385.936 221.349 385.702 220.685C385.468 220.021 385.355 219.287 385.361 218.483C385.368 217.68 385.409 216.967 385.484 216.346C385.56 215.724 385.689 214.932 385.873 213.967L388.502 200.339H394.802L392.363 213.099C392.235 213.721 392.141 214.251 392.083 214.691C392.025 215.129 391.986 215.628 391.967 216.185C391.947 216.742 391.995 217.208 392.111 217.583C392.226 217.958 392.401 218.317 392.636 218.66C392.87 219.003 393.22 219.26 393.685 219.431C394.151 219.603 394.705 219.688 395.348 219.688C396.119 219.688 396.809 219.555 397.419 219.287C398.028 219.019 398.516 218.692 398.884 218.306C399.25 217.921 399.574 217.406 399.853 216.764C400.133 216.121 400.341 215.542 400.476 215.028C400.612 214.514 400.758 213.871 400.913 213.099L403.352 200.339Z" fill="#033649"/>
<path d="M423.26 211.042H435.763C435.304 213.142 434.776 214.921 434.178 216.378C433.582 217.835 432.659 219.249 431.411 220.62C428.536 223.792 424.902 225.378 420.509 225.378C416.695 225.378 413.817 224.194 411.874 221.826C409.933 219.458 409.327 216.378 410.06 212.585C410.818 208.664 412.637 205.509 415.517 203.119C418.397 200.73 421.797 199.535 425.719 199.535C428.247 199.535 430.333 200.103 431.975 201.239C433.618 202.375 434.742 204.067 435.35 206.317L428.898 208.825C428.683 207.624 428.185 206.682 427.405 205.996C426.626 205.31 425.626 204.968 424.404 204.968C423.075 204.968 421.846 205.353 420.715 206.124C419.585 206.896 418.678 207.85 417.996 208.985C417.314 210.121 416.854 211.331 416.616 212.617C416.357 213.903 416.357 215.114 416.618 216.249C416.878 217.385 417.434 218.328 418.286 219.078C419.139 219.828 420.229 220.203 421.558 220.203C422.972 220.203 424.206 219.838 425.26 219.11C426.314 218.382 427.036 217.342 427.426 215.992H422.283L423.26 211.042Z" fill="#033649"/>
<path d="M444.255 214.546L443.27 219.753H444.941C445.069 219.753 445.375 219.737 445.859 219.705C446.342 219.672 446.686 219.63 446.891 219.576C447.097 219.522 447.384 219.437 447.752 219.319C448.121 219.201 448.404 219.051 448.604 218.869C448.803 218.686 448.999 218.451 449.191 218.162C449.383 217.872 449.507 217.546 449.563 217.182C449.663 216.753 449.682 216.378 449.618 216.057C449.554 215.735 449.402 215.483 449.163 215.301C448.922 215.119 448.692 214.969 448.471 214.851C448.25 214.733 447.926 214.653 447.499 214.61C447.072 214.567 446.735 214.546 446.489 214.546H444.255ZM445.737 224.574H436.03L440.701 200.339H449.701C454.501 200.339 456.495 202.439 455.684 206.639C455.236 209.039 454.032 210.689 452.072 211.589L452.07 211.653C453.712 211.867 454.831 212.51 455.426 213.582C456.021 214.653 456.148 216.067 455.808 217.824C455.572 219.046 455.123 220.106 454.459 221.007C453.796 221.906 452.994 222.608 452.056 223.112C451.117 223.615 450.123 223.985 449.076 224.22C448.028 224.456 446.915 224.574 445.737 224.574ZM446.093 205.16L445.19 209.853H445.897C446.369 209.853 446.788 209.826 447.154 209.773C447.52 209.719 447.893 209.617 448.273 209.467C448.654 209.317 448.967 209.076 449.215 208.744C449.462 208.412 449.637 208 449.74 207.507C449.819 207.078 449.811 206.714 449.714 206.414C449.617 206.114 449.48 205.883 449.304 205.723C449.128 205.562 448.864 205.439 448.514 205.353C448.163 205.268 447.848 205.214 447.571 205.192C447.293 205.171 446.951 205.16 446.544 205.16H446.093Z" fill="#033649"/>
<path d="M464.346 212.938L457.844 200.339H465.397L468.67 206.928L474.461 200.339H482.015L470.646 212.938L468.408 224.574H462.108L464.346 212.938Z" fill="#033649"/>
</svg>
