<svg width="600" height="400" viewBox="0 0 600 400" fill="none" xmlns="http://www.w3.org/2000/svg">
<g clip-path="url(#clip0_1_19)">
<rect width="600" height="400" fill="white"/>
<rect width="600" height="400" fill="#32284D"/>
<g style="mix-blend-mode:color-dodge" opacity="0.25">
<path opacity="0.5" fill-rule="evenodd" clip-rule="evenodd" d="M348.074 21.9456L366.007 28.0216L368.441 9.30434L370.889 -9.41864L350.521 3.23177L330.145 15.8742L348.074 21.9456Z" stroke="#AB9FCC" stroke-width="6" stroke-miterlimit="2" stroke-linecap="round" stroke-linejoin="round"/>
<path opacity="0.5" fill-rule="evenodd" clip-rule="evenodd" d="M253.788 201.514C253.788 211.561 245.642 219.705 235.597 219.705C225.548 219.705 217.403 211.561 217.403 201.514C217.403 191.467 225.548 183.323 235.597 183.323C245.642 183.323 253.788 191.467 253.788 201.514Z" stroke="#AB9FCC" stroke-width="6" stroke-miterlimit="2" stroke-linecap="round" stroke-linejoin="round"/>
<path opacity="0.5" fill-rule="evenodd" clip-rule="evenodd" d="M434.493 67.8018C434.493 74.4048 429.137 79.7583 422.536 79.7583C415.932 79.7583 410.578 74.4048 410.578 67.8018C410.578 61.1988 415.932 55.8442 422.536 55.8442C429.137 55.8442 434.493 61.1988 434.493 67.8018Z" stroke="#AB9FCC" stroke-width="6" stroke-miterlimit="2" stroke-linecap="round" stroke-linejoin="round"/>
<path opacity="0.5" fill-rule="evenodd" clip-rule="evenodd" d="M340.373 294.446C340.337 294.365 340.313 294.279 340.274 294.197C336.173 285.026 325.411 280.918 316.241 285.02C307.068 289.123 302.961 299.883 307.063 309.055C307.1 309.136 307.147 309.211 307.185 309.293L340.373 294.446Z" stroke="#AB9FCC" stroke-width="6" stroke-miterlimit="2" stroke-linecap="round" stroke-linejoin="round"/>
<path opacity="0.5" fill-rule="evenodd" clip-rule="evenodd" d="M-9.61937 152.008L11.0836 160.388L2.70295 181.091L-18 172.712L-9.61937 152.008Z" stroke="#AB9FCC" stroke-width="6" stroke-miterlimit="2" stroke-linecap="round" stroke-linejoin="round"/>
<path opacity="0.5" d="M310.364 164.047L322.77 168.248L335.179 172.453L336.863 159.502L338.555 146.547" stroke="#AB9FCC" stroke-width="6" stroke-miterlimit="2" stroke-linecap="round" stroke-linejoin="round"/>
<path opacity="0.5" fill-rule="evenodd" clip-rule="evenodd" d="M569.697 143.379L603.72 155.693L591.406 189.72L557.38 177.407L569.697 143.379Z" stroke="#AB9FCC" stroke-width="6" stroke-miterlimit="2" stroke-linecap="round" stroke-linejoin="round"/>
<path opacity="0.5" fill-rule="evenodd" clip-rule="evenodd" d="M460.081 376.618L480.678 385.253L472.042 405.851L451.444 397.216L460.081 376.618Z" stroke="#AB9FCC" stroke-width="6" stroke-miterlimit="2" stroke-linecap="round" stroke-linejoin="round"/>
<path opacity="0.5" d="M111.024 27.4205H153.964" stroke="#AB9FCC" stroke-width="6" stroke-miterlimit="2" stroke-linecap="round" stroke-linejoin="round"/>
<path opacity="0.5" d="M100.15 251.45H143.091" stroke="#AB9FCC" stroke-width="6" stroke-miterlimit="2" stroke-linecap="round" stroke-linejoin="round"/>
<path opacity="0.5" fill-rule="evenodd" clip-rule="evenodd" d="M22.6103 292.632C22.6263 292.546 22.6526 292.46 22.6674 292.371C24.3342 282.463 17.6523 273.079 7.74437 271.414C-2.16356 269.747 -11.5445 276.429 -13.2135 286.337C-13.2272 286.425 -13.2295 286.514 -13.2432 286.602L22.6103 292.632Z" stroke="#AB9FCC" stroke-width="6" stroke-miterlimit="2" stroke-linecap="round" stroke-linejoin="round"/>
<path opacity="0.5" fill-rule="evenodd" clip-rule="evenodd" d="M174.846 78.1309L208.871 90.4452L196.555 124.472L162.531 112.159L174.846 78.1309Z" stroke="#AB9FCC" stroke-width="6" stroke-miterlimit="2" stroke-linecap="round" stroke-linejoin="round"/>
<path opacity="0.5" fill-rule="evenodd" clip-rule="evenodd" d="M581.005 251.512L600.652 240.889L611.275 260.535L591.631 271.16L581.005 251.512Z" stroke="#AB9FCC" stroke-width="6" stroke-miterlimit="2" stroke-linecap="round" stroke-linejoin="round"/>
<path opacity="0.5" d="M400.528 322.42H443.469" stroke="#AB9FCC" stroke-width="6" stroke-miterlimit="2" stroke-linecap="round" stroke-linejoin="round"/>
<path opacity="0.5" d="M79.8264 392.331L113.812 418.576" stroke="#AB9FCC" stroke-width="6" stroke-miterlimit="2" stroke-linecap="round" stroke-linejoin="round"/>
<path opacity="0.5" d="M413.721 142.56L387.334 176.437" stroke="#AB9FCC" stroke-width="6" stroke-miterlimit="2" stroke-linecap="round" stroke-linejoin="round"/>
<path fill-rule="evenodd" clip-rule="evenodd" d="M483.164 224.603C483.164 231.206 477.807 236.56 471.207 236.56C464.602 236.56 459.248 231.206 459.248 224.603C459.248 218 464.602 212.645 471.207 212.645C477.807 212.645 483.164 218 483.164 224.603Z" stroke="#FFC863" stroke-width="6" stroke-miterlimit="2" stroke-linecap="round" stroke-linejoin="round"/>
<path fill-rule="evenodd" clip-rule="evenodd" d="M253.275 -2.65509C253.275 3.94906 247.92 9.30142 241.319 9.30142C234.713 9.30142 229.361 3.94906 229.361 -2.65509C229.361 -9.25808 234.713 -14.6127 241.319 -14.6127C247.92 -14.6127 253.275 -9.25808 253.275 -2.65509Z" stroke="#FFC863" stroke-width="6" stroke-miterlimit="2" stroke-linecap="round" stroke-linejoin="round"/>
<path fill-rule="evenodd" clip-rule="evenodd" d="M90.7128 119.61C90.7128 126.214 85.3582 131.567 78.7563 131.567C72.1522 131.567 66.7987 126.214 66.7987 119.61C66.7987 113.007 72.1522 107.653 78.7563 107.653C85.3582 107.653 90.7128 113.007 90.7128 119.61Z" stroke="#FFC863" stroke-width="6" stroke-miterlimit="2" stroke-linecap="round" stroke-linejoin="round"/>
<path fill-rule="evenodd" clip-rule="evenodd" d="M206.261 284.88L225.907 274.257L236.531 293.902L216.885 304.527L206.261 284.88Z" stroke="#FFC863" stroke-width="6" stroke-miterlimit="2" stroke-linecap="round" stroke-linejoin="round"/>
<path d="M330.566 374.179L347.944 361.999L359.558 379.278" stroke="#FFC863" stroke-width="6" stroke-miterlimit="2" stroke-linecap="round" stroke-linejoin="round"/>
<path d="M359.558 379.278L376.937 367.099L388.55 384.378" stroke="#FFC863" stroke-width="6" stroke-miterlimit="2" stroke-linecap="round" stroke-linejoin="round"/>
<path d="M18.4903 392.331L17.3894 379.281L16.2908 366.224L3.7456 369.849L-8.80992 373.469" stroke="#FFC863" stroke-width="6" stroke-miterlimit="2" stroke-linecap="round" stroke-linejoin="round"/>
<path d="M134.78 324.662C142.517 326.252 138.364 339.7 148.239 341.729" stroke="#5864FB" stroke-width="6" stroke-miterlimit="2" stroke-linecap="round" stroke-linejoin="round"/>
<path d="M102.225 317.974C109.963 319.563 105.809 333.011 115.682 335.041" stroke="#5864FB" stroke-width="6" stroke-miterlimit="2" stroke-linecap="round" stroke-linejoin="round"/>
<path d="M134.78 324.662C127.042 323.073 125.555 337.069 115.682 335.041" stroke="#5864FB" stroke-width="6" stroke-miterlimit="2" stroke-linecap="round" stroke-linejoin="round"/>
<path d="M102.225 317.975C94.4865 316.384 93.0015 330.38 83.1256 328.352" stroke="#5864FB" stroke-width="6" stroke-miterlimit="2" stroke-linecap="round" stroke-linejoin="round"/>
<path d="M79.9018 344.048L145.013 357.426" stroke="#5864FB" stroke-width="6" stroke-miterlimit="2" stroke-linecap="round" stroke-linejoin="round"/>
<path d="M278.323 89.7946C270.586 88.2056 274.739 74.7572 264.863 72.7281" stroke="#5864FB" stroke-width="6" stroke-miterlimit="2" stroke-linecap="round" stroke-linejoin="round"/>
<path d="M310.879 96.4846C303.139 94.8944 307.293 81.4472 297.42 79.4169" stroke="#5864FB" stroke-width="6" stroke-miterlimit="2" stroke-linecap="round" stroke-linejoin="round"/>
<path d="M278.323 89.7948C286.061 91.385 287.549 77.3902 297.42 79.417" stroke="#5864FB" stroke-width="6" stroke-miterlimit="2" stroke-linecap="round" stroke-linejoin="round"/>
<path d="M310.879 96.4847C318.615 98.0737 320.1 84.0766 329.975 86.1069" stroke="#5864FB" stroke-width="6" stroke-miterlimit="2" stroke-linecap="round" stroke-linejoin="round"/>
<path d="M333.199 70.4098L268.09 57.0311" stroke="#5864FB" stroke-width="6" stroke-miterlimit="2" stroke-linecap="round" stroke-linejoin="round"/>
<path d="M537.346 34.3015C543.115 39.7007 532.547 48.997 539.909 55.8858" stroke="#5864FB" stroke-width="6" stroke-miterlimit="2" stroke-linecap="round" stroke-linejoin="round"/>
<path d="M513.078 11.5945C518.847 16.9914 508.284 26.29 515.641 33.1754" stroke="#5864FB" stroke-width="6" stroke-miterlimit="2" stroke-linecap="round" stroke-linejoin="round"/>
<path d="M537.346 34.3014C531.578 28.9056 522.999 40.0607 515.641 33.1754" stroke="#5864FB" stroke-width="6" stroke-miterlimit="2" stroke-linecap="round" stroke-linejoin="round"/>
<path d="M513.078 11.5944C507.311 6.19507 498.735 17.3561 491.373 10.4695" stroke="#5864FB" stroke-width="6" stroke-miterlimit="2" stroke-linecap="round" stroke-linejoin="round"/>
<path d="M585.882 79.7186C591.651 85.1156 581.086 94.413 588.447 101.303" stroke="#5864FB" stroke-width="6" stroke-miterlimit="2" stroke-linecap="round" stroke-linejoin="round"/>
<path d="M561.616 57.0106C567.385 62.4086 556.819 71.705 564.179 78.5926" stroke="#5864FB" stroke-width="6" stroke-miterlimit="2" stroke-linecap="round" stroke-linejoin="round"/>
<path d="M585.882 79.7187C580.117 74.3206 571.538 85.4791 564.18 78.5926" stroke="#5864FB" stroke-width="6" stroke-miterlimit="2" stroke-linecap="round" stroke-linejoin="round"/>
<path d="M561.616 57.0105C555.847 51.6135 547.271 62.7744 539.909 55.8856" stroke="#5864FB" stroke-width="6" stroke-miterlimit="2" stroke-linecap="round" stroke-linejoin="round"/>
<path d="M388.55 240.371C388.536 240.283 388.536 240.195 388.522 240.105C387.036 230.168 377.774 223.319 367.841 224.805C357.902 226.291 351.052 235.55 352.54 245.489C352.553 245.578 352.577 245.662 352.591 245.749" stroke="#5864FB" stroke-width="6" stroke-miterlimit="2" stroke-linecap="round" stroke-linejoin="round"/>
<path fill-rule="evenodd" clip-rule="evenodd" d="M531.228 311.055L536.652 292.915L517.858 291.159L499.059 289.393L512.437 309.287L525.811 329.194L531.228 311.055Z" stroke="#5864FB" stroke-width="6" stroke-miterlimit="2" stroke-linecap="round" stroke-linejoin="round"/>
<path fill-rule="evenodd" clip-rule="evenodd" d="M235.597 379.278C235.597 385.881 230.24 391.235 223.64 391.235C217.035 391.235 211.683 385.881 211.683 379.278C211.683 372.674 217.035 367.321 223.64 367.321C230.24 367.321 235.597 372.674 235.597 379.278Z" stroke="#36D7E0" stroke-width="6" stroke-miterlimit="2" stroke-linecap="round" stroke-linejoin="round"/>
<path fill-rule="evenodd" clip-rule="evenodd" d="M608.098 348.62C608.098 355.225 602.743 360.577 596.141 360.577C589.536 360.577 584.185 355.225 584.185 348.62C584.185 342.017 589.536 336.663 596.141 336.663C602.743 336.663 608.098 342.017 608.098 348.62Z" stroke="#36D7E0" stroke-width="6" stroke-miterlimit="2" stroke-linecap="round" stroke-linejoin="round"/>
<path d="M89.357 189.419C97.0266 187.521 99.0683 201.447 108.854 199.025" stroke="#36D7E0" stroke-width="6" stroke-miterlimit="2" stroke-linecap="round" stroke-linejoin="round"/>
<path d="M57.0954 197.403C64.7638 195.504 66.8078 209.43 76.59 207.008" stroke="#36D7E0" stroke-width="6" stroke-miterlimit="2" stroke-linecap="round" stroke-linejoin="round"/>
<path d="M89.3569 189.419C81.6896 191.317 86.3732 204.587 76.5899 207.008" stroke="#36D7E0" stroke-width="6" stroke-miterlimit="2" stroke-linecap="round" stroke-linejoin="round"/>
<path d="M57.0953 197.403C49.4269 199.3 54.115 212.572 44.3283 214.993" stroke="#36D7E0" stroke-width="6" stroke-miterlimit="2" stroke-linecap="round" stroke-linejoin="round"/>
<path d="M153.883 173.451C161.551 171.553 163.594 185.477 173.381 183.057" stroke="#36D7E0" stroke-width="6" stroke-miterlimit="2" stroke-linecap="round" stroke-linejoin="round"/>
<path d="M121.62 181.434C129.289 179.537 131.332 193.462 141.117 191.04" stroke="#36D7E0" stroke-width="6" stroke-miterlimit="2" stroke-linecap="round" stroke-linejoin="round"/>
<path d="M153.883 173.451C146.214 175.348 150.9 188.62 141.117 191.04" stroke="#36D7E0" stroke-width="6" stroke-miterlimit="2" stroke-linecap="round" stroke-linejoin="round"/>
<path d="M121.62 181.434C113.953 183.333 118.641 196.604 108.854 199.025" stroke="#36D7E0" stroke-width="6" stroke-miterlimit="2" stroke-linecap="round" stroke-linejoin="round"/>
<path d="M512.301 108.905L503.781 128.341L484.881 119.61" stroke="#36D7E0" stroke-width="6" stroke-miterlimit="2" stroke-linecap="round" stroke-linejoin="round"/>
<path d="M484.881 119.61L476.359 139.046L457.459 130.317" stroke="#36D7E0" stroke-width="6" stroke-miterlimit="2" stroke-linecap="round" stroke-linejoin="round"/>
<path d="M506.826 94.8785L452.645 116.031" stroke="#36D7E0" stroke-width="6" stroke-miterlimit="2" stroke-linecap="round" stroke-linejoin="round"/>
<path d="M-4.75858 59.8891L-1.94293 38.8546L18.6343 42.0201" stroke="#36D7E0" stroke-width="6" stroke-miterlimit="2" stroke-linecap="round" stroke-linejoin="round"/>
<path d="M18.6343 42.0202L21.45 20.9858L42.0272 24.1501" stroke="#36D7E0" stroke-width="6" stroke-miterlimit="2" stroke-linecap="round" stroke-linejoin="round"/>
<path d="M4.38217 71.8549L50.6031 36.5478" stroke="#36D7E0" stroke-width="6" stroke-miterlimit="2" stroke-linecap="round" stroke-linejoin="round"/>
</g>
<path d="M95 152.5L416.5 136L471.5 165L527 136L509.5 202.5L491.5 246L356 253L64.5 237L24.5 202.5L95 152.5Z" fill="#32284D"/>
<path d="M211.059 210.345H221.196V216.187H203.321V184.64H211.059V210.345Z" fill="white"/>
<path d="M247.373 203.198C247.373 203.872 247.328 204.636 247.237 205.4H229.724C229.86 206.973 230.358 208.186 231.218 209.04C232.077 209.894 233.209 210.299 234.521 210.299C236.467 210.299 237.779 209.49 238.549 207.872H246.785C246.377 209.535 245.608 211.018 244.522 212.321C243.391 213.624 242.033 214.658 240.359 215.421C238.684 216.185 236.829 216.545 234.793 216.545C232.304 216.545 230.132 216.006 228.186 214.972C226.24 213.939 224.746 212.411 223.66 210.478C222.574 208.546 222.031 206.254 222.031 203.648C222.031 201.041 222.574 198.75 223.66 196.817C224.701 194.885 226.194 193.357 228.14 192.323C230.086 191.29 232.304 190.751 234.793 190.751C237.236 190.751 239.408 191.245 241.309 192.278C243.21 193.312 244.703 194.75 245.789 196.637C246.83 198.525 247.373 200.727 247.373 203.198ZM239.454 201.491C239.454 200.053 239.001 198.929 238.096 198.12C237.191 197.312 236.06 196.907 234.702 196.907C233.39 196.907 232.258 197.312 231.399 198.075C230.494 198.884 229.951 200.008 229.724 201.491H239.454Z" fill="white"/>
<path d="M260.318 216.545C258.146 216.545 256.2 216.185 254.481 215.421C252.761 214.658 251.403 213.624 250.408 212.321C249.412 211.018 248.869 209.58 248.733 207.962H256.381C256.472 208.905 256.879 209.625 257.603 210.164C258.282 210.748 259.187 211.018 260.273 211.018C261.223 211.018 261.993 210.838 262.536 210.433C263.033 210.029 263.305 209.535 263.305 208.861C263.305 208.142 262.943 207.602 262.174 207.243C261.404 206.883 260.182 206.524 258.463 206.119C256.653 205.715 255.159 205.266 253.983 204.816C252.761 204.367 251.72 203.648 250.906 202.614C250.046 201.626 249.593 200.277 249.593 198.615C249.593 197.132 250 195.829 250.815 194.615C251.584 193.447 252.761 192.503 254.3 191.784C255.838 191.11 257.694 190.751 259.82 190.751C262.988 190.751 265.477 191.515 267.333 193.087C269.143 194.66 270.183 196.727 270.455 199.289H263.305C263.169 198.345 262.807 197.626 262.174 197.087C261.495 196.593 260.635 196.323 259.594 196.323C258.689 196.323 258.01 196.503 257.513 196.862C257.015 197.222 256.788 197.716 256.788 198.39C256.788 199.109 257.196 199.648 257.965 200.008C258.734 200.367 259.911 200.727 261.54 201.086C263.395 201.536 264.889 201.985 266.111 202.434C267.333 202.929 268.373 203.693 269.233 204.681C270.093 205.715 270.545 207.108 270.545 208.861C270.545 210.344 270.138 211.647 269.324 212.815C268.509 213.983 267.333 214.882 265.794 215.556C264.21 216.23 262.4 216.545 260.318 216.545Z" fill="white"/>
<path d="M284.202 216.545C282.029 216.545 280.083 216.185 278.364 215.421C276.644 214.658 275.287 213.624 274.291 212.321C273.295 211.018 272.752 209.58 272.617 207.962H280.264C280.355 208.905 280.762 209.625 281.486 210.164C282.165 210.748 283.07 211.018 284.156 211.018C285.107 211.018 285.876 210.838 286.419 210.433C286.917 210.029 287.188 209.535 287.188 208.861C287.188 208.142 286.826 207.602 286.057 207.243C285.288 206.883 284.066 206.524 282.346 206.119C280.536 205.715 279.043 205.266 277.866 204.816C276.644 204.367 275.603 203.648 274.789 202.614C273.929 201.626 273.476 200.277 273.476 198.615C273.476 197.132 273.884 195.829 274.698 194.615C275.468 193.447 276.644 192.503 278.183 191.784C279.721 191.11 281.577 190.751 283.704 190.751C286.871 190.751 289.36 191.515 291.216 193.087C293.026 194.66 294.067 196.727 294.338 199.289H287.188C287.052 198.345 286.69 197.626 286.057 197.087C285.378 196.593 284.518 196.323 283.477 196.323C282.572 196.323 281.894 196.503 281.396 196.862C280.898 197.222 280.672 197.716 280.672 198.39C280.672 199.109 281.079 199.648 281.848 200.008C282.618 200.367 283.794 200.727 285.423 201.086C287.279 201.536 288.772 201.985 289.994 202.434C291.216 202.929 292.257 203.693 293.116 204.681C293.976 205.715 294.429 207.108 294.429 208.861C294.429 210.344 294.021 211.647 293.207 212.815C292.392 213.983 291.216 214.882 289.677 215.556C288.093 216.23 286.283 216.545 284.202 216.545Z" fill="white"/>
<path d="M309.378 216.545C306.889 216.545 304.672 216.006 302.726 214.972C300.735 213.939 299.196 212.411 298.065 210.478C296.933 208.546 296.345 206.254 296.345 203.648C296.345 201.086 296.933 198.794 298.065 196.817C299.196 194.885 300.78 193.357 302.771 192.323C304.762 191.29 306.98 190.751 309.468 190.751C311.957 190.751 314.175 191.29 316.166 192.323C318.157 193.357 319.741 194.885 320.872 196.817C322.004 198.794 322.592 201.086 322.592 203.648C322.592 206.209 322.004 208.501 320.872 210.433C319.696 212.411 318.112 213.939 316.121 214.972C314.084 216.006 311.867 216.545 309.378 216.545ZM309.378 209.939C310.871 209.939 312.138 209.4 313.179 208.276C314.22 207.198 314.718 205.67 314.718 203.648C314.718 201.626 314.22 200.098 313.225 198.974C312.184 197.896 310.962 197.356 309.468 197.356C307.975 197.356 306.708 197.896 305.712 198.974C304.717 200.053 304.219 201.626 304.219 203.648C304.219 205.67 304.717 207.198 305.712 208.276C306.663 209.4 307.885 209.939 309.378 209.939Z" fill="white"/>
<path d="M340.726 190.836C343.667 190.836 346.066 191.78 347.83 193.667C349.595 195.599 350.455 198.206 350.455 201.531V216.181H342.762V202.565C342.762 200.902 342.31 199.599 341.45 198.655C340.59 197.711 339.413 197.262 337.92 197.262C336.427 197.262 335.25 197.711 334.39 198.655C333.53 199.599 333.078 200.902 333.078 202.565V216.181H325.34V191.106H333.078V194.431C333.847 193.307 334.933 192.454 336.246 191.78C337.558 191.15 339.051 190.836 340.726 190.836Z" fill="white"/>
<path d="M364.711 216.545C362.539 216.545 360.593 216.185 358.873 215.421C357.153 214.658 355.796 213.624 354.8 212.321C353.805 211.018 353.262 209.58 353.126 207.962H360.774C360.864 208.905 361.271 209.625 361.996 210.164C362.674 210.748 363.579 211.018 364.665 211.018C365.616 211.018 366.385 210.838 366.928 210.433C367.426 210.029 367.697 209.535 367.697 208.861C367.697 208.142 367.335 207.602 366.566 207.243C365.797 206.883 364.575 206.524 362.855 206.119C361.045 205.715 359.552 205.266 358.375 204.816C357.153 204.367 356.113 203.648 355.298 202.614C354.438 201.626 353.986 200.277 353.986 198.615C353.986 197.132 354.393 195.829 355.208 194.615C355.977 193.447 357.153 192.503 358.692 191.784C360.231 191.11 362.086 190.751 364.213 190.751C367.381 190.751 369.87 191.515 371.725 193.087C373.535 194.66 374.576 196.727 374.847 199.289H367.697C367.562 198.345 367.2 197.626 366.566 197.087C365.887 196.593 365.027 196.323 363.987 196.323C363.082 196.323 362.403 196.503 361.905 196.862C361.407 197.222 361.181 197.716 361.181 198.39C361.181 199.109 361.588 199.648 362.358 200.008C363.127 200.367 364.303 200.727 365.933 201.086C367.788 201.536 369.281 201.985 370.503 202.434C371.725 202.929 372.766 203.693 373.626 204.681C374.485 205.715 374.938 207.108 374.938 208.861C374.938 210.344 374.531 211.647 373.716 212.815C372.902 213.983 371.725 214.882 370.186 215.556C368.602 216.23 366.792 216.545 364.711 216.545Z" fill="white"/>
<path d="M386.11 194.66C386.88 193.492 387.921 192.548 389.233 191.829C390.545 191.11 392.129 190.751 393.894 190.751C395.976 190.751 397.876 191.29 399.551 192.323C401.225 193.357 402.583 194.885 403.578 196.817C404.529 198.75 405.026 201.041 405.026 203.603C405.026 206.164 404.529 208.456 403.578 210.388C402.583 212.366 401.225 213.894 399.551 214.927C397.876 216.006 395.976 216.545 393.894 216.545C392.129 216.545 390.591 216.185 389.278 215.466C387.921 214.747 386.88 213.804 386.11 212.68V228.139H378.372V191.11H386.11V194.66ZM397.152 203.603C397.152 201.671 396.609 200.188 395.568 199.064C394.482 197.986 393.17 197.446 391.586 197.446C390.047 197.446 388.735 197.986 387.694 199.109C386.608 200.232 386.065 201.715 386.065 203.648C386.065 205.58 386.608 207.063 387.694 208.186C388.735 209.31 390.047 209.849 391.586 209.849C393.125 209.849 394.437 209.265 395.523 208.142C396.609 207.018 397.152 205.535 397.152 203.603Z" fill="white"/>
<path d="M406.221 203.603C406.221 201.041 406.718 198.75 407.714 196.817C408.664 194.885 410.022 193.357 411.696 192.323C413.371 191.29 415.271 190.751 417.353 190.751C419.118 190.751 420.702 191.11 422.059 191.829C423.372 192.548 424.412 193.492 425.136 194.66V191.11H432.875V216.185H425.136V212.635C424.367 213.804 423.326 214.747 422.014 215.466C420.656 216.185 419.072 216.545 417.308 216.545C415.271 216.545 413.371 216.006 411.696 214.927C410.022 213.894 408.664 212.366 407.714 210.388C406.718 208.456 406.221 206.164 406.221 203.603ZM425.136 203.648C425.136 201.715 424.593 200.232 423.553 199.109C422.466 197.986 421.154 197.446 419.615 197.446C418.077 197.446 416.765 197.986 415.724 199.064C414.638 200.188 414.095 201.671 414.095 203.603C414.095 205.535 414.638 207.018 415.724 208.142C416.765 209.265 418.077 209.849 419.615 209.849C421.154 209.849 422.466 209.31 423.553 208.186C424.593 207.063 425.136 205.58 425.136 203.648Z" fill="white"/>
<path d="M435.587 203.648C435.587 201.041 436.13 198.75 437.216 196.817C438.257 194.885 439.75 193.357 441.696 192.323C443.597 191.29 445.769 190.751 448.258 190.751C451.425 190.751 454.095 191.559 456.222 193.222C458.349 194.885 459.707 197.177 460.385 200.188H452.149C451.471 198.255 450.113 197.312 448.122 197.312C446.719 197.312 445.588 197.851 444.728 198.929C443.868 200.053 443.461 201.626 443.461 203.648C443.461 205.67 443.868 207.243 444.728 208.321C445.588 209.445 446.719 209.984 448.122 209.984C450.113 209.984 451.471 209.04 452.149 207.108H460.385C459.707 210.029 458.304 212.366 456.177 214.028C454.05 215.691 451.38 216.545 448.258 216.545C445.769 216.545 443.597 216.006 441.696 214.972C439.75 213.939 438.257 212.411 437.216 210.478C436.13 208.546 435.587 206.254 435.587 203.648Z" fill="white"/>
<path d="M486.949 203.198C486.949 203.872 486.904 204.636 486.814 205.4H469.3C469.436 206.973 469.934 208.186 470.794 209.04C471.654 209.894 472.785 210.299 474.097 210.299C476.043 210.299 477.356 209.49 478.125 207.872H486.361C485.954 209.535 485.184 211.018 484.098 212.321C482.967 213.624 481.609 214.658 479.935 215.421C478.261 216.185 476.405 216.545 474.369 216.545C471.88 216.545 469.708 216.006 467.762 214.972C465.816 213.939 464.323 212.411 463.237 210.478C462.15 208.546 461.607 206.254 461.607 203.648C461.607 201.041 462.15 198.75 463.237 196.817C464.277 194.885 465.771 193.357 467.717 192.323C469.663 191.29 471.88 190.751 474.369 190.751C476.813 190.751 478.985 191.245 480.885 192.278C482.786 193.312 484.279 194.75 485.365 196.637C486.406 198.525 486.949 200.727 486.949 203.198ZM479.03 201.491C479.03 200.053 478.577 198.929 477.672 198.12C476.767 197.312 475.636 196.907 474.278 196.907C472.966 196.907 471.835 197.312 470.975 198.075C470.07 198.884 469.527 200.008 469.3 201.491H479.03Z" fill="white"/>
<path d="M127.906 227.042H122.567C121.15 227.042 120 225.892 120 224.475V175.567C120 174.15 121.15 173 122.567 173H127.906C127.951 173 127.996 173.001 128.041 173.003C129.616 173.006 132.371 173.008 136.944 173.008C144.128 173.008 149.784 176.043 151.419 177.021C151.712 177.208 152.087 177.209 152.379 177.021C154.017 176.044 159.685 173.008 166.855 173.008L175.729 173.001C175.756 173 175.783 173 175.811 173H181.149C182.566 173 183.716 174.15 183.716 175.567V224.475C183.716 225.892 182.566 227.042 181.149 227.042H175.811C175.785 227.042 175.759 227.042 175.733 227.041C175.733 227.041 168.234 227.045 164.004 227.047C162.221 227.048 160.533 227.851 159.41 229.235C157.3 231.83 154.066 235.811 154.066 235.811C152.859 237.018 150.909 237.018 149.701 235.811C149.701 235.811 146.489 231.84 144.389 229.244C143.266 227.855 141.574 227.048 139.787 227.047C135.535 227.045 127.983 227.041 127.983 227.041C127.958 227.042 127.932 227.042 127.906 227.042ZM151.899 186.471C151.732 186.471 151.58 186.569 151.51 186.721C150.272 189.434 146.501 197.699 146.501 197.699C146.501 197.699 138.234 201.484 135.521 202.727C135.369 202.797 135.272 202.948 135.272 203.116C135.272 203.283 135.37 203.435 135.522 203.504C138.237 204.738 146.501 208.494 146.501 208.494C146.501 208.494 150.272 216.759 151.51 219.472C151.58 219.624 151.732 219.722 151.899 219.722L151.915 219.722C152.076 219.716 152.221 219.62 152.288 219.472C153.526 216.759 157.298 208.494 157.298 208.494C157.298 208.494 165.533 204.738 168.236 203.504C168.388 203.435 168.486 203.283 168.486 203.116C168.486 202.949 168.389 202.797 168.237 202.727C165.535 201.485 157.298 197.699 157.298 197.699C157.298 197.699 153.526 189.434 152.288 186.721C152.221 186.573 152.076 186.477 151.915 186.471L151.899 186.471Z" fill="#5864FB"/>
</g>
<defs>
<clipPath id="clip0_1_19">
<rect width="600" height="400" fill="white"/>
</clipPath>
</defs>
</svg>
