<svg width="600" height="400" viewBox="0 0 600 400" fill="none" xmlns="http://www.w3.org/2000/svg">
<rect width="600" height="400" fill="white"/>
<rect width="600" height="400" fill="#18181B"/>
<path d="M394.792 210.623C396.406 210.623 397.551 209.595 397.551 208.186C397.551 206.806 396.406 205.72 394.792 205.72C393.147 205.72 392.002 206.806 392.002 208.186C392.002 209.595 393.147 210.623 394.792 210.623Z" fill="white"/>
<path d="M420.482 206.395L416.313 204.721C415.314 206.571 413.465 207.246 411.41 207.246C408.033 207.246 405.538 205.543 405.538 202.196C405.538 198.79 408.033 197.117 411.41 197.117C413.465 197.117 415.256 197.763 416.195 199.554L420.394 197.91C419.043 195.443 415.99 193.447 411.38 193.447C405.038 193.447 401.134 196.823 401.134 202.196C401.134 207.54 405.038 210.916 411.38 210.916C416.048 210.916 419.131 208.919 420.482 206.395Z" fill="white"/>
<path d="M432.803 210.919C439.174 210.919 443.137 207.572 443.137 202.2C443.137 196.797 439.174 193.48 432.803 193.48C426.402 193.48 422.468 196.797 422.468 202.2C422.468 207.572 426.402 210.919 432.803 210.919ZM432.803 207.22C429.397 207.22 426.872 205.547 426.872 202.2C426.872 198.823 429.397 197.179 432.803 197.179C436.238 197.179 438.763 198.823 438.763 202.2C438.763 205.547 436.238 207.22 432.803 207.22Z" fill="white"/>
<path d="M472.071 193.507C468.665 193.507 466.052 195.269 464.937 197.823C464.085 195.239 461.971 193.507 458.478 193.507C455.512 193.507 453.105 194.799 451.842 196.971V194.094H447.292V210.271H451.842V200.436C452.987 198.293 454.661 197.118 456.98 197.118C459.623 197.118 460.885 198.586 460.885 201.111V210.271H465.436L465.406 207.071V200.524C466.522 198.351 468.254 197.118 470.574 197.118C473.216 197.118 474.479 198.586 474.479 201.111V210.271H479V200.876C479 196.707 476.827 193.507 472.071 193.507Z" fill="white"/>
<path d="M139.849 189.726V203.819L125.991 189.726H121V210.278H125.551V195.422L140.289 210.278H144.4V189.726H139.849Z" fill="white"/>
<path d="M162.035 210.925C170.05 210.925 175.1 206.874 175.1 200.003C175.1 193.133 170.05 189.082 162.035 189.082C154.02 189.082 148.97 193.133 148.97 200.003C148.97 206.874 154.02 210.925 162.035 210.925ZM162.035 206.874C156.927 206.874 153.756 204.407 153.756 200.003C153.756 195.6 156.956 193.133 162.035 193.133C167.114 193.133 170.315 195.6 170.315 200.003C170.315 204.407 167.114 206.874 162.035 206.874Z" fill="white"/>
<path d="M190.659 189.72H179.737V210.272H190.659C198.409 210.272 203.371 206.397 203.371 199.996C203.371 193.596 198.409 189.72 190.659 189.72ZM190.306 206.279H184.434V193.713H190.306C195.239 193.713 198.586 195.768 198.586 199.996C198.586 204.224 195.239 206.279 190.306 206.279Z" fill="white"/>
<path d="M212.723 206.338V201.817H226.258V197.882H212.723V193.655H228.93V189.72H208.055V210.272H229.223V206.338H212.723Z" fill="white"/>
<path d="M265.7 197.619C261.619 197.296 258.683 197.12 258.683 195.359C258.683 193.48 262.089 192.98 264.878 193.01C268.225 193.039 271.014 193.744 273.275 195.476L275.859 192.217C273.246 190.191 269.37 189.076 264.878 189.076C258.537 189.076 253.956 191.424 253.956 195.711C253.956 200.115 259.417 201.407 265.289 201.906C270.016 202.317 272.13 202.787 272.13 204.489C272.13 206.192 270.016 206.985 265.847 206.985C261.649 206.985 258.39 205.899 255.865 203.579L253.164 206.779C256.305 209.451 260.533 210.919 265.73 210.919C273.011 210.919 276.857 208.101 276.857 204.049C276.857 199.528 272.247 198.148 265.7 197.619Z" fill="white"/>
<path d="M235.327 206.811V210.921H239.29C246.189 210.891 249.476 206.87 249.476 201.439V189.726H244.779V201.087C244.779 204.609 243.224 206.782 239.319 206.811C239.29 206.811 235.327 206.811 235.327 206.811Z" fill="white"/>
<path fill-rule="evenodd" clip-rule="evenodd" d="M344.483 213.499V216.77C344.483 217.644 344.014 218.451 343.26 218.888L314.206 235.663C313.448 236.1 312.513 236.1 311.76 235.663L282.705 218.888C281.947 218.451 281.482 217.644 281.482 216.77V183.221C281.482 182.347 281.947 181.539 282.705 181.102L311.76 164.328C312.513 163.891 313.448 163.891 314.206 164.328L343.26 181.102C344.014 181.539 344.483 182.347 344.483 183.221V186.491H339.591V184.633L312.983 169.271L286.374 184.633V215.358L312.983 230.72L339.591 215.358V213.499H344.483Z" fill="url(#paint0_linear_1_11)"/>
<path d="M321.851 210.919C329.867 210.919 334.917 206.868 334.917 199.997C334.917 193.127 329.867 189.076 321.851 189.076C313.836 189.076 308.786 193.127 308.786 199.997C308.786 206.868 313.836 210.919 321.851 210.919ZM321.851 206.868C316.743 206.868 313.572 204.401 313.572 199.997C313.572 195.593 316.772 193.127 321.851 193.127C326.931 193.127 330.131 195.593 330.131 199.997C330.131 204.401 326.931 206.868 321.851 206.868Z" fill="url(#paint1_linear_1_11)"/>
<path d="M357.138 199.526C360.192 199.321 361.718 197.324 361.718 194.976C361.718 191.658 358.606 189.72 353.674 189.72H339.552V210.272H354.848C359.781 210.272 362.893 208.276 362.893 204.635C362.893 201.376 360.368 199.703 357.138 199.526ZM344.191 193.42H352.91C355.465 193.42 357.05 193.86 357.05 195.739C357.05 197.647 355.465 198.058 352.91 198.058H344.191V193.42ZM353.879 206.573H344.191V201.64H353.879C356.522 201.64 358.078 202.022 358.078 204.107C358.078 206.162 356.522 206.573 353.879 206.573Z" fill="url(#paint2_linear_1_11)"/>
<path d="M377.968 197.619C373.887 197.296 370.951 197.12 370.951 195.359C370.951 193.48 374.356 192.98 377.146 193.01C380.493 193.039 383.282 193.744 385.542 195.476L388.126 192.217C385.513 190.191 381.638 189.076 377.146 189.076C370.804 189.076 366.224 191.424 366.224 195.711C366.224 200.115 371.685 201.407 377.557 201.906C382.284 202.317 384.397 202.787 384.397 204.489C384.397 206.192 382.284 206.985 378.114 206.985C373.916 206.985 370.657 205.899 368.132 203.579L365.431 206.779C368.573 209.451 372.8 210.919 377.997 210.919C385.278 210.919 389.124 208.101 389.124 204.049C389.124 199.528 384.515 198.148 377.968 197.619Z" fill="url(#paint3_linear_1_11)"/>
<path d="M290.581 206.811V210.921H294.544C301.443 210.891 304.731 206.87 304.731 201.439V189.726H300.034V201.087C300.034 204.609 298.478 206.782 294.574 206.811C294.544 206.811 290.581 206.811 290.581 206.811Z" fill="url(#paint4_linear_1_11)"/>
<defs>
<linearGradient id="paint0_linear_1_11" x1="281.517" y1="214.982" x2="389.201" y2="191.258" gradientUnits="userSpaceOnUse">
<stop stop-color="#22C55E"/>
<stop offset="1" stop-color="#84CC16"/>
</linearGradient>
<linearGradient id="paint1_linear_1_11" x1="281.517" y1="214.982" x2="389.201" y2="191.258" gradientUnits="userSpaceOnUse">
<stop stop-color="#22C55E"/>
<stop offset="1" stop-color="#84CC16"/>
</linearGradient>
<linearGradient id="paint2_linear_1_11" x1="281.517" y1="214.982" x2="389.201" y2="191.258" gradientUnits="userSpaceOnUse">
<stop stop-color="#22C55E"/>
<stop offset="1" stop-color="#84CC16"/>
</linearGradient>
<linearGradient id="paint3_linear_1_11" x1="281.517" y1="214.982" x2="389.201" y2="191.258" gradientUnits="userSpaceOnUse">
<stop stop-color="#22C55E"/>
<stop offset="1" stop-color="#84CC16"/>
</linearGradient>
<linearGradient id="paint4_linear_1_11" x1="281.517" y1="214.982" x2="389.201" y2="191.258" gradientUnits="userSpaceOnUse">
<stop stop-color="#22C55E"/>
<stop offset="1" stop-color="#84CC16"/>
</linearGradient>
</defs>
</svg>
