<svg width="600" height="400" viewBox="0 0 600 400" fill="none" xmlns="http://www.w3.org/2000/svg">
<g clip-path="url(#clip0_1_5)">
<rect width="600" height="400" fill="white"/>
<rect width="600" height="400" fill="#1E3A8A"/>
<mask id="mask0_1_5" style="mask-type:alpha" maskUnits="userSpaceOnUse" x="132" y="173" width="69" height="69">
<path fill-rule="evenodd" clip-rule="evenodd" d="M200.772 207.387C200.772 188.396 185.375 173 166.386 173C147.392 173 132 188.396 132 207.387C132 226.379 147.392 241.774 166.386 241.774C185.375 241.774 200.772 226.379 200.772 207.387Z" fill="#0EA5E9"/>
</mask>
<g mask="url(#mask0_1_5)">
<rect x="131.533" y="171.957" width="70.0364" height="70.0364" fill="#0EA5E9"/>
<path fill-rule="evenodd" clip-rule="evenodd" d="M166.474 182.429H166.558C182.045 182.429 184.722 190.688 184.722 190.688C184.722 190.688 186.858 190.272 189.108 192.428C191.359 194.584 187.159 200.831 187.159 200.831C187.159 200.831 187.159 208.418 186.864 215.716C186.569 223.013 189.812 232.392 190.853 239.215C191.9 246.037 191.852 251.87 191.852 251.87L166.558 261.137H166.474L141.181 251.87C141.181 251.87 141.133 246.037 142.179 239.215C143.22 232.392 146.463 223.013 146.168 215.716C145.874 208.418 145.868 200.831 145.868 200.831C145.868 200.831 141.674 194.584 143.924 192.428C146.168 190.272 148.31 190.688 148.31 190.688C148.31 190.688 150.988 182.429 166.474 182.429Z" fill="#0C4A6E"/>
<path fill-rule="evenodd" clip-rule="evenodd" d="M181.193 228.032C179.066 223.379 171.451 220.586 166.553 220.586C161.662 220.586 153.985 223.359 151.835 228.032C149.379 233.364 151.835 252.575 151.835 252.575H181.193C181.193 252.575 183.634 233.364 181.193 228.032Z" fill="#F1F5F9"/>
<path fill-rule="evenodd" clip-rule="evenodd" d="M166.612 207.482C165.583 207.451 164.163 210.605 159.17 210.652C153.273 210.709 153.015 207.054 153.015 206.143C153.015 205.232 153.117 202.077 155.873 200.832C158.628 199.586 160.138 198.068 162.455 196.246C164.41 194.712 166.028 194.695 166.492 194.729C166.576 194.735 166.66 194.736 166.744 194.733C167.202 194.71 168.88 194.741 170.794 196.246C173.11 198.068 174.626 199.586 177.382 200.832C180.137 202.077 180.233 205.232 180.233 206.143C180.233 207.054 179.981 210.709 174.085 210.652C169.067 210.605 167.659 207.426 166.624 207.482L166.612 207.482ZM173.128 200.706C172.689 199.073 169.981 198.125 168.212 197.673C167.19 197.411 166.119 197.405 165.09 197.654C163.327 198.084 160.656 199.005 160.198 200.706C159.507 203.282 161.257 203.406 162.088 202.727C162.912 202.049 165.03 202.388 165.433 203.764C165.836 205.118 165.812 206.209 166.624 206.243V206.244H166.666H166.708V206.243C167.521 206.208 167.496 205.118 167.9 203.764C168.303 202.388 170.414 202.049 171.245 202.727C172.075 203.406 173.82 203.282 173.128 200.706Z" fill="#F1F5F9"/>
<path fill-rule="evenodd" clip-rule="evenodd" d="M180.111 197.203C180.111 196.072 178.943 195.152 177.505 195.152C176.068 195.152 174.9 196.072 174.9 197.203C174.9 198.344 175.985 196.494 177.423 196.494C178.861 196.494 180.111 198.344 180.111 197.203Z" fill="#F1F5F9"/>
<path fill-rule="evenodd" clip-rule="evenodd" d="M158.333 197.203C158.333 196.072 157.165 195.152 155.727 195.152C154.289 195.152 153.121 196.072 153.121 197.203C153.121 198.344 154.207 196.494 155.644 196.494C157.082 196.494 158.333 198.344 158.333 197.203Z" fill="#F1F5F9"/>
<path fill-rule="evenodd" clip-rule="evenodd" d="M166.318 213.454C164.688 213.454 161.415 212.475 161.415 211.77C161.415 211.062 163.611 210.488 166.318 210.488H166.348C169.044 210.492 171.222 211.065 171.222 211.77C171.222 212.478 167.955 213.454 166.318 213.454Z" fill="#F1F5F9"/>
<path fill-rule="evenodd" clip-rule="evenodd" d="M149.159 235.192C149.159 235.192 154.874 227.256 158.533 227.415C159.422 227.453 159.539 227.907 159.728 228.187C160.223 228.922 159.228 229.933 159.161 230.135C159.072 230.415 158.727 230.551 159.839 230.545C160.946 230.539 161.541 230.927 161.702 231.772C161.88 232.706 161.202 233.185 160.551 233.525C159.895 233.867 159.789 234.035 160.479 234.189C161.163 234.342 161.407 234.635 161.702 235.001C161.902 235.252 161.963 236.084 161.702 236.422C161.457 236.733 160.701 236.923 160.095 237.142C158.833 237.6 154.48 241.751 153.217 241.765" fill="#0C4A6E"/>
<path fill-rule="evenodd" clip-rule="evenodd" d="M183.936 235.192C183.936 235.192 178.22 227.256 174.561 227.415C173.672 227.453 173.555 227.907 173.366 228.187C172.871 228.922 173.867 229.933 173.933 230.135C174.022 230.415 174.367 230.551 173.255 230.545C172.148 230.539 171.554 230.927 171.392 231.772C171.214 232.706 171.893 233.185 172.543 233.525C173.199 233.867 173.305 234.035 172.616 234.189C171.932 234.342 171.687 234.635 171.392 235.001C171.192 235.252 171.131 236.084 171.392 236.422C171.637 236.733 172.393 236.923 172.999 237.142C174.261 237.6 179.493 241.751 180.755 241.765" fill="#0C4A6E"/>
</g>
<path d="M229.261 222.981C238.467 222.981 243.851 216.844 243.851 208.16C243.851 199.504 238.467 193.367 229.261 193.367C220.027 193.367 214.642 199.504 214.642 208.16C214.642 216.844 220.027 222.981 229.261 222.981ZM229.261 216.092C225.035 216.092 222.314 213.052 222.314 208.16C222.314 203.296 225.035 200.286 229.261 200.286C233.459 200.286 236.151 203.296 236.151 208.16C236.151 213.052 233.459 216.092 229.261 216.092Z" fill="white"/>
<path d="M265.105 215.397C263.918 215.802 262.847 216.005 261.515 216.005C258.591 216.005 257.636 214.413 257.636 211.547V200.459H265.713V193.917H257.636V185.03L249.878 186.13V193.917H245.044V200.459H249.878V212.589C249.878 219.073 253.033 222.808 260.039 222.808C262.384 222.808 264.381 222.489 266.321 221.852L265.105 215.397Z" fill="white"/>
<path d="M286.845 215.397C285.659 215.802 284.587 216.005 283.256 216.005C280.332 216.005 279.377 214.413 279.377 211.547V200.459H287.453V193.917H279.377V185.03L271.619 186.13V193.917H266.784V200.459H271.619V212.589C271.619 219.073 274.774 222.808 281.779 222.808C284.124 222.808 286.122 222.489 288.061 221.852L286.845 215.397Z" fill="white"/>
<path d="M316.779 207.754C316.779 198.983 311.684 193.367 303.318 193.367C294.749 193.367 289.307 199.707 289.307 208.189C289.307 216.844 294.546 222.981 303.549 222.981C310.149 222.981 314.955 219.855 316.257 213.718L309.715 212.705C308.991 215.31 306.994 216.613 303.52 216.613C299.873 216.613 297.615 214.442 297.007 210.302H316.634C316.75 209.318 316.779 208.536 316.779 207.754ZM303.318 199.649C306.56 199.649 308.818 201.56 309.136 205.41H297.065C297.73 201.646 299.988 199.649 303.318 199.649Z" fill="white"/>
<path d="M327.333 199.852L327.246 193.917H320.443V222.402H328.143V209.578C328.143 203.065 332.775 200.836 337.812 201.878V193.512C332.544 192.586 328.925 195.307 327.333 199.852Z" fill="white"/>
<path d="M373.282 193.367C368.94 193.367 366.19 195.394 364.771 198.809C363.555 195.422 360.834 193.367 356.116 193.367C351.629 193.367 348.879 195.509 347.547 199.128L347.489 193.917H340.657V222.431H348.387V208.623C348.387 203.181 350.471 200.546 353.887 200.546C356.724 200.546 357.882 202.37 357.882 206.22V222.431H365.582V208.565L365.611 208.623C365.611 203.181 367.695 200.546 371.111 200.546C373.948 200.546 375.106 202.399 375.106 206.22V222.431H382.806V204.165C382.806 197.796 380.114 193.367 373.282 193.367Z" fill="white"/>
<path d="M408.306 193.917L408.219 199.273C406.685 195.451 403.703 193.367 398.927 193.367C391.284 193.367 386.247 199.215 386.247 208.131C386.247 217.105 391.284 222.981 398.927 222.981C403.732 222.981 406.714 220.723 408.248 216.757L408.364 222.431H415.167V193.917H408.306ZM400.635 216.121C396.437 216.121 394.034 212.994 394.034 208.131C394.034 203.325 396.437 200.315 400.635 200.315C404.832 200.315 407.669 203.412 407.669 208.131C407.669 212.907 404.861 216.121 400.635 216.121Z" fill="white"/>
<path d="M438.067 215.397C436.88 215.802 435.809 216.005 434.477 216.005C431.553 216.005 430.598 214.413 430.598 211.547V200.459H438.675V193.917H430.598V185.03L422.84 186.13V193.917H418.006V200.459H422.84V212.589C422.84 219.073 425.995 222.808 433.001 222.808C435.346 222.808 437.343 222.489 439.283 221.852L438.067 215.397Z" fill="white"/>
<path d="M468 207.754C468 198.983 462.905 193.367 454.539 193.367C445.97 193.367 440.528 199.707 440.528 208.189C440.528 216.844 445.767 222.981 454.77 222.981C461.371 222.981 466.176 219.855 467.479 213.718L460.936 212.705C460.213 215.31 458.215 216.613 454.741 216.613C451.094 216.613 448.836 214.442 448.228 210.302H467.855C467.971 209.318 468 208.536 468 207.754ZM454.539 199.649C457.781 199.649 460.039 201.56 460.357 205.41H448.286C448.952 201.646 451.21 199.649 454.539 199.649Z" fill="white"/>
<rect x="264.135" y="193.902" width="4.20218" height="6.53673" fill="#0E3D3B"/>
<g style="mix-blend-mode:overlay" opacity="0.2">
<circle cx="600" cy="400" r="168" fill="white"/>
</g>
<g style="mix-blend-mode:overlay" opacity="0.2">
<circle cx="1" r="168" fill="white"/>
</g>
</g>
<defs>
<clipPath id="clip0_1_5">
<rect width="600" height="400" fill="white"/>
</clipPath>
</defs>
</svg>
