<svg width="600" height="400" viewBox="0 0 600 400" fill="none" xmlns="http://www.w3.org/2000/svg">
<g clip-path="url(#clip0_1_23)">
<rect width="600" height="400" fill="white"/>
<rect y="-1" width="600" height="401" fill="#EDEEEF"/>
<path d="M329.114 169.796H274.167L268.267 218.14L295.875 230.144L323.059 218.325L329.114 169.796Z" fill="white"/>
<path d="M329.114 169.796H439.601L433.745 217.485H323.159L329.114 169.796Z" fill="white"/>
<path d="M437.308 221.512H318.597L325.559 165.768H444.152C441.872 184.35 439.59 202.933 437.308 221.512ZM332.67 173.823L327.72 213.457H430.182L435.047 173.823H332.67Z" fill="#515252"/>
<path d="M165.517 169.796H273.318L267.463 217.485H159.562L165.517 169.796Z" fill="white"/>
<path d="M271.025 221.512H155L161.961 165.768H277.87C275.588 184.35 273.307 202.933 271.025 221.512ZM169.073 173.823L164.123 213.457H263.899L268.766 173.823H169.073Z" fill="#515252"/>
<path d="M302.594 169.796L295.323 230.144L268.266 218.14L274.049 169.796H302.594Z" fill="#EDEEEF"/>
<path d="M326.771 221.101L295.875 234.537L263.905 220.634L270.601 165.768H333.676C331.374 184.214 329.072 202.659 326.771 221.101ZM272.629 215.646L295.875 225.752L319.347 215.546L324.553 173.823H277.733C276.031 187.763 274.33 201.706 272.629 215.646Z" fill="#515252"/>
<path d="M347.842 180.557L345.256 201.588H353.403L352.776 206.678H338.598L341.81 180.557H347.842Z" fill="#515252"/>
<path d="M369.423 180.557L366.212 206.678H360.179L363.39 180.557H369.423Z" fill="#515252"/>
<path d="M395.429 205.856C394.567 206.286 392.451 207.266 389.084 207.266C384.15 207.266 381.29 205.15 379.878 203.781C378.194 202.097 376.355 199.276 376.355 194.733C376.355 190.19 378.076 186.469 380.506 184.042C382.7 181.848 386.185 179.969 390.964 179.969C394.997 179.969 397.426 181.3 398.366 181.848L397.622 188.233C396.565 187.175 394.567 185.607 391.082 185.607C388.574 185.607 386.536 186.273 384.893 188.074C383.288 189.798 382.544 192.147 382.544 194.223C382.544 196.416 383.403 198.414 384.579 199.59C385.755 200.766 387.712 201.628 390.102 201.628C392.688 201.628 394.763 200.53 396.213 199.354L395.429 205.856Z" fill="#515252"/>
<path d="M419.515 186.939C417.869 185.451 416.304 185.059 415.128 185.059C414.384 185.059 413.326 185.177 412.661 185.725C412.113 186.157 411.761 186.901 411.761 187.604C411.761 188.388 412.113 188.936 412.661 189.368C413.211 189.838 413.914 190.15 415.209 190.738L416.734 191.444C417.987 192.032 419.163 192.698 420.181 193.949C421.121 195.125 421.513 196.338 421.513 198.022C421.513 200.766 420.417 203.193 418.89 204.721C416.774 206.796 414.073 207.266 411.409 207.266C409.49 207.266 407.962 207.032 406.198 206.09C404.907 205.386 403.653 204.329 402.713 203.311L406.083 199.002C406.63 199.746 407.492 200.57 408.273 201.077C409.098 201.587 410.193 201.939 411.329 201.939C412.231 201.939 413.485 201.665 414.229 201.117C414.932 200.57 415.324 199.668 415.324 198.69C415.324 197.748 414.894 197.2 414.58 196.886C414.384 196.69 413.877 196.261 412.505 195.713L410.977 195.085C410.548 194.929 408.55 194.067 407.296 192.776C406.042 191.481 405.572 189.994 405.572 188.348C405.572 185.647 406.668 183.687 407.922 182.436C410.037 180.361 412.741 179.969 414.972 179.969C417.203 179.969 419.789 180.398 422.53 182.551L419.515 186.939Z" fill="#515252"/>
<path d="M183.123 192.58H185.277C186.57 192.58 188.058 192.462 189.077 191.444C189.977 190.582 190.095 189.406 190.095 188.74C190.095 187.997 189.938 187.135 189.233 186.469C188.293 185.569 186.727 185.489 185.826 185.489H184.024L183.123 192.58ZM187.392 180.554C189.233 180.554 192.053 180.635 194.168 182.748C195.343 183.924 196.283 185.685 196.283 188.348C196.283 191.248 195.304 193.753 193.737 195.203C192.562 196.298 190.33 197.515 185.982 197.515H182.536L181.4 206.678H175.368L178.58 180.554H187.392Z" fill="#515252"/>
<path d="M211.675 180.554L209.952 194.811C209.835 195.632 209.756 195.987 209.756 197.082C209.756 198.14 209.913 199.472 210.892 200.452C211.597 201.118 212.732 201.625 214.338 201.625C216.297 201.625 217.511 201 218.177 200.334C219.469 199.042 219.743 196.849 219.939 195.359L221.741 180.554H227.772L225.892 195.751C225.501 198.884 225.148 202.057 222.798 204.447C220.174 207.148 216.375 207.266 214.221 207.266C211.636 207.266 208.346 206.952 205.957 204.562C204.312 202.957 203.646 200.959 203.646 198.532C203.646 197.356 203.842 195.477 203.959 194.419L205.644 180.554H211.675Z" fill="#515252"/>
<path d="M242.93 191.17H244.144C245.162 191.17 246.572 191.052 247.473 190.19C248.06 189.642 248.374 188.703 248.374 187.841C248.374 186.783 247.904 186.195 247.552 185.881C246.807 185.293 245.75 185.255 244.888 185.255H243.635L242.93 191.17ZM241.598 201.98H243.792C244.927 201.98 246.768 201.861 247.708 201C248.06 200.685 248.648 199.942 248.648 198.492C248.648 197.944 248.53 197.123 247.943 196.535C247.081 195.673 245.28 195.632 244.732 195.632H242.382L241.598 201.98ZM238.191 180.554H246.533C248.296 180.554 250.645 180.75 252.29 182.356C253.23 183.258 253.974 184.785 253.974 186.821C253.974 188.507 253.544 189.838 252.761 190.896C251.899 192.07 250.881 192.617 250.019 192.891C251.35 193.205 252.33 193.831 252.995 194.459C254.209 195.632 254.679 196.927 254.679 198.61C254.679 201.392 253.583 203.193 252.565 204.211C250.489 206.286 247.434 206.678 244.692 206.678H234.979L238.191 180.554Z" fill="#515252"/>
<path d="M298.251 206.141L298.909 210.569H303.562L299.315 213.305L299.973 217.729L296.69 214.993L292.443 217.729L294.661 213.305L291.379 210.569H296.033L298.251 206.141Z" fill="#515252"/>
<path d="M287.708 192.335L288.366 196.76H293.019L288.772 199.496L289.43 203.921L286.147 201.188L281.9 203.921L284.118 199.496L280.836 196.76H285.49L287.708 192.335Z" fill="#515252"/>
<path d="M310.435 192.335L311.092 196.76H315.746L311.499 199.496L312.157 203.921L308.874 201.188L304.627 203.921L306.845 199.496L303.562 196.76H308.216L310.435 192.335Z" fill="#515252"/>
<path d="M301.502 178.53L302.16 182.955H306.814L302.566 185.69L303.224 190.115L299.942 187.382L295.694 190.115L297.913 185.69L294.63 182.955H299.284L301.502 178.53Z" fill="#515252"/>
<path d="M329.114 74.0273H274.167L268.267 122.372L295.875 134.376L323.059 122.557L329.114 74.0273Z" fill="white"/>
<path d="M329.114 74.0273H439.601L433.745 121.717H323.159L329.114 74.0273Z" fill="white"/>
<path d="M437.308 125.744H318.597L325.559 70H444.152C441.872 88.5822 439.59 107.164 437.308 125.744ZM332.67 78.0547L327.72 117.689H430.182L435.047 78.0547H332.67Z" fill="#2E6B9F"/>
<path d="M165.517 74.0273H273.318L267.463 121.717H159.562L165.517 74.0273Z" fill="white"/>
<path d="M271.025 125.744H155L161.961 70H277.87C275.588 88.5822 273.307 107.164 271.025 125.744ZM169.073 78.0547L164.123 117.689H263.899L268.766 78.0547H169.073Z" fill="#2E6B9F"/>
<path d="M302.594 74.0273L295.323 134.376L268.266 122.372L274.049 74.0273H302.594Z" fill="#EDEEEF"/>
<path d="M326.771 125.333L295.875 138.768L263.905 124.866L270.601 70H333.676C331.374 88.4453 329.072 106.89 326.771 125.333ZM272.629 119.877L295.875 129.983L319.347 119.778L324.553 78.0547H277.733C276.031 91.9947 274.33 105.937 272.629 119.877Z" fill="#2E6B9F"/>
<path d="M347.842 84.7885L345.256 105.819H353.403L352.776 110.91H338.598L341.81 84.7885H347.842Z" fill="#2E6B9F"/>
<path d="M369.423 84.7885L366.212 110.91H360.179L363.39 84.7885H369.423Z" fill="#2E6B9F"/>
<path d="M395.429 110.088C394.567 110.518 392.451 111.498 389.084 111.498C384.15 111.498 381.29 109.382 379.878 108.013C378.194 106.329 376.355 103.507 376.355 98.9645C376.355 94.4217 378.076 90.7004 380.506 88.2732C382.7 86.0796 386.185 84.2002 390.964 84.2002C394.997 84.2002 397.426 85.5319 398.366 86.0796L397.622 92.4643C396.565 91.4065 394.567 89.8385 391.082 89.8385C388.574 89.8385 386.536 90.5044 384.893 92.3059C383.288 94.0296 382.544 96.3789 382.544 98.4544C382.544 100.648 383.403 102.646 384.579 103.821C385.755 104.997 387.712 105.859 390.102 105.859C392.688 105.859 394.763 104.761 396.213 103.585L395.429 110.088Z" fill="#2E6B9F"/>
<path d="M419.515 91.1702C417.869 89.6828 416.304 89.2908 415.128 89.2908C414.384 89.2908 413.326 89.4089 412.661 89.9566C412.113 90.3889 411.761 91.1326 411.761 91.8361C411.761 92.6201 412.113 93.1678 412.661 93.6C413.211 94.0699 413.914 94.3814 415.209 94.9694L416.734 95.6755C417.987 96.2635 419.163 96.9293 420.181 98.1805C421.121 99.3565 421.513 100.57 421.513 102.254C421.513 104.997 420.417 107.425 418.89 108.952C416.774 111.028 414.073 111.498 411.409 111.498C409.49 111.498 407.962 111.264 406.198 110.322C404.907 109.618 403.653 108.56 402.713 107.543L406.083 103.233C406.63 103.977 407.492 104.801 408.273 105.309C409.098 105.819 410.193 106.171 411.329 106.171C412.231 106.171 413.485 105.897 414.229 105.349C414.932 104.801 415.324 103.899 415.324 102.922C415.324 101.98 414.894 101.432 414.58 101.118C414.384 100.922 413.877 100.492 412.505 99.9445L410.977 99.3162C410.548 99.1605 408.55 98.2986 407.296 97.0072C406.042 95.7131 405.572 94.2256 405.572 92.5798C405.572 89.8788 406.668 87.9188 407.922 86.6676C410.037 84.5922 412.741 84.2002 414.972 84.2002C417.203 84.2002 419.789 84.6298 422.53 86.7831L419.515 91.1702Z" fill="#2E6B9F"/>
<path d="M183.123 96.8114H185.277C186.57 96.8114 188.058 96.6933 189.077 95.6757C189.977 94.8139 190.095 93.6379 190.095 92.972C190.095 92.2283 189.938 91.3665 189.233 90.7006C188.293 89.8012 186.727 89.7206 185.826 89.7206H184.024L183.123 96.8114ZM187.392 84.7858C189.233 84.7858 192.053 84.8663 194.168 86.9793C195.343 88.1553 196.283 89.9166 196.283 92.58C196.283 95.4797 195.304 97.9847 193.737 99.4346C192.562 100.53 190.33 101.746 185.982 101.746H182.536L181.4 110.91H175.368L178.58 84.7858H187.392Z" fill="#2E6B9F"/>
<path d="M211.675 84.7858L209.952 99.0426C209.835 99.8642 209.756 100.219 209.756 101.314C209.756 102.372 209.913 103.704 210.892 104.684C211.597 105.349 212.732 105.857 214.338 105.857C216.297 105.857 217.511 105.231 218.177 104.565C219.469 103.274 219.743 101.08 219.939 99.5903L221.741 84.7858H227.772L225.892 99.9823C225.501 103.116 225.148 106.289 222.798 108.679C220.174 111.38 216.375 111.498 214.221 111.498C211.636 111.498 208.346 111.184 205.957 108.794C204.312 107.189 203.646 105.191 203.646 102.764C203.646 101.588 203.842 99.7084 203.959 98.6506L205.644 84.7858H211.675Z" fill="#2E6B9F"/>
<path d="M242.93 95.4019H244.144C245.162 95.4019 246.572 95.2837 247.473 94.4219C248.06 93.8741 248.374 92.9344 248.374 92.0726C248.374 91.0147 247.904 90.4267 247.552 90.1126C246.807 89.5246 245.75 89.487 244.888 89.487H243.635L242.93 95.4019ZM241.598 106.211H243.792C244.927 106.211 246.768 106.093 247.708 105.231C248.06 104.917 248.648 104.173 248.648 102.724C248.648 102.176 248.53 101.354 247.943 100.766C247.081 99.9044 245.28 99.8642 244.732 99.8642H242.382L241.598 106.211ZM238.191 84.7858H246.533C248.296 84.7858 250.645 84.9818 252.29 86.5873C253.23 87.4894 253.974 89.0172 253.974 91.0523C253.974 92.7384 253.544 94.0701 252.761 95.128C251.899 96.3013 250.881 96.849 250.019 97.1229C251.35 97.437 252.33 98.0626 252.995 98.6909C254.209 99.8642 254.679 101.158 254.679 102.842C254.679 105.623 253.583 107.425 252.565 108.442C250.489 110.518 247.434 110.91 244.692 110.91H234.979L238.191 84.7858Z" fill="#2E6B9F"/>
<path d="M298.251 110.373L298.909 114.8H303.562L299.315 117.536L299.973 121.961L296.69 119.225L292.443 121.961L294.661 117.536L291.379 114.8H296.033L298.251 110.373Z" fill="#2E6B9F"/>
<path d="M287.708 96.567L288.366 100.992H293.019L288.772 103.728L289.43 108.153L286.147 105.419L281.9 108.153L284.118 103.728L280.836 100.992H285.49L287.708 96.567Z" fill="#2E6B9F"/>
<path d="M310.435 96.567L311.092 100.992H315.746L311.499 103.728L312.157 108.153L308.874 105.419L304.627 108.153L306.845 103.728L303.562 100.992H308.216L310.435 96.567Z" fill="#2E6B9F"/>
<path d="M301.502 82.7615L302.16 87.1862H306.814L302.566 89.9221L303.224 94.3468L299.942 91.6136L295.694 94.3468L297.913 89.9221L294.63 87.1862H299.284L301.502 82.7615Z" fill="#2E6B9F"/>
<path d="M329.114 265.564H274.167L268.267 313.908L295.875 325.912L323.059 314.094L329.114 265.564Z" fill="white"/>
<path d="M329.114 265.564H439.601L433.745 313.253H323.159L329.114 265.564Z" fill="white"/>
<path d="M437.308 317.28H318.597L325.559 261.537H444.152C441.872 280.119 439.59 298.701 437.308 317.28ZM332.67 269.591L327.72 309.226H430.182L435.047 269.591H332.67Z" fill="#992020"/>
<path d="M165.517 265.564H273.318L267.463 313.253H159.562L165.517 265.564Z" fill="white"/>
<path d="M271.025 317.28H155L161.961 261.537H277.87C275.588 280.119 273.307 298.701 271.025 317.28ZM169.073 269.591L164.123 309.226H263.899L268.766 269.591H169.073Z" fill="#992020"/>
<path d="M302.594 265.564L295.323 325.912L268.266 313.908L274.049 265.564H302.594Z" fill="#EDEEEF"/>
<path d="M326.771 316.87L295.875 330.305L263.905 316.403L270.601 261.537H333.676C331.374 279.982 329.072 298.427 326.771 316.87ZM272.629 311.414L295.875 321.52L319.347 311.315L324.553 269.591H277.733C276.031 283.531 274.33 297.474 272.629 311.414Z" fill="#992020"/>
<path d="M347.842 276.325L345.256 297.356H353.403L352.776 302.446H338.598L341.81 276.325H347.842Z" fill="#992020"/>
<path d="M369.423 276.325L366.212 302.446H360.179L363.39 276.325H369.423Z" fill="#992020"/>
<path d="M395.429 301.625C394.567 302.054 392.451 303.034 389.084 303.034C384.15 303.034 381.29 300.919 379.878 299.549C378.194 297.866 376.355 295.044 376.355 290.501C376.355 285.958 378.076 282.237 380.506 279.81C382.7 277.616 386.185 275.737 390.964 275.737C394.997 275.737 397.426 277.069 398.366 277.616L397.622 284.001C396.565 282.943 394.567 281.375 391.082 281.375C388.574 281.375 386.536 282.041 384.893 283.843C383.288 285.566 382.544 287.916 382.544 289.991C382.544 292.185 383.403 294.182 384.579 295.358C385.755 296.534 387.712 297.396 390.102 297.396C392.688 297.396 394.763 296.298 396.213 295.122L395.429 301.625Z" fill="#992020"/>
<path d="M419.515 282.707C417.869 281.219 416.304 280.827 415.128 280.827C414.384 280.827 413.326 280.946 412.661 281.493C412.113 281.926 411.761 282.669 411.761 283.373C411.761 284.157 412.113 284.704 412.661 285.137C413.211 285.607 413.914 285.918 415.209 286.506L416.734 287.212C417.987 287.8 419.163 288.466 420.181 289.717C421.121 290.893 421.513 292.107 421.513 293.79C421.513 296.534 420.417 298.961 418.89 300.489C416.774 302.564 414.073 303.034 411.409 303.034C409.49 303.034 407.962 302.801 406.198 301.858C404.907 301.155 403.653 300.097 402.713 299.079L406.083 294.77C406.63 295.514 407.492 296.338 408.273 296.846C409.098 297.356 410.193 297.707 411.329 297.707C412.231 297.707 413.485 297.434 414.229 296.886C414.932 296.338 415.324 295.436 415.324 294.459C415.324 293.516 414.894 292.969 414.58 292.654C414.384 292.458 413.877 292.029 412.505 291.481L410.977 290.853C410.548 290.697 408.55 289.835 407.296 288.544C406.042 287.25 405.572 285.762 405.572 284.116C405.572 281.415 406.668 279.455 407.922 278.204C410.037 276.129 412.741 275.737 414.972 275.737C417.203 275.737 419.789 276.166 422.53 278.32L419.515 282.707Z" fill="#992020"/>
<path d="M183.123 288.348H185.277C186.57 288.348 188.058 288.23 189.077 287.212C189.977 286.35 190.095 285.174 190.095 284.509C190.095 283.765 189.938 282.903 189.233 282.237C188.293 281.338 186.727 281.257 185.826 281.257H184.024L183.123 288.348ZM187.392 276.322C189.233 276.322 192.053 276.403 194.168 278.516C195.343 279.692 196.283 281.453 196.283 284.117C196.283 287.016 195.304 289.521 193.737 290.971C192.562 292.067 190.33 293.283 185.982 293.283H182.536L181.4 302.446H175.368L178.58 276.322H187.392Z" fill="#992020"/>
<path d="M211.675 276.322L209.952 290.579C209.835 291.401 209.756 291.755 209.756 292.851C209.756 293.908 209.913 295.24 210.892 296.22C211.597 296.886 212.732 297.393 214.338 297.393C216.297 297.393 217.511 296.768 218.177 296.102C219.469 294.811 219.743 292.617 219.939 291.127L221.741 276.322H227.772L225.892 291.519C225.501 294.652 225.148 297.826 222.798 300.215C220.174 302.916 216.375 303.034 214.221 303.034C211.636 303.034 208.346 302.72 205.957 300.331C204.312 298.725 203.646 296.728 203.646 294.3C203.646 293.124 203.842 291.245 203.959 290.187L205.644 276.322H211.675Z" fill="#992020"/>
<path d="M242.93 286.938H244.144C245.162 286.938 246.572 286.82 247.473 285.958C248.06 285.411 248.374 284.471 248.374 283.609C248.374 282.551 247.904 281.963 247.552 281.649C246.807 281.061 245.75 281.024 244.888 281.024H243.635L242.93 286.938ZM241.598 297.748H243.792C244.927 297.748 246.768 297.63 247.708 296.768C248.06 296.454 248.648 295.71 248.648 294.26C248.648 293.712 248.53 292.891 247.943 292.303C247.081 291.441 245.28 291.401 244.732 291.401H242.382L241.598 297.748ZM238.191 276.322H246.533C248.296 276.322 250.645 276.518 252.29 278.124C253.23 279.026 253.974 280.554 253.974 282.589C253.974 284.275 253.544 285.607 252.761 286.665C251.899 287.838 250.881 288.386 250.019 288.659C251.35 288.974 252.33 289.599 252.995 290.227C254.209 291.401 254.679 292.695 254.679 294.378C254.679 297.16 253.583 298.961 252.565 299.979C250.489 302.054 247.434 302.446 244.692 302.446H234.979L238.191 276.322Z" fill="#992020"/>
<path d="M298.251 301.91L298.909 306.337H303.562L299.315 309.073L299.973 313.498L296.69 310.762L292.443 313.498L294.661 309.073L291.379 306.337H296.033L298.251 301.91Z" fill="#992020"/>
<path d="M287.708 288.104L288.366 292.528H293.019L288.772 295.264L289.43 299.689L286.147 296.956L281.9 299.689L284.118 295.264L280.836 292.528H285.49L287.708 288.104Z" fill="#992020"/>
<path d="M310.435 288.104L311.092 292.528H315.746L311.499 295.264L312.157 299.689L308.874 296.956L304.627 299.689L306.845 295.264L303.562 292.528H308.216L310.435 288.104Z" fill="#992020"/>
<path d="M301.502 274.298L302.16 278.723H306.814L302.566 281.459L303.224 285.883L299.942 283.15L295.694 285.883L297.913 281.459L294.63 278.723H299.284L301.502 274.298Z" fill="#992020"/>
</g>
<defs>
<clipPath id="clip0_1_23">
<rect width="600" height="400" fill="white"/>
</clipPath>
</defs>
</svg>
