<svg width="600" height="400" viewBox="0 0 600 400" fill="none" xmlns="http://www.w3.org/2000/svg">
<rect width="600" height="400" fill="white"/>
<path fill-rule="evenodd" clip-rule="evenodd" d="M309.674 214.133L325.311 230.476L318.771 237.019L302.457 220.703L309.674 214.133ZM272.1 189.991L264.851 182.745L271.254 176.331L279.252 184.414H277.059H277.013C276.974 184.417 276.929 184.417 276.89 184.424C276.773 184.445 276.662 184.498 276.571 184.576C276.545 184.601 276.519 184.633 276.486 184.661L272.1 189.991Z" fill="#2A2A2A"/>
<path fill-rule="evenodd" clip-rule="evenodd" d="M274.763 163.449L265.202 170.112L258.409 176.905L251.787 186.426L260.582 195.221L270.185 188.517L276.902 181.799L283.559 172.244L274.763 163.449Z" fill="#2A2A2A"/>
<path fill-rule="evenodd" clip-rule="evenodd" d="M279.369 214.207L286.234 220.411L269.628 237.019L263.094 230.483L279.369 214.207ZM309.16 184.414L311.684 181.889L311.645 181.849C308.854 176.676 309.27 170.533 313.129 166.678C316.773 163.034 322.461 162.463 327.445 164.77L319.819 172.39L321.602 179.039L328.252 180.821L335.664 173.409C337.584 178.206 336.9 183.52 333.432 186.986C329.742 190.675 323.957 191.215 318.934 188.808L318.374 188.273L316.897 189.75L312.81 184.667C312.784 184.638 312.758 184.607 312.732 184.58C312.667 184.527 312.595 184.485 312.524 184.457C312.485 184.443 312.446 184.435 312.407 184.425L312.283 184.414H311.873H311.867H309.16Z" fill="#2A2A2A"/>
<path fill-rule="evenodd" clip-rule="evenodd" d="M293.822 225.055V200.712L274.443 200.708L293.822 225.055ZM295.175 225.056L314.456 200.716L295.175 200.712V225.056ZM300.036 221.042L322.539 200.717L316.188 200.716L300.036 221.042ZM288.727 220.836L272.712 200.707L266.445 200.706L288.727 220.836ZM316.389 199.36L322.883 199.361L313.149 187.251L316.389 199.36ZM296.295 199.356L314.99 199.36L311.496 186.308L296.295 199.356ZM273.922 199.352L292.644 199.356L277.436 186.306L273.922 199.352ZM266.146 199.35L272.517 199.352L275.614 187.853L266.146 199.35ZM294.473 199.135L278.894 185.77L310.038 185.77L294.473 199.135Z" fill="#FF0035"/>
<path d="M238.959 202.222V201.691C239.116 201.628 239.324 201.563 239.585 201.495C239.846 201.427 240.122 201.367 240.414 201.315C240.706 201.263 240.995 201.219 241.282 201.182C241.568 201.146 241.821 201.128 242.04 201.128L242.322 201.315L240.914 208.056H242.009V208.588C241.873 208.681 241.714 208.77 241.532 208.853C241.349 208.937 241.157 209.01 240.953 209.072C240.75 209.135 240.544 209.184 240.336 209.221C240.127 209.257 239.929 209.276 239.741 209.276C239.345 209.276 239.071 209.2 238.92 209.049C238.769 208.898 238.693 208.734 238.693 208.556C238.693 208.348 238.709 208.144 238.74 207.946C238.772 207.748 238.813 207.529 238.865 207.289L239.929 202.441L238.959 202.222ZM240.273 198.703C240.273 198.349 240.393 198.073 240.633 197.875C240.872 197.676 241.175 197.577 241.54 197.577C241.936 197.577 242.251 197.676 242.486 197.875C242.72 198.073 242.838 198.349 242.838 198.703C242.838 199.037 242.72 199.303 242.486 199.501C242.251 199.699 241.936 199.798 241.54 199.798C241.175 199.798 240.872 199.699 240.633 199.501C240.393 199.303 240.273 199.037 240.273 198.703Z" fill="#2A2A2A"/>
<path d="M248.796 204.678C248.869 204.354 248.934 204.068 248.992 203.817C249.049 203.567 249.078 203.307 249.078 203.036C249.078 202.858 249.039 202.705 248.96 202.574C248.882 202.444 248.744 202.379 248.546 202.379C248.348 202.379 248.142 202.454 247.928 202.606C247.714 202.757 247.506 202.944 247.303 203.169C247.099 203.393 246.912 203.64 246.74 203.911C246.568 204.182 246.429 204.433 246.325 204.662L245.387 209.135H243.229L244.574 202.426L243.651 202.222L243.682 201.691C243.828 201.618 244.016 201.547 244.245 201.48C244.475 201.412 244.725 201.352 244.996 201.3C245.267 201.248 245.546 201.206 245.833 201.175C246.119 201.143 246.393 201.128 246.654 201.128L246.966 201.315L246.482 203.599H246.56C246.747 203.254 246.966 202.931 247.217 202.629C247.467 202.327 247.733 202.066 248.014 201.847C248.296 201.628 248.593 201.453 248.906 201.323C249.218 201.193 249.536 201.128 249.86 201.128C250.297 201.128 250.642 201.268 250.892 201.55C251.142 201.831 251.267 202.207 251.267 202.676C251.267 202.916 251.241 203.189 251.189 203.497C251.137 203.805 251.074 204.11 251.001 204.412L250.141 208.056H251.267V208.588C251.163 208.671 251.025 208.754 250.853 208.838C250.681 208.921 250.493 208.994 250.29 209.057C250.086 209.119 249.875 209.171 249.656 209.213C249.437 209.255 249.229 209.276 249.031 209.276C248.676 209.276 248.418 209.208 248.257 209.072C248.095 208.937 248.014 208.78 248.014 208.603C248.014 208.384 248.04 208.15 248.092 207.899C248.144 207.649 248.197 207.409 248.249 207.18L248.796 204.678Z" fill="#2A2A2A"/>
<path d="M124.769 194.942C126.458 194.942 127.774 195.339 128.717 196.131C129.661 196.924 130.132 197.984 130.132 199.312C130.132 200.76 129.666 201.862 128.733 202.619C127.799 203.376 126.488 203.755 124.8 203.755L124.443 203.952H121.63V209.135H118V194.942H124.769ZM124.245 201.333C124.97 201.333 125.511 201.191 125.868 200.905C126.225 200.62 126.404 200.162 126.404 199.531C126.404 198.909 126.225 198.453 125.868 198.163C125.511 197.874 124.97 197.729 124.245 197.729H121.63V201.333H124.245ZM126.421 202.103L130.954 209.135H126.873L123.251 202.92L126.421 202.103Z" fill="#FF0035"/>
<path d="M151.697 194.942V203.355C151.697 205.356 151.163 206.855 150.095 207.853C149.027 208.851 147.446 209.35 145.353 209.35C143.266 209.35 141.687 208.851 140.616 207.853C139.545 206.855 139.009 205.356 139.009 203.355V194.942H142.717V203.415C142.717 204.436 142.936 205.196 143.375 205.696C143.813 206.197 144.473 206.447 145.353 206.447C146.242 206.447 146.906 206.197 147.344 205.696C147.783 205.196 148.002 204.436 148.002 203.415V194.942H151.697Z" fill="#FF0035"/>
<path d="M161.503 209.135V194.942H168.401C170.147 194.951 171.437 195.283 172.272 195.938C173.106 196.593 173.523 197.54 173.523 198.779C173.523 199.573 173.285 200.262 172.809 200.847C172.333 201.432 171.612 201.804 170.646 201.961V201.983C171.724 202.123 172.534 202.496 173.076 203.101C173.618 203.706 173.889 204.438 173.889 205.298C173.889 206.529 173.457 207.476 172.592 208.139C171.728 208.803 170.44 209.135 168.728 209.135H161.503ZM165.068 206.529H168.091C168.765 206.529 169.268 206.392 169.599 206.118C169.93 205.844 170.095 205.455 170.095 204.95C170.095 204.449 169.93 204.064 169.599 203.798C169.268 203.531 168.765 203.398 168.091 203.398H165.068V206.529ZM165.068 200.74H167.752C169.071 200.74 169.73 200.223 169.73 199.191C169.73 198.165 169.071 197.652 167.752 197.652H165.068V200.74Z" fill="#FF0035"/>
<path d="M186.228 194.942H182.533V209.135H186.228V194.942Z" fill="#FF0035"/>
<path d="M195.888 209.135V194.942H206.94V197.794H199.582V200.684H205.422V203.367H199.582V206.284H207.224V209.135H195.888Z" fill="#FF0035"/>
<path d="M222.148 194.727C223.464 194.727 224.627 194.93 225.638 195.336C226.649 195.741 227.524 196.344 228.264 197.144L226.475 199.527C225.859 198.876 225.195 198.389 224.485 198.065C223.775 197.741 222.974 197.579 222.08 197.579C221.551 197.579 221.123 197.639 220.792 197.759C220.46 197.879 220.221 198.04 220.073 198.241C219.925 198.442 219.851 198.67 219.851 198.925C219.851 199.229 219.994 199.482 220.279 199.686C220.564 199.889 221.017 200.064 221.637 200.211L224.04 200.757C225.453 201.075 226.49 201.55 227.147 202.18C227.806 202.811 228.134 203.651 228.134 204.701C228.134 205.71 227.878 206.561 227.361 207.253C226.844 207.946 226.138 208.468 225.238 208.821C224.34 209.174 223.308 209.35 222.145 209.35C221.188 209.35 220.284 209.244 219.43 209.034C218.576 208.823 217.804 208.526 217.116 208.144C216.428 207.761 215.845 207.314 215.366 206.804L217.155 204.339C217.513 204.755 217.955 205.126 218.48 205.451C219.004 205.777 219.578 206.033 220.2 206.219C220.822 206.405 221.454 206.499 222.097 206.499C222.595 206.499 223.012 206.446 223.347 206.339C223.684 206.233 223.933 206.082 224.095 205.886C224.256 205.689 224.338 205.452 224.338 205.174C224.338 204.87 224.227 204.615 224.008 204.408C223.789 204.202 223.383 204.031 222.793 203.897L220.17 203.312C219.364 203.128 218.647 202.88 218.019 202.568C217.391 202.255 216.901 201.837 216.549 201.314C216.196 200.791 216.02 200.133 216.02 199.342C216.02 198.453 216.261 197.662 216.744 196.968C217.227 196.274 217.927 195.727 218.843 195.327C219.759 194.927 220.862 194.727 222.148 194.727Z" fill="#FF0035"/>
<path d="M334.44 201.691C334.638 201.565 334.857 201.459 335.097 201.37C335.337 201.281 335.572 201.211 335.801 201.159L336.051 199.97C336.124 199.908 336.239 199.848 336.395 199.791C336.552 199.733 336.724 199.681 336.911 199.634C337.099 199.587 337.289 199.543 337.482 199.501C337.675 199.459 337.85 199.428 338.006 199.407L338.335 199.595L337.959 201.315H339.789C339.81 201.44 339.802 201.605 339.766 201.808C339.729 202.011 339.669 202.175 339.586 202.301H337.756L336.849 206.351C336.807 206.549 336.776 206.724 336.755 206.875C336.734 207.026 336.724 207.164 336.724 207.289C336.724 207.561 336.792 207.759 336.927 207.884C337.062 208.009 337.245 208.072 337.474 208.072C337.735 208.072 337.98 208.04 338.209 207.978C338.439 207.915 338.658 207.826 338.866 207.712L339.07 208.118C338.945 208.254 338.778 208.392 338.569 208.533C338.361 208.673 338.126 208.804 337.865 208.924C337.605 209.044 337.323 209.14 337.021 209.213C336.719 209.286 336.411 209.323 336.098 209.323C335.556 209.323 335.149 209.198 334.878 208.947C334.607 208.697 334.472 208.353 334.472 207.915C334.472 207.675 334.493 207.42 334.534 207.149C334.576 206.878 334.618 206.648 334.659 206.461L335.566 202.301H334.44V201.691Z" fill="#2A2A2A"/>
<path d="M340.884 198.469V197.968C341.04 197.906 341.241 197.841 341.486 197.773C341.731 197.705 341.997 197.643 342.283 197.585C342.57 197.528 342.865 197.478 343.167 197.437C343.469 197.395 343.756 197.374 344.027 197.374L344.356 197.515L343.042 203.599H343.12C343.318 203.265 343.54 202.947 343.785 202.644C344.03 202.342 344.288 202.079 344.559 201.855C344.83 201.631 345.117 201.453 345.419 201.323C345.721 201.193 346.029 201.128 346.342 201.128C346.821 201.128 347.192 201.266 347.452 201.542C347.713 201.818 347.843 202.16 347.843 202.566C347.843 202.848 347.817 203.15 347.765 203.473C347.713 203.797 347.65 204.109 347.577 204.412L346.686 208.056H347.843V208.588C347.635 208.754 347.33 208.911 346.928 209.057C346.527 209.203 346.071 209.276 345.56 209.276C345.216 209.276 344.966 209.205 344.809 209.064C344.653 208.924 344.575 208.754 344.575 208.556C344.575 208.368 344.598 208.176 344.645 207.978C344.692 207.779 344.742 207.55 344.794 207.289L345.372 204.678C345.445 204.354 345.51 204.06 345.568 203.794C345.625 203.528 345.654 203.275 345.654 203.036C345.654 202.848 345.615 202.691 345.537 202.566C345.458 202.441 345.341 202.379 345.185 202.379C344.945 202.379 344.705 202.465 344.465 202.637C344.225 202.809 344.001 203.015 343.793 203.254C343.584 203.494 343.399 203.744 343.238 204.005C343.076 204.266 342.959 204.485 342.886 204.662L341.963 209.135H339.805L341.916 198.672L340.884 198.469Z" fill="#2A2A2A"/>
<path d="M355.272 207.43C355.157 207.639 354.991 207.855 354.772 208.079C354.553 208.303 354.297 208.507 354.005 208.689C353.713 208.872 353.39 209.023 353.036 209.143C352.681 209.263 352.311 209.323 351.925 209.323C350.997 209.323 350.275 209.07 349.759 208.564C349.243 208.058 348.985 207.341 348.985 206.414C348.985 205.694 349.1 205.016 349.329 204.38C349.559 203.745 349.879 203.184 350.291 202.699C350.703 202.215 351.193 201.831 351.761 201.55C352.329 201.268 352.952 201.128 353.63 201.128C354.255 201.128 354.772 201.271 355.178 201.558C355.585 201.844 355.788 202.238 355.788 202.738C355.788 203.447 355.436 204.031 354.733 204.49C354.029 204.949 352.89 205.236 351.315 205.35C351.284 205.496 351.261 205.645 351.245 205.796C351.229 205.947 351.222 206.09 351.222 206.226C351.222 206.82 351.373 207.276 351.675 207.594C351.977 207.912 352.363 208.072 352.832 208.072C353.03 208.072 353.228 208.04 353.427 207.978C353.625 207.915 353.815 207.832 353.997 207.727C354.18 207.623 354.347 207.511 354.498 207.391C354.649 207.271 354.782 207.154 354.897 207.039L355.272 207.43ZM353.27 202.019C352.916 202.019 352.574 202.212 352.246 202.598C351.918 202.984 351.644 203.635 351.425 204.553C352.196 204.532 352.819 204.36 353.294 204.037C353.768 203.713 354.005 203.291 354.005 202.77C354.005 202.561 353.951 202.384 353.841 202.238C353.732 202.092 353.541 202.019 353.27 202.019Z" fill="#2A2A2A"/>
<path d="M372.988 196.222C374.677 196.222 375.993 196.619 376.936 197.411C377.879 198.204 378.351 199.264 378.351 200.592C378.351 202.04 377.884 203.142 376.951 203.899C376.018 204.656 374.707 205.035 373.018 205.035L372.661 205.233H369.848V210.415H366.218V196.222H372.988ZM372.463 202.613C373.189 202.613 373.73 202.471 374.087 202.185C374.444 201.9 374.622 201.442 374.622 200.811C374.622 200.189 374.444 199.733 374.087 199.444C373.73 199.154 373.189 199.009 372.463 199.009H369.848V202.613H372.463ZM374.639 203.383L379.172 210.415H375.091L371.47 204.2L374.639 203.383Z" fill="#FF0035"/>
<path d="M399.915 196.222V204.635C399.915 206.636 399.381 208.136 398.313 209.133C397.245 210.131 395.665 210.63 393.572 210.63C391.484 210.63 389.905 210.131 388.834 209.133C387.763 208.136 387.228 206.636 387.228 204.635V196.222H390.935V204.695C390.935 205.716 391.154 206.476 391.593 206.976C392.032 207.477 392.691 207.727 393.572 207.727C394.46 207.727 395.124 207.477 395.563 206.976C396.001 206.476 396.221 205.716 396.221 204.695V196.222H399.915Z" fill="#FF0035"/>
<path d="M409.721 210.415V196.222H416.619C418.366 196.231 419.656 196.563 420.49 197.218C421.325 197.873 421.742 198.82 421.742 200.059C421.742 200.853 421.504 201.542 421.028 202.127C420.552 202.712 419.831 203.084 418.864 203.241V203.263C419.942 203.403 420.752 203.776 421.294 204.381C421.836 204.986 422.107 205.718 422.107 206.579C422.107 207.809 421.675 208.756 420.811 209.42C419.946 210.083 418.658 210.415 416.946 210.415H409.721ZM413.286 207.809H416.31C416.983 207.809 417.486 207.672 417.817 207.398C418.148 207.124 418.314 206.735 418.314 206.23C418.314 205.729 418.148 205.344 417.817 205.078C417.486 204.811 416.983 204.678 416.31 204.678H413.286V207.809ZM413.286 202.02H415.97C417.289 202.02 417.948 201.504 417.948 200.471C417.948 199.445 417.289 198.932 415.97 198.932H413.286V202.02Z" fill="#FF0035"/>
<path d="M430.752 210.415V196.222H437.65C439.396 196.231 440.687 196.563 441.521 197.218C442.355 197.873 442.772 198.82 442.772 200.059C442.772 200.853 442.535 201.542 442.058 202.127C441.582 202.712 440.861 203.084 439.895 203.241V203.263C440.973 203.403 441.783 203.776 442.325 204.381C442.867 204.986 443.138 205.718 443.138 206.579C443.138 207.809 442.706 208.756 441.841 209.42C440.977 210.083 439.689 210.415 437.977 210.415H430.752ZM434.317 207.809H437.34C438.014 207.809 438.517 207.672 438.848 207.398C439.179 207.124 439.345 206.735 439.345 206.23C439.345 205.729 439.179 205.344 438.848 205.078C438.517 204.811 438.014 204.678 437.34 204.678H434.317V207.809ZM434.317 202.02H437.001C438.32 202.02 438.979 201.504 438.979 200.471C438.979 199.445 438.32 198.932 437.001 198.932H434.317V202.02Z" fill="#FF0035"/>
<path d="M455.477 207.564H462.586V210.415H451.783V196.222H455.477V207.564Z" fill="#FF0035"/>
<path d="M471.631 210.415V196.222H482.684V199.074H475.325V201.964H481.165V204.647H475.325V207.564H482.968V210.415H471.631Z" fill="#FF0035"/>
</svg>
