<svg width="600" height="400" viewBox="0 0 600 400" fill="none" xmlns="http://www.w3.org/2000/svg">
<rect width="600" height="400" fill="#FAFAF9"/>
<rect width="600" height="400" fill="#F5F5F4"/>
<path d="M145.227 186.665L138.711 207.849L131.703 186.665H122.598L133.399 218.821H142.772L149.288 197.772L155.76 218.821H165.177L175.978 186.665H167.141L160.089 207.849L153.618 186.665H145.227Z" fill="black"/>
<path d="M193.6 186.128C182.397 186.128 174.319 193.159 174.319 202.743C174.319 212.327 182.397 219.359 193.6 219.359C204.802 219.359 212.836 212.327 212.836 202.743C212.836 193.159 204.802 186.128 193.6 186.128ZM193.6 193.741C199.491 193.741 203.91 197.235 203.91 202.743C203.91 208.252 199.491 211.745 193.6 211.745C187.708 211.745 183.29 208.252 183.29 202.743C183.29 197.235 187.708 193.741 193.6 193.741Z" fill="black"/>
<path d="M224.55 208.162H233.254L240.127 218.821H250.169L242.403 207.222C246.777 205.654 249.455 202.161 249.455 197.414C249.455 190.517 244.323 186.665 236.512 186.665H215.803V218.821H224.55V208.162ZM224.55 201.221V194.01H236.066C239.145 194.01 240.841 195.354 240.841 197.638C240.841 199.787 239.145 201.221 236.066 201.221H224.55Z" fill="black"/>
<path d="M261.381 186.665H252.633V218.821H261.381V210.805L267.094 205.654L278.207 218.821H289.32L273.387 200.011L288.205 186.665H276.288L261.381 200.235V186.665Z" fill="black"/>
<path d="M330.544 218.821V207.58H350.405V200.325H330.544V194.1H352.949V186.665H321.974V218.821H330.544Z" fill="black"/>
<path d="M355.972 218.821H385.072V211.387H364.719V186.665H355.972V218.821Z" fill="black"/>
<path d="M403.899 186.128C392.696 186.128 384.618 193.159 384.618 202.743C384.618 212.327 392.696 219.359 403.899 219.359C415.102 219.359 423.135 212.327 423.135 202.743C423.135 193.159 415.102 186.128 403.899 186.128ZM403.899 193.741C409.79 193.741 414.209 197.235 414.209 202.743C414.209 208.252 409.79 211.745 403.899 211.745C398.007 211.745 393.589 208.252 393.589 202.743C393.589 197.235 398.007 193.741 403.899 193.741Z" fill="black"/>
<path d="M444.136 186.665L437.62 207.849L430.613 186.665H421.508L432.309 218.821H441.682L448.198 197.772L454.67 218.821H464.087L474.888 186.665H466.051L458.999 207.849L452.527 186.665H444.136Z" fill="black"/>
<path d="M300.08 190.321H307.035V193.22C307.035 195.302 306.211 197.3 304.743 198.772L299.807 203.726C298.339 205.198 296.349 206.026 294.274 206.026H291.385V199.046H300.08V190.321Z" fill="#FF6400"/>
<path d="M302.372 206.299C300.904 207.772 300.08 209.769 300.08 211.852V214.75H307.035V206.026H315.73V199.046H312.841C310.766 199.046 308.776 199.873 307.308 201.346L302.372 206.299Z" fill="#FF6400"/>
</svg>
