<svg width="84" height="88" viewBox="0 0 84 88" fill="none" xmlns="http://www.w3.org/2000/svg">
<style>
  path {
    fill: #093651;
  }
  @media (prefers-color-scheme: dark) {
    path {
      fill: #fff;
    }
  }
</style>
<path fill-rule="evenodd" clip-rule="evenodd" d="M24.0791 73.8718H59.9148C59.9148 73.8718 59.9148 71.7825 59.9148 69.9501C59.9148 68.4566 58.704 67.2454 57.2102 67.2454C57.2096 67.2454 57.209 67.2454 57.2084 67.2454C56.851 67.2454 56.5088 67.1034 56.2564 66.851C56.0035 66.5985 55.862 66.2562 55.862 65.8989C55.862 63.3203 55.862 57.9383 55.862 57.9383C55.862 54.8974 58.0266 54.4913 61.1128 53.7541C68.3422 52.0261 80.7466 49.0621 83.173 48.4825C83.274 48.4578 83.3808 48.4814 83.4624 48.5459C83.544 48.6104 83.5915 48.7086 83.5915 48.8124C83.5915 52.3026 83.5915 76.0447 83.5915 83.8117C83.5915 85.6412 82.0396 87.1246 80.125 87.1246C66.5925 87.1246 17.4014 87.1246 3.86886 87.1246C2.94971 87.1246 2.06811 86.7757 1.41777 86.1546C0.768028 85.533 0.402374 84.6903 0.402374 83.8117C0.402374 77.2088 0.402374 59.1686 0.402374 53.2132C0.402374 51.6928 1.48528 50.3676 3.02836 49.999C14.0312 47.3694 55.862 37.3734 55.862 37.3734C55.862 37.3734 55.862 24.1037 55.862 18.9247V16.2957C55.862 15.3464 55.4359 14.4432 54.6922 13.8142C53.9486 13.1853 52.9584 12.8913 51.9729 13.0075C51.9306 13.0125 24.8984 18.4288 24.8984 18.4288C24.8984 18.4288 24.8984 19.8376 24.8984 21.3602C24.8984 22.3095 25.3245 23.2128 26.0682 23.8417C26.6463 24.3309 27.3736 24.6176 28.1325 24.6658V33.3979V33.6643C28.1325 35.1848 27.0496 36.51 25.5065 36.8791C19.2121 38.3833 3.57774 42.1192 0.820872 42.7779C0.719918 42.802 0.613679 42.7784 0.532093 42.7139C0.450508 42.65 0.402374 42.5518 0.402374 42.4474C0.402374 39.1917 0.402374 18.3345 0.402374 10.204C0.402374 8.67288 1.49996 7.34153 3.05712 6.98246C10.3223 5.31786 30.7344 0.875 41.9972 0.875C53.2601 0.875 73.6716 5.31786 80.9368 6.98527C82.4922 7.34378 83.5886 8.674 83.5886 10.204C83.5897 16.3069 83.5909 22.9345 83.5915 38.105C83.5915 39.6226 82.5122 40.9466 80.972 41.3175C71.0116 43.717 35.7222 52.2173 29.1796 53.7933C28.5639 53.9414 28.1325 54.471 28.1325 55.0787C28.1325 55.0787 28.1325 62.7323 28.1325 65.8989C28.1325 66.6428 27.5291 67.2454 26.7855 67.2454C26.7849 67.2454 26.7843 67.2454 26.7837 67.2454C25.2899 67.2454 24.0791 68.4566 24.0791 69.9501C24.0791 71.7825 24.0791 73.8718 24.0791 73.8718Z" />
</svg>
