<svg fill="none" viewBox="0 0 34 36" xmlns="http://www.w3.org/2000/svg"><path clip-rule="evenodd" d="m33.1437 35.9104-.7379-.2224c-3.0724-.9252-5.1683-1.1436-5.1683-4.2882 0-5.9901 0-20.8097 0-26.79979 0-3.14465 2.0959-3.36304 5.1683-4.288263l.7379-.2223915zm-32.894646-35.8210445.715369.2223915c2.976967.925223 5.008627 1.143613 5.008627 4.288263v26.79979c0 3.1446-2.03166 3.363-5.008627 4.2882l-.715369.2224zm18.782446 29.0312445c0 .1331-.0527.2611-.1471.355-.0938.0943-.2213.1471-.3549.1471-.9428 0-2.9694 0-3.9122 0-.1335 0-.2611-.0528-.3549-.1471-.0944-.0939-.1471-.2219-.1471-.355 0-3.0608 0-19.18063 0-22.24144 0-.13303.0527-.26105.1471-.35493.0938-.09438.2214-.14709.3549-.14709h3.9122c.1336 0 .2611.05271.3549.14709.0944.09388.1471.2219.1471.35493z" fill="#00c8cf" fill-rule="evenodd"/></svg>