<svg fill="none" viewBox="0 0 86 87" xmlns="http://www.w3.org/2000/svg"><g clip-rule="evenodd" fill="#369ccc" fill-rule="evenodd"><path d="m33.0715 0-17.4299 5.67649-.0149-.00212.0071.00495-.0071.00283.0128.00212 29.1282 22.28913 17.43-5.6772.0155.0028-.0071-.0056.0071-.0022-.0127-.0021z"/><path d="m0 37.6496.0120324 18.3309-.00778583.0141.00707583-.0056v.0077l.0070785-.0106 30.1982991-20.8156-.0113-18.3316.0063-.0134-.0063.0049v-.007l-.0071.0106z"/><path d="m25.5784 80.7416 17.4378 5.6524.0106.0106-.0021-.0078.0071.0014-.0092-.0085-10.4641-35.155-17.4385-5.6517-.0106-.0113.0021.0084-.007-.0028.0099.0099z"/><path d="m74.4643 69.7198 10.7634-14.837.0141-.0063h-.0085l.0057-.0064-.012.0042-36.6667-.9101-10.7648 14.8384-.0135.0071.0085.0007-.0042.0056.012-.0063z"/><path d="m79.0997 19.8213-10.7846-14.82209-.0014-.01557-.0029.00779-.0042-.00637v.01344l-12.1966 34.5903 10.7854 14.8235.0029.0148.0035-.0085.0042.0057-.0021-.0135z"/></g></svg>