<svg fill="none" viewBox="0 0 71 85" xmlns="http://www.w3.org/2000/svg" xmlns:xlink="http://www.w3.org/1999/xlink"><linearGradient id="a"><stop offset="0" stop-color="#82c5f4"/><stop offset="1" stop-color="#3885ee"/></linearGradient><linearGradient id="b" gradientUnits="userSpaceOnUse" x1="78.5725" x2="78.5725" xlink:href="#a" y1="49.4018" y2="118.983"/><linearGradient id="c" gradientUnits="userSpaceOnUse" x1="46.9823" x2="46.9823" xlink:href="#a" y1=".64502" y2="84.1353"/><linearGradient id="d" gradientUnits="userSpaceOnUse" x1="30.9771" x2="30.9771" y1="0" y2="66.0037"><stop offset="0" stop-color="#3885ee"/><stop offset="1" stop-color="#82c5f4"/></linearGradient><rect fill="url(#b)" height="69.5809" rx="8.20899" transform="matrix(0 1 -1 0 119.7653 -20.9617)" width="16.418" x="70.3635" y="49.4018"/><path d="m45.0615 7.37388c.8183-4.45925 5.0965-7.4108633 9.5558-6.592618 4.4592.818248 7.4109 5.096498 6.5926 9.555738l-12.3068 67.0695c-.8183 4.4592-5.0965 7.4108-9.5558 6.5926-4.4592-.8182-7.4108-5.0965-6.5926-9.5557z" fill="url(#c)"/><path d="m46.5576 2.84551c3.1781-3.529628 8.6158-3.814606 12.1455-.63651 3.5296 3.1781 3.8146 8.6158.6365 12.1454l-43.9431 48.8037c-3.1781 3.5297-8.6158 3.8147-12.14544.6366-3.52963-3.1781-3.814607-8.6158-.63651-12.1455z" fill="url(#d)"/></svg>