<svg fill="none" viewBox="0 0 65 72" xmlns="http://www.w3.org/2000/svg" xmlns:xlink="http://www.w3.org/1999/xlink"><linearGradient id="a" gradientUnits="userSpaceOnUse" x1="40.451" x2="1.44136" y1="66.2808" y2="43.7585"><stop offset="0" stop-color="#ff7a22"/><stop offset="1" stop-color="#de40e3"/></linearGradient><linearGradient id="b" gradientUnits="userSpaceOnUse" x1="40.6453" x2="1.6357" y1="5.71926" y2="28.2415"><stop offset="0" stop-color="#24dcbd"/><stop offset="1" stop-color="#de40e3"/></linearGradient><linearGradient id="c" gradientUnits="userSpaceOnUse" x1="53.8094" x2="53.8094" y1="13.5234" y2="58.5679"><stop offset="0" stop-color="#24dcbd"/><stop offset="1" stop-color="#ff7a22"/></linearGradient><path d="m17.8617 45.0985c0-2.016-.6899-4.079-2.4358-5.0871-4.8965-2.8269-11.15755-1.1493-13.98452 3.7472-2.82698 4.8964-1.149334 11.1575 3.74714 13.9845 3.75492 2.1679 8.31238 1.6867 11.50818-.8637.9809-.7829 2.3436-1.0687 3.4305-.4412s1.5207 1.9506 1.3332 3.1915c-.6108 4.0429 1.2512 8.2303 5.0061 10.3982 4.8965 2.827 11.1576 1.1493 13.9845-3.7471 2.827-4.8965 1.1494-11.1575-3.7471-13.9845-1.7456-1.0078-3.8767-.5739-5.6223.4339l-1.5492.8944c-5.187 2.9947-11.6707-.7487-11.6707-6.738z" fill="url(#a)"/><path d="m21.6548 12.3704c.1875 1.2409-.2464 2.5639-1.3332 3.1914-1.0869.6275-2.4496.3417-3.4305-.4411-3.1959-2.5504-7.75332-3.0316-11.50824-.8637-4.896479 2.8269-6.57412 9.088-3.74715 13.9845 2.82698 4.8964 9.08809 6.5741 13.98449 3.7471 1.5832-.914 2.2411-2.7681 2.2411-4.5961v-2.1864c0-5.9894 6.4837-9.7327 11.6706-6.7381l1.2518.7227c1.8991 1.0965 4.2155 1.6095 6.1145.5131 4.8965-2.827 6.5742-9.0881 3.7472-13.98453-2.827-4.896463-9.0881-6.574106-13.9845-3.74713-3.755 2.16789-5.617 6.35536-5.0061 10.39826z" fill="url(#b)"/><path d="m43.572 23.7608c0 2.0158 1.4415 3.6446 3.1872 4.6525l1.5496.8946c5.1869 2.9947 5.1869 10.4814 0 13.4761l-1.5505.8951c-1.7453 1.0077-3.1863 2.6361-3.1863 4.6514 0 5.6539 4.5834 10.2374 10.2374 10.2374s10.2374-4.5835 10.2374-10.2374c0-4.3358-2.6955-8.0421-6.5021-9.5345-1.1684-.4581-2.0973-1.4953-2.0973-2.7504 0-1.255.9289-2.2922 2.0973-2.7503 3.8066-1.4924 6.5021-5.1987 6.5021-9.5345 0-5.6539-4.5834-10.2374-10.2374-10.2374s-10.2374 4.5835-10.2374 10.2374z" fill="url(#c)"/></svg>