<svg fill="none" viewBox="0 0 48 48" xmlns="http://www.w3.org/2000/svg" xmlns:xlink="http://www.w3.org/1999/xlink"><linearGradient id="a" gradientUnits="userSpaceOnUse" x1="32.514" x2="32.5644" y1="32.5139" y2="15.4357"><stop offset="0" stop-color="#4f46e5" stop-opacity=".4"/><stop offset="1" stop-color="#4f46e5" stop-opacity=".2"/></linearGradient><linearGradient id="b" gradientUnits="userSpaceOnUse" x1="15.4323" x2="32.5828" y1="32.5677" y2="32.5827"><stop offset="0" stop-color="#4f46e5" stop-opacity=".6"/><stop offset="1" stop-color="#4f46e5" stop-opacity=".4"/></linearGradient><linearGradient id="c" gradientUnits="userSpaceOnUse" x1="15.6585" x2="15.4722" y1="15.2131" y2="32.528"><stop offset="0" stop-color="#4f46e5" stop-opacity=".8"/><stop offset="1" stop-color="#4f46e5" stop-opacity=".6"/></linearGradient><linearGradient id="d" gradientUnits="userSpaceOnUse" x1="32.4981" x2="15.515" y1="15.5019" y2="15.5149"><stop offset="0" stop-color="#4f46e5"/><stop offset="1" stop-color="#4f46e5" stop-opacity=".8"/></linearGradient><path d="m40.9706 7.02943c2.2286 2.22861 3.9965 4.87437 5.2026 7.78617s1.8269 6.0327 1.8269 9.1844-.6208 6.2726-1.8269 9.1844-2.974 5.5576-5.2026 7.7862l-8.4852-8.4853c1.1143-1.1143 1.9982-2.4372 2.6012-3.8931.6031-1.4559.9135-3.0163.9135-4.5922s-.3104-3.1363-.9135-4.5922c-.603-1.4559-1.4869-2.7788-2.6012-3.8931z" fill="url(#a)"/><path d="m40.9707 40.9706c-2.2286 2.2286-4.8744 3.9964-7.7862 5.2025s-6.0327 1.8269-9.1844 1.8269-6.2726-.6208-9.1844-1.8269-5.55755-2.9739-7.78616-5.2025l8.48526-8.4853c1.1143 1.1143 2.4372 1.9982 3.8931 2.6012 1.4559.6031 3.0163.9135 4.5922.9135s3.1363-.3104 4.5922-.9135c1.4559-.603 2.7788-1.4869 3.8931-2.6012z" fill="url(#b)"/><path d="m7.02956 40.9706c-2.22861-2.2286-3.99644-4.8744-5.20255-7.7862s-1.82688826-6.0327-1.82688793-9.1844c.00000034-3.1517.62077893-6.2726 1.82688793-9.1844 1.20612-2.9118 2.97394-5.55756 5.20255-7.78617l8.48524 8.48527c-1.1143 1.1143-1.9982 2.4372-2.6012 3.8931-.6031 1.4559-.9135 3.0163-.9135 4.5922s.3104 3.1363.9135 4.5922c.603 1.4559 1.4869 2.7788 2.6012 3.8931z" fill="url(#c)"/><path d="m7.02954 7.02944c2.22861-2.22861 4.87436-3.99644 7.78616-5.20255 2.9118-1.206112 6.0327-1.82689033 9.1844-1.82689s6.2726.620779 9.1844 1.82689c2.9118 1.20612 5.5576 2.97394 7.7862 5.20255l-8.4853 8.48526c-1.1143-1.1143-2.4372-1.9982-3.8931-2.6013-1.4559-.603-3.0163-.9134-4.5922-.9134s-3.1363.3104-4.5922.9134c-1.4559.6031-2.7788 1.487-3.8931 2.6013z" fill="url(#d)"/></svg>