<svg fill="none" viewBox="0 0 54 52" xmlns="http://www.w3.org/2000/svg"><path clip-rule="evenodd" d="m34.2056.5h16.8132c.7047 0 1.3806.282803 1.8789.7862.4983.50339.7782 1.18614.7782 1.89805v40.26365c0 .7119-.2799 1.3947-.7782 1.8981s-1.1742.7862-1.8789.7862h-15.2997c-1.4088.0032-2.7592.5686-3.7572 1.5729l-2.9787 3.0091c-.0119.0121-.0259.0201-.0398.0282-.014.008-.0279.0161-.0399.0281-.2285.2121-.4836.4027-.7812.5262h-.0053c-.6482.2711-1.3765.2711-2.0247 0h-.0053c-.2976-.1235-.5527-.3114-.7812-.5262-.012-.012-.0259-.0201-.0399-.0281-.0139-.0081-.0279-.0161-.0398-.0282l-2.9787-3.0091c-.998-1.0043-2.3484-1.5697-3.7571-1.5729h-15.29979c-.70471 0-1.38056-.2828-1.87887-.7862-.498307-.5034-.778254-1.1862-.778254-1.8981v-40.26365c0-.71191.279947-1.39466.778254-1.89805.49831-.503397 1.17416-.7862 1.87887-.7862h16.81329c1.9673.006732 5.6484 1.65555 7.1009 2.99615 1.4524-1.3406 5.1335-2.989418 7.1009-2.99615zm-5.7705 12.191c-.5376-1.1247-2.1232-1.1247-2.6607 0l-2.9699 6.213c-.3627.7586-.9689 1.371-1.7199 1.7374l-6.1502 3.0002c-1.1133.543-1.1133 2.1448 0 2.6879l6.1502 3.0002c.751.3663 1.3572.9787 1.7199 1.7374l2.9699 6.213c.5375 1.1246 2.1231 1.1246 2.6607 0l2.9699-6.213c.3627-.7587.9688-1.3711 1.7199-1.7374l6.1502-3.0002c1.1132-.5431 1.1132-2.1449 0-2.6879l-6.1502-3.0002c-.7511-.3664-1.3572-.9788-1.7199-1.7374z" fill="#5864fb" fill-rule="evenodd"/></svg>