<svg fill="none" viewBox="0 0 129 129" xmlns="http://www.w3.org/2000/svg"><circle cx="64.572" cy="64.6536" fill="#000" r="64"/><path clip-rule="evenodd" d="m37.7007 83.0706c-.1876.1148-.3065.3288-.3065.56v13.5841c0 .2312.1189.4452.3065.5599 1.7397 1.0086 9.9945 5.7864 11.7342 6.7934.1877.114.4266.114.6313 0 2.0467-1.179 13.0646-7.5536 13.5081-7.8122.0512-.024.0854-.0411.1366-.0566 1.0233-.3613 1.1256-.3081 2.0637.1679.017.0068.0171.012.0341.0188.4776.2774 11.7517 6.8071 11.7517 6.8121l1.5007.87c.2047.114.4433.114.6479 0 1.7397-1.009 9.9779-5.7848 11.7176-6.7934.2047-.1147.324-.3287.324-.5599 0-2.0154 0-11.5687 0-13.5841 0-.2312-.1193-.4452-.324-.56-1.7397-1.0086-9.9779-5.786-11.7176-6.7929-.2046-.1147-.4432-.1164-.6479 0-2.0296 1.1781-13.0646 7.5532-13.5081 7.8118-.0341.0222-.0849.041-.1191.0547-1.0233.3631-1.126.31-2.0811-.1678 0-.0051-.0171-.0102-.0342-.017-.4605-.2723-11.2398-6.5139-13.2524-7.6817-.2047-.1147-.4433-.1147-.6479 0-3.9058 2.2637-7.8118 4.5275-11.7176 6.7929zm29.6429-51.5385c-.2047.1165-.324.3305-.324.5617v13.5841c0 .2311.1193.4452.324.5599 2.0637 1.1935 13.2699 7.6902 13.2699 7.6902 1.1086.7278 1.1593.8905 1.2275 2.1148v.0394 15.3632c0 .2312.1202.4453.3248.5617 1.7397 1.0069 9.9771 5.7843 11.7168 6.7912.2046.1164.444.1164.6487 0 1.7397-1.0069 9.9767-5.7843 11.7167-6.7912.188-.1164.324-.3305.324-.5617 0-2.0154 0-11.5687 0-13.5841 0-.2312-.136-.4435-.324-.56-2.064-1.1917-13.252-7.6799-13.269-7.6901-.0171-.0069-.0171-.0137-.0342-.0206-1.0745-.7106-1.126-.8801-1.1942-2.0942 0-.012 0-.0257 0-.0377 0-.5239 0-13.0293 0-15.3649 0-.2312-.1193-.4452-.324-.5617-1.7397-1.0068-9.9779-5.7843-11.7176-6.7912-.2046-.1164-.4432-.1164-.6479 0-3.9058 2.2637-7.8117 4.5275-11.7175 6.7912zm-29.6429.0017c-.1876.1147-.3065.3288-.3065.56-.017 2.3596-.017 15.1321-.0341 15.6509v.1387c-.2047 1.0702-.3073 1.1319-1.1942 1.7175 0 .0069-.0167.012-.0167.0188-.4776.2723-11.2398 6.5155-13.2524 7.6816-.2047.1148-.3248.3288-.3248.56v13.9591c4.0081 2.3254 8.0163 4.6525 12.0415 6.9779.1876.1164.4437.1164.6313 0 2.8824-1.6627 5.7475-3.3237 8.6128-4.9864 0 0 2.2519-1.3099 3.1047-1.8048.2047-.1164.324-.3305.324-.5617.0171-2.3596.0167-15.1321.0167-15.6509 0-.0463.0174-.0925.0174-.1387.2047-1.0702.3069-1.1319 1.1768-1.7158.0171-.0068.0341-.0137.0341-.0205.4776-.2723 11.2399-6.5139 13.2525-7.6817.2046-.1147.3239-.3288.3239-.5599 0-2.0155 0-11.5687 0-13.5841 0-.2312-.1193-.4452-.3239-.5617-1.7397-1.0068-9.9779-5.7843-11.7176-6.7912-.2047-.1164-.4433-.1164-.6479 0-3.9058 2.2637-7.8118 4.5274-11.7176 6.7929zm14.8214 25.7675c-.1876.1165-.3239.3288-.3239.56v13.5841c0 .2312.1363.4453.3239.5617 1.7397 1.0069 9.9779 5.7843 11.7176 6.7912.2047.1164.4433.1164.6479 0 1.7397-1.0069 9.9779-5.7843 11.7176-6.7912.2047-.1164.3239-.3305.3239-.5617 0-2.0154 0-11.5687 0-13.5841 0-.2312-.1192-.4452-.3239-.56-1.7397-1.0085-9.9779-5.7843-11.7176-6.7912-.2046-.1164-.4432-.1164-.6479 0-3.9058 2.2638-7.8118 4.5275-11.7176 6.7912z" fill="#fff" fill-rule="evenodd"/></svg>