<svg width="600" height="400" viewBox="0 0 600 400" fill="none" xmlns="http://www.w3.org/2000/svg">
<g clip-path="url(#clip0_1_10)">
<rect width="600" height="400" fill="white"/>
<path d="M600 0H0V400H600V0Z" fill="#001B11"/>
<path d="M178.488 235.262H140V240.46H178.488V235.262Z" fill="#72BA56"/>
<path d="M222.714 235.262H184.226V240.46H222.714V235.262Z" fill="#72BA56" fill-opacity="0.45"/>
<path d="M266.94 235.262H228.451V240.46H266.94V235.262Z" fill="#72BA56" fill-opacity="0.2"/>
<path d="M169.09 179.558H150.243C147.559 179.558 145.625 181.492 145.625 184.051V192.289H153.238V187.858C153.238 187.047 153.55 186.61 154.424 186.61H164.909C165.782 186.61 166.094 187.047 166.094 187.858V196.221C166.094 197.219 165.658 197.656 164.722 197.656H154.424V204.771H164.722C165.658 204.771 166.094 205.208 166.094 206.144V214.943C166.094 215.755 165.782 216.191 164.909 216.191H154.424C153.55 216.191 153.238 215.755 153.238 214.943V210.512H145.625V218.75C145.625 221.247 147.559 223.244 150.243 223.244H169.09C171.836 223.244 173.708 221.247 173.708 218.75V205.145C173.708 203.148 172.71 201.65 170.463 201.213C172.71 200.714 173.708 199.216 173.708 197.219V184.051C173.708 181.492 171.836 179.558 169.09 179.558Z" fill="#F9FFF9"/>
<path d="M213.15 179.558H194.303C191.62 179.558 189.685 181.492 189.685 184.051V218.75C189.685 221.247 191.62 223.244 194.303 223.244H213.15C215.896 223.244 217.769 221.247 217.769 218.75V202.025C217.769 199.528 215.896 197.531 213.15 197.531H200.481C199.046 197.531 197.923 197.906 197.299 199.029V187.858C197.299 187.047 197.611 186.61 198.485 186.61H208.969C209.843 186.61 210.155 187.047 210.155 187.858V192.351H217.769V184.051C217.769 181.492 215.896 179.558 213.15 179.558ZM198.547 204.646H202.354V204.583H208.345V204.646H208.969C209.843 204.646 210.155 205.02 210.155 205.832V214.943C210.155 215.755 209.843 216.191 208.969 216.191H198.485C197.611 216.191 197.299 215.755 197.299 214.943V205.832C197.299 205.02 197.673 204.646 198.547 204.646Z" fill="#F9FFF9"/>
<path d="M257.211 179.558H238.364C235.68 179.558 233.746 181.492 233.746 184.051V197.219C233.746 199.216 234.744 200.714 236.991 201.213C234.744 201.65 233.746 203.148 233.746 205.145V218.75C233.746 221.247 235.68 223.244 238.364 223.244H257.211C259.957 223.244 261.829 221.247 261.829 218.75V205.145C261.829 203.148 260.831 201.65 258.584 201.213C260.831 200.714 261.829 199.216 261.829 197.219V184.051C261.829 181.492 259.957 179.558 257.211 179.558ZM254.215 187.858V196.221C254.215 197.219 253.779 197.656 252.843 197.656H242.732C241.796 197.656 241.359 197.219 241.359 196.221V187.858C241.359 187.047 241.671 186.61 242.545 186.61H253.03C253.903 186.61 254.215 187.047 254.215 187.858ZM254.215 206.144V214.943C254.215 215.755 253.903 216.191 253.03 216.191H242.545C241.671 216.191 241.359 215.755 241.359 214.943V206.144C241.359 205.208 241.796 204.771 242.732 204.771H252.843C253.779 204.771 254.215 205.208 254.215 206.144Z" fill="#F9FFF9"/>
<path d="M302.457 223.244H305.952L292.971 179.558H289.039L276.058 223.244H279.553L283.235 210.575H298.775L302.457 223.244ZM284.109 207.517L291.036 183.552L297.901 207.517H284.109Z" fill="#F9FFF9"/>
<path d="M316.687 220.123V179.558H313.379V223.244H334.723V220.123H316.687Z" fill="#F9FFF9"/>
<path d="M362.182 179.558H342.024V223.244H362.182C365.115 223.244 367.175 221.122 367.175 218.438V205.27C367.175 203.522 366.364 201.962 364.367 201.276C366.364 200.652 367.175 199.092 367.175 197.344V184.363C367.175 181.68 365.115 179.558 362.182 179.558ZM363.867 185.923V196.595C363.867 198.842 362.744 199.778 360.435 199.778H345.332V182.678H360.497C362.869 182.678 363.867 183.614 363.867 185.923ZM363.867 206.019V216.878C363.867 219.187 362.869 220.123 360.497 220.123H345.332V202.898H360.435C362.744 202.898 363.867 203.772 363.867 206.019Z" fill="#F9FFF9"/>
<path d="M398.754 182.678V179.558H376.411V223.244H398.754V220.123H379.719V202.898H393.886V199.778H379.719V182.678H398.754Z" fill="#F9FFF9"/>
<path d="M428.023 179.558H407.366V223.244H410.674V203.959H426.276C428.522 203.959 429.708 204.833 429.708 207.08V223.244H432.953V206.331C432.953 204.583 432.205 203.023 430.208 202.337C432.205 201.713 432.953 200.152 432.953 198.405V184.363C432.953 181.68 430.956 179.558 428.023 179.558ZM429.708 185.923V197.656C429.708 199.903 428.522 200.839 426.276 200.839H410.674V182.678H426.276C428.71 182.678 429.708 183.614 429.708 185.923Z" fill="#F9FFF9"/>
<path d="M466.904 179.558H441.192V182.678H452.363V223.244H455.608V182.678H466.904V179.558Z" fill="#F9FFF9"/>
</g>
<defs>
<clipPath id="clip0_1_10">
<rect width="600" height="400" fill="white"/>
</clipPath>
</defs>
</svg>
