<svg width="600" height="400" viewBox="0 0 600 400" fill="none" xmlns="http://www.w3.org/2000/svg">
<g clip-path="url(#clip0_227_38)">
<rect width="600" height="400" fill="white"/>
<path d="M600 0H0V400H600V0Z" fill="#0C0D0F"/>
<path fill-rule="evenodd" clip-rule="evenodd" d="M282.079 229.872H317.915C317.915 229.872 317.915 227.782 317.915 225.95C317.915 224.457 316.704 223.245 315.21 223.245C315.21 223.245 315.209 223.245 315.208 223.245C314.851 223.245 314.509 223.103 314.256 222.851C314.003 222.598 313.862 222.256 313.862 221.899C313.862 219.32 313.862 213.938 313.862 213.938C313.862 210.897 316.027 210.491 319.113 209.754C326.342 208.026 338.747 205.062 341.173 204.483C341.274 204.458 341.381 204.481 341.462 204.546C341.544 204.61 341.592 204.709 341.592 204.812C341.592 208.303 341.592 232.045 341.592 239.812C341.592 241.641 340.04 243.125 338.125 243.125C324.592 243.125 275.401 243.125 261.869 243.125C260.95 243.125 260.068 242.776 259.418 242.155C258.768 241.533 258.402 240.69 258.402 239.812C258.402 233.209 258.402 215.169 258.402 209.213C258.402 207.693 259.485 206.368 261.028 205.999C272.031 203.369 313.862 193.373 313.862 193.373C313.862 193.373 313.862 180.104 313.862 174.925V172.296C313.862 171.346 313.436 170.443 312.692 169.814C311.949 169.185 310.958 168.891 309.973 169.007C309.931 169.013 282.898 174.429 282.898 174.429C282.898 174.429 282.898 175.838 282.898 177.36C282.898 178.309 283.325 179.213 284.068 179.842C284.646 180.331 285.374 180.618 286.132 180.666V189.398V189.664C286.132 191.185 285.05 192.51 283.506 192.879C277.212 194.383 261.578 198.119 258.821 198.778C258.72 198.802 258.614 198.778 258.532 198.714C258.451 198.65 258.402 198.552 258.402 198.447C258.402 195.192 258.402 174.335 258.402 166.204C258.402 164.673 259.5 163.342 261.057 162.982C268.322 161.318 288.734 156.875 299.997 156.875C311.26 156.875 331.672 161.318 338.937 162.985C340.492 163.344 341.589 164.674 341.589 166.204C341.59 172.307 341.591 178.934 341.592 194.105C341.592 195.623 340.512 196.947 338.972 197.317C329.012 199.717 293.722 208.217 287.18 209.793C286.564 209.941 286.132 210.471 286.132 211.079C286.132 211.079 286.132 218.732 286.132 221.899C286.132 222.643 285.529 223.245 284.785 223.245C284.785 223.245 284.784 223.245 284.784 223.245C283.29 223.245 282.079 224.457 282.079 225.95C282.079 227.782 282.079 229.872 282.079 229.872Z" fill="white"/>
</g>
<defs>
<clipPath id="clip0_227_38">
<rect width="600" height="400" fill="white"/>
</clipPath>
</defs>
</svg>
