<svg width="600" height="400" viewBox="0 0 600 400" fill="none" xmlns="http://www.w3.org/2000/svg">
<g clip-path="url(#clip0_218_13)">
<rect width="600" height="400" fill="white"/>
<rect width="600" height="400" fill="white"/>
<path d="M225.885 239.2L227.973 234.55H235.706L237.817 239.2H240.071L232.883 223.71H230.938L223.75 239.2H225.885ZM231.768 226.129H231.911L234.971 232.89H228.708L231.768 226.129Z" fill="#1E1C17"/>
<path d="M263.268 223.71V235.594H263.245L253.4 223.71H251.526V239.2H253.59V227.315H253.614L263.458 239.2H265.332V223.71H263.268Z" fill="#1E1C17"/>
<path d="M285.785 239.2C288.679 239.2 290.149 238.441 291.573 237.16C293.02 235.76 293.85 233.696 293.85 231.443C293.85 229.237 293.067 227.268 291.691 225.868C290.292 224.54 288.679 223.71 285.785 223.71H278.906V239.2H285.785ZM280.969 237.373V225.536H285.714C287.92 225.536 288.963 226.129 290.031 227.102C291.098 228.193 291.691 229.735 291.691 231.443C291.691 233.198 291.051 234.787 289.96 235.879C288.869 236.804 287.943 237.373 285.714 237.373H280.969Z" fill="#1E1C17"/>
<path d="M332.444 235.167C331.021 236.638 328.886 237.776 326.419 237.776C322.671 237.776 320.038 234.954 320.038 231.467C320.038 228.003 322.647 225.133 326.348 225.133C328.388 225.133 330.57 225.987 331.993 227.339L333.393 225.963C331.685 224.374 329.076 223.306 326.3 223.306C321.39 223.306 317.879 226.983 317.879 231.443C317.879 235.95 321.39 239.603 326.395 239.603C329.574 239.603 332.136 238.18 333.82 236.519L332.444 235.167Z" fill="#1E1C17"/>
<path d="M344.217 231.419C344.217 235.974 347.989 239.603 352.804 239.603C357.596 239.603 361.438 235.974 361.438 231.419C361.438 226.936 357.596 223.306 352.804 223.306C347.989 223.306 344.217 226.936 344.217 231.419ZM346.375 231.419C346.375 227.956 349.175 225.133 352.804 225.133C356.433 225.133 359.28 227.956 359.28 231.419C359.28 234.93 356.433 237.776 352.804 237.776C349.175 237.776 346.375 234.93 346.375 231.419Z" fill="#1E1C17"/>
<path d="M371.765 238.085C371.765 238.868 372.429 239.484 373.307 239.484C374.185 239.484 374.849 238.868 374.849 238.085C374.849 237.302 374.185 236.661 373.307 236.661C372.429 236.661 371.765 237.302 371.765 238.085Z" fill="#1E1C17"/>
<path d="M162.91 209.53C160.287 209.53 158.056 208.794 156.216 207.322C154.422 205.804 153.525 203.642 153.525 200.836C153.525 198.627 154.583 196.603 156.699 194.763C158.861 192.877 162.242 191.497 166.843 190.623C167.625 190.438 168.522 190.277 169.534 190.139C170.592 189.955 171.627 189.771 172.64 189.587V184.688C172.64 181.56 172.248 179.397 171.466 178.201C170.684 177.005 169.442 176.407 167.74 176.407H167.533C166.475 176.407 165.624 176.752 164.98 177.442C164.382 178.086 163.991 179.167 163.807 180.686L163.6 181.583C163.462 183.423 162.979 184.78 162.15 185.654C161.322 186.482 160.287 186.896 159.045 186.896C157.895 186.896 156.929 186.551 156.147 185.861C155.411 185.125 155.043 184.182 155.043 183.032C155.043 181.146 155.687 179.558 156.975 178.27C158.263 176.982 159.965 176.016 162.081 175.372C164.244 174.728 166.567 174.406 169.051 174.406C173.146 174.406 176.274 175.395 178.436 177.373C180.598 179.351 181.679 182.572 181.679 187.034V202.423C181.679 204.401 182.623 205.39 184.509 205.39H186.096L186.786 206.149C185.958 207.207 185.038 208.012 184.026 208.564C183.014 209.162 181.633 209.461 179.885 209.461C177.907 209.461 176.32 209.001 175.124 208.081C173.974 207.115 173.215 205.85 172.847 204.286C171.374 205.85 169.925 207.115 168.499 208.081C167.073 209.047 165.21 209.53 162.91 209.53ZM166.912 205.114C167.832 205.114 168.706 204.907 169.534 204.493C170.362 204.079 171.397 203.389 172.64 202.423V191.382C171.443 191.566 170.224 191.796 168.982 192.072C167.004 192.532 165.394 193.383 164.152 194.625C162.956 195.867 162.357 197.546 162.357 199.662C162.357 201.503 162.772 202.883 163.6 203.803C164.474 204.677 165.578 205.114 166.912 205.114Z" fill="#1E1C17"/>
<path d="M188.148 208.564V207.184L189.666 206.77C190.403 206.54 190.886 206.218 191.116 205.804C191.346 205.344 191.484 204.746 191.53 204.01V190.346C191.53 188.828 191.53 187.54 191.53 186.482C191.53 185.424 191.507 184.182 191.461 182.756C191.461 181.974 191.346 181.376 191.116 180.962C190.886 180.501 190.38 180.179 189.597 179.995L188.148 179.65V178.408L199.327 174.406L200.156 175.165L200.639 179.788C202.249 178.316 204.043 177.051 206.021 175.993C207.999 174.935 210.024 174.406 212.094 174.406C214.394 174.406 216.188 174.866 217.476 175.786C218.764 176.706 219.753 178.109 220.444 179.995C222.192 178.247 224.124 176.89 226.24 175.924C228.356 174.912 230.45 174.406 232.52 174.406C235.648 174.406 237.994 175.188 239.558 176.752C241.123 178.316 241.905 180.778 241.905 184.136V204.079C241.905 205.551 242.549 206.471 243.837 206.839L245.148 207.184V208.564H229.621V207.184L230.864 206.839C232.106 206.425 232.727 205.482 232.727 204.01V183.791C232.727 181.813 232.359 180.478 231.623 179.788C230.933 179.052 229.783 178.684 228.172 178.684C226.93 178.684 225.757 178.937 224.653 179.443C223.549 179.949 222.33 180.732 220.996 181.79C221.272 183.17 221.41 184.757 221.41 186.551V204.079C221.456 204.861 221.594 205.482 221.824 205.942C222.1 206.356 222.606 206.655 223.342 206.839L224.515 207.184V208.564H208.919V207.184L210.369 206.77C211.105 206.54 211.588 206.218 211.818 205.804C212.094 205.344 212.232 204.746 212.232 204.01V183.86C212.232 181.974 211.887 180.64 211.197 179.857C210.507 179.075 209.333 178.684 207.677 178.684C205.561 178.684 203.284 179.696 200.846 181.721V204.079C200.846 205.597 201.49 206.517 202.778 206.839L203.951 207.184V208.564H188.148Z" fill="#1E1C17"/>
<path d="M265.242 174.406C268.14 174.406 270.625 175.004 272.695 176.2C274.765 177.396 276.352 179.052 277.456 181.169C278.606 183.239 279.181 185.631 279.181 188.345C279.181 188.943 279.158 189.518 279.112 190.07C279.066 190.577 278.974 191.06 278.836 191.52H258.065C258.111 196.258 258.985 199.662 260.688 201.733C262.436 203.803 264.966 204.838 268.278 204.838C270.579 204.838 272.442 204.47 273.868 203.734C275.294 202.952 276.605 201.871 277.801 200.491L278.905 201.526C277.525 204.056 275.639 206.034 273.247 207.46C270.901 208.84 268.094 209.53 264.828 209.53C261.562 209.53 258.686 208.84 256.202 207.46C253.718 206.08 251.763 204.102 250.337 201.526C248.956 198.903 248.266 195.775 248.266 192.141C248.266 188.368 249.071 185.171 250.682 182.549C252.338 179.926 254.454 177.925 257.03 176.545C259.652 175.119 262.39 174.406 265.242 174.406ZM264.897 176.407C263.563 176.407 262.39 176.798 261.378 177.58C260.412 178.316 259.629 179.65 259.031 181.583C258.479 183.469 258.157 186.137 258.065 189.587H270.418C270.924 184.941 270.74 181.583 269.865 179.512C268.991 177.442 267.335 176.407 264.897 176.407Z" fill="#1E1C17"/>
<path d="M282.696 208.564V207.253L283.8 206.977C285.318 206.517 286.077 205.39 286.077 203.596V183.239C286.031 182.273 285.87 181.537 285.594 181.031C285.318 180.478 284.72 180.11 283.8 179.926L282.696 179.65V178.408L293.875 174.406L294.703 175.165L295.186 179.443C296.842 177.971 298.683 176.775 300.707 175.855C302.777 174.889 304.801 174.406 306.779 174.406C309.816 174.406 312.139 175.234 313.749 176.89C315.405 178.546 316.233 181.077 316.233 184.481V203.665C316.233 205.459 317.061 206.586 318.718 207.046L319.477 207.253V208.564H303.605V207.253L304.64 206.977C306.158 206.471 306.917 205.344 306.917 203.596V183.101C306.917 181.491 306.572 180.317 305.882 179.581C305.192 178.845 304.042 178.477 302.432 178.477C300.178 178.477 297.831 179.466 295.393 181.445V203.665C295.393 205.459 296.198 206.586 297.808 207.046L298.499 207.253V208.564H282.696Z" fill="#1E1C17"/>
<path d="M330.326 170.61C328.808 170.61 327.52 170.127 326.461 169.161C325.403 168.195 324.874 166.976 324.874 165.504C324.874 163.986 325.403 162.767 326.461 161.847C327.52 160.881 328.808 160.397 330.326 160.397C331.844 160.397 333.132 160.881 334.19 161.847C335.248 162.767 335.777 163.986 335.777 165.504C335.777 166.976 335.248 168.195 334.19 169.161C333.132 170.127 331.844 170.61 330.326 170.61ZM322.39 208.564V207.253L323.425 206.977C324.345 206.701 324.966 206.287 325.288 205.735C325.61 205.183 325.794 204.447 325.84 203.527V190.83C325.84 189.403 325.84 188.092 325.84 186.896C325.84 185.654 325.817 184.389 325.771 183.101C325.771 182.181 325.587 181.468 325.219 180.962C324.897 180.409 324.276 180.041 323.356 179.857L322.39 179.65V178.408L334.466 174.406L335.294 175.165L335.087 184.964V203.596C335.087 204.516 335.248 205.252 335.57 205.804C335.938 206.356 336.559 206.77 337.434 207.046L338.193 207.253V208.564H322.39Z" fill="#1E1C17"/>
<path d="M354.231 209.53C351.379 209.53 349.124 208.84 347.468 207.46C345.858 206.034 345.053 203.734 345.053 200.56C345.053 199.455 345.053 198.42 345.053 197.454C345.099 196.442 345.122 195.269 345.122 193.935V177.58H340.222V176.062L342.086 175.786C343.42 175.556 344.547 175.142 345.467 174.544C346.433 173.946 347.307 173.118 348.089 172.06L352.575 165.849H354.645L354.438 175.441H362.305V177.58H354.369V201.112C354.369 202.768 354.714 204.01 355.404 204.838C356.14 205.666 357.037 206.08 358.095 206.08C359.015 206.08 359.843 205.873 360.579 205.459C361.316 204.999 362.052 204.401 362.788 203.665L363.685 204.7C362.811 206.218 361.592 207.414 360.027 208.288C358.463 209.116 356.531 209.53 354.231 209.53Z" fill="#1E1C17"/>
<path d="M373.994 170.61C372.476 170.61 371.188 170.127 370.13 169.161C369.072 168.195 368.543 166.976 368.543 165.504C368.543 163.986 369.072 162.767 370.13 161.847C371.188 160.881 372.476 160.397 373.994 160.397C375.512 160.397 376.801 160.881 377.859 161.847C378.917 162.767 379.446 163.986 379.446 165.504C379.446 166.976 378.917 168.195 377.859 169.161C376.801 170.127 375.512 170.61 373.994 170.61ZM366.059 208.564V207.253L367.094 206.977C368.014 206.701 368.635 206.287 368.957 205.735C369.279 205.183 369.463 204.447 369.509 203.527V190.83C369.509 189.403 369.509 188.092 369.509 186.896C369.509 185.654 369.486 184.389 369.44 183.101C369.44 182.181 369.256 181.468 368.888 180.962C368.566 180.409 367.945 180.041 367.025 179.857L366.059 179.65V178.408L378.135 174.406L378.963 175.165L378.756 184.964V203.596C378.756 204.516 378.917 205.252 379.239 205.804C379.607 206.356 380.228 206.77 381.102 207.046L381.861 207.253V208.564H366.059Z" fill="#1E1C17"/>
<path d="M402.178 174.406C405.076 174.406 407.56 175.004 409.63 176.2C411.701 177.396 413.288 179.052 414.392 181.169C415.542 183.239 416.117 185.631 416.117 188.345C416.117 188.943 416.094 189.518 416.048 190.07C416.002 190.577 415.91 191.06 415.772 191.52H395.001C395.047 196.258 395.921 199.662 397.623 201.733C399.371 203.803 401.902 204.838 405.214 204.838C407.514 204.838 409.377 204.47 410.804 203.734C412.23 202.952 413.541 201.871 414.737 200.491L415.841 201.526C414.461 204.056 412.575 206.034 410.183 207.46C407.836 208.84 405.03 209.53 401.764 209.53C398.497 209.53 395.622 208.84 393.138 207.46C390.654 206.08 388.698 204.102 387.272 201.526C385.892 198.903 385.202 195.775 385.202 192.141C385.202 188.368 386.007 185.171 387.617 182.549C389.273 179.926 391.39 177.925 393.966 176.545C396.588 175.119 399.325 174.406 402.178 174.406ZM401.833 176.407C400.499 176.407 399.325 176.798 398.313 177.58C397.347 178.316 396.565 179.65 395.967 181.583C395.415 183.469 395.093 186.137 395.001 189.587H407.353C407.859 184.941 407.675 181.583 406.801 179.512C405.927 177.442 404.271 176.407 401.833 176.407Z" fill="#1E1C17"/>
<path d="M431.57 209.53C429.362 209.53 427.36 209.277 425.566 208.771C423.818 208.311 422.139 207.644 420.529 206.77V198.627H422.392L424.462 202.561C425.336 204.263 426.325 205.528 427.429 206.356C428.58 207.184 430.029 207.598 431.777 207.598C433.939 207.598 435.664 207.138 436.952 206.218C438.241 205.252 438.885 203.964 438.885 202.354C438.885 200.882 438.402 199.685 437.435 198.765C436.469 197.845 434.744 196.994 432.26 196.212L429.224 195.246C426.509 194.418 424.347 193.176 422.737 191.52C421.173 189.817 420.391 187.701 420.391 185.171C420.391 183.193 420.92 181.399 421.978 179.788C423.036 178.132 424.577 176.821 426.601 175.855C428.626 174.889 431.087 174.406 433.985 174.406C435.871 174.406 437.596 174.636 439.161 175.096C440.771 175.51 442.335 176.108 443.853 176.89L443.439 184.274H441.645L439.506 180.34C438.77 178.868 438.01 177.856 437.228 177.304C436.492 176.706 435.342 176.407 433.778 176.407C432.122 176.407 430.65 176.844 429.362 177.718C428.119 178.546 427.498 179.719 427.498 181.238C427.498 182.664 428.027 183.837 429.086 184.757C430.144 185.631 431.846 186.459 434.192 187.241L437.159 188.138C440.518 189.196 442.91 190.6 444.336 192.348C445.762 194.096 446.475 196.189 446.475 198.627C446.475 201.894 445.164 204.539 442.542 206.563C439.966 208.541 436.308 209.53 431.57 209.53Z" fill="#1E1C17"/>
</g>
<defs>
<clipPath id="clip0_218_13">
<rect width="600" height="400" fill="white"/>
</clipPath>
</defs>
</svg>
