<svg width="600" height="400" viewBox="0 0 600 400" fill="none" xmlns="http://www.w3.org/2000/svg">
<g clip-path="url(#clip0_227_27)">
<rect width="600" height="400" fill="white"/>
<rect width="600" height="400" fill="#261E2D"/>
<path d="M130.037 215.044H134.461C135.064 215.044 135.607 214.683 135.846 214.128C136.676 212.175 138.551 207.779 138.551 207.779H152.778C152.778 207.779 154.616 212.165 155.44 214.121C155.673 214.68 156.222 215.044 156.831 215.044H161.416L148.252 184.938H143.19L130.037 215.044ZM140.485 203.094L145.643 191.058L150.843 203.094H140.485Z" fill="white"/>
<path d="M195.054 215.516C202.923 215.516 207.998 211.003 207.998 202.019V184.436C207.998 184.436 205.347 185.19 203.801 185.631C203.156 185.815 202.708 186.406 202.708 187.079V202.277C202.708 207.822 199.83 210.616 195.144 210.616C190.415 210.616 187.532 207.65 187.532 202.062C187.532 202.062 187.532 190.753 187.532 187.08C187.532 186.406 187.09 185.815 186.439 185.631C184.893 185.19 182.248 184.438 182.248 184.438V202.277C182.248 211.003 187.233 215.516 195.054 215.516Z" fill="white"/>
<path d="M245.22 215.56C250.552 215.56 254.802 213.41 257.769 210.874V198.236H244.963C244.963 198.236 245.513 200.374 245.865 201.748C246.038 202.414 246.635 202.879 247.322 202.879H252.653V208.467C250.808 209.842 248.229 210.745 245.393 210.745C239.244 210.745 235.16 206.189 235.16 199.999V199.913C235.16 194.153 239.375 189.339 244.916 189.339C248.331 189.339 250.51 190.331 252.593 191.919C253.017 192.245 253.626 192.179 253.966 191.768C254.94 190.614 256.695 188.522 256.695 188.522C253.602 185.9 250.378 184.438 245.131 184.438C236.062 184.438 229.614 191.574 229.614 199.999V200.085C229.614 208.854 235.805 215.56 245.22 215.56Z" fill="white"/>
<path fill-rule="evenodd" clip-rule="evenodd" d="M316.144 217.91L315.406 217.688C312.333 216.763 310.238 216.544 310.238 213.4C310.238 207.41 310.238 192.59 310.238 186.6C310.238 183.455 312.333 183.237 315.406 182.312L316.144 182.089V217.91ZM283.249 182.089L283.964 182.312C286.941 183.237 288.973 183.455 288.973 186.6V213.4C288.973 216.544 286.941 216.763 283.964 217.688L283.249 217.91V182.089ZM302.032 211.121C302.032 211.254 301.979 211.382 301.884 211.476C301.791 211.57 301.663 211.623 301.53 211.623C300.587 211.623 298.56 211.623 297.617 211.623C297.484 211.623 297.356 211.57 297.262 211.476C297.168 211.382 297.115 211.254 297.115 211.121C297.115 208.06 297.115 191.94 297.115 188.879C297.115 188.746 297.168 188.618 297.262 188.524C297.356 188.43 297.484 188.377 297.617 188.377H301.53C301.663 188.377 301.791 188.43 301.884 188.524C301.979 188.618 302.032 188.746 302.032 188.879V211.121Z" fill="#00C8CF"/>
<path d="M342.373 215.059H364.898C364.898 215.059 364.343 212.857 363.991 211.454C363.818 210.785 363.221 210.315 362.528 210.315C358.827 210.315 347.657 210.315 347.657 210.315V202.277H362.152V197.506H347.657V189.682H362.313C363.006 189.682 363.603 189.213 363.776 188.544C364.128 187.14 364.684 184.938 364.684 184.938H342.373V215.059Z" fill="white"/>
<path d="M391.881 215.56C391.881 215.56 394.18 215.339 395.72 215.191C396.49 215.116 397.081 214.467 397.081 213.691C397.081 208.968 397.081 193.637 397.081 193.637C397.081 193.637 410.562 211.03 413.219 214.46C413.505 214.828 413.947 215.044 414.413 215.044H418.102L418.096 184.438C418.096 184.438 415.798 184.659 414.257 184.807C413.487 184.882 412.896 185.531 412.896 186.307C412.896 190.942 412.902 205.759 412.902 205.759C412.902 205.759 399.845 188.91 397.23 185.538C396.95 185.17 396.508 184.954 396.042 184.954C394.675 184.954 391.881 184.954 391.881 184.954V215.56Z" fill="white"/>
<path d="M453.897 215.059H459.187V189.854H467.587C468.279 189.854 468.888 189.379 469.049 188.704C469.402 187.251 469.963 184.938 469.963 184.938H443.115C443.115 184.938 443.676 187.251 444.034 188.704C444.196 189.379 444.799 189.854 445.497 189.854H453.897V215.059Z" fill="white"/>
</g>
<defs>
<clipPath id="clip0_227_27">
<rect width="600" height="400" fill="white"/>
</clipPath>
</defs>
</svg>
