<svg width="600" height="400" viewBox="0 0 600 400" fill="none" xmlns="http://www.w3.org/2000/svg">
<rect width="600" height="400" fill="white"/>
<path fill-rule="evenodd" clip-rule="evenodd" d="M151.063 156.798L133.634 162.474L133.619 162.472L133.626 162.477L133.619 162.48L133.631 162.482L162.76 184.771L180.19 179.094L180.205 179.097L180.198 179.091L180.205 179.089L180.192 179.087L151.063 156.798Z" fill="#369CCC"/>
<path fill-rule="evenodd" clip-rule="evenodd" d="M117.992 194.447L118.004 212.778L117.996 212.792L118.003 212.787V212.794L118.01 212.784L148.209 191.968L148.197 173.637L148.204 173.623L148.197 173.628V173.621L148.19 173.632L117.992 194.447Z" fill="#369CCC"/>
<path fill-rule="evenodd" clip-rule="evenodd" d="M143.57 237.539L161.008 243.192L161.019 243.202L161.017 243.195L161.024 243.196L161.014 243.187L150.55 208.032L133.112 202.381L133.101 202.369L133.103 202.378L133.096 202.375L133.106 202.385L143.57 237.539Z" fill="#369CCC"/>
<path fill-rule="evenodd" clip-rule="evenodd" d="M192.456 226.518L203.22 211.681L203.234 211.674H203.225L203.231 211.668L203.219 211.672L166.552 210.762L155.787 225.6L155.774 225.607L155.782 225.608L155.778 225.614L155.79 225.607L192.456 226.518Z" fill="#369CCC"/>
<path fill-rule="evenodd" clip-rule="evenodd" d="M197.092 176.619L186.307 161.797L186.306 161.781L186.303 161.789L186.299 161.783V161.796L174.102 196.387L184.887 211.21L184.89 211.225L184.894 211.216L184.898 211.222L184.896 211.209L197.092 176.619Z" fill="#369CCC"/>
<path fill-rule="evenodd" clip-rule="evenodd" d="M311.146 198.927L311.161 182.088L310.624 182.093C310.624 182.093 298.89 198.877 298.855 198.927H311.146ZM262.924 199.57L265.825 199.575C266.137 199.575 266.443 199.574 266.748 199.568C267.168 199.561 267.589 199.557 268.01 199.553C269.124 199.544 270.275 199.534 271.385 199.439C273.291 199.273 274.975 198.624 276.391 197.508C277.778 196.415 278.582 194.959 278.782 193.178C279.041 190.867 278.708 188.734 277.792 186.84C276.648 184.476 274.707 183.08 271.856 182.571C271.048 182.427 270.206 182.409 269.341 182.402C268.11 182.392 266.879 182.39 265.647 182.39L261.059 182.395V225.53H253.294V174.615C253.294 174.615 260.557 174.629 261.763 174.629C263.461 174.629 265.157 174.622 266.854 174.6C267.164 174.596 267.474 174.594 267.784 174.594C269.286 174.594 271.266 174.645 273.266 175.045C277.169 175.827 280.199 177.344 282.527 179.685C284.677 181.845 286.004 184.519 286.586 187.857C286.868 189.471 287.118 191.188 286.831 192.888C286.139 196.977 284.677 200.234 282.362 202.846C280.703 204.718 278.689 205.941 276.364 206.492L280.328 212.915L301.576 182.467C303.283 180.019 307.125 174.528 307.125 174.528H318.139V225.536H311.186L311.222 206.798L293.386 206.808L279.645 226.886L262.924 199.57Z" fill="#369CCC"/>
<path fill-rule="evenodd" clip-rule="evenodd" d="M455.995 181.017C452.993 181.017 450.026 181.891 447.179 183.617C441.371 187.135 438.286 192.648 438.01 200.002V200.088C438.008 200.159 438.008 200.231 438.011 200.302L438.03 200.636C438.318 206.538 440.7 211.36 445.109 214.969C448.218 217.51 452.132 218.91 456.13 218.91H456.132C461.428 218.911 466.386 216.54 469.732 212.407C473.95 207.194 475.218 201.29 473.498 194.859C471.985 189.198 468.579 185.116 463.377 182.726C460.909 181.592 458.427 181.017 455.995 181.017ZM455.774 226.476C449.867 226.476 444.448 224.499 439.67 220.601C435.175 216.933 432.168 212.143 430.734 206.365C430.222 204.308 429.97 202.166 429.982 199.997C430.031 193.609 432.033 187.962 435.929 183.21C440.824 177.241 447.09 174.02 454.551 173.636C455.07 173.609 455.586 173.596 456.095 173.596C463.921 173.596 470.571 176.749 475.862 182.966C479.182 186.867 481.177 191.45 481.789 196.586C482.702 204.241 480.758 211.076 476.008 216.901C471.606 222.299 465.931 225.452 459.14 226.271C458.006 226.408 456.873 226.476 455.774 226.476Z" fill="#369CCC"/>
<path fill-rule="evenodd" clip-rule="evenodd" d="M398.95 217.898C400.056 217.898 401.161 217.904 402.267 217.926C402.476 217.93 402.686 217.932 402.895 217.932C404.789 217.932 406.438 217.75 407.935 217.374C413.642 215.945 417.348 212.458 418.953 207.01C420.133 202.993 420.248 198.72 419.288 194.308C418.635 191.298 417.312 188.78 415.356 186.825C412.465 183.935 408.748 182.368 404.309 182.167C403.036 182.11 401.651 182.083 399.955 182.083C398.952 182.083 397.947 182.092 396.943 182.101C396.024 182.109 395.105 182.118 394.186 182.119V217.912C394.955 217.912 395.723 217.908 396.491 217.905C397.311 217.901 398.131 217.898 398.95 217.898ZM401.708 225.588H386.508V174.516H390.469C391.462 174.516 392.454 174.521 393.447 174.525C394.436 174.53 395.426 174.535 396.415 174.535C397.644 174.535 398.871 174.528 400.098 174.503C400.659 174.492 401.221 174.485 401.783 174.485C404.387 174.485 407.809 174.617 411.19 175.642C417.806 177.65 422.62 181.922 425.501 188.339C426.948 191.566 427.775 194.564 428.03 197.508C428.2 199.475 428.034 201.38 427.733 203.634C427.218 207.48 426.15 210.783 424.469 213.727C421.915 218.2 418.089 221.473 413.095 223.456C409.533 224.871 405.701 225.588 401.708 225.588Z" fill="#369CCC"/>
<path fill-rule="evenodd" clip-rule="evenodd" d="M229.269 195.424C229.686 195.424 230.103 195.427 230.521 195.437C230.66 195.44 230.799 195.441 230.938 195.441C232.603 195.441 234.123 195.211 235.583 194.738C238.515 193.788 239.901 192.149 240.075 189.424C240.222 187.126 239.494 185.399 237.849 184.144C236.523 183.132 234.889 182.559 232.993 182.443C231.6 182.357 230.168 182.354 228.783 182.351C228.376 182.351 227.969 182.35 227.562 182.347V195.43L229.269 195.424ZM229.468 218.065C230.618 218.066 231.767 218.068 232.916 218.094C233.07 218.098 233.223 218.099 233.376 218.099C234.827 218.099 236.106 217.932 237.289 217.585C239.814 216.844 241.415 215.473 242.183 213.394C242.764 211.82 242.869 210.143 242.494 208.408C242.095 206.557 241.064 205.209 239.343 204.286C237.888 203.507 236.26 203.086 234.504 203.037C233.516 203.009 232.465 202.996 231.095 202.996C230.48 202.996 228.127 203.006 227.565 203.006V218.06H227.603L229.468 218.065ZM220.113 225.588V174.647C220.113 174.647 223.545 174.642 224.642 174.637C225.742 174.632 226.842 174.627 227.942 174.627C229.401 174.627 230.86 174.636 232.317 174.664C235.69 174.728 238.55 175.349 241.062 176.563C244.295 178.124 246.382 180.736 247.267 184.327C248.115 187.773 248.086 190.631 247.177 193.321C246.555 195.161 245.513 196.776 244.073 198.131C244.086 198.141 244.101 198.15 244.114 198.159C244.7 198.553 245.307 198.962 245.871 199.427C248.234 201.371 249.707 203.959 250.249 207.117C250.812 210.4 250.487 213.668 249.283 216.83C248.001 220.194 245.454 222.663 241.713 224.167C239.396 225.099 236.871 225.575 234.21 225.583C232.45 225.59 230.69 225.591 228.93 225.591L220.113 225.588Z" fill="#369CCC"/>
<path fill-rule="evenodd" clip-rule="evenodd" d="M376.285 198.929L376.281 182.092L375.767 182.094L363.993 198.929H376.285ZM336.786 225.54L372.233 174.533H383.281V225.527H376.324V206.821C376.324 206.821 362.725 206.82 358.527 206.813C358.474 206.813 358.454 206.818 358.453 206.818C356.721 209.326 345.407 225.54 345.407 225.54H336.786Z" fill="#369CCC"/>
<path fill-rule="evenodd" clip-rule="evenodd" d="M321.421 225.544V174.553H328.391V217.992L328.957 217.986L359.344 174.529H368.132L332.458 225.544H321.421Z" fill="#369CCC"/>
</svg>
