<svg width="600" height="400" viewBox="0 0 600 400" fill="none" xmlns="http://www.w3.org/2000/svg">
<g clip-path="url(#clip0_227_58)">
<rect width="600" height="400" fill="white"/>
<rect width="600" height="400" fill="black"/>
<g clip-path="url(#clip1_227_58)">
<path d="M236.256 212.304C240.362 212.304 243.011 210.71 245.459 208.335L244.3 207.229C241.952 209.507 239.666 210.775 236.324 210.775C230.793 210.775 226.524 206.286 226.524 200.528V200.463C226.524 194.737 230.728 190.28 236.29 190.28C239.766 190.28 242.083 191.712 244.104 193.631L245.328 192.395C242.945 190.248 240.462 188.751 236.324 188.751C229.635 188.751 224.738 194.087 224.738 200.528V200.593C224.738 207.132 229.635 212.304 236.256 212.304V212.304Z" fill="white"/>
<path d="M280.766 207.51L282.8 211.914H284.687L273.897 188.979H272.242L261.449 211.914H263.235L265.269 207.51H280.766ZM266 205.981L273.035 190.833L280.038 205.981" fill="white"/>
<path d="M310.176 212.239C314.645 212.239 317.856 209.702 317.856 206.026V205.961C317.856 202.642 315.607 200.756 310.242 199.682C304.749 198.576 303.49 197.112 303.49 194.705V194.64C303.49 192.265 305.742 190.346 309.152 190.346C311.701 190.346 313.883 191.061 316.07 192.915L317.163 191.582C314.811 189.727 312.594 188.817 309.218 188.817C304.914 188.817 301.769 191.419 301.769 194.802V194.867C301.769 198.316 304.021 200.17 309.58 201.276C314.845 202.317 316.135 203.716 316.135 206.123V206.188C316.135 208.791 313.752 210.71 310.276 210.71C306.866 210.71 304.518 209.637 301.966 207.327L300.842 208.596C303.621 211.036 306.47 212.239 310.176 212.239V212.239Z" fill="white"/>
<path d="M347.252 212.304C351.359 212.304 354.008 210.71 356.456 208.335L355.297 207.229C352.945 209.507 350.663 210.775 347.318 210.775C341.79 210.775 337.521 206.286 337.521 200.528V200.463C337.521 194.737 341.725 190.28 347.287 190.28C350.763 190.28 353.08 191.712 355.097 193.631L356.325 192.395C353.939 190.248 351.456 188.751 347.318 188.751C340.632 188.751 335.732 194.087 335.732 200.528V200.593C335.732 207.132 340.632 212.304 347.252 212.304V212.304Z" fill="white"/>
<path d="M391.762 207.51L393.797 211.914H395.683L384.893 188.979H383.238L372.445 211.914H374.231L376.266 207.51H391.762ZM376.997 205.981L384.031 190.833L391.035 205.981" fill="white"/>
<path d="M413.825 211.914H421.539C428.822 211.914 433.853 206.937 433.853 200.528V200.463C433.853 194.054 428.822 189.142 421.539 189.142H413.825V211.914ZM415.546 210.352V190.703H421.539C427.994 190.703 432.063 195.128 432.063 200.528V200.593C432.063 206.026 427.994 210.352 421.539 210.352H415.546Z" fill="white"/>
<path d="M452.953 211.914H469.604V210.352H454.673V201.211H467.949V199.65H454.673V190.703H469.439V189.142H452.953V211.914Z" fill="white"/>
<path d="M149.228 230.388C153.015 232.167 157.128 233.246 161.304 233.568L161.406 233.576C158.177 232.04 154.684 231.048 151.181 230.555C150.779 230.5 150.376 230.454 149.97 230.414C149.579 230.376 148.939 230.252 149.228 230.388ZM178.612 230.35C177.888 230.404 177.166 230.481 176.448 230.582C172.981 231.065 169.601 232.073 166.453 233.557L166.415 233.575C170.593 233.267 174.698 232.202 178.488 230.437C178.488 230.437 178.821 230.335 178.612 230.35ZM174.69 223.63C171.471 225.791 168.648 228.486 166.304 231.649C166.069 231.967 165.744 232.432 165.744 232.432C168.937 230.303 171.694 227.733 174.118 224.455C174.393 224.082 174.833 223.535 174.69 223.63ZM153.118 223.639C155.063 226.44 157.414 228.933 160.271 231.135C160.841 231.574 161.424 231.994 162.022 232.396L162.076 232.432C160.107 229.581 157.723 227.072 154.865 224.875C154.301 224.441 153.721 224.027 153.131 223.63C153.131 223.63 153.067 223.564 153.118 223.639ZM167.849 219.756C167.082 221.325 166.439 222.949 165.93 224.61C165.831 224.934 165.737 225.259 165.648 225.586C165.1 227.594 164.747 229.647 164.584 231.73L164.582 231.772C166.423 228.037 167.543 223.966 167.865 219.763C167.865 219.763 167.894 219.666 167.849 219.756ZM159.956 219.763C160.253 223.6 161.272 227.447 162.812 230.866C162.981 231.241 163.239 231.772 163.239 231.772C162.958 227.97 162.014 224.236 160.372 220.606C160.191 220.205 159.942 219.58 159.956 219.763V219.763ZM135.125 217.973C138.027 222.516 142.04 226.356 146.737 229.083C146.737 229.083 148.47 229.127 150.088 229.284C152.904 229.558 155.703 230.159 158.338 231.094L158.433 231.127C155.446 228.626 152.936 225.541 150.856 222.241C150.856 222.241 150.364 221.963 149.991 221.767C147.784 220.608 145.442 219.711 142.994 219.039C142.899 219.013 142.899 219.013 142.804 218.989C140.312 218.354 137.744 217.965 135.158 217.87C135.158 217.87 134.978 217.741 135.125 217.973ZM192.663 217.87C188.002 218.035 183.264 219.282 179.793 220.819C178.841 221.241 177.916 221.711 176.999 222.217C176.999 222.217 176.368 223.228 175.833 224.018C174.059 226.644 171.891 229.037 169.476 231.053L169.388 231.127C173.066 229.842 176.988 229.16 180.822 229.123C180.902 229.123 181.017 229.122 181.017 229.122C185.631 226.466 189.592 222.732 192.482 218.305C192.612 218.105 192.934 217.861 192.663 217.87V217.87ZM147.258 205.979C147.391 209.599 148.164 213.27 149.41 216.603C149.437 216.673 149.463 216.742 149.491 216.811C150.117 218.379 150.843 219.907 151.682 221.372C151.682 221.372 152.209 221.699 152.607 221.943C155.103 223.483 157.385 225.338 159.444 227.424L159.504 227.486L159.343 227.637L159.505 227.487C159.911 227.91 160.307 228.341 160.69 228.785L160.749 228.853C160.347 227.745 160.012 226.62 159.717 225.48C159.694 225.391 159.694 225.391 159.672 225.302C159.051 222.729 158.799 220.118 158.708 217.44C158.708 217.44 158.021 216.291 157.451 215.472C154.865 211.751 151.477 208.488 147.337 205.935C147.337 205.935 147.251 205.769 147.258 205.979V205.979ZM180.484 205.935C178.597 207.1 176.837 208.442 175.213 209.917C175.114 210.008 175.114 210.008 175.016 210.1C174.037 211.03 173.115 212.011 172.235 213.034C172.172 213.108 172.172 213.108 172.111 213.183C171.923 213.412 171.738 213.643 171.552 213.874C171.491 213.951 171.491 213.95 171.431 214.028C170.598 215.113 169.822 216.249 169.124 217.407C169.124 217.407 169.106 218.014 169.091 218.47C168.959 221.968 168.307 225.47 167.106 228.76L167.072 228.852C169.569 225.971 172.533 223.511 175.779 221.603C176.39 221.243 176.392 220.933 176.597 220.555C178.497 217.054 179.808 213.211 180.344 208.792C180.461 207.826 180.534 206.856 180.566 205.884C180.538 205.901 180.511 205.917 180.484 205.935V205.935ZM163.865 201.582C161.573 205.84 160.193 210.726 159.937 215.115C159.898 215.776 159.872 216.438 159.864 217.1C159.864 217.1 160.218 217.739 160.526 218.316L160.328 218.418L160.526 218.317C162.123 221.347 163.276 224.612 163.892 227.922L163.91 228.019C164.617 224.22 166.126 220.495 167.946 217.139C167.946 217.139 167.939 215.758 167.852 214.679C167.693 212.711 167.333 210.745 166.862 208.907C166.828 208.778 166.828 208.778 166.793 208.649C166.72 208.391 166.646 208.134 166.571 207.877C166.533 207.749 166.534 207.749 166.494 207.622C165.825 205.508 164.971 203.451 163.91 201.498C163.895 201.526 163.88 201.554 163.865 201.582V201.582ZM197.657 200.913C195.7 200.957 193.764 201.179 191.824 201.535C191.728 201.553 191.728 201.553 191.632 201.572C188.131 202.294 184.854 203.493 181.74 205.201C181.609 205.273 181.721 206.307 181.664 207.136C181.353 211.679 180.196 215.979 178.148 220.068C178.077 220.211 177.972 220.416 177.972 220.416C181.73 218.558 185.801 217.373 190.075 216.911C191.191 216.79 192.304 216.737 193.431 216.714L193.458 216.713C196.225 211.922 197.71 206.424 197.824 200.951C197.824 200.951 197.731 200.912 197.657 200.913V200.913ZM129.997 200.951C130.111 206.438 131.599 211.882 134.359 216.707C134.359 216.707 135.565 216.738 136.335 216.787C140.374 217.047 144.287 217.97 148.195 219.652C148.743 219.888 149.284 220.139 149.82 220.402C149.82 220.402 149.108 218.916 148.736 218.022C147.496 214.974 146.645 211.794 146.282 208.516C146.161 207.425 146.106 206.33 146.081 205.226C146.081 205.226 145.52 204.891 145.187 204.721C144.927 204.589 144.666 204.457 144.404 204.328C144.094 204.178 143.778 204.035 143.464 203.89C143.376 203.851 143.376 203.851 143.287 203.812C140.691 202.688 138.038 201.88 135.113 201.376C133.693 201.138 132.259 201.001 130.831 200.932C130.694 200.927 130.694 200.927 130.557 200.922C130.333 200.917 129.995 200.869 129.997 200.951V200.951ZM151.416 188.858C151.179 189.285 150.952 189.718 150.729 190.153C150.669 190.273 150.669 190.273 150.61 190.394C149.23 193.259 148.219 196.278 147.689 199.434C147.405 201.128 147.267 202.841 147.239 204.542C147.239 204.542 148.255 205.148 148.91 205.578C149.025 205.653 149.139 205.729 149.252 205.806C152.957 208.308 156.14 211.489 158.66 215.203L158.763 215.356C158.773 215.186 158.784 215.016 158.796 214.846C159.191 209.609 160.923 204.479 163.229 200.353C163.229 200.353 162.912 199.784 162.713 199.476C162.554 199.234 162.396 198.992 162.234 198.751C160.392 196.051 158.143 193.648 155.689 191.627C155.614 191.566 155.614 191.566 155.539 191.506C155.325 191.338 155.112 191.169 154.897 191.002C153.839 190.188 152.72 189.439 151.567 188.753C151.567 188.753 151.58 188.567 151.416 188.858V188.858ZM164.797 201.178L164.993 201.075C164.993 201.075 164.757 200.644 164.579 200.33L164.64 200.229C166.128 197.802 168.135 195.292 170.432 193.108C170.472 193.071 170.511 193.034 170.551 192.997C172.281 191.427 174.162 190.004 176.168 188.804C176.219 188.773 176.271 188.743 176.323 188.713C176.589 189.187 176.844 189.668 177.091 190.152C177.151 190.273 177.151 190.273 177.211 190.394C177.514 191.022 177.806 191.655 178.072 192.295C179.277 195.238 180.062 198.336 180.409 201.47C180.419 201.563 180.419 201.563 180.428 201.657C180.452 201.953 180.48 202.249 180.503 202.545C180.51 202.64 180.51 202.64 180.515 202.734C180.531 203.029 180.548 203.325 180.562 203.62C180.565 203.716 180.565 203.716 180.568 203.812C180.574 204.109 180.567 204.552 180.567 204.552C180.011 204.884 179.454 205.221 178.91 205.578C175.977 207.504 173.487 209.794 171.303 212.36C171.239 212.436 171.239 212.436 171.176 212.513C170.617 213.196 170.077 213.895 169.567 214.614C169.394 214.859 169.224 215.107 169.058 215.356L169.051 215.244C169.016 214.698 168.969 214.152 168.908 213.607C168.413 209.194 167.077 204.951 164.994 201.076L164.797 201.178ZM193.343 183.952C190.252 184.016 187.145 184.46 184.071 185.346C183.978 185.374 183.978 185.374 183.885 185.402C182.584 185.808 181.304 186.273 180.041 186.812C179.916 186.866 179.916 186.866 179.791 186.921C178.955 187.302 178.13 187.707 177.325 188.143C178.644 190.558 179.731 193.12 180.479 195.72C180.936 197.336 181.266 198.995 181.479 200.682L181.258 200.709L181.479 200.683C181.609 201.738 181.692 202.797 181.724 203.859L181.726 203.911C181.854 203.842 181.985 203.774 182.114 203.707C184.999 202.225 188.121 201.129 191.383 200.464C193.448 200.043 195.596 199.834 197.727 199.775L197.825 199.771C197.733 194.25 196.205 188.753 193.458 183.953C193.458 183.953 193.389 183.951 193.343 183.952V183.952ZM134.363 183.952C131.616 188.752 130.111 194.196 129.997 199.722L129.996 199.771C132.094 199.836 134.198 200.024 136.265 200.427C137.335 200.636 138.387 200.9 139.434 201.199C139.532 201.228 139.532 201.228 139.63 201.258C141.836 201.94 144.001 202.807 146.054 203.889L146.095 203.911C146.099 203.77 146.104 203.629 146.11 203.489C146.263 199.856 146.996 196.202 148.317 192.767C148.92 191.202 149.643 189.693 150.447 188.231L150.495 188.143C148.716 187.176 146.821 186.372 144.977 185.733C144.883 185.701 144.883 185.701 144.79 185.67C142.053 184.789 139.257 184.243 136.414 184.027C135.734 183.979 135.055 183.961 134.368 183.949C134.368 183.949 134.366 183.947 134.363 183.952ZM163.813 176.228C161.46 177.625 159.255 179.294 157.267 181.211C156.493 181.965 155.761 182.764 155.054 183.592C154.99 183.667 154.99 183.667 154.927 183.744C154.527 184.233 154.135 184.73 153.754 185.235C153.674 185.343 153.674 185.343 153.595 185.452C153.063 186.195 152.553 186.95 152.077 187.726C154.778 189.371 157.302 191.323 159.521 193.598C159.592 193.671 159.592 193.671 159.662 193.746C159.868 193.966 160.073 194.186 160.276 194.408C161.589 195.86 162.77 197.425 163.816 199.069L163.91 199.22C166.538 195.001 170.307 191.46 173.206 189.372C173.52 189.148 173.537 189.143 173.673 189.05C174.32 188.605 174.986 188.184 175.661 187.777L175.744 187.727C174.675 185.986 173.476 184.369 172.105 182.831C172.072 182.794 172.038 182.757 172.005 182.72C171.097 181.734 170.142 180.789 169.133 179.904C168.993 179.781 168.853 179.659 168.711 179.54C167.261 178.319 165.682 177.218 164.008 176.229C164.008 176.229 163.968 176.137 163.813 176.228V176.228ZM146.75 171.575C142.011 174.325 137.97 178.198 135.051 182.81C135.051 182.81 137.274 182.923 138.799 183.131C139.863 183.275 140.921 183.477 141.975 183.707C142.074 183.729 142.073 183.729 142.172 183.752C145.187 184.48 148.047 185.558 151.071 187.155C151.071 187.155 151.261 186.856 151.386 186.655C151.462 186.536 151.462 186.536 151.538 186.418C151.701 186.169 151.864 185.92 152.031 185.674C154.33 182.316 157.311 179.372 160.075 177.326C160.935 176.689 161.826 176.093 162.742 175.537L162.752 175.53C157.394 172.686 150.875 171.578 146.838 171.539C146.838 171.539 146.787 171.554 146.75 171.575V171.575ZM180.982 171.539C178.161 171.567 175.385 171.921 172.574 172.63C169.958 173.301 167.452 174.28 165.076 175.526C165.076 175.526 165.813 175.983 166.473 176.427C168.856 178.029 171.055 179.961 172.921 182.023C174.358 183.611 175.601 185.334 176.743 187.151C176.743 187.151 178.305 186.323 179.552 185.782C183.59 184.056 187.979 182.972 192.738 182.827L192.779 182.826C189.886 178.213 185.817 174.328 181.071 171.575C181.071 171.575 181.023 171.539 180.982 171.539V171.539ZM163.78 167C158.618 167.029 153.494 168.216 148.894 170.437L148.826 170.471C148.931 170.476 149.035 170.483 149.14 170.49C153.215 170.782 157.216 171.813 160.995 173.416C161.081 173.452 161.081 173.452 161.167 173.49C162.092 173.904 162.993 174.362 163.889 174.845C163.889 174.845 164.965 174.286 165.659 173.95C169.747 171.974 174.229 170.76 178.908 170.475L178.994 170.471C174.401 168.231 169.28 167.048 164.169 167.001C164.039 167 163.91 167 163.78 167V167Z" fill="white"/>
</g>
</g>
<defs>
<clipPath id="clip0_227_58">
<rect width="600" height="400" fill="white"/>
</clipPath>
<clipPath id="clip1_227_58">
<rect width="340" height="67" fill="white" transform="translate(130 167)"/>
</clipPath>
</defs>
</svg>
