<svg width="600" height="400" viewBox="0 0 600 400" fill="none" xmlns="http://www.w3.org/2000/svg">
<rect width="600" height="400" fill="white"/>
<path d="M149.904 229.473C158.46 229.473 163.332 226.205 163.332 219.551V218.481C163.332 217.649 162.857 217.055 161.906 217.055H157.747C157.034 217.055 156.44 217.59 156.44 218.422V219.194C156.44 222.284 154.716 223.829 149.904 223.829C145.21 223.829 143.13 221.809 143.13 217.768V209.984C143.13 205.944 145.21 203.924 149.904 203.924C154.716 203.924 156.44 205.469 156.44 208.558V209.153C156.44 209.984 157.034 210.519 157.747 210.519H161.906C162.857 210.519 163.332 209.925 163.332 209.093V208.202C163.332 201.547 158.46 198.279 149.904 198.279C140.991 198.279 136 202.736 136 210.341V217.412C136 225.017 140.991 229.473 149.904 229.473Z" fill="#1F2B4A"/>
<path d="M182.322 229.473C191.235 229.473 196.285 225.136 196.285 217.293V210.46C196.285 202.617 191.235 198.279 182.322 198.279C173.41 198.279 168.359 202.617 168.359 210.46V217.293C168.359 225.136 173.41 229.473 182.322 229.473ZM182.322 223.829C177.866 223.829 175.489 221.809 175.489 218.006V209.747C175.489 205.944 177.866 203.924 182.322 203.924C186.779 203.924 189.155 205.944 189.155 209.747V218.006C189.155 221.809 186.779 223.829 182.322 223.829Z" fill="#1F2B4A"/>
<path d="M213.672 229.473C217.296 229.473 220.089 228.344 221.931 226.205C221.931 228.047 223.119 229.355 225.02 229.355H225.258C227.159 229.355 228.348 228.047 228.348 226.146V189.485C228.348 187.703 227.219 186.574 225.436 186.574H224.129C222.347 186.574 221.218 187.703 221.218 189.485V200.894C219.435 199.17 216.88 198.279 213.612 198.279C206.066 198.279 201.016 203.151 201.016 210.697V217.055C201.016 224.601 206.066 229.473 213.672 229.473ZM214.682 223.829C210.404 223.829 208.146 221.63 208.146 217.709V210.044C208.146 206.122 210.404 203.924 214.682 203.924C218.96 203.924 221.218 206.122 221.218 210.044V217.709C221.218 221.63 218.96 223.829 214.682 223.829Z" fill="#1F2B4A"/>
<path d="M248.17 229.473C256.845 229.473 260.766 226.859 260.766 221.155V220.917C260.766 220.323 260.41 219.967 259.816 219.967H254.943C254.23 219.967 253.993 220.204 253.993 220.858V221.036C253.993 222.997 252.151 223.948 248.229 223.948C243.179 223.948 241.04 222.403 241.04 218.719V216.402H258.865C260.529 216.402 261.301 215.57 261.301 213.906V209.331C261.301 201.963 256.785 198.279 247.754 198.279C238.663 198.279 233.969 202.201 233.969 209.806V218.006C233.969 225.552 238.782 229.473 248.17 229.473ZM247.695 203.686C252.448 203.686 254.468 205.231 254.468 208.856V210.876H241.04V208.856C241.04 205.231 243.001 203.686 247.695 203.686Z" fill="#1F2B4A"/>
<path d="M346.048 228.82H349.019C350.267 228.82 351.098 227.988 351.098 226.74V189.485C351.098 187.703 349.969 186.574 348.187 186.574H346.88C345.097 186.574 343.968 187.703 343.968 189.485V226.74C343.968 227.988 344.8 228.82 346.048 228.82ZM369.458 228.463C371.063 227.156 371.36 225.017 369.755 223.294L360.724 213.431L369.577 202.973C370.587 201.785 370.706 201.25 370.706 200.537C370.706 199.468 370.053 198.933 368.805 198.933H366.012C364.527 198.933 363.873 199.468 362.863 200.715L354.842 210.579C353.95 211.708 353.653 212.658 353.653 213.668C353.653 214.738 353.95 215.689 354.842 216.758L364.348 227.869C365.715 229.414 367.973 229.652 369.458 228.463Z" fill="#1F2B4A"/>
<path d="M386.369 195.249H389.399C391.301 195.249 392.37 194.179 392.37 192.278V190.02C392.37 188.119 391.301 187.049 389.399 187.049H386.369C384.468 187.049 383.398 188.119 383.398 190.02V192.278C383.398 194.179 384.468 195.249 386.369 195.249ZM377.159 228.82H400.451C401.402 228.82 401.996 228.226 401.996 227.275V224.601C401.996 223.65 401.402 223.056 400.451 223.056H392.37V201.428C392.37 199.646 391.538 198.933 389.875 198.933H377.754C376.803 198.933 376.209 199.527 376.209 200.478V203.151C376.209 204.102 376.803 204.696 377.754 204.696H385.24V223.056H377.159C376.209 223.056 375.615 223.65 375.615 224.601V227.275C375.615 228.226 376.209 228.82 377.159 228.82Z" fill="#1F2B4A"/>
<path d="M417.302 229.473C420.927 229.473 423.719 228.344 425.561 226.205C425.561 228.047 426.75 229.355 428.651 229.355H428.889C430.79 229.355 431.979 228.047 431.979 226.146V189.485C431.979 187.703 430.85 186.574 429.067 186.574H427.76C425.977 186.574 424.848 187.703 424.848 189.485V200.894C423.066 199.17 420.511 198.279 417.243 198.279C409.697 198.279 404.646 203.151 404.646 210.697V217.055C404.646 224.601 409.697 229.473 417.302 229.473ZM418.313 223.829C414.034 223.829 411.777 221.63 411.777 217.709V210.044C411.777 206.122 414.034 203.924 418.313 203.924C422.591 203.924 424.848 206.122 424.848 210.044V217.709C424.848 221.63 422.591 223.829 418.313 223.829Z" fill="#1F2B4A"/>
<path d="M451.385 229.473C460.179 229.473 464.694 226.265 464.694 219.967V219.313C464.694 213.906 462.258 211.886 455.782 211.173L447.939 210.282C445.562 209.984 444.671 209.212 444.671 207.608V207.014C444.671 204.637 446.513 203.746 451.147 203.746C455.663 203.746 457.386 204.577 457.386 206.895V207.192C457.386 207.845 457.802 208.202 458.455 208.202H462.971C463.625 208.202 464.1 207.727 464.1 207.014V206.716C464.1 201.012 459.941 198.279 451.147 198.279C442.353 198.279 437.956 201.428 437.956 207.786V208.261C437.956 213.728 440.452 215.748 447.047 216.52L454.831 217.412C457.089 217.649 457.98 218.303 457.98 219.967V220.68C457.98 222.937 455.841 224.007 451.385 224.007C446.572 224.007 444.671 223.116 444.671 220.798V220.442C444.671 219.788 444.314 219.432 443.661 219.432H439.145C438.432 219.432 437.956 219.848 437.956 220.561V220.977C437.956 226.74 442.235 229.473 451.385 229.473Z" fill="#1F2B4A"/>
<rect x="337.364" y="212.402" width="16.418" height="69.5809" rx="8.20899" transform="rotate(90 337.364 212.402)" fill="url(#paint0_linear_1_14)"/>
<path d="M312.062 170.374C312.88 165.915 317.158 162.963 321.617 163.781C326.077 164.6 329.028 168.878 328.21 173.337L315.903 240.406C315.085 244.866 310.807 247.817 306.347 246.999C301.888 246.181 298.936 241.903 299.755 237.443L312.062 170.374Z" fill="url(#paint1_linear_1_14)"/>
<path d="M313.558 165.846C316.736 162.316 322.173 162.031 325.703 165.209C329.233 168.387 329.518 173.825 326.34 177.354L282.396 226.158C279.218 229.688 273.781 229.973 270.251 226.795C266.721 223.617 266.436 218.179 269.615 214.649L313.558 165.846Z" fill="url(#paint2_linear_1_14)"/>
<defs>
<linearGradient id="paint0_linear_1_14" x1="345.573" y1="212.402" x2="345.573" y2="281.983" gradientUnits="userSpaceOnUse">
<stop stop-color="#82C5F4"/>
<stop offset="1" stop-color="#3885EE"/>
</linearGradient>
<linearGradient id="paint1_linear_1_14" x1="313.982" y1="163.645" x2="313.982" y2="247.135" gradientUnits="userSpaceOnUse">
<stop stop-color="#82C5F4"/>
<stop offset="1" stop-color="#3885EE"/>
</linearGradient>
<linearGradient id="paint2_linear_1_14" x1="297.977" y1="163" x2="297.977" y2="229.004" gradientUnits="userSpaceOnUse">
<stop stop-color="#3885EE"/>
<stop offset="1" stop-color="#82C5F4"/>
</linearGradient>
</defs>
</svg>
