<svg width="600" height="400" viewBox="0 0 600 400" fill="none" xmlns="http://www.w3.org/2000/svg">
<g clip-path="url(#clip0_215_810)">
<rect width="600" height="400" fill="white"/>
<rect width="600" height="400" fill="#0F172A"/>
<path d="M268.358 192.962C264.89 192.962 261.983 195.461 261.983 200C261.983 204.539 264.941 207.089 268.409 207.089C271.877 207.089 273.611 204.794 274.172 202.856L280.139 204.845C279.017 209.027 275.09 213.311 268.409 213.311C261.014 213.311 255.2 207.701 255.2 200C255.2 192.248 260.912 186.689 268.205 186.689C275.039 186.689 278.915 190.922 279.986 195.155L273.917 197.195C273.305 195.104 271.724 192.962 268.358 192.962Z" fill="#F8FAFC"/>
<path d="M294.868 207.14C298.183 207.14 301.243 204.743 301.243 200C301.243 195.257 298.183 192.86 294.868 192.86C291.553 192.86 288.493 195.257 288.493 200C288.493 204.692 291.553 207.14 294.868 207.14ZM294.868 186.689C302.365 186.689 308.026 192.248 308.026 200C308.026 207.701 302.365 213.311 294.868 213.311C287.371 213.311 281.71 207.701 281.71 200C281.71 192.248 287.371 186.689 294.868 186.689Z" fill="#F8FAFC"/>
<path d="M326.131 187.352V194.186C325.366 194.033 324.703 193.982 324.091 193.982C320.623 193.982 317.614 195.665 317.614 201.071V212.546H310.831V187.454H317.41V191.177C318.94 187.862 322.408 187.25 324.55 187.25C325.111 187.25 325.621 187.301 326.131 187.352Z" fill="#F8FAFC"/>
<path d="M340.394 207.14C343.709 207.14 346.769 204.743 346.769 200C346.769 195.257 343.709 192.86 340.394 192.86C337.079 192.86 334.019 195.257 334.019 200C334.019 204.692 337.079 207.14 340.394 207.14ZM340.394 186.689C347.891 186.689 353.552 192.248 353.552 200C353.552 207.701 347.891 213.311 340.394 213.311C332.897 213.311 327.236 207.701 327.236 200C327.236 192.248 332.897 186.689 340.394 186.689Z" fill="#F8FAFC"/>
<path d="M368.648 207.14C371.963 207.14 375.023 204.743 375.023 200C375.023 195.257 371.963 192.86 368.648 192.86C365.333 192.86 362.273 195.257 362.273 200C362.273 204.692 365.333 207.14 368.648 207.14ZM368.648 186.689C376.145 186.689 381.806 192.248 381.806 200C381.806 207.701 376.145 213.311 368.648 213.311C361.151 213.311 355.49 207.701 355.49 200C355.49 192.248 361.151 186.689 368.648 186.689Z" fill="#F8FAFC"/>
<path d="M392.413 212.546H385.63V187.454H392.107V190.514C393.484 188.066 396.697 186.74 399.451 186.74C402.868 186.74 405.623 188.219 406.898 190.922C408.887 187.862 411.539 186.74 414.854 186.74C419.495 186.74 423.932 189.545 423.932 196.277V212.546H417.353V197.654C417.353 194.951 416.027 192.911 412.916 192.911C410.009 192.911 408.275 195.155 408.275 197.858V212.546H401.542V197.654C401.542 194.951 400.165 192.911 397.105 192.911C394.147 192.911 392.413 195.104 392.413 197.858V212.546Z" fill="#F8FAFC"/>
<path d="M193.862 209.098C193.862 207.082 193.172 205.019 191.426 204.011C186.529 201.184 180.268 202.862 177.441 207.758C174.614 212.655 176.292 218.916 181.189 221.743C184.943 223.911 189.501 223.43 192.697 220.879C193.678 220.096 195.04 219.811 196.127 220.438C197.214 221.066 197.648 222.389 197.46 223.63C196.85 227.672 198.712 231.86 202.467 234.028C207.363 236.855 213.624 235.177 216.451 230.281C219.278 225.384 217.6 219.123 212.704 216.296C210.958 215.288 208.827 215.722 207.082 216.73L205.532 217.624C200.345 220.619 193.862 216.876 193.862 210.886V209.098Z" fill="url(#paint0_linear_215_810)"/>
<path d="M197.655 176.37C197.842 177.611 197.408 178.934 196.321 179.562C195.235 180.189 193.872 179.903 192.891 179.121C189.695 176.57 185.138 176.089 181.383 178.257C176.486 181.084 174.809 187.345 177.636 192.241C180.463 197.138 186.724 198.816 191.62 195.989C193.203 195.075 193.861 193.22 193.861 191.392V189.206C193.861 183.217 200.345 179.473 205.532 182.468L206.784 183.191C208.683 184.287 210.999 184.8 212.898 183.704C217.795 180.877 219.472 174.616 216.645 169.719C213.818 164.823 207.557 163.145 202.661 165.972C198.906 168.14 197.044 172.327 197.655 176.37Z" fill="url(#paint1_linear_215_810)"/>
<path d="M219.572 187.761C219.572 189.776 221.013 191.405 222.759 192.413L224.309 193.308C229.496 196.303 229.496 203.789 224.309 206.784L222.758 207.679C221.013 208.687 219.572 210.315 219.572 212.33C219.572 217.984 224.155 222.568 229.809 222.568C235.463 222.568 240.047 217.984 240.047 212.33C240.047 207.995 237.351 204.288 233.545 202.796C232.376 202.338 231.447 201.301 231.447 200.046C231.447 198.791 232.376 197.753 233.545 197.295C237.351 195.803 240.047 192.096 240.047 187.761C240.047 182.107 235.463 177.523 229.809 177.523C224.155 177.523 219.572 182.107 219.572 187.761Z" fill="url(#paint2_linear_215_810)"/>
</g>
<defs>
<linearGradient id="paint0_linear_215_810" x1="216.451" y1="230.281" x2="177.441" y2="207.758" gradientUnits="userSpaceOnUse">
<stop stop-color="#FF7A22"/>
<stop offset="1" stop-color="#DE40E3"/>
</linearGradient>
<linearGradient id="paint1_linear_215_810" x1="216.645" y1="169.719" x2="177.636" y2="192.241" gradientUnits="userSpaceOnUse">
<stop stop-color="#24DCBD"/>
<stop offset="1" stop-color="#DE40E3"/>
</linearGradient>
<linearGradient id="paint2_linear_215_810" x1="229.809" y1="177.523" x2="229.809" y2="222.568" gradientUnits="userSpaceOnUse">
<stop stop-color="#24DCBD"/>
<stop offset="1" stop-color="#FF7A22"/>
</linearGradient>
<clipPath id="clip0_215_810">
<rect width="600" height="400" fill="white"/>
</clipPath>
</defs>
</svg>
