<svg width="600" height="400" viewBox="0 0 600 400" fill="none" xmlns="http://www.w3.org/2000/svg">
<rect width="600" height="400" fill="white"/>
<path d="M209.893 200.62C209.893 205.693 213.975 209.723 219.048 209.723C221.304 209.723 223.485 208.938 225.209 207.264C225.387 207.086 225.437 206.758 225.237 206.58L223.663 204.956C223.51 204.803 223.231 204.778 223.028 204.956C221.963 205.818 220.67 206.402 219.149 206.402C215.903 206.402 213.469 203.712 213.469 200.542C213.469 197.349 215.878 194.634 219.124 194.634C220.545 194.634 221.963 195.19 223.028 196.131C223.231 196.334 223.485 196.334 223.663 196.131L225.209 194.531C225.412 194.328 225.412 194.025 225.184 193.822C223.46 192.276 221.61 191.464 219.048 191.464C213.975 191.464 209.893 195.547 209.893 200.62Z" fill="#231F20"/>
<path d="M231.036 208.988C231.036 209.241 231.239 209.47 231.517 209.47H233.85C234.103 209.47 234.331 209.241 234.331 208.988V202.522H237.146L240.52 209.241C240.57 209.344 240.698 209.47 240.926 209.47H243.59C244.021 209.47 244.197 209.063 244.021 208.735L240.545 202.294C242.753 201.407 244.299 199.504 244.299 197.171C244.299 194.153 241.813 191.717 238.77 191.717H231.517C231.239 191.717 231.036 191.945 231.036 192.201V208.988ZM234.356 199.807V194.759H238.492C239.836 194.759 241.004 195.878 241.004 197.221C241.004 198.642 239.836 199.807 238.492 199.807H234.356Z" fill="#231F20"/>
<path d="M248.552 209.469H250.757C251.163 209.469 251.392 209.216 251.494 208.963L252.738 206.224H260.319L261.563 208.963C261.741 209.317 261.919 209.469 262.297 209.469H264.505C264.883 209.469 265.086 209.141 264.936 208.81L257.124 191.742C257.049 191.592 256.946 191.464 256.693 191.464H256.44C256.211 191.464 256.084 191.592 256.008 191.742L248.121 208.81C247.968 209.141 248.171 209.469 248.552 209.469ZM253.978 203.409L256.465 197.83H256.54L259.076 203.409H253.978Z" fill="#231F20"/>
<path d="M269.745 208.988C269.745 209.241 269.948 209.47 270.229 209.47H272.563C272.816 209.47 273.044 209.241 273.044 208.988V202.572H279.307C279.56 202.572 279.788 202.344 279.788 202.091V200.01C279.788 199.757 279.56 199.529 279.307 199.529H273.044V194.759H280.55C280.828 194.759 281.031 194.531 281.031 194.278V192.201C281.031 191.945 280.828 191.717 280.55 191.717H270.229C269.948 191.717 269.745 191.945 269.745 192.201V208.988Z" fill="#231F20"/>
<path d="M288.936 208.988C288.936 209.241 289.164 209.47 289.42 209.47H291.778C292.031 209.47 292.259 209.241 292.259 208.988V194.759H296.139C296.417 194.759 296.62 194.531 296.62 194.278V192.201C296.62 191.945 296.417 191.717 296.139 191.717H285.056C284.778 191.717 284.575 191.945 284.575 192.201V194.278C284.575 194.531 284.778 194.759 285.056 194.759H288.936V208.988Z" fill="#231F20"/>
<path d="M302.289 209.141C302.289 209.317 302.442 209.47 302.62 209.47H303.152C303.355 209.47 303.482 209.317 303.482 209.141V200.898H314.869V209.141C314.869 209.317 315.022 209.47 315.2 209.47H315.731C315.934 209.47 316.062 209.317 316.062 209.141V192.048C316.062 191.87 315.934 191.717 315.731 191.717H315.2C315.022 191.717 314.869 191.87 314.869 192.048V199.832H303.482V192.048C303.482 191.87 303.355 191.717 303.152 191.717H302.62C302.442 191.717 302.289 191.87 302.289 192.048V209.141Z" fill="#231F20"/>
<path d="M322.673 200.62C322.673 205.718 326.731 209.723 331.804 209.723C336.899 209.723 340.957 205.718 340.957 200.62C340.957 195.547 336.899 191.464 331.804 191.464C326.731 191.464 322.673 195.547 322.673 200.62ZM323.788 200.62C323.788 196.181 327.365 192.579 331.804 192.579C336.24 192.579 339.842 196.181 339.842 200.62C339.842 205.058 336.24 208.607 331.804 208.607C327.365 208.607 323.788 205.058 323.788 200.62Z" fill="#231F20"/>
<path d="M346.581 207.645C346.912 207.948 348.939 209.723 351.957 209.723C354.874 209.723 357.486 207.745 357.486 205.209C357.486 202.269 355.28 201.051 351.804 199.857C349.242 199.02 347.596 198.083 347.596 195.928C347.596 194.481 348.761 192.554 351.882 192.554C353.834 192.554 355.534 193.694 355.609 193.747C355.862 193.897 356.015 193.822 356.168 193.619C356.218 193.519 356.293 193.391 356.371 193.291C356.549 193.01 356.371 192.832 356.268 192.757C356.268 192.757 354.418 191.464 351.907 191.464C347.949 191.464 346.428 194.05 346.428 195.953C346.428 198.87 348.38 199.91 351.323 200.948C354.391 201.988 356.243 203.003 356.243 205.261C356.243 207.111 354.29 208.657 351.982 208.657C349.42 208.657 347.543 206.933 347.29 206.705C347.087 206.527 346.912 206.605 346.734 206.808L346.506 207.111C346.303 207.389 346.428 207.517 346.581 207.645Z" fill="#231F20"/>
<path d="M364.122 209.141C364.122 209.317 364.275 209.47 364.45 209.47H364.909C365.162 209.47 365.315 209.317 365.315 209.141V203.156H369.929C373.05 203.156 375.636 200.57 375.636 197.399C375.636 194.278 373.05 191.717 369.904 191.717H364.45C364.275 191.717 364.122 191.87 364.122 192.048V209.141ZM365.315 201.988V192.91H369.829C372.338 192.91 374.443 194.887 374.443 197.374C374.443 199.935 372.338 201.988 369.854 201.988H365.315Z" fill="#231F20"/>
<path d="M381.688 209.141C381.688 209.317 381.841 209.47 382.019 209.47H382.551C382.729 209.47 382.907 209.344 382.907 209.141V192.048C382.907 191.87 382.754 191.717 382.576 191.717H382.019C381.841 191.717 381.688 191.87 381.688 192.048V209.141Z" fill="#231F20"/>
<path d="M393.475 209.141C393.475 209.317 393.626 209.47 393.804 209.47H394.26C394.516 209.47 394.666 209.317 394.666 209.141V192.807H399.536C399.739 192.807 399.867 192.657 399.867 192.479V192.048C399.867 191.87 399.739 191.717 399.536 191.717H388.63C388.452 191.717 388.302 191.845 388.302 192.048V192.429C388.302 192.657 388.377 192.807 388.63 192.807H393.475V209.141Z" fill="#231F20"/>
<path d="M401.928 209.469H402.637C402.815 209.469 402.943 209.344 402.993 209.241L405.023 204.574H414.71L416.763 209.241C416.816 209.344 416.941 209.469 417.119 209.469H417.778C418.056 209.469 418.056 209.317 418.006 209.166L410.271 191.514C410.196 191.364 410.068 191.336 409.943 191.336H409.865C409.74 191.336 409.612 191.414 409.562 191.514L401.75 209.166C401.675 209.369 401.75 209.469 401.928 209.469ZM405.479 203.587L409.89 193.366H409.943L414.279 203.587H405.479Z" fill="#231F20"/>
<path d="M423.349 209.141C423.349 209.317 423.502 209.47 423.68 209.47H432.633C432.811 209.47 432.961 209.369 432.961 209.191V208.735C432.961 208.557 432.936 208.404 432.633 208.404H424.542V192.048C424.542 191.87 424.389 191.717 424.239 191.717H423.68C423.502 191.717 423.349 191.87 423.349 192.048V209.141Z" fill="#231F20"/>
<path d="M438.253 209.141C438.253 209.317 438.406 209.47 438.584 209.47H439.116C439.294 209.47 439.472 209.344 439.472 209.141V192.048C439.472 191.87 439.319 191.717 439.143 191.717H438.584C438.406 191.717 438.253 191.87 438.253 192.048V209.141Z" fill="#231F20"/>
<path d="M450.04 209.141C450.04 209.317 450.191 209.47 450.369 209.47H450.825C451.081 209.47 451.231 209.317 451.231 209.141V192.807H456.101C456.304 192.807 456.432 192.657 456.432 192.479V192.048C456.432 191.87 456.304 191.717 456.101 191.717H445.195C445.017 191.717 444.867 191.845 444.867 192.048V192.429C444.867 192.657 444.942 192.807 445.195 192.807H450.04V209.141Z" fill="#231F20"/>
<path d="M466.667 209.141C466.667 209.547 467.198 209.47 467.529 209.47C467.704 209.47 467.857 209.317 467.857 209.141V200.823L474.451 192.098C474.604 191.895 474.501 191.717 474.248 191.717H473.486C473.361 191.717 473.233 191.767 473.158 191.87L467.273 199.757L461.491 191.87C461.416 191.767 461.288 191.717 461.163 191.717H460.4C460.147 191.717 460.047 191.895 460.197 192.098L466.667 200.848V209.141Z" fill="#231F20"/>
<path d="M147.843 195.163C147.843 200.414 152.137 204.686 157.416 204.686C159.899 204.686 162.133 203.796 163.868 202.108C164.016 201.96 164.099 201.752 164.094 201.543C164.085 201.365 164.013 201.206 163.893 201.101L162.686 199.921C162.442 199.718 162.083 199.718 161.794 199.944C160.673 200.809 159.374 201.61 157.469 201.61C153.987 201.61 151.15 198.695 151.15 195.11C151.15 191.514 153.973 188.585 157.444 188.585C158.954 188.585 160.575 189.216 161.774 190.259C161.933 190.418 162.099 190.499 162.272 190.499C162.394 190.499 162.578 190.454 162.728 190.257L163.871 189.094C164.016 188.949 164.091 188.76 164.085 188.568C164.08 188.374 163.991 188.19 163.832 188.051C161.869 186.346 159.888 185.587 157.416 185.587C152.137 185.587 147.843 189.884 147.843 195.163Z" fill="#231F20"/>
<path d="M190.858 199.73L156.74 233.847L122.622 199.73L156.74 165.609L190.858 199.73ZM157.196 161.176C156.96 160.942 156.523 160.94 156.284 161.179L118.186 199.271C118.064 199.396 118 199.557 118 199.73C118 199.902 118.064 200.063 118.189 200.188L156.284 238.281C156.404 238.4 156.57 238.47 156.74 238.47C156.912 238.47 157.079 238.4 157.199 238.281L195.291 200.188C195.413 200.066 195.48 199.902 195.48 199.73C195.48 199.557 195.413 199.393 195.291 199.271L157.196 161.176Z" fill="#231F20"/>
<path d="M150.126 209.614V211.775C150.126 212.134 150.396 212.426 150.733 212.426H162.748C163.084 212.426 163.354 212.134 163.354 211.775V209.614C163.354 209.255 163.084 208.966 162.748 208.966H150.733C150.396 208.966 150.126 209.255 150.126 209.614Z" fill="#231F20"/>
</svg>
