<svg width="600" height="400" viewBox="0 0 600 400" fill="none" xmlns="http://www.w3.org/2000/svg">
<g clip-path="url(#clip0_1_8)">
<rect width="600" height="400" fill="white"/>
<rect width="600" height="400" fill="white"/>
<g opacity="0.25">
<path d="M258.068 131.249C258.902 131.828 260.139 132.67 261.618 133.819C263.125 134.947 264.891 136.372 266.887 138.033C268.828 139.738 271.106 141.599 273.352 143.815C274.499 144.906 275.695 146.042 276.931 147.22C278.106 148.444 279.32 149.71 280.567 151.012C283.108 153.586 285.545 156.476 288.095 159.448C289.356 160.944 290.55 162.528 291.808 164.096C293.04 165.682 294.362 167.238 295.485 168.946C296.649 170.626 297.823 172.319 299.002 174.02C299.585 174.873 300.195 175.714 300.759 176.584L302.4 179.226C303.464 181.008 304.528 182.789 305.587 184.563C306.663 186.328 307.541 188.199 308.519 189.993C309.483 191.795 310.397 193.606 311.289 195.399C312.086 197.246 312.874 199.068 313.648 200.862C314.41 202.66 315.193 204.411 315.885 206.161C316.486 207.955 317.074 209.711 317.644 211.421C318.207 213.132 318.752 214.798 319.279 216.407C319.838 218.003 320.114 219.663 320.502 221.198C321.243 224.286 321.849 227.141 322.387 229.666C322.762 232.257 323 234.544 323.221 236.413C323.452 238.279 323.563 239.767 323.669 240.77C323.767 241.775 323.817 242.312 323.817 242.312L323.453 242.439C323.453 242.439 323.007 240.381 322.23 236.783C321.838 234.984 321.364 232.8 320.819 230.295C320.083 227.869 319.252 225.128 318.345 222.14C317.536 219.109 316.244 216.012 314.968 212.695C314.324 211.041 313.661 209.341 312.984 207.603C312.2 205.919 311.397 204.199 310.581 202.449C309.761 200.702 308.928 198.925 308.084 197.128C307.138 195.385 306.183 193.62 305.219 191.84C304.23 190.075 303.34 188.236 302.252 186.502C301.18 184.756 300.105 183.005 299.03 181.254L297.432 178.619C296.884 177.749 296.291 176.911 295.723 176.057C294.577 174.358 293.435 172.667 292.302 170.988C291.2 169.289 289.925 167.719 288.766 166.106C287.57 164.515 286.439 162.91 285.237 161.391C282.781 158.391 280.534 155.401 278.151 152.741C276.988 151.392 275.855 150.081 274.759 148.811C273.619 147.576 272.519 146.381 271.463 145.231C269.382 142.913 267.312 140.911 265.552 139.078C263.723 137.301 262.151 135.73 260.793 134.49C258.118 131.975 256.485 130.625 256.485 130.625L256.782 130.373C256.782 130.373 257.228 130.677 258.068 131.249ZM222.169 127.185C223.969 129.86 232.711 133.352 232.711 133.352C228.188 134.482 214.345 124.833 214.345 124.833C214.345 124.833 208.767 134.003 216.942 149.526C225.12 165.049 256.049 173.368 256.049 173.368C252.429 174.716 230.603 167.825 230.603 167.825C242.272 199.721 271.761 208.685 271.761 208.685L281.793 211.193C281.793 211.193 270.868 209.685 270.561 210.451C269.137 213.977 267.135 221.738 269.837 229.119C274.324 241.388 296.504 248.445 296.504 248.445C291.328 247.486 284.629 249.696 282.743 250.377C287.076 249.239 305.081 253.892 305.081 253.892C302.56 253.211 295.529 254.386 293.102 254.829C296.748 254.726 309.255 258.198 314.459 260.733C320.214 263.536 321.133 264.677 322.534 272.042C323.936 279.407 314.474 303.823 314.474 303.823C314.115 305.889 322.558 318.285 322.558 318.285C323.889 315.659 330.932 270.904 330.2 266.496C329.471 262.089 330.574 259.964 331.83 254.966C333.087 249.968 345.738 240.053 345.738 240.053C343.931 239.613 337.575 243.843 337.575 243.843C339.147 241.634 343.218 228.507 343.229 224.043C343.242 219.577 349.305 203.625 349.305 203.625C345.617 205.757 340.688 213.806 340.688 213.806C349.462 193.131 342.436 176.014 342.436 176.014C342.637 179.056 336.9 193.332 336.9 193.332C336.9 193.332 337.917 174.91 334.244 159.57C330.571 144.23 314.155 130.126 314.155 130.126C318.993 139.405 313.594 147.541 313.594 147.541C313.594 147.541 314.974 119.434 279.87 109.256C244.766 99.0785 200.004 108.042 200.004 108.042C216.26 108.866 220.367 124.511 222.169 127.185Z" fill="#D1C2B8"/>
</g>
<path d="M355.858 206.43V166.762H361.986V164.932H340.552V166.762H346.712V206.43H340.552V208.26H376.406V194.94H374.777C374.287 203.205 374.563 206.422 355.858 206.43Z" fill="#998C84"/>
<path d="M204.973 164.932H169.12V166.762H175.214V206.431H169.12V208.261H190.983V206.431H184.36V186.995C193.865 185.987 193.312 194.323 193.312 194.323H195.483V177.637H193.312C193.312 177.637 193.865 185.973 184.36 184.965V166.762C203.133 166.762 202.855 169.976 203.345 178.252H204.973V164.932Z" fill="#998C84"/>
<path d="M429.371 194.94C428.883 203.195 429.154 206.414 410.521 206.43V186.995C420.026 185.988 419.473 194.323 419.473 194.323H421.645V177.637H419.473C419.473 177.637 420.026 185.973 410.521 184.965V166.763C429.154 166.779 428.883 169.997 429.371 178.252H431V164.932H395.147V166.762H401.375V206.431H395.147V208.261H431V194.94H429.371Z" fill="#998C84"/>
<path d="M298.204 206.571V186.833C298.685 186.831 299.198 186.822 299.737 186.804C304.597 186.703 312.423 186.822 312.423 196.512C312.423 207.443 306.859 206.574 298.204 206.571ZM298.204 167.076C305.435 167.05 310.972 165.824 310.972 175.88C310.972 185.919 304.411 185.068 298.204 185.046V167.076ZM308.199 185.801C314.409 184.43 320.346 181.37 320.346 174.805C320.346 164.335 307.67 164.932 298.204 164.932H283.206V166.762H289.058V206.43H283.206V208.26H298.204C310.902 208.26 321.794 208.26 321.811 196.443C321.88 189.164 314.793 186.716 308.199 185.801Z" fill="#998C84"/>
<path d="M227.759 195.047L235.39 175.586L243.408 194.98C232.939 193.577 227.986 194.98 227.759 195.047ZM268.737 183.574C266.03 178.61 260.078 176.61 254.848 179.487L254.851 179.493C254.186 179.88 253.726 180.585 253.699 181.408C253.654 182.821 254.664 183.752 255.947 183.793C256.467 183.81 256.947 183.632 257.342 183.336C258.447 182.621 260.358 180.295 263.779 181.511C263.786 181.514 263.797 181.518 263.818 181.527C263.85 181.538 263.885 181.556 263.918 181.568C264.329 181.74 265.511 182.327 266.499 183.573C266.709 183.86 266.92 184.148 267.095 184.469C269.307 188.527 267.811 193.609 263.754 195.821C262.436 196.539 261.547 196.842 258.694 196.842C257.801 196.842 255.545 196.57 252.747 196.199L239.934 164H237.739L221.103 206.431H215.738V208.261H220.385L220.381 208.269H222.574L222.577 208.261H229.533V206.431H223.295L226.523 198.198C226.644 197.903 227.134 196.928 228.398 196.663C230.627 196.22 235.606 195.664 244.184 196.858L248.142 206.431H241.851V208.261H248.898L248.9 208.264L254.206 208.261H262.334V206.431H256.819L253.516 198.131C255.984 198.472 257.924 198.712 258.677 198.712C261.333 198.714 263.041 198.339 264.65 197.463C269.614 194.756 271.444 188.538 268.737 183.574Z" fill="#998C84"/>
<path d="M176.972 228.853C177.666 229.039 178.208 229.395 178.597 229.886C178.987 230.393 179.19 231.037 179.19 231.798C179.19 232.831 178.8 233.61 178.039 234.168C177.26 234.727 176.126 234.998 174.653 234.998H169V223.149H174.315C175.669 223.149 176.719 223.42 177.463 223.961C178.191 224.503 178.564 225.248 178.564 226.213C178.564 226.839 178.428 227.364 178.14 227.821C177.836 228.278 177.463 228.616 176.972 228.853ZM170.693 224.52V228.312H174.163C175.026 228.312 175.703 228.142 176.177 227.821C176.634 227.499 176.871 227.042 176.871 226.416C176.871 225.789 176.634 225.316 176.177 224.994C175.703 224.672 175.026 224.52 174.163 224.52H170.693ZM174.586 233.626C175.551 233.626 176.262 233.474 176.752 233.153C177.243 232.831 177.48 232.34 177.48 231.663C177.48 230.343 176.515 229.683 174.586 229.683H170.693V233.626H174.586Z" fill="#998C84"/>
<path d="M200.218 232.098H193.921L192.618 235.061H190.874L196.24 223.212H197.916L203.299 235.061H201.521L200.218 232.098ZM199.626 230.744L197.07 224.938L194.514 230.744H199.626Z" fill="#998C84"/>
<path d="M223.902 228.916C224.596 229.102 225.138 229.458 225.527 229.949C225.916 230.457 226.12 231.1 226.12 231.861C226.12 232.894 225.73 233.673 224.969 234.231C224.19 234.79 223.056 235.061 221.583 235.061H215.93V223.212H221.245C222.599 223.212 223.648 223.483 224.393 224.024C225.121 224.566 225.493 225.311 225.493 226.276C225.493 226.902 225.358 227.427 225.07 227.884C224.765 228.341 224.393 228.679 223.902 228.916ZM217.622 224.583V228.375H221.092C221.956 228.375 222.633 228.205 223.107 227.884C223.564 227.562 223.801 227.105 223.801 226.479C223.801 225.852 223.564 225.379 223.107 225.057C222.633 224.735 221.956 224.583 221.092 224.583H217.622ZM221.516 233.69C222.48 233.69 223.191 233.537 223.682 233.216C224.173 232.894 224.41 232.403 224.41 231.726C224.41 230.406 223.445 229.746 221.516 229.746H217.622V233.69H221.516Z" fill="#998C84"/>
<path d="M243.894 230.964V235.061H242.218V230.93L237.512 223.212H239.323L243.115 229.458L246.923 223.212H248.599L243.894 230.964Z" fill="#998C84"/>
<path d="M281.896 235.196C280.711 235.196 279.644 234.925 278.697 234.4C277.732 233.876 276.987 233.165 276.445 232.234C275.904 231.32 275.633 230.287 275.633 229.136C275.633 227.985 275.904 226.953 276.445 226.022C276.987 225.108 277.732 224.397 278.697 223.855C279.661 223.347 280.728 223.076 281.913 223.076C282.844 223.076 283.69 223.229 284.452 223.533C285.213 223.855 285.874 224.312 286.415 224.921L285.315 225.988C284.418 225.057 283.318 224.583 281.98 224.583C281.1 224.583 280.305 224.786 279.594 225.175C278.883 225.565 278.324 226.106 277.935 226.8C277.529 227.511 277.326 228.273 277.326 229.136C277.326 229.999 277.529 230.761 277.935 231.455C278.324 232.166 278.883 232.708 279.594 233.097C280.305 233.486 281.1 233.689 281.98 233.689C283.301 233.689 284.418 233.215 285.315 232.268L286.415 233.334C285.874 233.943 285.213 234.4 284.452 234.722C283.673 235.044 282.827 235.196 281.896 235.196Z" fill="#998C84"/>
<path d="M304.797 235.196C303.595 235.196 302.529 234.925 301.564 234.4C300.599 233.876 299.855 233.165 299.313 232.234C298.754 231.303 298.484 230.27 298.484 229.136C298.484 228.002 298.754 226.97 299.313 226.039C299.855 225.108 300.599 224.397 301.564 223.855C302.529 223.347 303.595 223.076 304.797 223.076C305.982 223.076 307.048 223.347 308.013 223.855C308.978 224.397 309.723 225.108 310.264 226.022C310.806 226.953 311.077 227.985 311.077 229.136C311.077 230.287 310.806 231.32 310.264 232.234C309.723 233.165 308.978 233.876 308.013 234.4C307.048 234.925 305.982 235.196 304.797 235.196ZM304.797 233.689C305.66 233.689 306.456 233.486 307.15 233.097C307.827 232.708 308.386 232.166 308.792 231.455C309.181 230.761 309.384 229.999 309.384 229.136C309.384 228.273 309.181 227.511 308.792 226.8C308.386 226.106 307.827 225.565 307.15 225.175C306.456 224.786 305.66 224.583 304.797 224.583C303.934 224.583 303.138 224.786 302.444 225.175C301.733 225.565 301.175 226.106 300.786 226.8C300.379 227.511 300.176 228.273 300.176 229.136C300.176 229.999 300.379 230.761 300.786 231.455C301.175 232.166 301.733 232.708 302.444 233.097C303.138 233.486 303.934 233.689 304.797 233.689Z" fill="#998C84"/>
<path d="M335.512 235.061L335.495 226.428L331.213 233.622H330.434L326.152 226.479V235.061H324.527V223.212H325.915L330.857 231.54L335.732 223.212H337.12L337.137 235.061H335.512Z" fill="#998C84"/>
<path d="M356.187 223.212C357.727 223.212 358.929 223.584 359.809 224.312C360.689 225.04 361.129 226.056 361.129 227.342C361.129 228.628 360.689 229.644 359.809 230.372C358.929 231.1 357.727 231.472 356.187 231.472H353.259V235.061H351.566V223.212H356.187ZM356.136 230C357.202 230 358.032 229.763 358.59 229.306C359.149 228.849 359.437 228.205 359.437 227.342C359.437 226.479 359.149 225.819 358.59 225.362C358.032 224.905 357.202 224.685 356.136 224.685H353.259V230H356.136Z" fill="#998C84"/>
<path d="M381.448 232.098H375.151L373.848 235.061H372.104L377.47 223.212H379.146L384.528 235.061H382.751L381.448 232.098ZM380.855 230.744L378.299 224.938L375.743 230.744H380.855Z" fill="#998C84"/>
<path d="M407.333 223.212V235.061H405.945L398.836 226.225V235.061H397.143V223.212H398.531L405.641 232.048V223.212H407.333Z" fill="#998C84"/>
<path d="M426.291 230.964V235.061H424.616V230.93L419.91 223.212H421.721L425.513 229.458L429.321 223.212H430.997L426.291 230.964Z" fill="#998C84"/>
</g>
<defs>
<clipPath id="clip0_1_8">
<rect width="600" height="400" fill="white"/>
</clipPath>
</defs>
</svg>
