<svg width="600" height="400" viewBox="0 0 600 400" fill="none" xmlns="http://www.w3.org/2000/svg">
<g clip-path="url(#clip0_227_92)">
<rect width="600" height="400" fill="white"/>
<rect width="600" height="400" fill="#000D21"/>
<path d="M154.415 203.31V196.849H125V224.94H133.186V215.028H150.923V208.647H133.186V203.31H154.415Z" fill="white"/>
<path d="M174.881 218.359V196.849H166.694V224.94H193.782V218.359H174.881Z" fill="white"/>
<path d="M231.623 224.94H240.331L225.804 196.849H216.855L202.329 224.94H210.916L213.565 219.562H228.974L231.623 224.94ZM216.374 213.744L221.27 203.792L226.125 213.744H216.374Z" fill="white"/>
<path d="M282.788 208.686H265.894V214.425H275.204V216.953C273.237 218.759 270.508 219.441 267.057 219.441C260.235 219.441 256.383 216.431 256.383 210.894C256.383 205.396 260.115 202.386 266.937 202.386C270.709 202.386 273.237 203.349 275.645 205.516L281.624 201.102C278.695 198.373 273.679 195.925 266.736 195.925C255.219 195.925 248.076 201.383 248.076 210.894C248.076 220.404 255.219 225.862 266.736 225.862C274.24 225.862 279.778 223.374 282.788 219.642V208.686Z" fill="white"/>
<path d="M311.28 207.121C306.264 206.72 303.013 206.479 303.013 204.593C303.013 202.587 306.986 202.065 310.276 202.065C314.651 202.105 318.423 202.988 321.553 205.195L325.686 200.099C321.834 197.37 316.296 195.925 310.276 195.925C301.368 195.925 294.867 199.216 294.867 205.235C294.867 211.495 302.451 213.341 310.798 214.064C316.577 214.545 318.824 215.147 318.824 216.953C318.824 218.799 316.416 219.682 311.601 219.682C305.983 219.682 301.368 218.117 298.037 215.308L293.743 220.364C298.157 223.895 304.217 225.862 311.44 225.862C321.633 225.862 326.97 221.929 326.97 216.15C326.97 209.69 320.469 207.884 311.28 207.121Z" fill="white"/>
<path d="M364.652 196.849V207.323H347.797V196.849H339.611V224.94H347.797V214.065H364.652V224.94H372.838V196.849H364.652Z" fill="white"/>
<path d="M395.631 196.849H387.445V224.94H395.631V196.849Z" fill="white"/>
<path d="M429.781 196.849H410.278V224.94H418.464V216.513H429.781C437.446 216.513 442.542 213.222 442.542 206.681C442.542 200.22 437.446 196.849 429.781 196.849ZM429.099 210.574H418.464V203.069H429.099C432.149 203.069 434.235 203.992 434.235 206.842C434.235 209.651 432.149 210.574 429.099 210.574Z" fill="white"/>
<path fill-rule="evenodd" clip-rule="evenodd" d="M467.218 163.687C467.296 163.287 467.646 163 468.053 163C468.461 163 468.811 163.287 468.889 163.687C469.964 169.222 471.7 178.143 471.7 178.143C471.7 178.143 476.544 175.801 479.484 174.38C479.81 174.223 480.199 174.289 480.455 174.545C480.71 174.801 480.777 175.19 480.619 175.516C479.199 178.455 476.857 183.3 476.857 183.3C476.857 183.3 485.778 185.034 491.312 186.111C491.711 186.189 492 186.539 492 186.945C492 187.352 491.711 187.703 491.312 187.781C485.778 188.858 476.857 190.592 476.857 190.592C476.857 190.592 479.199 195.437 480.619 198.376C480.777 198.701 480.71 199.091 480.455 199.347C480.199 199.603 479.81 199.669 479.484 199.512C476.544 198.091 471.7 195.749 471.7 195.749C471.7 195.749 469.964 204.67 468.889 210.205C468.811 210.604 468.461 210.892 468.053 210.892C467.646 210.892 467.296 210.604 467.218 210.205C466.142 204.67 464.407 195.749 464.407 195.749C464.407 195.749 459.563 198.091 456.624 199.512C456.297 199.669 455.907 199.603 455.652 199.347C455.397 199.091 455.33 198.701 455.488 198.376C456.908 195.437 459.25 190.592 459.25 190.592C459.25 190.592 450.328 188.858 444.795 187.781C444.395 187.703 444.107 187.352 444.107 186.945C444.107 186.539 444.395 186.189 444.795 186.111C450.328 185.034 459.25 183.3 459.25 183.3C459.25 183.3 456.908 178.455 455.488 175.516C455.33 175.19 455.397 174.801 455.652 174.545C455.907 174.289 456.297 174.223 456.624 174.38C459.563 175.801 464.407 178.143 464.407 178.143C464.407 178.143 466.142 169.222 467.218 163.687Z" fill="#2AEC65"/>
</g>
<defs>
<clipPath id="clip0_227_92">
<rect width="600" height="400" fill="white"/>
</clipPath>
</defs>
</svg>
