<svg width="600" height="400" viewBox="0 0 600 400" fill="none" xmlns="http://www.w3.org/2000/svg">
<g clip-path="url(#clip0_1_13)">
<rect width="600" height="400" fill="white"/>
<rect width="600" height="401" fill="#0F172A"/>
<path d="M209.313 215.555V206.173H220.731V201.373H209.313V194.1H222.186V189.045H203.422V215.555H209.313Z" fill="white"/>
<path d="M242.555 215.555V210.318H231.792V189.045H225.901V215.555H242.555Z" fill="white"/>
<path d="M265.475 215.555V210.5H252.602V204.209H263.62V199.445H252.602V194.1H265.475V189.045H246.711V215.555H265.475Z" fill="white"/>
<path d="M288.77 215.555V210.5H275.898V204.209H286.916V199.445H275.898V194.1H288.77V189.045H270.007V215.555H288.77Z" fill="white"/>
<path d="M290.401 189.045V194.172H297.637V215.555H303.492V194.172H310.801V189.045H290.401Z" fill="white"/>
<path d="M327.282 215.555C329.864 215.555 331.937 214.9 333.501 213.555C335.064 212.209 335.828 210.464 335.828 208.245C335.828 205.154 334.301 202.827 331.355 201.991V201.664C333.719 200.682 335.137 198.573 335.137 195.809C335.137 193.772 334.41 192.136 332.991 190.9C331.573 189.663 329.646 189.045 327.282 189.045H313.864V215.555H327.282ZM319.573 193.445H325.573C327.719 193.445 329.1 194.572 329.1 196.573C329.1 198.645 327.719 199.845 325.573 199.845H319.573V193.445ZM319.573 204.173H325.719C327.937 204.173 329.682 205.191 329.682 207.627C329.682 210.064 328.009 211.155 325.719 211.155H319.573V204.173Z" fill="white"/>
<path d="M358.694 215.555V210.5H345.821V204.209H356.839V199.445H345.821V194.1H358.694V189.045H339.93V215.555H358.694Z" fill="white"/>
<path d="M386.28 215.555L376.571 189.045H369.735L360.389 215.555H366.462L368.026 210.936H378.317L379.844 215.555H386.28ZM370.571 203.409L373.153 195.191H373.371L375.807 203.409L376.826 206.427H369.553L370.571 203.409Z" fill="white"/>
<path d="M405.287 206.391C404.668 209.045 402.414 210.791 399.25 210.791C395.141 210.791 392.632 207.773 392.632 202.391C392.632 197.045 395.141 193.845 399.359 193.845C402.268 193.845 404.559 195.482 405.287 198.136H411.359C411.032 195.3 409.759 193.009 407.578 191.3C405.396 189.591 402.668 188.718 399.396 188.718C395.505 188.718 392.341 189.954 389.977 192.463C387.614 194.972 386.414 198.245 386.414 202.354C386.414 206.427 387.577 209.7 389.941 212.209C392.305 214.682 395.432 215.918 399.396 215.918C402.632 215.918 405.323 215.046 407.541 213.3C409.759 211.555 411.032 209.264 411.359 206.391H405.287Z" fill="white"/>
<path d="M414.077 202.282C414.077 206.427 415.205 209.736 417.496 212.209C419.787 214.682 422.914 215.918 426.95 215.918C430.878 215.918 434.005 214.718 436.332 212.318C438.696 209.882 439.86 206.536 439.86 202.282C439.86 198.173 438.732 194.9 436.441 192.427C434.151 189.954 430.987 188.718 426.95 188.718C423.023 188.718 419.896 189.918 417.568 192.354C415.241 194.754 414.077 198.063 414.077 202.282ZM420.296 202.282C420.296 197.191 422.768 193.845 426.95 193.845C431.06 193.845 433.678 197.082 433.678 202.282C433.678 207.409 431.205 210.755 426.95 210.755C422.878 210.755 420.296 207.627 420.296 202.282Z" fill="white"/>
<path d="M449.8 215.555V204.718L449.436 197.409H449.691L460.309 215.555H467.109V189.045H461.291V199.736L461.618 207.336H461.4L450.709 189.045H443.909V215.555H449.8Z" fill="white"/>
<g opacity="0.8">
<path d="M178.09 182.489C167.546 172.504 150.451 172.504 139.908 182.489L158.999 200.569L178.09 182.489Z" fill="url(#paint0_linear_1_13)"/>
<path d="M139.908 218.648L158.999 200.569L139.908 182.489C129.364 192.474 129.364 208.663 139.908 218.648Z" fill="url(#paint1_linear_1_13)"/>
<path d="M178.09 218.648L158.999 200.569L139.908 218.648C150.451 228.634 167.546 228.634 178.09 218.648Z" fill="url(#paint2_linear_1_13)"/>
<path d="M178.09 182.489L158.999 200.569L178.09 218.648C188.633 208.663 188.633 192.474 178.09 182.489Z" fill="url(#paint3_linear_1_13)"/>
</g>
<path d="M169.123 200.569C169.123 205.864 164.59 210.157 158.999 210.157C153.407 210.157 148.874 205.864 148.874 200.569C148.874 195.273 153.407 190.98 158.999 190.98C164.59 190.98 169.123 195.273 169.123 200.569Z" fill="#4F46E5"/>
</g>
<defs>
<linearGradient id="paint0_linear_1_13" x1="165.748" y1="194.176" x2="151.686" y2="194.176" gradientUnits="userSpaceOnUse">
<stop stop-color="#4F46E5"/>
<stop offset="1" stop-color="#4F46E5" stop-opacity="0.8"/>
</linearGradient>
<linearGradient id="paint1_linear_1_13" x1="152.249" y1="193.644" x2="152.249" y2="207.493" gradientUnits="userSpaceOnUse">
<stop stop-color="#4F46E5" stop-opacity="0.8"/>
<stop offset="1" stop-color="#4F46E5" stop-opacity="0.6"/>
</linearGradient>
<linearGradient id="paint2_linear_1_13" x1="152.249" y1="206.961" x2="165.186" y2="206.961" gradientUnits="userSpaceOnUse">
<stop stop-color="#4F46E5" stop-opacity="0.6"/>
<stop offset="1" stop-color="#4F46E5" stop-opacity="0.4"/>
</linearGradient>
<linearGradient id="paint3_linear_1_13" x1="165.748" y1="206.428" x2="165.748" y2="194.176" gradientUnits="userSpaceOnUse">
<stop stop-color="#4F46E5" stop-opacity="0.4"/>
<stop offset="1" stop-color="#4F46E5" stop-opacity="0.2"/>
</linearGradient>
<clipPath id="clip0_1_13">
<rect width="600" height="400" fill="white"/>
</clipPath>
</defs>
</svg>
