<svg width="600" height="400" viewBox="0 0 600 400" fill="none" xmlns="http://www.w3.org/2000/svg">
<g clip-path="url(#clip0_215_755)">
<rect width="600" height="400" fill="white"/>
<rect width="600" height="400" fill="#0A090A"/>
<g filter="url(#filter0_d_215_755)">
<path d="M265.14 189.67H293.658V205.672H264.384V201.598H288.66V193.702H265.14V189.67ZM269.97 182.824H283.746V186.772H269.97V182.824ZM265.854 195.76H290.634V199.498H265.854V195.76ZM270.6 179.59L275.976 180.64C274.996 182.376 273.862 184.084 272.574 185.764C271.314 187.444 269.872 189.04 268.248 190.552C266.652 192.064 264.832 193.492 262.788 194.836C262.536 194.444 262.2 194.01 261.78 193.534C261.388 193.058 260.954 192.61 260.478 192.19C260.03 191.742 259.624 191.392 259.26 191.14C261.136 190.076 262.788 188.9 264.216 187.612C265.672 186.324 266.932 184.994 267.996 183.622C269.06 182.25 269.928 180.906 270.6 179.59ZM270.474 208.234H275.388V213.232C275.388 213.792 275.5 214.142 275.724 214.282C275.976 214.422 276.55 214.492 277.446 214.492C277.614 214.492 277.922 214.492 278.37 214.492C278.818 214.492 279.308 214.492 279.84 214.492C280.4 214.492 280.918 214.492 281.394 214.492C281.87 214.492 282.22 214.492 282.444 214.492C282.948 214.492 283.312 214.408 283.536 214.24C283.788 214.044 283.97 213.666 284.082 213.106C284.222 212.546 284.32 211.692 284.376 210.544C284.712 210.768 285.118 211.006 285.594 211.258C286.098 211.482 286.63 211.678 287.19 211.846C287.75 212.014 288.254 212.154 288.702 212.266C288.534 214.002 288.24 215.332 287.82 216.256C287.428 217.208 286.84 217.866 286.056 218.23C285.272 218.594 284.236 218.776 282.948 218.776C282.724 218.776 282.402 218.776 281.982 218.776C281.562 218.776 281.1 218.776 280.596 218.776C280.12 218.776 279.616 218.776 279.084 218.776C278.58 218.776 278.118 218.776 277.698 218.776C277.306 218.776 277.012 218.776 276.816 218.776C275.108 218.776 273.792 218.608 272.868 218.272C271.944 217.936 271.314 217.362 270.978 216.55C270.642 215.766 270.474 214.674 270.474 213.274V208.234ZM273.414 206.932L276.48 203.824C277.376 204.188 278.3 204.622 279.252 205.126C280.204 205.63 281.1 206.162 281.94 206.722C282.808 207.282 283.508 207.814 284.04 208.318L280.722 211.762C280.246 211.23 279.602 210.684 278.79 210.124C277.978 209.536 277.096 208.962 276.144 208.402C275.22 207.842 274.31 207.352 273.414 206.932ZM287.232 209.326L291.432 207.016C292.328 207.828 293.252 208.724 294.204 209.704C295.156 210.684 296.038 211.678 296.85 212.686C297.662 213.666 298.306 214.59 298.782 215.458L294.246 218.062C293.854 217.222 293.28 216.298 292.524 215.29C291.768 214.282 290.928 213.26 290.004 212.224C289.08 211.16 288.156 210.194 287.232 209.326ZM264.972 207.562L269.508 209.2C268.892 210.908 268.108 212.546 267.156 214.114C266.232 215.682 264.986 216.984 263.418 218.02L259.26 215.08C260.632 214.212 261.808 213.12 262.788 211.804C263.768 210.46 264.496 209.046 264.972 207.562ZM282.738 182.824H283.872L284.67 182.614L288.114 184.798C287.638 185.666 287.05 186.604 286.35 187.612C285.65 188.62 284.922 189.586 284.166 190.51C283.41 191.434 282.682 192.26 281.982 192.988C281.506 192.596 280.89 192.162 280.134 191.686C279.406 191.21 278.748 190.818 278.16 190.51C278.776 189.894 279.378 189.18 279.966 188.368C280.554 187.528 281.1 186.702 281.604 185.89C282.108 185.05 282.486 184.336 282.738 183.748V182.824ZM311.634 196.18V211.678H306.72V200.842H301.848V196.18H311.634ZM311.634 209.494C312.502 210.866 313.72 211.874 315.288 212.518C316.856 213.162 318.732 213.526 320.916 213.61C322.148 213.666 323.604 213.708 325.284 213.736C326.992 213.736 328.784 213.722 330.66 213.694C332.536 213.666 334.37 213.61 336.162 213.526C337.982 213.442 339.592 213.344 340.992 213.232C340.824 213.624 340.628 214.128 340.404 214.744C340.18 215.36 339.97 215.99 339.774 216.634C339.606 217.278 339.48 217.852 339.396 218.356C338.136 218.44 336.694 218.496 335.07 218.524C333.446 218.58 331.78 218.608 330.072 218.608C328.364 218.636 326.712 218.636 325.116 218.608C323.52 218.58 322.092 218.538 320.832 218.482C318.256 218.37 316.058 217.964 314.238 217.264C312.418 216.592 310.808 215.444 309.408 213.82C308.484 214.604 307.532 215.416 306.552 216.256C305.6 217.096 304.55 217.964 303.402 218.86L300.924 213.61C301.904 213.022 302.926 212.378 303.99 211.678C305.054 210.978 306.076 210.25 307.056 209.494H311.634ZM301.89 183.832L305.628 180.808C306.496 181.368 307.378 182.026 308.274 182.782C309.17 183.51 310.01 184.266 310.794 185.05C311.578 185.806 312.208 186.506 312.684 187.15L308.694 190.51C308.274 189.838 307.686 189.11 306.93 188.326C306.202 187.542 305.39 186.758 304.494 185.974C303.598 185.162 302.73 184.448 301.89 183.832ZM319.446 193.828V197.44H333.474V193.828H319.446ZM314.826 189.964H338.346V201.262H314.826V189.964ZM313.482 183.454H339.774V187.654H313.482V183.454ZM323.898 179.842H328.77V212.518H323.898V179.842ZM322.554 200.002L326.208 201.304C325.424 202.732 324.472 204.118 323.352 205.462C322.232 206.778 321 207.996 319.656 209.116C318.312 210.208 316.94 211.104 315.54 211.804C315.316 211.412 315.008 210.978 314.616 210.502C314.252 210.026 313.86 209.564 313.44 209.116C313.048 208.668 312.684 208.29 312.348 207.982C313.692 207.45 315.008 206.764 316.296 205.924C317.584 205.084 318.774 204.16 319.866 203.152C320.958 202.116 321.854 201.066 322.554 200.002ZM329.358 199.96C330.17 200.968 331.178 201.976 332.382 202.984C333.586 203.964 334.888 204.874 336.288 205.714C337.688 206.554 339.06 207.24 340.404 207.772C340.04 208.08 339.634 208.472 339.186 208.948C338.766 209.396 338.36 209.872 337.968 210.376C337.576 210.852 337.254 211.3 337.002 211.72C335.658 210.992 334.286 210.082 332.886 208.99C331.514 207.87 330.226 206.666 329.022 205.378C327.818 204.062 326.768 202.746 325.872 201.43L329.358 199.96Z" fill="#FF007A"/>
</g>
<path d="M256.629 191.44H253.365L252.149 199.152H244.661L245.877 191.44H242.613L239.669 210H242.933L244.181 202.224H251.669L250.421 210H253.685L256.629 191.44ZM283.102 198.704C283.294 197.392 283.198 196.56 282.366 195.632L278.622 191.44H275.806L270.718 195.632C269.598 196.56 269.214 197.392 269.022 198.704L267.23 210H270.462L271.39 204.144H279.006L278.078 210H281.31L283.102 198.704ZM279.838 198.864L279.454 201.328H271.838L272.254 198.864C272.35 198.192 272.382 198.032 272.83 197.648C272.83 197.648 276.542 194.512 276.734 194.256L279.614 197.648C279.966 198.032 279.934 198.192 279.838 198.864ZM310.597 195.76C310.949 193.52 309.125 191.44 306.725 191.44H302.021C299.333 191.44 297.413 192.976 296.997 195.568L296.645 197.744C296.261 200.144 297.893 202.096 300.485 202.192C302.821 202.256 306.725 201.616 306.405 203.504L306.053 205.904C305.925 206.544 305.317 207.088 304.741 207.088H299.333C298.757 207.088 298.309 206.544 298.405 205.904L298.629 204.56H295.429L295.237 205.744C294.853 208.24 296.773 210.064 299.493 210.064H304.261C306.885 210.064 308.901 208.432 309.253 205.872L309.541 203.76C309.893 201.136 308.197 199.408 305.733 199.312C303.397 199.248 299.493 199.92 299.781 198.032L300.165 195.6C300.261 194.96 300.901 194.416 301.477 194.416H306.469C307.077 194.416 307.525 194.96 307.429 195.6L307.205 196.976H310.405L310.597 195.76ZM338.399 191.44H323.743L323.263 194.416H328.863L326.399 210H329.823L332.287 194.416H337.919L338.399 191.44ZM363.202 191.44H351.17L348.226 210H360.258L360.738 207.024H351.906L352.642 202.256H359.49L359.97 199.216H353.122L353.89 194.416H362.722L363.202 191.44Z" fill="white"/>
</g>
<defs>
<filter id="filter0_d_215_755" x="235.26" y="155.59" width="129.732" height="87.27" filterUnits="userSpaceOnUse" color-interpolation-filters="sRGB">
<feFlood flood-opacity="0" result="BackgroundImageFix"/>
<feColorMatrix in="SourceAlpha" type="matrix" values="0 0 0 0 0 0 0 0 0 0 0 0 0 0 0 0 0 0 127 0" result="hardAlpha"/>
<feOffset/>
<feGaussianBlur stdDeviation="12"/>
<feComposite in2="hardAlpha" operator="out"/>
<feColorMatrix type="matrix" values="0 0 0 0 1 0 0 0 0 0 0 0 0 0 0.48 0 0 0 1 0"/>
<feBlend mode="normal" in2="BackgroundImageFix" result="effect1_dropShadow_215_755"/>
<feBlend mode="normal" in="SourceGraphic" in2="effect1_dropShadow_215_755" result="shape"/>
</filter>
<clipPath id="clip0_215_755">
<rect width="600" height="400" fill="white"/>
</clipPath>
</defs>
</svg>
