<svg width="600" height="400" viewBox="0 0 600 400" fill="none" xmlns="http://www.w3.org/2000/svg">
<g clip-path="url(#clip0_218_11)">
<rect width="600" height="400" fill="white"/>
<rect width="600" height="400" fill="white"/>
<path fill-rule="evenodd" clip-rule="evenodd" d="M290.825 289.782L289.733 288.731C285.237 284.402 284.56 280.568 285.347 277.657C285.724 276.263 286.412 275.186 286.994 274.464C287.286 274.101 287.558 273.82 287.762 273.626C287.864 273.529 287.949 273.453 288.013 273.398C288.045 273.371 288.071 273.349 288.091 273.332L288.117 273.312L288.126 273.304L288.13 273.301C288.131 273.301 288.133 273.299 288.94 274.331L288.133 273.299L288.922 272.682L289.724 273.282C291.766 274.808 292.966 276.554 293.563 278.348C294.155 280.128 294.125 281.871 293.847 283.368C293.569 284.861 293.038 286.145 292.584 287.049C292.356 287.503 292.143 287.868 291.985 288.124C291.906 288.252 291.84 288.353 291.792 288.425C291.768 288.461 291.748 288.489 291.734 288.51L291.716 288.536L291.71 288.544L291.708 288.547C291.708 288.548 291.706 288.549 290.641 287.787L291.706 288.549L290.825 289.782ZM290.37 285.613C290.715 284.884 291.076 283.94 291.271 282.889C291.49 281.711 291.496 280.434 291.077 279.175C290.744 278.171 290.122 277.123 289.032 276.109C288.609 276.635 288.133 277.391 287.876 278.341C287.448 279.923 287.539 282.388 290.37 285.613Z" fill="#0B2325"/>
<path fill-rule="evenodd" clip-rule="evenodd" d="M300.494 295.596L299.889 294.206C297.399 288.484 298.245 284.683 300.09 282.297C300.973 281.155 302.02 280.424 302.835 279.981C303.245 279.758 303.603 279.603 303.866 279.502C303.997 279.451 304.106 279.414 304.185 279.388C304.225 279.375 304.258 279.365 304.283 279.357L304.315 279.348L304.326 279.344L304.331 279.343C304.332 279.343 304.334 279.342 304.683 280.605L304.334 279.342L305.299 279.076L305.81 279.937C307.11 282.13 307.549 284.202 307.411 286.088C307.275 287.96 306.578 289.557 305.747 290.833C304.917 292.105 303.934 293.087 303.168 293.747C302.783 294.079 302.446 294.335 302.202 294.51C302.079 294.598 301.98 294.666 301.908 294.714C301.872 294.738 301.843 294.757 301.822 294.771L301.796 294.787L301.787 294.793L301.784 294.795C301.783 294.795 301.781 294.796 301.09 293.683L301.781 294.796L300.494 295.596ZM301.674 291.572C302.273 291.031 302.968 290.298 303.552 289.402C304.206 288.398 304.702 287.222 304.798 285.898C304.875 284.843 304.704 283.637 304.086 282.282C303.494 282.605 302.764 283.121 302.162 283.899C301.16 285.196 300.298 287.507 301.674 291.572ZM300.397 292.572C300.396 292.573 300.397 292.572 300.397 292.572V292.572Z" fill="#0B2325"/>
<path fill-rule="evenodd" clip-rule="evenodd" d="M299.863 306.078L300.021 304.571C300.672 298.364 303.281 295.473 306.061 294.305C307.392 293.746 308.664 293.626 309.591 293.641C310.057 293.649 310.446 293.691 310.724 293.732C310.863 293.753 310.976 293.774 311.058 293.79C311.099 293.799 311.133 293.806 311.158 293.812L311.191 293.819L311.202 293.822L311.207 293.823C311.208 293.823 311.21 293.824 310.892 295.095L311.21 293.824L312.182 294.067L312.202 295.068C312.253 297.617 311.614 299.637 310.565 301.21C309.525 302.772 308.132 303.819 306.78 304.52C305.431 305.218 304.091 305.589 303.1 305.786C302.601 305.885 302.182 305.942 301.883 305.974C301.734 305.991 301.613 306.001 301.527 306.007C301.484 306.01 301.45 306.012 301.425 306.014L301.394 306.015L301.383 306.016L301.38 306.016C301.379 306.016 301.377 306.016 301.323 304.707L301.377 306.016L299.863 306.078ZM302.872 303.157C303.659 302.981 304.625 302.685 305.575 302.193C306.638 301.642 307.649 300.863 308.385 299.758C308.971 298.878 309.417 297.744 309.546 296.261C308.871 296.25 307.982 296.339 307.075 296.72C305.565 297.355 303.675 298.942 302.872 303.157ZM301.267 303.399C301.267 303.399 301.267 303.399 301.267 303.399V303.399Z" fill="#0B2325"/>
<path fill-rule="evenodd" clip-rule="evenodd" d="M326.219 301.753L324.727 302.016C318.581 303.099 315.083 301.388 313.195 299.037C312.291 297.911 311.826 296.721 311.585 295.826C311.464 295.375 311.397 294.99 311.36 294.711C311.341 294.572 311.33 294.458 311.324 294.374C311.32 294.332 311.318 294.298 311.317 294.272L311.315 294.239L311.315 294.227L311.314 294.222C311.314 294.222 311.314 294.219 312.623 294.175L311.314 294.219L311.281 293.218L312.237 292.923C314.674 292.172 316.791 292.23 318.593 292.805C320.38 293.375 321.771 294.426 322.816 295.532C323.86 296.636 324.585 297.822 325.047 298.721C325.28 299.173 325.45 299.56 325.564 299.839C325.62 299.978 325.663 300.091 325.693 300.172C325.708 300.212 325.719 300.245 325.728 300.269L325.738 300.298L325.741 300.308L325.742 300.311C325.742 300.312 325.743 300.314 324.5 300.726L325.743 300.314L326.219 301.753ZM322.583 299.664C322.197 298.956 321.647 298.109 320.912 297.331C320.09 296.461 319.062 295.704 317.797 295.3C316.789 294.979 315.576 294.864 314.115 295.147C314.291 295.799 314.621 296.629 315.237 297.396C316.263 298.674 318.309 300.053 322.583 299.664ZM323.257 301.14C323.257 301.141 323.257 301.141 323.257 301.14V301.14Z" fill="#0B2325"/>
<path fill-rule="evenodd" clip-rule="evenodd" d="M320.519 282.171L319.19 282.901C313.719 285.904 309.857 285.409 307.313 283.79C306.095 283.015 305.271 282.039 304.755 281.268C304.496 280.881 304.309 280.538 304.184 280.285C304.121 280.159 304.074 280.055 304.041 279.978C304.024 279.939 304.011 279.907 304.002 279.883L303.989 279.852L303.985 279.841L303.983 279.837C303.983 279.836 303.982 279.833 305.207 279.371L303.982 279.833L303.628 278.897L304.439 278.31C306.504 276.814 308.528 276.188 310.419 276.153C312.295 276.118 313.949 276.665 315.295 277.377C316.638 278.086 317.706 278.976 318.433 279.678C318.799 280.031 319.085 280.343 319.282 280.57C319.381 280.684 319.457 280.777 319.512 280.844C319.539 280.878 319.56 280.905 319.576 280.925L319.595 280.949L319.601 280.957L319.603 280.96C319.603 280.961 319.605 280.963 318.56 281.753L319.605 280.963L320.519 282.171ZM316.403 281.364C315.81 280.818 315.017 280.192 314.071 279.693C313.012 279.133 311.795 278.747 310.468 278.772C309.411 278.792 308.225 279.073 306.933 279.812C307.308 280.372 307.889 281.052 308.719 281.58C310.101 282.459 312.482 283.107 316.403 281.364ZM317.517 282.545C317.517 282.545 317.517 282.545 317.517 282.545V282.545Z" fill="#0B2325"/>
<path fill-rule="evenodd" clip-rule="evenodd" d="M305.406 267.827L304.679 269.157C301.687 274.633 298.165 276.296 295.15 276.302C293.706 276.305 292.486 275.925 291.636 275.554C291.209 275.367 290.867 275.179 290.626 275.033C290.505 274.961 290.409 274.898 290.34 274.851C290.305 274.827 290.277 274.808 290.256 274.792L290.229 274.773L290.219 274.766L290.216 274.763C290.215 274.763 290.212 274.761 290.996 273.711L290.212 274.761L289.41 274.162L289.777 273.231C290.712 270.859 292.08 269.242 293.654 268.194C295.216 267.154 296.905 266.724 298.423 266.599C299.936 266.474 301.315 266.649 302.306 266.849C302.805 266.949 303.213 267.058 303.501 267.144C303.646 267.186 303.761 267.223 303.842 267.251C303.883 267.264 303.916 267.276 303.94 267.284L303.969 267.294L303.979 267.298L303.982 267.299C303.983 267.3 303.985 267.3 303.53 268.529L303.985 267.3L305.406 267.827ZM301.504 269.363C300.709 269.221 299.704 269.122 298.638 269.21C297.444 269.309 296.211 269.639 295.106 270.374C294.226 270.96 293.378 271.836 292.687 273.154C293.306 273.424 294.161 273.684 295.144 273.682C296.783 273.679 299.138 272.942 301.504 269.363ZM303.077 269.758C303.078 269.758 303.078 269.758 303.077 269.758V269.758Z" fill="#0B2325"/>
<path fill-rule="evenodd" clip-rule="evenodd" d="M313.561 320.431L312.496 319.353C308.111 314.912 307.531 311.061 308.391 308.172C308.804 306.788 309.518 305.729 310.118 305.022C310.419 304.666 310.698 304.392 310.907 304.203C311.011 304.109 311.099 304.035 311.164 303.982C311.196 303.955 311.223 303.934 311.244 303.918L311.27 303.898L311.279 303.891L311.283 303.888C311.284 303.887 311.286 303.885 312.067 304.938L311.286 303.885L312.09 303.289L312.877 303.908C314.88 305.486 316.036 307.261 316.587 309.07C317.134 310.864 317.06 312.606 316.744 314.095C316.429 315.581 315.865 316.851 315.389 317.743C315.149 318.191 314.927 318.551 314.763 318.803C314.68 318.929 314.612 319.029 314.562 319.099C314.537 319.134 314.517 319.162 314.502 319.183L314.484 319.208L314.478 319.216L314.475 319.219C314.475 319.219 314.474 319.221 313.428 318.432L314.474 319.221L313.561 320.431ZM313.212 316.252C313.575 315.532 313.959 314.597 314.181 313.551C314.43 312.379 314.468 311.104 314.081 309.833C313.773 308.822 313.178 307.758 312.114 306.718C311.678 307.232 311.183 307.977 310.902 308.919C310.434 310.49 310.463 312.957 313.212 316.252Z" fill="#0B2325"/>
<path fill-rule="evenodd" clip-rule="evenodd" d="M311.941 306.017C311.218 306.027 310.623 305.449 310.613 304.726L313.233 304.689C313.243 305.413 312.665 306.007 311.941 306.017ZM309.778 289.526C310.114 291.717 310.325 295.487 310.451 298.772C310.513 300.402 310.554 301.892 310.579 302.974C310.591 303.515 310.6 303.954 310.605 304.257L310.611 304.606L310.613 304.726L313.233 304.689L313.231 304.564L313.225 304.209C313.219 303.902 313.21 303.459 313.198 302.913C313.172 301.822 313.131 300.319 313.068 298.672C312.943 295.404 312.729 291.484 312.367 289.124L312.365 289.115C312.141 287.718 311.447 286.275 310.531 284.926C309.605 283.563 308.401 282.222 307.063 281.021C304.426 278.654 301.072 276.661 298.053 276.275C296.929 276.132 295.468 275.617 293.846 274.856C292.244 274.104 290.573 273.154 289.045 272.212C287.521 271.272 286.157 270.352 285.174 269.665C284.683 269.323 284.288 269.039 284.017 268.842C283.881 268.744 283.776 268.667 283.706 268.615L283.628 268.557L283.608 268.542L283.604 268.539C283.025 268.105 282.203 268.222 281.769 268.8C281.335 269.379 281.453 270.2 282.031 270.634L282.738 269.692C282.031 270.634 282.031 270.634 282.031 270.634L282.04 270.641L282.063 270.658L282.15 270.722C282.225 270.778 282.335 270.859 282.477 270.962C282.76 271.167 283.168 271.46 283.674 271.814C284.686 272.52 286.093 273.469 287.671 274.442C289.246 275.413 291.009 276.418 292.732 277.227C294.433 278.026 296.188 278.679 297.722 278.873C299.989 279.164 302.862 280.77 305.313 282.97C306.519 284.053 307.575 285.237 308.364 286.398C309.161 287.571 309.637 288.648 309.778 289.526Z" fill="#0B2325"/>
<path d="M254.592 243.389C249.412 243.389 246.332 240.429 246.332 235.909C246.332 231.389 249.412 228.449 254.592 228.449C258.972 228.449 261.792 230.529 262.232 233.649H258.732C258.332 232.189 256.692 231.209 254.592 231.209C251.712 231.209 249.872 232.829 249.872 235.909C249.872 238.989 251.712 240.629 254.592 240.629C256.712 240.629 258.392 239.669 258.752 238.149H262.232C261.832 241.329 258.712 243.389 254.592 243.389ZM277.142 243.209L283.382 228.629H287.902L294.162 243.209H290.382L289.182 240.289H282.082L280.902 243.209H277.142ZM283.062 237.689H288.242L286.342 233.169L285.702 231.449H285.582L284.942 233.149L283.062 237.689ZM310.453 243.209V228.629H322.393V231.389H313.933V234.929H321.593V237.549H313.933V243.209H310.453ZM343.85 227.389L344.99 224.489H347.91L346.07 227.389H343.85ZM339.03 243.209V228.629H351.37V231.389H342.51V234.549H350.39V237.129H342.51V240.449H351.41V243.209H339.03Z" fill="#0B2325"/>
<path d="M191.022 206.22H199.35C200.15 206.22 200.683 205.965 200.683 205.454V205.326C200.683 204.113 198.151 204.05 198.151 201.752V184.516H224.267L224.201 201.752C224.201 204.05 221.802 204.113 221.802 205.326V205.454C221.802 205.965 222.335 206.22 223.135 206.22H231.463C232.329 206.22 232.862 205.965 232.862 205.454V205.326C232.862 204.113 230.263 204.05 230.263 201.752V165.365C230.263 163.067 232.862 163.003 232.862 161.79V161.662C232.862 161.152 232.329 160.896 231.463 160.896H223.135C222.335 160.896 221.802 161.152 221.802 161.662V161.79C221.802 163.003 224.201 163.067 224.201 165.365L224.267 181.707H198.084L198.151 165.365C198.151 163.067 200.683 163.003 200.683 161.79V161.662C200.683 161.152 200.15 160.896 199.35 160.896H191.022C190.223 160.896 189.69 161.152 189.69 161.662V161.79C189.69 163.003 192.088 163.067 192.088 165.365V201.752C192.088 204.05 189.69 204.113 189.69 205.326V205.454C189.69 205.965 190.223 206.22 191.022 206.22Z" fill="#0B2325"/>
<path d="M278.062 206.861C290.92 206.861 300.714 196.392 300.714 183.816C300.714 171.049 291.253 160.26 277.595 160.26C263.871 160.26 254.344 170.219 254.344 183.433C254.344 195.753 264.004 206.861 278.062 206.861ZM279.528 204.116C268.135 204.116 260.34 192.689 260.34 179.539C260.34 170.155 266.536 163.005 275.53 163.005C286.923 163.005 294.718 174.113 294.718 187.646C294.718 196.264 288.455 204.116 279.528 204.116Z" fill="#0B2325"/>
<path d="M323.54 206.22H331.868C332.667 206.22 333.2 205.901 333.2 205.39V205.263C333.2 204.177 330.602 204.05 330.602 201.752V190.836H337.464C349.656 190.836 356.918 185.41 356.918 175.643C356.918 165.046 347.058 160.896 335.932 160.896H323.54C322.674 160.896 322.141 161.152 322.141 161.662V161.854C322.141 163.003 324.606 163.258 324.606 165.365V201.752C324.606 204.05 322.141 204.177 322.141 205.263V205.39C322.141 205.901 322.674 206.22 323.54 206.22ZM333.001 188.218C331.402 188.218 330.602 187.388 330.602 185.92V165.556C330.602 164.216 331.135 163.514 332.334 163.514H335.932C343.594 163.514 350.722 167.727 350.722 177.047C350.722 184.069 345.592 188.218 337.464 188.218H333.001Z" fill="#0B2325"/>
<path d="M376.969 206.22H406.95C408.016 206.22 408.482 205.709 408.682 204.752L410.281 198.304C410.414 197.602 410.081 197.028 409.482 197.028H409.082C406.75 197.028 405.617 203.603 402.086 203.603H386.43C384.764 203.603 383.965 202.326 383.965 200.858L384.032 184.324H396.157C398.689 184.324 398.622 187.963 400.021 187.963H400.288C400.821 187.963 401.154 187.516 401.154 186.878V179.026C401.154 178.324 400.821 177.941 400.288 177.941H400.021C398.622 177.941 398.689 181.707 396.157 181.707H384.032V165.684C384.032 164.152 384.698 163.514 385.897 163.514H400.021C403.485 163.514 405.084 169.897 407.15 169.897H407.483C408.149 169.897 408.482 169.514 408.282 168.621L406.683 162.301C406.484 161.407 406.084 160.896 405.018 160.896H376.77C376.037 160.896 375.57 161.152 375.57 161.599V161.79C375.57 162.939 378.035 163.003 378.035 165.429V201.688C378.035 204.113 375.57 204.113 375.57 205.326V205.454C375.57 205.965 376.17 206.22 376.969 206.22Z" fill="#0B2325"/>
<path fill-rule="evenodd" clip-rule="evenodd" d="M312.517 115.081L313.299 116.379C316.522 121.723 316.183 125.603 314.669 128.21C313.944 129.459 313.002 130.321 312.253 130.868C311.876 131.143 311.541 131.344 311.294 131.479C311.17 131.546 311.068 131.598 310.992 131.634C310.954 131.652 310.923 131.666 310.899 131.677L310.869 131.691L310.858 131.695L310.854 131.697C310.853 131.697 310.851 131.699 310.338 130.493L310.851 131.699L309.929 132.09L309.309 131.304C307.732 129.301 307.024 127.304 306.912 125.417C306.801 123.544 307.281 121.868 307.937 120.494C308.592 119.124 309.438 118.021 310.11 117.266C310.448 116.886 310.748 116.588 310.967 116.382C311.077 116.278 311.166 116.198 311.231 116.141C311.264 116.113 311.29 116.09 311.309 116.074L311.333 116.054L311.341 116.047L311.344 116.045C311.344 116.044 311.346 116.043 312.178 117.055L311.346 116.043L312.517 115.081ZM311.877 119.225C311.355 119.84 310.762 120.659 310.301 121.624C309.785 122.704 309.449 123.936 309.527 125.261C309.59 126.317 309.919 127.49 310.709 128.751C311.254 128.353 311.91 127.746 312.404 126.895C313.226 125.478 313.777 123.073 311.877 119.225ZM313.011 118.065C313.012 118.065 313.012 118.065 313.011 118.065V118.065Z" fill="#0B2325"/>
<path fill-rule="evenodd" clip-rule="evenodd" d="M304.693 106.984L304.917 108.483C305.842 114.655 304.04 118.107 301.642 119.934C300.493 120.809 299.292 121.243 298.39 121.461C297.937 121.57 297.55 121.627 297.271 121.657C297.13 121.672 297.016 121.68 296.932 121.684C296.89 121.687 296.856 121.688 296.83 121.689L296.797 121.69L296.785 121.69L296.78 121.69C296.78 121.69 296.777 121.69 296.766 120.38L296.777 121.69L295.775 121.698L295.505 120.734C294.817 118.279 294.93 116.163 295.551 114.377C296.167 112.605 297.253 111.242 298.386 110.225C299.517 109.211 300.721 108.517 301.632 108.078C302.09 107.857 302.481 107.697 302.762 107.59C302.903 107.537 303.017 107.497 303.099 107.47C303.14 107.456 303.172 107.445 303.197 107.437L303.226 107.428L303.236 107.425L303.24 107.424C303.24 107.424 303.242 107.423 303.622 108.677L303.242 107.423L304.693 106.984ZM302.511 110.566C301.793 110.933 300.932 111.461 300.136 112.175C299.244 112.975 298.461 113.983 298.025 115.238C297.678 116.236 297.531 117.446 297.777 118.914C298.433 118.755 299.272 118.446 300.054 117.85C301.358 116.857 302.789 114.848 302.511 110.566ZM304.004 109.93C304.004 109.93 304.005 109.929 304.004 109.93V109.93Z" fill="#0B2325"/>
<path fill-rule="evenodd" clip-rule="evenodd" d="M307.988 97.0252L307.446 98.4401C305.21 104.267 301.942 106.384 298.954 106.793C297.524 106.988 296.265 106.775 295.373 106.52C294.924 106.392 294.56 106.251 294.302 106.139C294.172 106.083 294.069 106.034 293.994 105.996C293.956 105.978 293.926 105.962 293.903 105.95L293.874 105.934L293.863 105.929L293.859 105.926C293.858 105.926 293.856 105.924 294.492 104.779L293.856 105.924L292.981 105.438L293.22 104.466C293.83 101.991 294.971 100.205 296.391 98.9567C297.8 97.7178 299.416 97.0667 300.904 96.7401C302.387 96.4142 303.777 96.4032 304.786 96.4693C305.293 96.5026 305.712 96.556 306.01 96.6021C306.159 96.6252 306.277 96.6465 306.362 96.6627C306.404 96.6709 306.438 96.6777 306.463 96.6829L306.493 96.6894L306.503 96.6915L306.507 96.6924C306.508 96.6925 306.51 96.693 306.223 97.971L306.51 96.693L307.988 97.0252ZM304.326 99.0679C303.52 99.0338 302.51 99.0694 301.465 99.2988C300.296 99.5558 299.118 100.047 298.12 100.924C297.326 101.622 296.603 102.603 296.094 104.002C296.743 104.187 297.625 104.33 298.6 104.197C300.223 103.975 302.458 102.931 304.326 99.0679ZM305.938 99.2496C305.939 99.2497 305.939 99.2497 305.938 99.2496V99.2496Z" fill="#0B2325"/>
<path fill-rule="evenodd" clip-rule="evenodd" d="M281.43 94.3764L282.94 94.5085C289.157 95.0526 292.093 97.6114 293.308 100.371C293.89 101.692 294.032 102.962 294.032 103.889C294.033 104.356 293.998 104.745 293.961 105.024C293.943 105.163 293.924 105.277 293.909 105.359C293.901 105.4 293.894 105.434 293.889 105.459L293.882 105.492L293.88 105.503L293.879 105.508C293.878 105.509 293.878 105.512 292.602 105.215L293.878 105.512L293.651 106.487L292.651 106.524C290.103 106.619 288.073 106.015 286.481 104.994C284.902 103.98 283.831 102.605 283.108 101.266C282.386 99.9291 281.992 98.5962 281.778 97.6083C281.67 97.1113 281.606 96.6935 281.569 96.395C281.55 96.2456 281.538 96.1255 281.53 96.0397C281.526 95.9968 281.523 95.9624 281.521 95.9371L281.519 95.9061L281.519 95.8959L281.518 95.8921C281.518 95.8914 281.518 95.8893 282.826 95.8134L281.518 95.8893L281.43 94.3764ZM284.403 97.3347C284.592 98.119 284.904 99.0799 285.413 100.021C285.982 101.075 286.779 102.072 287.896 102.789C288.786 103.36 289.928 103.786 291.413 103.89C291.412 103.215 291.307 102.327 290.911 101.427C290.25 99.9274 288.631 98.0658 284.403 97.3347Z" fill="#0B2325"/>
<path fill-rule="evenodd" clip-rule="evenodd" d="M281.844 114.765L283.316 114.404C289.377 112.919 292.98 114.397 295.018 116.619C295.994 117.683 296.537 118.839 296.836 119.717C296.987 120.158 297.079 120.538 297.134 120.814C297.161 120.952 297.18 121.066 297.192 121.149C297.198 121.19 297.203 121.224 297.206 121.25L297.21 121.283L297.211 121.294L297.211 121.299C297.211 121.3 297.212 121.303 295.908 121.433L297.212 121.303L297.311 122.299L296.376 122.656C293.994 123.566 291.877 123.647 290.042 123.192C288.221 122.741 286.764 121.784 285.648 120.748C284.535 119.715 283.733 118.579 283.213 117.713C282.951 117.277 282.756 116.902 282.624 116.631C282.558 116.496 282.508 116.386 282.473 116.307C282.456 116.268 282.442 116.236 282.432 116.213L282.42 116.184L282.416 116.175L282.415 116.171C282.414 116.171 282.414 116.169 283.627 115.676L282.414 116.169L281.844 114.765ZM285.61 116.609C286.041 117.291 286.646 118.1 287.43 118.828C288.308 119.642 289.384 120.33 290.672 120.65C291.698 120.904 292.917 120.94 294.356 120.56C294.138 119.922 293.753 119.115 293.088 118.39C291.98 117.183 289.848 115.941 285.61 116.609Z" fill="#0B2325"/>
<path fill-rule="evenodd" clip-rule="evenodd" d="M292.78 132.542L293.826 131.445C298.135 126.93 301.966 126.236 304.881 127.01C306.276 127.381 307.356 128.063 308.08 128.642C308.445 128.933 308.727 129.203 308.922 129.406C309.02 129.508 309.096 129.593 309.151 129.656C309.179 129.688 309.201 129.714 309.217 129.735L309.238 129.76L309.245 129.769L309.248 129.773C309.249 129.774 309.251 129.776 308.222 130.587L309.251 129.776L309.871 130.562L309.275 131.367C307.758 133.416 306.018 134.624 304.227 135.229C302.449 135.829 300.706 135.807 299.208 135.535C297.713 135.264 296.427 134.739 295.521 134.289C295.066 134.063 294.7 133.852 294.443 133.695C294.315 133.616 294.213 133.551 294.141 133.503C294.105 133.479 294.077 133.46 294.056 133.445L294.03 133.428L294.022 133.422L294.019 133.42C294.018 133.419 294.017 133.418 294.774 132.349L294.017 133.418L292.78 132.542ZM296.947 132.068C297.678 132.41 298.623 132.767 299.675 132.957C300.854 133.171 302.131 133.171 303.389 132.747C304.39 132.409 305.436 131.783 306.445 130.688C305.917 130.267 305.158 129.795 304.208 129.542C302.624 129.121 300.159 129.223 296.947 132.068Z" fill="#0B2325"/>
<path fill-rule="evenodd" clip-rule="evenodd" d="M298.215 79.569L299.006 80.862C302.26 86.1871 301.945 90.0684 300.447 92.6852C299.73 93.938 298.792 94.806 298.047 95.3575C297.672 95.6348 297.338 95.8377 297.092 95.9739C296.968 96.0422 296.866 96.0942 296.791 96.1309C296.753 96.1493 296.722 96.1638 296.698 96.1747L296.668 96.1883L296.657 96.1931L296.653 96.1949C296.652 96.1953 296.649 96.1965 296.13 94.994L296.649 96.1965L295.73 96.5934L295.106 95.8107C293.516 93.8175 292.797 91.825 292.673 89.9382C292.551 88.066 293.021 86.3876 293.669 85.0099C294.315 83.6354 295.154 82.5272 295.822 81.7682C296.157 81.3863 296.456 81.0865 296.673 80.879C296.782 80.7752 296.872 80.694 296.936 80.6369C296.968 80.6083 296.995 80.5856 297.014 80.5691L297.037 80.549L297.045 80.5424L297.048 80.54C297.049 80.5396 297.05 80.5382 297.888 81.5451L297.05 80.5382L298.215 79.569ZM297.601 83.7174C297.082 84.3354 296.494 85.1573 296.039 86.125C295.529 87.2088 295.201 88.4423 295.287 89.7672C295.356 90.8222 295.692 91.9936 296.49 93.2501C297.033 92.8486 297.685 92.2372 298.173 91.3835C298.988 89.9616 299.524 87.5532 297.601 83.7174ZM298.728 82.5503C298.728 82.5501 298.728 82.5499 298.728 82.5503V82.5503Z" fill="#0B2325"/>
<path fill-rule="evenodd" clip-rule="evenodd" d="M296.339 93.9555C297.041 94.1329 297.465 94.8452 297.288 95.5466L294.748 94.9041C294.926 94.2028 295.638 93.7781 296.339 93.9555ZM294.161 110.445C294.403 108.242 295.175 104.545 295.904 101.34C296.266 99.749 296.612 98.2996 296.868 97.2478C296.996 96.722 297.101 96.296 297.174 96.0017L297.259 95.6632L297.288 95.5466L294.748 94.9041L294.718 95.0256L294.632 95.3695C294.558 95.6676 294.451 96.098 294.322 96.6285C294.064 97.6892 293.715 99.1519 293.349 100.759C292.624 103.948 291.817 107.789 291.556 110.163L291.555 110.172C291.41 111.58 291.707 113.153 292.243 114.693C292.784 116.249 293.6 117.856 294.582 119.363C296.516 122.332 299.241 125.124 302.056 126.279C303.106 126.708 304.383 127.583 305.753 128.739C307.105 129.88 308.474 131.23 309.706 132.535C310.935 133.837 312.014 135.079 312.786 135.997C313.172 136.455 313.48 136.831 313.691 137.091C313.796 137.221 313.877 137.323 313.932 137.391L313.993 137.468L314.008 137.487L314.011 137.491C314.011 137.491 314.011 137.491 314.011 137.491C314.458 138.06 315.282 138.16 315.851 137.713C316.42 137.266 316.519 136.443 316.072 135.874L315.042 136.683C316.072 135.874 316.072 135.874 316.072 135.874L316.065 135.865L316.048 135.843L315.981 135.758C315.922 135.685 315.837 135.578 315.727 135.443C315.507 135.171 315.188 134.782 314.79 134.31C313.996 133.366 312.883 132.084 311.611 130.736C310.34 129.391 308.897 127.964 307.442 126.737C306.006 125.525 304.48 124.44 303.049 123.855C300.934 122.987 298.575 120.693 296.776 117.933C295.892 116.575 295.178 115.158 294.717 113.832C294.251 112.493 294.07 111.329 294.161 110.445Z" fill="#0B2325"/>
</g>
<defs>
<clipPath id="clip0_218_11">
<rect width="600" height="400" fill="white"/>
</clipPath>
</defs>
</svg>
