<svg width="600" height="400" viewBox="0 0 600 400" fill="none" xmlns="http://www.w3.org/2000/svg">
<g clip-path="url(#clip0_1_19)">
<rect width="600" height="400" fill="white"/>
<rect width="600" height="400" fill="white"/>
<path d="M209.694 217.095C207.351 217.095 205.276 216.689 203.469 215.878C201.662 215.067 200.139 213.968 198.901 212.582C197.663 211.196 196.709 209.641 196.04 207.917C195.404 206.193 195.086 204.418 195.086 202.592V201.578C195.086 199.685 195.404 197.876 196.04 196.152C196.709 194.394 197.646 192.839 198.851 191.487C200.089 190.135 201.595 189.07 203.369 188.292C205.142 187.481 207.15 187.075 209.392 187.075C212.371 187.075 214.897 187.751 216.972 189.104C219.047 190.456 220.636 192.248 221.741 194.479C222.845 196.676 223.397 199.076 223.397 201.68V204.621H198.901V199.651H218.127L214.964 201.882C214.964 200.293 214.747 198.958 214.312 197.876C213.91 196.761 213.291 195.916 212.454 195.341C211.651 194.766 210.631 194.479 209.392 194.479C208.188 194.479 207.134 194.766 206.23 195.341C205.36 195.882 204.691 196.727 204.222 197.876C203.754 198.992 203.519 200.412 203.519 202.136C203.519 203.691 203.737 205.043 204.172 206.193C204.607 207.308 205.276 208.17 206.18 208.779C207.083 209.387 208.255 209.692 209.694 209.692C210.965 209.692 212.003 209.472 212.806 209.032C213.642 208.593 214.228 208.001 214.563 207.258H222.895C222.494 209.151 221.691 210.841 220.486 212.328C219.315 213.816 217.809 214.982 215.968 215.827C214.161 216.672 212.07 217.095 209.694 217.095Z" fill="#191331"/>
<path d="M237.741 216.994C233.725 216.994 230.563 216.165 228.254 214.509C225.945 212.819 224.707 210.452 224.539 207.41H232.571C232.705 208.255 233.223 208.982 234.127 209.59C235.03 210.199 236.302 210.503 237.942 210.503C239.113 210.503 240.117 210.334 240.954 209.996C241.824 209.624 242.259 209.032 242.259 208.221C242.259 207.511 241.924 206.936 241.255 206.497C240.585 206.024 239.364 205.702 237.59 205.533L235.683 205.331C232.136 204.959 229.525 203.978 227.852 202.389C226.179 200.801 225.342 198.806 225.342 196.406C225.342 194.344 225.844 192.653 226.848 191.335C227.852 189.983 229.241 188.968 231.015 188.292C232.788 187.616 234.813 187.278 237.088 187.278C240.803 187.278 243.798 188.106 246.074 189.763C248.349 191.386 249.554 193.735 249.688 196.811H241.656C241.522 195.966 241.071 195.256 240.301 194.682C239.531 194.073 238.427 193.769 236.988 193.769C235.951 193.769 235.097 193.955 234.428 194.327C233.792 194.699 233.474 195.223 233.474 195.899C233.474 196.609 233.775 197.133 234.378 197.471C235.014 197.809 236.018 198.062 237.39 198.231L239.297 198.434C242.844 198.806 245.572 199.803 247.479 201.426C249.42 203.015 250.391 205.111 250.391 207.714C250.391 209.641 249.872 211.297 248.834 212.683C247.831 214.069 246.375 215.134 244.467 215.878C242.593 216.622 240.351 216.994 237.741 216.994Z" fill="#191331"/>
<path d="M264.531 216.994C260.515 216.994 257.353 216.165 255.044 214.509C252.735 212.819 251.496 210.452 251.329 207.41H259.361C259.494 208.255 260.013 208.982 260.917 209.59C261.82 210.199 263.092 210.503 264.732 210.503C265.903 210.503 266.907 210.334 267.743 209.996C268.613 209.624 269.048 209.032 269.048 208.221C269.048 207.511 268.714 206.936 268.045 206.497C267.375 206.024 266.154 205.702 264.38 205.533L262.473 205.331C258.925 204.959 256.315 203.978 254.642 202.389C252.969 200.801 252.132 198.806 252.132 196.406C252.132 194.344 252.634 192.653 253.638 191.335C254.642 189.983 256.031 188.968 257.804 188.292C259.578 187.616 261.603 187.278 263.878 187.278C267.593 187.278 270.588 188.106 272.863 189.763C275.139 191.386 276.344 193.735 276.478 196.811H268.446C268.312 195.966 267.86 195.256 267.091 194.682C266.321 194.073 265.217 193.769 263.778 193.769C262.74 193.769 261.887 193.955 261.218 194.327C260.582 194.699 260.264 195.223 260.264 195.899C260.264 196.609 260.565 197.133 261.168 197.471C261.803 197.809 262.807 198.062 264.179 198.231L266.087 198.434C269.634 198.806 272.361 199.803 274.269 201.426C276.21 203.015 277.18 205.111 277.18 207.714C277.18 209.641 276.662 211.297 275.624 212.683C274.62 214.069 273.165 215.134 271.257 215.878C269.383 216.622 267.141 216.994 264.531 216.994Z" fill="#191331"/>
<path d="M294.312 217.095C291.869 217.095 289.694 216.723 287.787 215.979C285.879 215.236 284.256 214.205 282.917 212.886C281.612 211.568 280.608 210.046 279.906 208.322C279.236 206.598 278.902 204.756 278.902 202.795V201.578C278.902 199.55 279.253 197.657 279.956 195.899C280.692 194.141 281.729 192.603 283.068 191.284C284.407 189.966 286.03 188.935 287.937 188.191C289.845 187.447 291.97 187.075 294.312 187.075C296.688 187.075 298.813 187.447 300.687 188.191C302.595 188.935 304.218 189.966 305.556 191.284C306.895 192.603 307.915 194.141 308.618 195.899C309.354 197.657 309.722 199.55 309.722 201.578V202.795C309.722 204.756 309.371 206.598 308.668 208.322C307.999 210.046 306.995 211.568 305.657 212.886C304.351 214.205 302.745 215.236 300.838 215.979C298.93 216.723 296.755 217.095 294.312 217.095ZM294.312 209.387C295.718 209.387 296.872 209.083 297.776 208.475C298.713 207.866 299.415 207.021 299.884 205.939C300.352 204.823 300.587 203.573 300.587 202.187C300.587 200.733 300.336 199.465 299.834 198.383C299.365 197.268 298.662 196.389 297.725 195.747C296.788 195.104 295.651 194.783 294.312 194.783C292.974 194.783 291.836 195.104 290.899 195.747C289.962 196.389 289.242 197.268 288.74 198.383C288.272 199.465 288.038 200.733 288.038 202.187C288.038 203.573 288.272 204.823 288.74 205.939C289.209 207.021 289.912 207.866 290.849 208.475C291.786 209.083 292.94 209.387 294.312 209.387Z" fill="#191331"/>
<path d="M311.925 216.081V188.089H319.153V200.108H318.751C318.751 197.2 319.12 194.8 319.856 192.907C320.592 190.98 321.68 189.543 323.119 188.597C324.591 187.65 326.365 187.177 328.439 187.177H328.841C331.987 187.177 334.413 188.242 336.12 190.371C337.86 192.467 338.73 195.696 338.73 200.057V216.081H329.594V199.803C329.594 198.519 329.209 197.471 328.439 196.659C327.703 195.814 326.683 195.392 325.377 195.392C324.072 195.392 323.018 195.814 322.215 196.659C321.445 197.471 321.061 198.552 321.061 199.905V216.081H311.925Z" fill="#191331"/>
<path d="M354.062 216.994C350.046 216.994 346.884 216.165 344.575 214.509C342.266 212.819 341.028 210.452 340.86 207.41H348.892C349.026 208.255 349.544 208.982 350.448 209.59C351.351 210.199 352.623 210.503 354.263 210.503C355.434 210.503 356.438 210.334 357.275 209.996C358.145 209.624 358.58 209.032 358.58 208.221C358.58 207.511 358.245 206.936 357.576 206.497C356.906 206.024 355.685 205.702 353.911 205.533L352.004 205.331C348.457 204.959 345.846 203.978 344.173 202.389C342.5 200.801 341.663 198.806 341.663 196.406C341.663 194.344 342.165 192.653 343.169 191.335C344.173 189.983 345.562 188.968 347.336 188.292C349.109 187.616 351.134 187.278 353.409 187.278C357.124 187.278 360.119 188.106 362.395 189.763C364.67 191.386 365.875 193.735 366.009 196.811H357.977C357.843 195.966 357.392 195.256 356.622 194.682C355.852 194.073 354.748 193.769 353.309 193.769C352.272 193.769 351.418 193.955 350.749 194.327C350.113 194.699 349.795 195.223 349.795 195.899C349.795 196.609 350.096 197.133 350.699 197.471C351.335 197.809 352.338 198.062 353.711 198.231L355.618 198.434C359.165 198.806 361.893 199.803 363.8 201.426C365.741 203.015 366.711 205.111 366.711 207.714C366.711 209.641 366.193 211.297 365.155 212.683C364.151 214.069 362.696 215.134 360.788 215.878C358.914 216.622 356.672 216.994 354.062 216.994Z" fill="#191331"/>
<path d="M369.037 226.223V188.089H376.266V200.158H375.462C375.563 197.42 376.098 195.087 377.069 193.16C378.073 191.233 379.428 189.78 381.135 188.799C382.841 187.785 384.799 187.278 387.008 187.278C388.915 187.278 390.639 187.633 392.178 188.343C393.717 189.019 395.039 190 396.143 191.284C397.248 192.535 398.084 194.022 398.653 195.747C399.256 197.471 399.557 199.364 399.557 201.426V202.643C399.557 204.705 399.289 206.615 398.754 208.373C398.218 210.097 397.415 211.618 396.344 212.937C395.273 214.222 393.952 215.219 392.379 215.929C390.839 216.639 389.066 216.994 387.058 216.994C384.916 216.994 383.025 216.571 381.386 215.726C379.746 214.847 378.441 213.545 377.47 211.821C376.533 210.063 376.031 207.866 375.964 205.229L378.173 207.967V226.223H369.037ZM384.297 209.387C385.502 209.387 386.556 209.083 387.459 208.475C388.396 207.832 389.116 206.953 389.618 205.838C390.153 204.722 390.421 203.454 390.421 202.034C390.421 200.581 390.153 199.33 389.618 198.282C389.116 197.2 388.413 196.372 387.51 195.797C386.606 195.189 385.535 194.885 384.297 194.885C383.193 194.885 382.155 195.138 381.185 195.645C380.248 196.152 379.478 196.896 378.876 197.876C378.273 198.857 377.972 200.04 377.972 201.426V203.15C377.972 204.469 378.29 205.601 378.926 206.548C379.562 207.46 380.365 208.17 381.335 208.677C382.306 209.151 383.293 209.387 384.297 209.387Z" fill="#191331"/>
<path d="M448.168 217.095C445.759 217.095 443.667 216.706 441.893 215.929C440.12 215.117 438.631 214.036 437.426 212.683C436.255 211.331 435.368 209.793 434.766 208.069C434.197 206.345 433.912 204.553 433.912 202.694V201.68C433.912 199.719 434.213 197.859 434.816 196.102C435.452 194.344 436.372 192.789 437.577 191.436C438.781 190.084 440.27 189.019 442.044 188.242C443.818 187.464 445.859 187.075 448.168 187.075C450.711 187.075 452.954 187.582 454.894 188.597C456.835 189.611 458.375 191.014 459.513 192.805C460.684 194.563 461.336 196.592 461.47 198.891H452.535C452.435 197.775 452.016 196.828 451.28 196.051C450.577 195.273 449.54 194.885 448.168 194.885C446.997 194.885 446.026 195.189 445.257 195.797C444.52 196.406 443.968 197.251 443.6 198.333C443.232 199.415 443.048 200.699 443.048 202.187C443.048 203.573 443.199 204.807 443.5 205.888C443.834 206.97 444.37 207.815 445.106 208.424C445.876 208.999 446.896 209.286 448.168 209.286C449.105 209.286 449.892 209.117 450.527 208.779C451.163 208.441 451.665 207.967 452.033 207.359C452.401 206.717 452.636 205.973 452.736 205.128H461.671C461.537 207.494 460.868 209.573 459.663 211.365C458.492 213.157 456.919 214.56 454.945 215.574C452.97 216.588 450.711 217.095 448.168 217.095Z" fill="#191331"/>
<path d="M477.296 217.095C474.954 217.095 472.879 216.689 471.072 215.878C469.265 215.067 467.742 213.968 466.504 212.582C465.266 211.196 464.312 209.641 463.643 207.917C463.007 206.193 462.689 204.418 462.689 202.592V201.578C462.689 199.685 463.007 197.876 463.643 196.152C464.312 194.394 465.249 192.839 466.454 191.487C467.692 190.135 469.198 189.07 470.971 188.292C472.745 187.481 474.753 187.075 476.995 187.075C479.973 187.075 482.5 187.751 484.575 189.104C486.65 190.456 488.239 192.248 489.343 194.479C490.448 196.676 491 199.076 491 201.68V204.621H466.504V199.651H485.729L482.567 201.882C482.567 200.293 482.349 198.958 481.914 197.876C481.513 196.761 480.894 195.916 480.057 195.341C479.254 194.766 478.233 194.479 476.995 194.479C475.79 194.479 474.736 194.766 473.833 195.341C472.963 195.882 472.293 196.727 471.825 197.876C471.356 198.992 471.122 200.412 471.122 202.136C471.122 203.691 471.34 205.043 471.775 206.193C472.21 207.308 472.879 208.17 473.783 208.779C474.686 209.387 475.857 209.692 477.296 209.692C478.568 209.692 479.605 209.472 480.408 209.032C481.245 208.593 481.831 208.001 482.165 207.258H490.498C490.096 209.151 489.293 210.841 488.089 212.328C486.917 213.816 485.411 214.982 483.571 215.827C481.764 216.672 479.672 217.095 477.296 217.095Z" fill="#191331"/>
<path d="M171.407 186.807H180.711V216.081H171.407V186.807Z" fill="#191331"/>
<path d="M171.407 207.779H194.534V216.081L171.407 216.081V207.779Z" fill="#191331"/>
<path d="M431.833 187.618V201.656H422.898V200.955C422.898 199.569 422.597 198.385 421.994 197.405C421.392 196.425 420.622 195.681 419.685 195.174C418.715 194.667 417.677 194.413 416.573 194.413C415.335 194.413 414.264 194.717 413.36 195.326C412.457 195.901 411.754 196.729 411.252 197.811C410.717 198.859 410.449 200.11 410.449 201.563C410.449 201.594 410.449 201.625 410.449 201.656H401.313V200.955C401.313 198.893 401.614 196.999 402.217 195.275C402.786 193.551 403.622 192.064 404.727 190.813C405.831 189.528 407.153 188.548 408.692 187.872C410.231 187.162 411.955 186.807 413.862 186.807C416.071 186.807 418.029 187.314 419.735 188.328C421.442 189.309 422.797 190.762 423.801 192.689C424.114 193.311 424.382 193.974 424.604 194.68V187.618H431.833Z" fill="#191331"/>
<path d="M431.833 215.694V201.656H422.898L422.898 202.357C422.898 203.743 422.597 204.926 421.994 205.907C421.392 206.887 420.622 207.631 419.685 208.138C418.715 208.645 417.677 208.899 416.573 208.899C415.335 208.899 414.264 208.594 413.36 207.986C412.457 207.411 411.754 206.583 411.252 205.501C410.717 204.453 410.449 203.202 410.449 201.749C410.449 201.718 410.449 201.687 410.449 201.656H401.313V202.357C401.313 204.419 401.614 206.312 402.217 208.036C402.786 209.761 403.622 211.248 404.727 212.499C405.831 213.784 407.153 214.764 408.692 215.44C410.231 216.15 411.955 216.505 413.862 216.505C416.071 216.505 418.029 215.998 419.735 214.984C421.442 214.003 422.797 212.55 423.801 210.623C424.114 210.001 424.382 209.338 424.604 208.632V215.694H431.833Z" fill="#191331"/>
<path d="M431.833 216.323V187.643H424.604V199.712H425.408C425.307 196.974 424.772 194.641 423.801 192.714C422.797 190.787 421.442 189.334 419.735 188.353C418.029 187.339 416.071 186.832 413.862 186.832C411.955 186.832 410.231 187.187 408.692 187.897C407.153 188.573 405.831 189.554 404.727 190.838C403.622 192.089 402.786 193.576 402.217 195.301C401.614 197.025 401.313 198.918 401.313 200.98V202.197C401.313 204.259 401.581 206.169 402.116 207.927C402.652 209.651 403.455 211.172 404.526 212.491C405.597 213.776 406.918 214.773 408.491 215.483C410.031 216.193 411.804 216.548 413.812 216.548C415.954 216.548 417.845 216.125 419.484 215.28C421.124 214.401 422.429 213.099 423.4 211.375C424.337 209.617 424.839 207.42 424.906 204.783L422.697 207.521V216.323H431.833ZM416.573 208.941C415.368 208.941 414.314 208.637 413.411 208.029C412.474 207.386 411.754 206.507 411.252 205.392C410.717 204.276 410.449 203.008 410.449 201.588C410.449 200.135 410.717 198.884 411.252 197.836C411.754 196.754 412.457 195.926 413.36 195.351C414.264 194.743 415.335 194.439 416.573 194.439C417.677 194.439 418.715 194.692 419.685 195.199C420.622 195.706 421.392 196.45 421.994 197.43C422.597 198.411 422.898 199.594 422.898 200.98V202.704C422.898 204.023 422.58 205.155 421.944 206.102C421.308 207.014 420.505 207.724 419.535 208.231C418.564 208.705 417.577 208.941 416.573 208.941Z" fill="#191331"/>
<path fill-rule="evenodd" clip-rule="evenodd" d="M138.206 178.5H155.019C155.724 178.5 156.399 178.783 156.898 179.286C157.396 179.79 157.676 180.472 157.676 181.184V221.448C157.676 222.16 157.396 222.843 156.898 223.346C156.399 223.849 155.724 224.132 155.019 224.132H139.719C138.31 224.135 136.96 224.701 135.962 225.705L132.983 228.714C132.971 228.726 132.957 228.734 132.943 228.742C132.929 228.75 132.915 228.758 132.904 228.771C132.675 228.983 132.42 229.173 132.122 229.297H132.117C131.469 229.568 130.741 229.568 130.092 229.297H130.087C129.789 229.173 129.534 228.985 129.306 228.771C129.294 228.758 129.28 228.75 129.266 228.742C129.252 228.734 129.238 228.726 129.226 228.714L126.247 225.705C125.249 224.701 123.899 224.135 122.49 224.132H107.191C106.486 224.132 105.81 223.849 105.312 223.346C104.813 222.843 104.533 222.16 104.533 221.448V181.184C104.533 180.472 104.813 179.79 105.312 179.286C105.81 178.783 106.486 178.5 107.191 178.5H124.004C125.971 178.507 129.652 180.156 131.105 181.496C132.557 180.156 136.238 178.507 138.206 178.5ZM132.435 190.691C131.898 189.566 130.312 189.566 129.774 190.691L126.804 196.904C126.442 197.663 125.836 198.275 125.085 198.641L118.934 201.642C117.821 202.185 117.821 203.786 118.934 204.329L125.085 207.33C125.836 207.696 126.442 208.308 126.804 209.067L129.774 215.28C130.312 216.405 131.898 216.405 132.435 215.28L135.405 209.067C135.768 208.308 136.374 207.696 137.125 207.33L143.275 204.329C144.388 203.786 144.388 202.185 143.275 201.642L137.125 198.641C136.374 198.275 135.768 197.663 135.405 196.904L132.435 190.691Z" fill="#5864FB"/>
</g>
<defs>
<clipPath id="clip0_1_19">
<rect width="600" height="400" fill="white"/>
</clipPath>
</defs>
</svg>
