<svg width="600" height="400" viewBox="0 0 600 400" fill="none" xmlns="http://www.w3.org/2000/svg">
<g clip-path="url(#clip0_215_808)">
<rect width="600" height="400" fill="white"/>
<rect width="600" height="400" fill="white"/>
<path fill-rule="evenodd" clip-rule="evenodd" d="M144.357 188.307C144.358 177.556 144.357 172.18 146.823 168.255C148.109 166.208 149.839 164.477 151.886 163.19C155.809 160.726 161.183 160.726 171.93 160.725C182.681 160.723 188.055 160.724 191.982 163.19C194.028 164.476 195.758 166.206 197.043 168.252C199.509 172.178 199.508 177.553 199.506 188.305C199.507 199.056 199.506 204.434 197.04 208.357C195.755 210.404 194.025 212.135 191.979 213.422C188.055 215.888 182.68 215.887 171.931 215.888C161.184 215.889 155.808 215.888 151.885 213.423C149.839 212.137 148.109 210.406 146.824 208.36C144.358 204.435 144.358 199.06 144.358 188.307L144.357 188.307Z" fill="#631B27"/>
<path fill-rule="evenodd" clip-rule="evenodd" d="M184.71 196.473C184.711 185.722 184.71 180.347 187.176 176.422C188.462 174.374 190.192 172.643 192.239 171.357C196.162 168.892 201.536 168.893 212.283 168.892C223.034 168.89 228.408 168.89 232.335 171.356C234.381 172.642 236.111 174.373 237.396 176.419C239.862 180.344 239.861 185.719 239.859 196.472C239.86 207.223 239.859 212.6 237.393 216.523C236.108 218.571 234.378 220.302 232.332 221.589C228.408 224.055 223.033 224.054 212.284 224.055C201.537 224.056 196.161 224.055 192.238 221.589C190.192 220.303 188.462 218.573 187.176 216.527C184.711 212.601 184.711 207.226 184.711 196.473L184.71 196.473Z" fill="#A7243B"/>
<path fill-rule="evenodd" clip-rule="evenodd" d="M215.15 184.112C215.15 181.97 215.15 180.898 215.793 180.116C216.128 179.708 216.579 179.363 217.112 179.107C218.135 178.616 219.536 178.616 222.337 178.616C225.139 178.615 226.54 178.616 227.563 179.107C228.097 179.363 228.547 179.708 228.883 180.116C229.525 180.898 229.525 181.969 229.525 184.112C229.525 186.254 229.524 187.326 228.882 188.107C228.547 188.515 228.096 188.86 227.563 189.117C226.54 189.608 225.139 189.608 222.337 189.608C219.536 189.608 218.135 189.608 217.112 189.117C216.579 188.861 216.128 188.516 215.793 188.108C215.15 187.326 215.15 186.255 215.15 184.112L215.15 184.112Z" fill="#CF5F73"/>
<mask id="mask0_215_808" style="mask-type:alpha" maskUnits="userSpaceOnUse" x="157" y="184" width="56" height="56">
<path fill-rule="evenodd" clip-rule="evenodd" d="M157.134 211.693C157.136 200.942 157.135 195.567 159.601 191.642C160.886 189.594 162.617 187.863 164.664 186.577C168.587 184.113 173.96 184.113 184.708 184.112C195.459 184.11 200.833 184.11 204.76 186.576C206.806 187.862 208.536 189.593 209.821 191.639C212.287 195.564 212.286 200.939 212.284 211.692C212.285 222.443 212.284 227.82 209.818 231.743C208.533 233.791 206.803 235.522 204.757 236.809C200.833 239.275 195.458 239.274 184.709 239.275C173.961 239.276 168.586 239.275 164.663 236.809C162.617 235.523 160.887 233.793 159.601 231.747C157.136 227.821 157.136 222.446 157.136 211.693L157.134 211.693Z" fill="#F43F5E"/>
</mask>
<g mask="url(#mask0_215_808)">
<path fill-rule="evenodd" clip-rule="evenodd" d="M157.134 211.693C157.136 200.942 157.135 195.567 159.601 191.642C160.886 189.594 162.617 187.863 164.664 186.577C168.587 184.113 173.96 184.113 184.708 184.112C195.459 184.11 200.833 184.11 204.76 186.576C206.806 187.862 208.536 189.593 209.821 191.639C212.287 195.564 212.286 200.939 212.284 211.692C212.285 222.443 212.284 227.82 209.818 231.743C208.533 233.791 206.803 235.522 204.757 236.809C200.833 239.275 195.458 239.274 184.709 239.275C173.961 239.276 168.586 239.275 164.663 236.809C162.617 235.523 160.887 233.793 159.601 231.747C157.136 227.821 157.136 222.446 157.136 211.693L157.134 211.693Z" fill="#F43F5E"/>
<path d="M155.149 205.462V185.727L184.709 171.507L214.17 182.908V205.462L187.61 217.579C185.767 218.419 183.651 218.421 181.807 217.582L155.149 205.462Z" fill="#A7243B" fill-opacity="0.59"/>
<path d="M149.597 202.392L147.275 172.388L184.709 167.28L219.822 174.842V202.392L187.021 213.866C185.524 214.389 183.894 214.389 182.398 213.866L149.597 202.392Z" fill="#F43F5E"/>
</g>
<path d="M266.458 210.907V195.756C266.458 192.505 268.503 190.094 271.753 190.094C275.213 190.094 276.681 192.401 276.681 195.336V210.907H282.657V195.756C282.657 192.61 284.754 190.094 287.952 190.094C291.36 190.094 292.88 192.348 292.88 195.336V210.907H298.752V194.34C298.752 187.577 294.348 184.642 289.735 184.642C286.432 184.642 283.444 185.795 281.452 189.15C280.089 186.162 277.153 184.642 273.798 184.642C270.914 184.642 267.716 186.005 266.248 188.626V185.376H260.429V210.907H266.458Z" fill="#1F2937"/>
<path d="M308.453 198.01C308.453 193.082 311.284 189.937 315.373 189.937C319.41 189.937 322.136 193.082 322.136 198.01C322.136 202.938 319.358 206.346 315.373 206.346C311.127 206.346 308.453 202.886 308.453 198.01ZM322.188 207.237C322.188 208.967 322.346 210.33 322.451 210.907H328.27C328.217 210.382 328.008 208.338 328.008 206.241V185.376H322.084V188.731C321.402 187.001 319.095 184.642 314.587 184.642C307.247 184.642 302.372 190.618 302.372 198.01C302.372 205.664 307.195 211.588 314.692 211.588C318.361 211.588 321.035 209.701 322.188 207.237Z" fill="#1F2937"/>
<path d="M339.941 210.907V185.376H333.912V210.907H339.941ZM332.969 176.411C332.969 178.613 334.751 180.343 336.901 180.343C339.103 180.343 340.885 178.613 340.885 176.411C340.885 174.209 339.103 172.427 336.901 172.427C334.751 172.427 332.969 174.209 332.969 176.411Z" fill="#1F2937"/>
<path d="M352.033 210.907V172.951H345.952V210.907H352.033Z" fill="#1F2937"/>
<path d="M369.157 190.199C373.036 190.199 374.766 192.715 375.343 194.969L380.795 192.977C379.746 188.888 375.972 184.589 369.104 184.589C361.765 184.589 356.05 190.251 356.05 198.115C356.05 205.874 361.765 211.693 369.261 211.693C375.972 211.693 379.799 207.342 381.005 203.357L375.657 201.418C375.081 203.357 373.246 206.136 369.261 206.136C365.434 206.136 362.132 203.253 362.132 198.115C362.132 192.977 365.434 190.199 369.157 190.199Z" fill="#1F2937"/>
<path d="M388.404 198.01C388.404 193.082 391.235 189.937 395.324 189.937C399.36 189.937 402.087 193.082 402.087 198.01C402.087 202.938 399.308 206.346 395.324 206.346C391.077 206.346 388.404 202.886 388.404 198.01ZM402.139 207.237C402.139 208.967 402.296 210.33 402.401 210.907H408.22C408.168 210.382 407.958 208.338 407.958 206.241V185.376H402.034V188.731C401.353 187.001 399.046 184.642 394.537 184.642C387.198 184.642 382.322 190.618 382.322 198.01C382.322 205.664 387.145 211.588 394.642 211.588C398.312 211.588 400.986 209.701 402.139 207.237Z" fill="#1F2937"/>
<path d="M428.804 185.218C428.542 185.166 427.913 185.061 427.179 185.061C423.824 185.061 420.993 186.686 419.787 189.465V185.376H413.863V210.907H419.944V198.744C419.944 193.973 422.094 191.247 426.812 191.247C427.441 191.247 428.123 191.3 428.804 191.404V185.218Z" fill="#1F2937"/>
<path d="M435.879 198.062C435.879 193.187 438.815 190.094 442.799 190.094C446.784 190.094 449.51 193.134 449.51 198.01C449.51 202.886 446.731 206.188 442.747 206.188C438.605 206.188 435.879 202.938 435.879 198.062ZM455.381 172.951H449.457V188.364C448.671 186.739 446.417 184.694 441.96 184.694C434.778 184.694 429.798 190.723 429.798 198.062C429.798 205.769 434.726 211.536 442.065 211.536C445.683 211.536 448.356 209.753 449.562 207.604C449.562 208.652 449.719 210.33 449.824 210.907H455.643C455.591 210.487 455.381 208.548 455.381 206.241V172.951Z" fill="#1F2937"/>
</g>
<defs>
<clipPath id="clip0_215_808">
<rect width="600" height="400" fill="white"/>
</clipPath>
</defs>
</svg>
