<svg width="600" height="400" viewBox="0 0 600 400" fill="none" xmlns="http://www.w3.org/2000/svg">
<g clip-path="url(#clip0_1_5)">
<rect width="600" height="400" fill="white"/>
<rect width="600" height="400" fill="white"/>
<path d="M158.766 217.576C155.47 217.576 152.574 216.84 150.078 215.368C147.582 213.896 145.614 211.864 144.174 209.272C142.766 206.648 142.062 203.624 142.062 200.2C142.062 196.776 142.766 193.768 144.174 191.176C145.614 188.552 147.582 186.504 150.078 185.032C152.574 183.56 155.47 182.824 158.766 182.824C162.062 182.824 164.974 183.56 167.502 185.032C170.03 186.504 171.982 188.552 173.358 191.176C174.766 193.768 175.47 196.776 175.47 200.2C175.47 203.624 174.766 206.648 173.358 209.272C171.982 211.864 170.03 213.896 167.502 215.368C164.974 216.84 162.062 217.576 158.766 217.576ZM158.766 211.096C160.718 211.096 162.382 210.648 163.758 209.752C165.166 208.856 166.254 207.608 167.022 206.008C167.79 204.376 168.174 202.44 168.174 200.2C168.174 197.96 167.79 196.04 167.022 194.44C166.254 192.808 165.166 191.56 163.758 190.696C162.382 189.8 160.718 189.352 158.766 189.352C156.878 189.352 155.23 189.8 153.822 190.696C152.414 191.56 151.326 192.808 150.558 194.44C149.79 196.04 149.406 197.96 149.406 200.2C149.406 202.44 149.79 204.376 150.558 206.008C151.326 207.608 152.414 208.856 153.822 209.752C155.23 210.648 156.878 211.096 158.766 211.096Z" fill="#171516"/>
<path d="M189.204 217C187.444 217 185.892 216.728 184.548 216.184C183.204 215.608 182.164 214.68 181.428 213.4C180.692 212.12 180.324 210.376 180.324 208.168V198.808H176.196V192.808H180.324L181.092 185.992H187.524V192.808H193.716V198.808H187.524V208.264C187.524 209.224 187.732 209.912 188.148 210.328C188.596 210.712 189.348 210.904 190.404 210.904H193.716V217H189.204Z" fill="#171516"/>
<path d="M206.739 217C204.979 217 203.427 216.728 202.083 216.184C200.739 215.608 199.699 214.68 198.963 213.4C198.227 212.12 197.859 210.376 197.859 208.168V198.808H193.731V192.808H197.859L198.627 185.992H205.059V192.808H211.251V198.808H205.059V208.264C205.059 209.224 205.267 209.912 205.683 210.328C206.131 210.712 206.883 210.904 207.939 210.904H211.251V217H206.739Z" fill="#171516"/>
<path d="M225.248 217.576C222.752 217.576 220.56 217.064 218.672 216.04C216.784 214.984 215.296 213.528 214.208 211.672C213.152 209.784 212.624 207.624 212.624 205.192C212.624 202.696 213.152 200.472 214.208 198.52C215.264 196.568 216.736 195.032 218.624 193.912C220.512 192.792 222.704 192.232 225.2 192.232C227.632 192.232 229.76 192.76 231.584 193.816C233.408 194.872 234.832 196.312 235.856 198.136C236.912 199.928 237.44 202.008 237.44 204.376C237.44 204.696 237.424 205.064 237.392 205.48C237.392 205.864 237.36 206.264 237.296 206.68H217.76V202.504H230.096C230.032 201.16 229.536 200.088 228.608 199.288C227.712 198.456 226.592 198.04 225.248 198.04C224.224 198.04 223.296 198.28 222.464 198.76C221.632 199.24 220.96 199.96 220.448 200.92C219.968 201.88 219.728 203.096 219.728 204.568V206.008C219.728 207.128 219.936 208.12 220.352 208.984C220.8 209.848 221.424 210.52 222.224 211C223.056 211.48 224.032 211.72 225.152 211.72C226.208 211.72 227.072 211.512 227.744 211.096C228.448 210.648 228.992 210.088 229.376 209.416H236.72C236.272 210.952 235.504 212.344 234.416 213.592C233.328 214.808 232 215.784 230.432 216.52C228.864 217.224 227.136 217.576 225.248 217.576Z" fill="#171516"/>
<path d="M239.854 217V192.808H246.238L246.91 197.224C247.55 196.2 248.302 195.32 249.166 194.584C250.03 193.848 251.022 193.272 252.142 192.856C253.294 192.44 254.526 192.232 255.838 192.232V199.864H253.438C252.478 199.864 251.598 199.976 250.798 200.2C250.03 200.392 249.358 200.728 248.782 201.208C248.238 201.688 247.806 202.344 247.486 203.176C247.198 203.976 247.054 204.984 247.054 206.2V217H239.854Z" fill="#171516"/>
<path d="M256.169 217.908C255.33 217.908 254.724 217.566 254.353 216.883C254.177 216.531 254.089 216.18 254.089 215.828C254.089 215.633 254.109 215.447 254.148 215.271C256.121 208.182 258.054 201.082 259.949 193.973C260.125 193.387 260.457 192.967 260.945 192.713C261.296 192.518 261.658 192.42 262.029 192.42C262.849 192.42 263.445 192.771 263.816 193.475C263.992 193.807 264.08 194.158 264.08 194.529C264.08 195.057 262.126 202.342 258.22 216.385L254.148 215.271C254.675 213.514 255.418 211.863 256.375 210.32C257.312 208.777 258.328 207.273 259.421 205.809L259.89 205.135C262.078 202.029 264.382 199.021 266.804 196.111L266.98 195.906C267.546 195.203 268.171 194.529 268.855 193.885C269.89 192.947 271.033 192.479 272.283 192.479C273.044 192.479 273.806 192.732 274.568 193.24C275.349 193.729 275.935 194.52 276.326 195.613C276.56 196.375 276.677 197.176 276.677 198.016C276.677 200.652 275.955 204.383 274.509 209.207C274.177 210.398 273.982 211.307 273.923 211.932C273.884 212.01 273.845 212.518 273.806 213.455L269.88 212.371C271.169 210.535 272.302 208.602 273.279 206.57C274.236 204.656 275.3 202.801 276.472 201.004C279.187 196.668 281.433 193.914 283.21 192.742C283.992 192.215 284.851 191.951 285.789 191.951C287.175 191.951 288.308 192.527 289.187 193.68C289.832 194.539 290.242 195.477 290.418 196.492C290.535 197.234 290.593 197.977 290.593 198.719C290.593 200.184 290.369 201.639 289.919 203.084C289.646 204.1 289.334 205.115 288.982 206.131C288.376 207.85 287.957 209.285 287.722 210.438L287.605 211.111C287.585 211.15 287.576 211.219 287.576 211.316L287.546 211.434C287.566 211.434 287.576 211.365 287.576 211.229V211.375L287.546 211.463V212.078C287.527 212.059 287.517 212.039 287.517 212.02C287.517 211.98 287.507 211.961 287.488 211.961L287.517 211.99C287.517 212.01 287.517 212.049 287.517 212.107C287.537 212.146 287.556 212.186 287.576 212.225C287.595 212.264 287.615 212.303 287.634 212.342V212.43C287.615 212.41 287.595 212.391 287.576 212.371C287.576 212.352 287.576 212.303 287.576 212.225L287.634 212.342C287.615 212.322 287.595 212.312 287.576 212.312C287.576 212.293 287.566 212.273 287.546 212.254C287.546 212.234 287.546 212.215 287.546 212.195L287.517 212.166L287.341 211.961L287.371 211.99C287.39 212.029 287.41 212.059 287.429 212.078C287.449 212.078 287.468 212.078 287.488 212.078V212.137L287.371 212.049H287.341C287.38 212.088 287.459 212.107 287.576 212.107C287.595 212.107 287.605 212.117 287.605 212.137L287.459 212.107L287.576 212.078C287.615 212.078 287.644 212.088 287.664 212.107C287.996 212.107 288.289 212.088 288.543 212.049L288.425 212.078C288.425 212.059 288.435 212.049 288.455 212.049C288.474 212.049 288.503 212.039 288.543 212.02C288.679 212.02 288.787 212 288.865 211.961C289.255 211.883 289.558 211.795 289.773 211.697L290.095 211.58L289.978 211.639C289.978 211.619 289.998 211.609 290.037 211.609C290.076 211.609 290.154 211.57 290.271 211.492C290.408 211.414 290.544 211.346 290.681 211.287C291.423 210.896 291.921 210.574 292.175 210.32H292.205L292.117 210.379L292.322 210.203H292.351C293.425 209.324 294.695 208.006 296.16 206.248C296.531 205.857 296.98 205.662 297.507 205.662H298.035C298.347 205.682 298.718 205.877 299.148 206.248C299.539 206.639 299.734 207.088 299.734 207.596V208.123C299.714 208.436 299.519 208.807 299.148 209.236C296.257 212.85 293.289 215.096 290.242 215.975C289.46 216.209 288.679 216.326 287.898 216.326C285.71 216.326 284.275 215.428 283.591 213.631C283.416 213.006 283.328 212.381 283.328 211.756C283.328 210.408 283.914 207.977 285.085 204.461C285.613 202.957 286.013 201.482 286.287 200.037L286.316 199.949L286.345 199.715L286.375 198.953C286.375 198.387 286.365 197.967 286.345 197.693V197.576C286.326 197.557 286.316 197.469 286.316 197.312L286.169 196.932L286.111 196.639L286.169 196.697V196.785L285.818 196.17V196.141C285.837 196.141 285.857 196.16 285.876 196.199C285.916 196.238 285.935 196.268 285.935 196.287C285.955 196.287 285.964 196.297 285.964 196.316H285.876L285.642 196.053C285.662 196.053 285.701 196.072 285.759 196.111L285.818 196.199L285.789 196.17C285.75 196.15 285.71 196.141 285.671 196.141C285.652 196.121 285.632 196.111 285.613 196.111C285.593 196.092 285.584 196.072 285.584 196.053C285.584 196.072 285.593 196.082 285.613 196.082C285.652 196.082 285.691 196.092 285.73 196.111C285.769 196.131 285.798 196.15 285.818 196.17L285.671 196.111L285.818 196.141L286.023 196.111C285.789 196.17 285.662 196.209 285.642 196.229H285.613C285.613 196.209 285.613 196.199 285.613 196.199C285.632 196.199 285.671 196.189 285.73 196.17C285.632 196.209 285.544 196.258 285.466 196.316C285.447 196.316 285.418 196.326 285.378 196.346C285.359 196.365 285.33 196.385 285.291 196.404C285.251 196.424 285.212 196.453 285.173 196.492C285.154 196.512 285.134 196.521 285.115 196.521L285.173 196.463C284.978 196.619 284.793 196.785 284.617 196.961C283.972 197.645 283.533 198.162 283.298 198.514L282.859 199.1C280.398 202.479 278.376 205.75 276.794 208.914C274.685 213.328 272.976 215.535 271.668 215.535C270.984 215.535 270.437 215.262 270.027 214.715C269.734 214.324 269.587 213.904 269.587 213.455C269.763 210.955 270.222 208.514 270.964 206.131C271.707 203.416 272.136 201.59 272.253 200.652C272.253 200.574 272.273 200.496 272.312 200.418V200.301L272.283 200.447C272.38 199.783 272.429 198.846 272.429 197.635L272.4 197.342V197.166L272.429 197.225V197.4C272.39 197.322 272.371 197.234 272.371 197.137L272.253 196.756L272.341 196.932C272.302 196.834 272.244 196.736 272.166 196.639C272.205 196.697 272.234 196.736 272.253 196.756C272.273 196.775 272.283 196.795 272.283 196.814V196.785C272.263 196.785 272.244 196.775 272.224 196.756C272.205 196.736 272.175 196.707 272.136 196.668C272.117 196.609 272.097 196.57 272.078 196.551C272.195 196.629 272.253 196.678 272.253 196.697C272.234 196.697 272.185 196.668 272.107 196.609L272.283 196.697H272.224C272.185 196.697 272.156 196.688 272.136 196.668H272.283C272.263 196.688 272.234 196.697 272.195 196.697L272.371 196.609L271.726 196.99L271.843 196.902L271.55 197.166C270.554 198.123 269.636 199.158 268.796 200.271L268.328 200.887C267.449 201.961 265.798 204.158 263.376 207.479L262.527 208.65C260.847 210.936 259.617 212.928 258.835 214.627L258.748 214.803L258.806 214.686C258.552 215.232 258.347 215.799 258.191 216.385C258.035 216.971 257.712 217.391 257.224 217.645C256.892 217.82 256.541 217.908 256.169 217.908Z" fill="#171516"/>
<path d="M302.107 216.883L301.375 216.854C298.972 216.58 297.273 215.32 296.277 213.074C295.75 211.883 295.486 210.672 295.486 209.441C295.486 208.27 295.71 207.088 296.16 205.896C298.23 200.33 300.955 196.453 304.334 194.266C305.876 193.25 307.556 192.742 309.373 192.742C309.978 192.742 310.603 192.811 311.248 192.947C313.552 193.475 315.242 194.783 316.316 196.873C316.824 197.889 317.078 198.992 317.078 200.184V203.289C317.078 203.211 317.087 203.172 317.107 203.172C317.107 203.367 317.126 203.533 317.166 203.67C317.224 203.904 317.253 204.109 317.253 204.285C317.253 205.301 316.746 205.984 315.73 206.336C315.535 206.395 315.339 206.424 315.144 206.424C313.64 206.424 312.888 205.086 312.888 202.41L312.8 199.686C312.781 199.217 312.742 198.904 312.683 198.748C312.722 198.807 312.742 198.875 312.742 198.953L312.361 198.279H312.419L312.478 198.426L312.332 198.279C312.078 197.967 311.863 197.752 311.687 197.635C311.687 197.654 311.697 197.674 311.716 197.693C311.736 197.693 311.746 197.703 311.746 197.723C311.765 197.723 311.785 197.723 311.804 197.723C311.824 197.723 311.834 197.732 311.834 197.752V197.723C311.794 197.723 311.677 197.664 311.482 197.547C311.13 197.332 310.906 197.205 310.808 197.166C310.847 197.205 310.886 197.225 310.925 197.225C310.437 197.049 310.085 196.961 309.871 196.961L310.105 196.99C309.812 196.99 309.529 196.98 309.255 196.961C309.099 196.941 308.914 196.951 308.699 196.99C308.074 197.107 307.595 197.254 307.263 197.43C307.263 197.41 307.273 197.4 307.293 197.4C307.312 197.4 307.322 197.4 307.322 197.4C307.341 197.381 307.371 197.361 307.41 197.342C307.332 197.42 307.175 197.518 306.941 197.635C306.589 197.811 306.248 198.006 305.916 198.221C305.876 198.26 305.837 198.289 305.798 198.309C305.779 198.309 305.759 198.318 305.74 198.338C305.74 198.338 305.71 198.367 305.652 198.426V198.396L305.769 198.338C305.652 198.396 305.505 198.514 305.33 198.689C304.861 199.1 304.431 199.559 304.041 200.066C304.021 200.066 304.001 200.076 303.982 200.096C303.982 200.115 303.972 200.135 303.953 200.154C303.953 200.154 303.923 200.193 303.865 200.271C303.884 200.232 303.904 200.213 303.923 200.213C303.904 200.213 303.894 200.223 303.894 200.242L303.572 200.711C302.517 202.254 301.55 204.002 300.671 205.955L300.525 206.277C300.095 207.352 299.841 208.27 299.763 209.031L299.675 210.115C299.675 210.252 299.773 210.613 299.968 211.199L299.91 211.111C300.183 211.678 300.339 211.98 300.378 212.02C300.437 212.039 300.476 212.068 300.496 212.107C300.418 212.01 300.378 211.941 300.378 211.902C300.378 211.922 300.378 211.941 300.378 211.961C300.398 211.961 300.408 211.971 300.408 211.99C300.427 212.01 300.496 212.078 300.613 212.195C300.847 212.43 300.984 212.547 301.023 212.547L300.935 212.488C300.994 212.527 301.033 212.566 301.052 212.605C301.091 212.625 301.179 212.664 301.316 212.723C301.355 212.742 301.375 212.762 301.375 212.781C301.355 212.762 301.326 212.752 301.287 212.752C301.248 212.732 301.218 212.723 301.199 212.723C301.199 212.703 301.189 212.684 301.169 212.664C301.228 212.723 301.423 212.791 301.755 212.869L301.58 212.84C301.892 212.84 302.117 212.83 302.253 212.811L302.078 212.84C302.488 212.703 302.722 212.635 302.781 212.635L302.664 212.693C303.054 212.498 303.435 212.273 303.806 212.02C303.826 212.02 303.845 212.01 303.865 211.99C303.904 211.951 303.953 211.922 304.011 211.902C304.168 211.805 304.246 211.736 304.246 211.697C304.246 211.717 304.226 211.746 304.187 211.785C308.503 208.191 312.41 204.168 315.906 199.715C316.238 199.285 316.677 199.07 317.224 199.07C317.771 199.07 318.24 199.227 318.63 199.539C319.177 200.008 319.451 200.535 319.451 201.121C319.451 201.473 319.363 201.844 319.187 202.234C318.972 202.742 318.767 203.26 318.572 203.787C317.771 206.033 317.244 207.947 316.99 209.529H316.96L316.99 209.354C317.107 210.369 317.439 211.141 317.986 211.668L317.898 211.639H317.957C318.171 211.854 318.435 211.961 318.748 211.961L318.543 211.99L318.748 211.932C320.544 211.541 322.146 210.818 323.552 209.764H323.523L323.435 209.852C325.232 208.406 327.224 206.277 329.412 203.465C329.724 203.055 330.134 202.85 330.642 202.85C330.701 202.85 330.896 202.859 331.228 202.879C331.56 202.898 331.921 203.104 332.312 203.494C332.722 203.865 332.927 204.295 332.927 204.783C332.927 204.842 332.918 205.018 332.898 205.311C332.878 205.604 332.693 205.975 332.341 206.424C330.584 208.768 328.709 210.809 326.716 212.547C324.802 214.227 322.605 215.301 320.125 215.77C319.91 215.809 319.675 215.838 319.421 215.857C318.132 216.014 316.834 215.701 315.525 214.92C313.689 213.807 312.771 212.166 312.771 209.998C312.771 209.197 312.869 208.396 313.064 207.596C313.65 205.037 314.48 202.537 315.554 200.096L318.865 202.674C315.603 206.854 311.97 210.682 307.966 214.158C305.837 216.014 303.884 216.922 302.107 216.883Z" fill="#171516"/>
<path d="M330.203 217.234C329.48 217.234 328.904 216.932 328.474 216.326C328.24 216.014 328.123 215.623 328.123 215.154C328.845 207.771 330.339 200.535 332.605 193.445C334.421 187.488 336.209 182.762 337.966 179.266L338.113 178.973C338.699 177.723 339.421 176.521 340.281 175.369C341.14 174.197 342.273 173.445 343.679 173.113C343.992 173.055 344.294 173.025 344.587 173.025C345.642 173.025 346.57 173.426 347.371 174.227C348.152 175.203 348.572 176.326 348.63 177.596C348.63 178.807 348.503 179.881 348.25 180.818L348.22 180.906C347.361 184.695 345.876 188.484 343.767 192.273C341.033 197.039 337.82 201.463 334.128 205.545C333.738 205.955 333.269 206.16 332.722 206.16C332.683 206.16 332.517 206.15 332.224 206.131C331.931 206.111 331.58 205.916 331.169 205.545C330.759 205.174 330.554 204.734 330.554 204.227V203.699C330.574 203.387 330.769 203.006 331.14 202.557C332.234 201.326 333.445 199.881 334.773 198.221C334.812 198.143 334.861 198.074 334.919 198.016V198.045L334.802 198.162C334.841 198.162 335.291 197.566 336.15 196.375C338.728 192.801 340.75 189.295 342.214 185.857L342.185 185.975C342.185 185.936 342.205 185.887 342.244 185.828C342.283 185.75 342.312 185.672 342.332 185.594C342.371 185.496 342.41 185.389 342.449 185.271C343.386 182.947 344.011 180.828 344.324 178.914C344.324 178.68 344.363 178.484 344.441 178.328C344.382 178.445 344.353 178.543 344.353 178.621L344.412 178.65C344.412 178.416 344.421 178.27 344.441 178.211L344.412 177.537L344.441 177.566V177.742C344.421 177.703 344.402 177.645 344.382 177.566C344.382 177.488 344.363 177.4 344.324 177.303C344.285 177.205 344.255 177.107 344.236 177.01C344.255 177.127 344.265 177.195 344.265 177.215C344.285 177.234 344.314 177.264 344.353 177.303L344.324 177.186H344.294C344.216 177.029 344.177 176.932 344.177 176.893L344.353 177.098V177.156C344.334 177.156 344.294 177.127 344.236 177.068L344.148 176.98L344.441 177.215C344.382 177.176 344.353 177.146 344.353 177.127V177.098H344.412L344.529 177.186C344.548 177.186 344.558 177.195 344.558 177.215L344.412 177.186H344.646C344.666 177.186 344.675 177.195 344.675 177.215H344.441L344.558 177.156H344.705C344.666 177.195 344.519 177.244 344.265 177.303L344.441 177.244C344.421 177.264 344.392 177.283 344.353 177.303C344.334 177.303 344.314 177.303 344.294 177.303L344.001 177.508V177.479L344.148 177.391C344.128 177.391 344.099 177.41 344.06 177.449C344.021 177.488 343.992 177.518 343.972 177.537C343.953 177.537 343.943 177.547 343.943 177.566C343.826 177.664 343.728 177.771 343.65 177.889C343.65 177.869 343.66 177.85 343.679 177.83C343.699 177.811 343.709 177.791 343.709 177.771C343.728 177.752 343.748 177.732 343.767 177.713C343.767 177.752 343.728 177.82 343.65 177.918C342.595 179.52 341.658 181.199 340.837 182.957C340.486 183.777 340.3 184.207 340.281 184.246C340.261 184.266 340.251 184.295 340.251 184.334L340.222 184.393H340.193L340.281 184.246C340.261 184.266 340.251 184.295 340.251 184.334C339.197 186.912 338.22 189.637 337.322 192.508C335.564 197.762 334.285 202.664 333.484 207.215C332.937 210.164 332.556 212.811 332.341 215.154C331.13 214.666 329.929 214.168 328.738 213.66L331.023 211.141C335.261 206.512 338.425 202.986 340.515 200.564C342.195 198.592 343.923 196.688 345.701 194.852C347.166 193.23 348.621 192.342 350.066 192.186C351.394 192.186 352.507 192.596 353.406 193.416C354.304 194.217 354.753 195.184 354.753 196.316C354.753 196.57 354.734 196.824 354.695 197.078C354.324 198.836 353.64 200.467 352.644 201.971C351.648 203.455 350.466 204.773 349.099 205.926C346.326 208.25 343.191 209.91 339.695 210.906L340.955 207.801C341.423 208.602 341.931 209.383 342.478 210.145L342.449 210.115C342.585 210.252 342.791 210.496 343.064 210.848C343.357 211.16 343.669 211.453 344.001 211.727L344.119 211.844C344.099 211.844 344.07 211.834 344.031 211.814C343.992 211.775 343.972 211.746 343.972 211.727L344.705 212.195C344.724 212.195 344.744 212.205 344.763 212.225C344.783 212.244 344.802 212.254 344.822 212.254C344.841 212.254 344.91 212.293 345.027 212.371L344.91 212.283L344.968 212.312C345.085 212.371 345.164 212.41 345.203 212.43C345.261 212.43 345.3 212.439 345.32 212.459C345.535 212.518 345.75 212.557 345.964 212.576C345.886 212.576 345.828 212.566 345.789 212.547H345.994L346.111 212.576C346.326 212.576 346.443 212.566 346.462 212.547H346.58L346.726 212.518C346.804 212.518 346.863 212.508 346.902 212.488C346.96 212.469 347.019 212.459 347.078 212.459C347.449 212.342 347.81 212.215 348.162 212.078L348.044 212.137L348.25 212.049C349.558 211.443 350.876 210.623 352.205 209.588L352.439 209.383C353.201 208.797 354.001 208.104 354.841 207.303C355.681 206.482 356.384 205.701 356.951 204.959C356.99 204.939 357.019 204.91 357.039 204.871C357.058 204.832 357.078 204.803 357.097 204.783C357.136 204.744 357.166 204.715 357.185 204.695V204.725H357.156L357.068 204.871V204.842L357.683 203.963C358.191 203.299 358.777 202.967 359.441 202.967C359.793 202.967 360.164 203.055 360.554 203.23C361.257 203.602 361.609 204.227 361.609 205.105C361.609 205.457 361.511 205.789 361.316 206.102C359.187 209.266 356.228 212.088 352.439 214.568C350.271 215.955 348.23 216.697 346.316 216.795C344.207 216.756 342.419 216.033 340.955 214.627C339.49 213.221 338.269 211.658 337.293 209.939C337.097 209.588 337 209.236 337 208.885C337 207.85 337.517 207.166 338.552 206.834C339.392 206.6 340.212 206.326 341.013 206.014C341.013 205.994 341.023 205.984 341.043 205.984C341.062 205.984 341.082 205.984 341.101 205.984C341.14 205.965 341.169 205.955 341.189 205.955C341.209 205.936 341.228 205.916 341.248 205.896H341.218L341.16 205.955H341.101L341.072 205.984L341.306 205.867C341.677 205.73 342.214 205.467 342.918 205.076C343.835 204.588 344.734 204.012 345.613 203.348L345.671 203.318H345.642C345.623 203.338 345.603 203.357 345.584 203.377C345.584 203.396 345.574 203.406 345.554 203.406L345.525 203.436L345.847 203.172C346.765 202.43 347.595 201.609 348.337 200.711L348.543 200.418V200.447L348.835 200.037C349.304 199.314 349.666 198.68 349.919 198.133L349.978 198.016C350.212 197.488 350.398 196.951 350.535 196.404L350.564 196.287C350.564 196.229 350.584 196.16 350.623 196.082V196.053C350.603 196.053 350.593 196.092 350.593 196.17V196.316C350.593 196.395 350.623 196.492 350.681 196.609V196.58L350.593 196.463C350.593 196.482 350.613 196.512 350.652 196.551L350.71 196.609C350.671 196.609 350.642 196.6 350.623 196.58C350.623 196.541 350.623 196.512 350.623 196.492H350.564V196.463C350.584 196.463 350.593 196.473 350.593 196.492C350.593 196.492 350.603 196.512 350.623 196.551C350.662 196.57 350.691 196.58 350.71 196.58C350.691 196.58 350.671 196.58 350.652 196.58C350.652 196.561 350.642 196.551 350.623 196.551C350.603 196.531 350.593 196.512 350.593 196.492H350.564C350.544 196.473 350.525 196.463 350.505 196.463C350.505 196.443 350.466 196.424 350.388 196.404L350.593 196.463L350.242 196.346H350.3C350.32 196.365 350.369 196.375 350.447 196.375H350.154C350.251 196.375 350.33 196.365 350.388 196.346H350.535L350.359 196.375L350.593 196.258L350.564 196.287L350.33 196.404L349.744 196.814L349.89 196.697C349.753 196.795 349.685 196.844 349.685 196.844L349.568 196.961C348.826 197.645 348.132 198.367 347.488 199.129C346.921 199.695 344.402 202.527 339.929 207.625C337.996 209.773 336.052 211.902 334.099 214.012L331.697 216.648C331.326 217.039 330.828 217.234 330.203 217.234Z" fill="#171516"/>
<path d="M364.89 217.059C363.582 217.059 362.263 216.766 360.935 216.18C359.607 215.594 358.562 214.617 357.8 213.25C357.234 212.078 356.951 210.877 356.951 209.646C356.951 207.869 357.439 205.945 358.416 203.875C359.666 201.258 361.287 198.895 363.279 196.785C365.544 194.285 368.015 192.996 370.691 192.918C372 192.918 373.25 193.24 374.441 193.885C375.652 194.529 376.56 195.447 377.166 196.639C377.537 197.498 377.722 198.338 377.722 199.158C377.722 201.131 376.775 203.006 374.88 204.783C372.4 207.029 369.509 208.152 366.209 208.152C364.236 208.152 362.341 207.693 360.525 206.775C359.841 206.404 359.5 205.799 359.5 204.959C359.5 204.588 359.587 204.227 359.763 203.875C360.154 203.211 360.759 202.879 361.58 202.879C361.931 202.879 362.371 203.006 362.898 203.26L363.22 203.406C363.201 203.406 363.181 203.406 363.162 203.406C363.142 203.406 363.113 203.396 363.074 203.377C363.035 203.357 363.015 203.338 363.015 203.318L363.25 203.406C363.66 203.602 364.138 203.738 364.685 203.816C364.802 203.875 364.959 203.904 365.154 203.904L364.949 203.875C365.046 203.914 365.437 203.934 366.121 203.934C366.785 203.934 367.234 203.914 367.468 203.875C367.371 203.914 367.302 203.934 367.263 203.934H367.234L367.439 203.875C367.478 203.875 367.507 203.865 367.527 203.846C368.464 203.689 369.187 203.484 369.695 203.23L369.46 203.318C369.793 203.201 370.183 203.006 370.632 202.732C371.082 202.459 371.335 202.293 371.394 202.234L371.541 202.117L371.365 202.264L371.482 202.176C372.322 201.336 372.742 200.916 372.742 200.916L372.83 200.799L372.712 200.975V200.916C372.791 200.799 372.849 200.721 372.888 200.682C372.927 200.623 372.966 200.555 373.005 200.477C373.103 200.34 373.181 200.213 373.24 200.096C373.318 199.959 373.357 199.891 373.357 199.891C373.357 199.871 373.367 199.852 373.386 199.832L373.328 199.949L373.503 199.422L373.533 199.246V198.865L373.562 198.836L373.591 198.865C373.591 198.885 373.591 198.904 373.591 198.924C373.591 198.943 373.601 198.963 373.621 198.982C373.621 199.021 373.611 199.041 373.591 199.041C373.572 199.021 373.552 198.992 373.533 198.953C373.533 198.914 373.523 198.875 373.503 198.836C373.503 198.797 373.494 198.758 373.474 198.719C373.455 198.68 373.445 198.641 373.445 198.602C373.445 198.562 373.455 198.543 373.474 198.543L373.562 198.748L373.474 198.66C373.396 198.504 373.347 198.426 373.328 198.426C373.328 198.406 373.318 198.377 373.298 198.338C373.279 198.299 373.24 198.24 373.181 198.162L373.328 198.309L372.712 197.723L372.918 197.898L372.009 197.342V197.312L372.214 197.459L371.98 197.342C371.55 197.225 371.287 197.166 371.189 197.166C371.111 197.146 371.072 197.127 371.072 197.107L371.101 197.078L371.306 197.166C371.228 197.127 371.13 197.107 371.013 197.107C370.896 197.107 370.789 197.117 370.691 197.137H370.427C370.31 197.137 370.251 197.146 370.251 197.166C370.251 197.127 370.32 197.107 370.457 197.107C370.418 197.146 370.291 197.186 370.076 197.225C369.861 197.264 369.675 197.312 369.519 197.371C369.382 197.43 369.255 197.479 369.138 197.518C368.572 197.83 368.21 198.035 368.054 198.133L367.849 198.279L367.761 198.367C367.761 198.348 367.781 198.328 367.82 198.309C367.859 198.289 367.888 198.27 367.908 198.25L366.794 199.246C366.287 199.734 365.71 200.379 365.066 201.18L364.919 201.355H364.949C364.949 201.316 364.978 201.268 365.037 201.209L364.744 201.619C363.904 202.713 363.064 204.051 362.224 205.633L362.136 205.896C362.058 206.014 362.019 206.102 362.019 206.16L362.048 206.043C361.677 206.941 361.414 207.84 361.257 208.738L361.228 208.914L361.257 208.768C361.218 209.1 361.199 209.432 361.199 209.764V210.145C361.199 210.359 361.267 210.672 361.404 211.082C361.404 211.023 361.394 210.975 361.375 210.936L361.492 211.199C361.55 211.355 361.658 211.512 361.814 211.668L361.668 211.521C361.824 211.697 361.99 211.854 362.166 211.99L362.283 212.137C362.283 212.117 362.273 212.107 362.253 212.107C362.253 212.088 362.214 212.049 362.136 211.99L362.664 212.342C362.742 212.361 362.81 212.391 362.869 212.43C362.927 212.469 362.966 212.498 362.986 212.518C363.005 212.518 363.015 212.527 363.015 212.547L362.957 212.488C362.878 212.469 362.839 212.449 362.839 212.43C363.386 212.605 363.669 212.693 363.689 212.693C363.728 212.693 363.787 212.703 363.865 212.723C363.943 212.742 364.001 212.762 364.041 212.781C364.08 212.781 364.109 212.781 364.128 212.781H364.011C364.363 212.82 364.724 212.84 365.095 212.84L366.15 212.752H366.091L366.677 212.664C367.947 212.371 369.109 212.039 370.164 211.668L371.072 211.316L371.423 211.17C371.404 211.189 371.375 211.199 371.335 211.199C371.316 211.199 371.296 211.219 371.277 211.258C371.277 211.238 371.335 211.209 371.453 211.17C373.132 210.428 374.9 209.197 376.755 207.479C378.611 205.74 379.968 204.441 380.828 203.582C381.257 203.172 381.755 202.967 382.322 202.967C382.869 202.986 383.347 203.191 383.757 203.582C384.187 203.973 384.402 204.441 384.402 204.988C384.402 205.027 384.392 205.193 384.373 205.486C384.373 205.779 384.177 206.141 383.787 206.57C379.763 211.258 375.33 214.412 370.486 216.033C368.455 216.717 366.589 217.059 364.89 217.059Z" fill="#171516"/>
<circle cx="425.168" cy="200" r="25.11" fill="#E9BF2A"/>
<path fill-rule="evenodd" clip-rule="evenodd" d="M441.466 217.834C441.393 217.517 441.318 217.198 441.243 216.876C440.38 213.181 439.449 209.199 439.585 205.843C439.792 200.723 439.792 195.399 439.792 195.399C439.792 195.399 442.738 191.016 441.159 189.503C439.581 187.991 438.082 188.282 438.082 188.282C438.082 188.282 436.203 182.487 425.337 182.487H425.278C414.412 182.487 412.533 188.282 412.533 188.282C412.533 188.282 411.03 187.991 409.455 189.503C407.877 191.016 410.819 195.399 410.819 195.399C410.819 195.399 410.823 200.723 411.03 205.843C411.166 209.199 410.235 213.181 409.372 216.876C409.286 217.244 409.2 217.61 409.117 217.972C413.387 221.8 419.029 224.128 425.216 224.128C431.475 224.128 437.178 221.744 441.466 217.834Z" fill="#171516"/>
<path d="M436.361 221.405C436.402 218.551 436.236 215.86 435.606 214.485C434.114 211.22 428.77 209.261 425.333 209.261C421.902 209.261 416.515 211.206 415.007 214.485C414.366 215.875 414.202 218.609 414.248 221.497C417.538 223.179 421.266 224.128 425.216 224.128C429.237 224.128 433.028 223.144 436.361 221.405Z" fill="white"/>
<path fill-rule="evenodd" clip-rule="evenodd" d="M425.375 200.066C424.653 200.045 423.656 202.258 420.153 202.291C416.015 202.331 415.834 199.766 415.834 199.127C415.834 198.488 415.906 196.274 417.839 195.4C419.773 194.526 420.832 193.461 422.458 192.182C423.83 191.106 424.965 191.094 425.29 191.118C425.349 191.122 425.408 191.123 425.468 191.121C425.788 191.105 426.966 191.127 428.309 192.182C429.934 193.461 430.998 194.526 432.931 195.4C434.865 196.274 434.932 198.488 434.932 199.127C434.932 199.766 434.755 202.331 430.618 202.291C427.097 202.258 426.109 200.027 425.383 200.067L425.375 200.066ZM429.947 195.312C429.638 194.166 427.739 193.501 426.498 193.184C425.78 193 425.028 192.995 424.307 193.171C423.07 193.472 421.195 194.118 420.874 195.312C420.389 197.12 421.617 197.206 422.2 196.73C422.778 196.254 424.264 196.492 424.547 197.458C424.83 198.408 424.813 199.173 425.383 199.197L425.413 199.197H425.442C426.012 199.173 425.995 198.408 426.278 197.458C426.561 196.492 428.043 196.254 428.625 196.73C429.208 197.206 430.432 197.12 429.947 195.312Z" fill="white"/>
<path fill-rule="evenodd" clip-rule="evenodd" d="M425.168 204.257C424.024 204.257 421.728 203.57 421.728 203.075C421.728 202.579 423.269 202.175 425.168 202.175H425.19C427.081 202.178 428.609 202.58 428.609 203.075C428.609 203.571 426.317 204.257 425.168 204.257Z" fill="white"/>
<path fill-rule="evenodd" clip-rule="evenodd" d="M413.023 219.515C413.023 219.515 417.033 213.947 419.6 214.058C420.224 214.086 420.306 214.404 420.439 214.601C420.786 215.116 420.088 215.825 420.041 215.967C419.979 216.164 419.737 216.259 420.517 216.255C421.293 216.25 421.711 216.523 421.824 217.116C421.949 217.772 421.473 218.107 421.016 218.346C420.556 218.586 420.482 218.704 420.966 218.812C421.445 218.919 421.617 219.125 421.824 219.382C421.964 219.558 422.007 220.141 421.824 220.379C421.652 220.597 421.122 220.73 420.696 220.884C419.811 221.205 416.756 224.118 415.871 224.128" fill="#171516"/>
<path fill-rule="evenodd" clip-rule="evenodd" d="M437.319 219.515C437.319 219.515 433.309 213.947 430.742 214.058C430.117 214.086 430.036 214.404 429.903 214.601C429.556 215.116 430.254 215.825 430.301 215.967C430.363 216.164 430.605 216.259 429.825 216.255C429.049 216.25 428.631 216.523 428.518 217.116C428.393 217.772 428.869 218.107 429.326 218.346C429.786 218.586 429.86 218.704 429.376 218.812C428.896 218.919 428.725 219.125 428.518 219.382C428.378 219.558 428.335 220.141 428.518 220.379C428.69 220.597 429.22 220.73 429.645 220.884C430.531 221.205 434.202 224.118 435.088 224.128" fill="#171516"/>
<path d="M417.325 190.539C418.526 190.388 419.327 191.639 419.513 192.717C417.381 191.269 416.683 192.43 415.681 193.117C415.771 192.031 416.125 190.69 417.325 190.539Z" fill="white"/>
<path d="M433.147 190.539C431.947 190.388 431.146 191.639 430.959 192.717C433.091 191.269 433.789 192.43 434.792 193.117C434.701 192.031 434.348 190.69 433.147 190.539Z" fill="white"/>
<path fill-rule="evenodd" clip-rule="evenodd" d="M422.302 167.269C421.964 167.269 421.648 167.44 421.464 167.723L419.109 171.335C418.104 171.548 417.118 171.813 416.153 172.126L412.311 170.176C412.009 170.023 411.651 170.032 411.358 170.201L406.325 173.107C406.033 173.276 405.845 173.582 405.827 173.919L405.594 178.233C404.839 178.913 404.12 179.632 403.44 180.387L399.126 180.62C398.789 180.638 398.483 180.826 398.314 181.118L395.408 186.151C395.239 186.444 395.23 186.802 395.383 187.104L397.333 190.948C397.021 191.911 396.757 192.897 396.544 193.902L392.93 196.257C392.647 196.441 392.476 196.757 392.476 197.095V202.906C392.476 203.244 392.647 203.559 392.93 203.744L396.544 206.099C396.757 207.103 397.021 208.089 397.334 209.053L395.383 212.897C395.23 213.198 395.24 213.557 395.409 213.849L398.314 218.882C398.483 219.175 398.789 219.362 399.126 219.38L403.441 219.614C404.121 220.368 404.84 221.087 405.594 221.767L405.827 226.081C405.845 226.419 406.033 226.724 406.326 226.893L411.358 229.799C411.651 229.968 412.009 229.977 412.311 229.824L416.154 227.874C417.118 228.187 418.104 228.451 419.109 228.664L421.464 232.277C421.649 232.56 421.964 232.731 422.302 232.731H428.113C428.451 232.731 428.766 232.56 428.951 232.277L431.306 228.663C432.311 228.451 433.296 228.186 434.26 227.874L438.104 229.824C438.405 229.977 438.764 229.967 439.057 229.798L444.089 226.893C444.382 226.724 444.569 226.418 444.588 226.081L444.821 221.765C445.575 221.085 446.293 220.367 446.972 219.614L451.288 219.38C451.626 219.362 451.931 219.174 452.1 218.882L455.006 213.849C455.175 213.556 455.184 213.198 455.031 212.896L453.08 209.051C453.393 208.088 453.657 207.103 453.87 206.099L457.484 203.743C457.767 203.559 457.938 203.243 457.938 202.905V197.094C457.938 196.756 457.767 196.441 457.484 196.256L453.87 193.901C453.657 192.897 453.393 191.911 453.08 190.948L455.032 187.103C455.184 186.802 455.175 186.444 455.006 186.151L452.1 181.118C451.931 180.825 451.626 180.638 451.288 180.62L446.972 180.386C446.293 179.632 445.575 178.914 444.821 178.234L444.587 173.919C444.569 173.581 444.382 173.276 444.089 173.107L439.056 170.201C438.764 170.032 438.405 170.023 438.104 170.176L434.26 172.126C433.296 171.813 432.31 171.549 431.305 171.336L428.951 167.723C428.766 167.44 428.451 167.269 428.113 167.269H422.302ZM449.343 200C449.343 186.674 438.54 175.872 425.216 175.872C411.889 175.872 401.089 186.674 401.089 200C401.089 213.326 411.889 224.128 425.216 224.128C438.54 224.128 449.343 213.326 449.343 200Z" fill="#171516"/>
</g>
<defs>
<clipPath id="clip0_1_5">
<rect width="600" height="400" fill="white"/>
</clipPath>
</defs>
</svg>
