<svg width="600" height="400" viewBox="0 0 600 400" fill="none" xmlns="http://www.w3.org/2000/svg">
<g clip-path="url(#clip0_1_23)">
<rect width="600" height="400" fill="white"/>
<rect y="-1" width="600" height="401" fill="white"/>
<path d="M330.165 169.643H275.217L269.317 217.988L296.926 229.992L324.109 218.173L330.165 169.643Z" fill="#EEEEEE"/>
<path d="M303.644 169.643L296.374 229.992L269.317 217.988L275.099 169.643H303.644Z" fill="white"/>
<path d="M327.821 220.949L296.926 234.384L264.956 220.482L271.652 165.616H334.726C332.425 184.061 330.123 202.506 327.821 220.949ZM273.679 215.493L296.926 225.599L320.397 215.394L325.604 173.671H278.783C277.082 187.611 275.381 201.553 273.679 215.493Z" fill="#2E6B9F"/>
<path d="M348.892 180.404L346.307 201.435H354.453L353.827 206.526H339.649L342.86 180.404H348.892Z" fill="#2E6B9F"/>
<path d="M370.474 180.404L367.262 206.526H361.229L364.441 180.404H370.474Z" fill="#2E6B9F"/>
<path d="M396.48 205.704C395.618 206.133 393.502 207.113 390.135 207.113C385.2 207.113 382.341 204.998 380.929 203.628C379.245 201.945 377.406 199.123 377.406 194.58C377.406 190.037 379.127 186.316 381.557 183.889C383.75 181.695 387.235 179.816 392.015 179.816C396.047 179.816 398.477 181.148 399.417 181.695L398.673 188.08C397.615 187.022 395.618 185.454 392.133 185.454C389.625 185.454 387.587 186.12 385.944 187.922C384.338 189.645 383.595 191.995 383.595 194.07C383.595 196.264 384.454 198.261 385.63 199.437C386.806 200.613 388.763 201.475 391.153 201.475C393.738 201.475 395.814 200.377 397.264 199.201L396.48 205.704Z" fill="#2E6B9F"/>
<path d="M420.566 186.786C418.92 185.299 417.355 184.907 416.179 184.907C415.435 184.907 414.377 185.025 413.711 185.572C413.164 186.005 412.812 186.748 412.812 187.452C412.812 188.236 413.164 188.784 413.711 189.216C414.262 189.686 414.965 189.997 416.259 190.585L417.784 191.291C419.038 191.879 420.214 192.545 421.232 193.796C422.171 194.972 422.563 196.186 422.563 197.869C422.563 200.613 421.468 203.04 419.94 204.568C417.825 206.644 415.124 207.113 412.46 207.113C410.54 207.113 409.013 206.88 407.249 205.937C405.957 205.234 404.703 204.176 403.764 203.159L407.133 198.849C407.681 199.593 408.543 200.417 409.324 200.925C410.148 201.435 411.244 201.787 412.38 201.787C413.282 201.787 414.536 201.513 415.279 200.965C415.983 200.417 416.375 199.515 416.375 198.538C416.375 197.595 415.945 197.048 415.631 196.734C415.435 196.538 414.928 196.108 413.556 195.56L412.028 194.932C411.598 194.776 409.601 193.914 408.347 192.623C407.093 191.329 406.623 189.841 406.623 188.196C406.623 185.495 407.719 183.535 408.972 182.283C411.088 180.208 413.792 179.816 416.023 179.816C418.254 179.816 420.84 180.246 423.581 182.399L420.566 186.786Z" fill="#2E6B9F"/>
<path d="M184.174 192.427H186.328C187.621 192.427 189.109 192.309 190.127 191.292C191.028 190.43 191.145 189.254 191.145 188.588C191.145 187.844 190.989 186.982 190.284 186.316C189.344 185.417 187.777 185.336 186.876 185.336H185.075L184.174 192.427ZM188.443 180.402C190.284 180.402 193.104 180.482 195.219 182.595C196.394 183.771 197.334 185.532 197.334 188.196C197.334 191.096 196.354 193.601 194.788 195.05C193.613 196.146 191.381 197.362 187.033 197.362H183.586L182.451 206.526H176.419L179.631 180.402H188.443Z" fill="#2E6B9F"/>
<path d="M212.726 180.402L211.003 194.658C210.885 195.48 210.807 195.834 210.807 196.93C210.807 197.988 210.964 199.319 211.943 200.299C212.648 200.965 213.783 201.473 215.389 201.473C217.348 201.473 218.561 200.847 219.227 200.181C220.52 198.89 220.794 196.696 220.99 195.206L222.791 180.402H228.823L226.943 195.598C226.551 198.731 226.199 201.905 223.849 204.295C221.225 206.996 217.426 207.114 215.272 207.114C212.687 207.114 209.397 206.8 207.008 204.41C205.363 202.804 204.697 200.807 204.697 198.38C204.697 197.204 204.893 195.324 205.01 194.266L206.694 180.402H212.726Z" fill="#2E6B9F"/>
<path d="M243.98 191.018H245.195C246.213 191.018 247.623 190.9 248.524 190.038C249.111 189.49 249.425 188.55 249.425 187.688C249.425 186.631 248.954 186.043 248.602 185.728C247.858 185.14 246.8 185.103 245.939 185.103H244.685L243.98 191.018ZM242.649 201.827H244.842C245.978 201.827 247.819 201.709 248.759 200.847C249.111 200.533 249.699 199.789 249.699 198.339C249.699 197.792 249.581 196.97 248.994 196.382C248.132 195.52 246.33 195.48 245.782 195.48H243.432L242.649 201.827ZM239.242 180.402H247.584C249.346 180.402 251.696 180.598 253.341 182.203C254.281 183.105 255.025 184.633 255.025 186.668C255.025 188.354 254.594 189.686 253.811 190.744C252.949 191.917 251.931 192.465 251.069 192.739C252.401 193.053 253.38 193.678 254.046 194.307C255.26 195.48 255.73 196.774 255.73 198.458C255.73 201.239 254.633 203.041 253.615 204.058C251.539 206.134 248.484 206.526 245.743 206.526H236.03L239.242 180.402Z" fill="#2E6B9F"/>
<path d="M299.302 205.989L299.959 210.416H304.613L300.366 213.152L301.023 217.577L297.741 214.841L293.494 217.577L295.712 213.152L292.429 210.416H297.083L299.302 205.989Z" fill="#2E6B9F"/>
<path d="M288.759 192.183L289.416 196.608H294.07L289.823 199.344L290.481 203.768L287.198 201.035L282.951 203.768L285.169 199.344L281.887 196.608H286.54L288.759 192.183Z" fill="#2E6B9F"/>
<path d="M311.485 192.183L312.143 196.608H316.797L312.549 199.344L313.207 203.768L309.925 201.035L305.677 203.768L307.896 199.344L304.613 196.608H309.267L311.485 192.183Z" fill="#2E6B9F"/>
<path d="M302.553 178.377L303.211 182.802H307.864L303.617 185.538L304.275 189.963L300.992 187.229L296.745 189.963L298.963 185.538L295.681 182.802H300.335L302.553 178.377Z" fill="#2E6B9F"/>
</g>
<defs>
<clipPath id="clip0_1_23">
<rect width="600" height="400" fill="white"/>
</clipPath>
</defs>
</svg>
