<svg width="600" height="400" viewBox="0 0 600 400" fill="none" xmlns="http://www.w3.org/2000/svg">
<g clip-path="url(#clip0_215_812)">
<rect width="600" height="400" fill="black"/>
<rect width="600" height="400" fill="black"/>
<path d="M243.373 252.5H236.115L228.477 243.456H218.863V252.5H212.821V225.9H231.175C237.673 225.9 242.575 228.902 242.575 234.678C242.575 239.2 239.573 242.012 235.165 243.038L243.373 252.5ZM218.825 238.44H230.833C234.025 238.44 236.381 237.68 236.381 234.716C236.381 231.752 234.025 230.992 230.833 230.992H218.825V238.44ZM272.589 253.336C262.215 253.336 255.679 248.092 255.679 239.2C255.679 230.308 262.215 225.064 272.589 225.064C282.963 225.064 289.499 230.308 289.499 239.2C289.499 248.092 282.963 253.336 272.589 253.336ZM272.589 248.092C279.163 248.092 283.305 244.9 283.305 239.2C283.305 233.5 279.163 230.308 272.589 230.308C266.015 230.308 261.873 233.5 261.873 239.2C261.873 244.9 265.977 248.092 272.589 248.092ZM319.681 253.336C309.307 253.336 302.771 248.092 302.771 239.2C302.771 230.308 309.307 225.064 319.681 225.064C330.055 225.064 336.591 230.308 336.591 239.2C336.591 248.092 330.055 253.336 319.681 253.336ZM319.681 248.092C326.255 248.092 330.397 244.9 330.397 239.2C330.397 233.5 326.255 230.308 319.681 230.308C313.107 230.308 308.965 233.5 308.965 239.2C308.965 244.9 313.069 248.092 319.681 248.092ZM380.681 225.9H387.179V252.5H381.099V233.994L369.433 248.244H369.129L357.463 233.994V252.5H351.573V225.9H358.185L369.433 239.96L380.681 225.9Z" fill="white"/>
<path d="M280.411 180.521C280.411 180.356 280.494 180.204 280.626 180.122C283.214 178.6 285.801 177.078 288.389 175.557L288.856 175.282C289 175.2 289.168 175.2 289.311 175.282C289.833 175.589 291.194 176.389 292.72 177.286C295.327 178.818 298.416 180.633 298.62 180.755C298.632 180.76 298.644 180.764 298.644 180.768L298.648 180.77C299.315 181.108 299.388 181.145 300.105 180.887L300.115 180.883C300.139 180.874 300.168 180.862 300.189 180.848C300.315 180.774 301.649 179.991 303.291 179.028C305.722 177.603 308.826 175.783 309.677 175.282C309.821 175.199 309.988 175.2 310.132 175.282C311.066 175.831 314.666 177.948 316.857 179.237L318.362 180.122C318.506 180.204 318.59 180.356 318.59 180.521V190.2C318.59 190.365 318.506 190.517 318.362 190.599L310.132 195.439C309.988 195.52 309.821 195.52 309.677 195.439L308.623 194.819C308.623 194.816 304.484 192.384 302.064 190.962C301.137 190.417 300.462 190.02 300.369 189.966C300.357 189.961 300.357 189.957 300.345 189.952L300.342 189.951C299.686 189.613 299.613 189.575 298.895 189.833C298.863 189.842 298.84 189.853 298.81 189.868L298.799 189.873C298.488 190.057 290.749 194.599 289.311 195.439C289.168 195.52 289 195.52 288.868 195.439L288.706 195.344C287.204 194.462 281.801 191.29 280.626 190.599C280.494 190.517 280.411 190.365 280.411 190.2V180.521Z" fill="white"/>
<path d="M301.219 143.801C301.219 143.636 301.303 143.484 301.447 143.401L309.677 138.562C309.821 138.479 309.988 138.479 310.132 138.562C310.743 138.921 312.495 139.951 314.247 140.982C315.999 142.012 317.751 143.042 318.362 143.401C318.506 143.484 318.59 143.636 318.59 143.801V154.776C318.638 155.641 318.674 155.761 319.429 156.268C319.438 156.271 319.44 156.275 319.446 156.279C319.448 156.28 319.45 156.281 319.453 156.282C319.464 156.29 327.323 160.912 328.772 161.762C328.904 161.845 329 161.996 329 162.16V171.839C329 172.004 328.904 172.156 328.772 172.239C328.161 172.598 326.41 173.628 324.658 174.659C322.906 175.689 321.154 176.719 320.543 177.078C320.399 177.161 320.231 177.161 320.087 177.078C319.476 176.719 317.724 175.689 315.972 174.659C314.22 173.628 312.469 172.598 311.858 172.239C311.714 172.156 311.629 172.004 311.629 171.839V160.865C311.582 159.992 311.546 159.877 310.767 159.358C310.767 159.358 302.896 154.729 301.447 153.879C301.303 153.797 301.219 153.645 301.219 153.48V143.801Z" fill="white"/>
<path d="M280.411 143.801C280.411 143.636 280.494 143.484 280.626 143.402C283.154 141.915 285.682 140.429 288.21 138.942L288.856 138.562C289 138.479 289.168 138.479 289.311 138.562C289.924 138.922 291.681 139.955 293.436 140.987C295.185 142.016 296.932 143.043 297.542 143.401C297.685 143.484 297.769 143.636 297.769 143.801V153.48C297.769 153.645 297.685 153.797 297.542 153.879C296.128 154.711 288.569 159.158 288.233 159.352C288.233 159.357 288.221 159.362 288.209 159.367L288.196 159.376C287.597 159.783 287.526 159.832 287.383 160.589C287.383 160.606 287.38 160.622 287.377 160.638C287.374 160.655 287.371 160.671 287.371 160.688V160.712C287.371 161.348 287.371 170.185 287.359 171.839C287.359 172.004 287.275 172.156 287.131 172.239C286.532 172.592 284.951 173.525 284.951 173.525C282.938 174.71 280.926 175.893 278.901 177.078C278.769 177.161 278.59 177.161 278.458 177.078C275.99 175.632 273.53 174.184 271.073 172.738L270 172.106V162.16C270 161.996 270.084 161.843 270.228 161.762C270.674 161.499 271.734 160.876 272.985 160.14C275.695 158.546 279.307 156.421 279.536 156.288C279.536 156.286 279.538 156.284 279.541 156.283C279.544 156.28 279.548 156.278 279.548 156.275L279.56 156.267C280.172 155.857 280.244 155.809 280.387 155.051V154.952C280.393 154.761 280.396 152.226 280.399 149.594C280.402 147.145 280.405 144.611 280.411 143.801Z" fill="white"/>
<path d="M290.809 162.16C290.809 161.996 290.905 161.845 291.036 161.762L299.267 156.923C299.41 156.84 299.578 156.84 299.722 156.923C300.944 157.64 306.73 161.043 307.952 161.762C308.096 161.843 308.179 161.996 308.179 162.16V171.839C308.179 172.004 308.096 172.156 307.952 172.239C307.34 172.599 305.582 173.632 303.827 174.665C302.078 175.693 300.331 176.72 299.722 177.078C299.578 177.161 299.41 177.161 299.267 177.078C298.657 176.72 296.91 175.693 295.161 174.665C293.406 173.632 291.649 172.599 291.036 172.239C290.905 172.156 290.809 172.004 290.809 171.839V162.16Z" fill="white"/>
</g>
<defs>
<clipPath id="clip0_215_812">
<rect width="600" height="400" fill="white"/>
</clipPath>
</defs>
</svg>
