<svg width="600" height="400" viewBox="0 0 600 400" fill="none" xmlns="http://www.w3.org/2000/svg">
<g clip-path="url(#clip0_218_9)">
<rect width="600" height="400" fill="white"/>
<rect width="600" height="400" fill="white"/>
<path d="M207.715 186.244C211.455 186.244 215.647 187.189 217.044 188.34L215.647 195.532H215.318C213.715 193.724 210.838 192.738 207.181 192.738C204.55 192.738 203.03 193.56 203.03 194.998C203.03 196.067 203.893 196.683 207.181 197.012C213.469 197.628 215.976 200.094 215.976 204.451C215.976 210.821 211.701 214.355 203.975 214.355C199.249 214.355 195.18 213.492 193.002 211.971L194.399 204.615H194.728C196.947 206.752 200.153 207.862 204.098 207.862C207.016 207.862 208.496 207.081 208.496 205.601C208.496 204.574 207.551 203.916 204.304 203.587C198.057 202.971 195.509 200.628 195.509 196.354C195.509 189.902 199.947 186.244 207.715 186.244Z" fill="#2C1D4D"/>
<path d="M237.138 213.944L236.44 210.04H225.549L223.33 213.944H215.192L231.672 186.655H238.947L244.824 213.944H237.138ZM233.892 195.286H233.809L229.083 203.793H235.371L233.892 195.286Z" fill="#2C1D4D"/>
<path d="M267.841 213.944L267.143 210.04H256.252L254.032 213.944H245.895L262.375 186.655H269.65L275.527 213.944H267.841ZM264.595 195.286H264.512L259.786 203.793H266.074L264.595 195.286Z" fill="#2C1D4D"/>
<path d="M292.88 186.244C296.62 186.244 300.812 187.189 302.21 188.34L300.812 195.532H300.484C298.881 193.724 296.004 192.738 292.346 192.738C289.716 192.738 288.195 193.56 288.195 194.998C288.195 196.067 289.058 196.683 292.346 197.012C298.634 197.628 301.141 200.094 301.141 204.451C301.141 210.821 296.867 214.355 289.141 214.355C284.414 214.355 280.346 213.492 278.167 211.971L279.565 204.615H279.894C282.113 206.752 285.318 207.862 289.264 207.862C292.182 207.862 293.661 207.081 293.661 205.601C293.661 204.574 292.716 203.916 289.469 203.587C283.222 202.971 280.674 200.628 280.674 196.354C280.674 189.902 285.113 186.244 292.88 186.244Z" fill="#2C1D4D"/>
<path d="M308.773 186.655H320.034C325.87 186.655 328.911 189.121 328.911 193.847C328.911 199.272 326.075 202.601 320.815 203.382L325.952 213.944H321.637L316.952 203.546H309.431L307.417 213.944H303.471L308.773 186.655ZM324.924 194.258C324.924 191.505 323.198 190.148 319.582 190.148H312.02L310.129 200.053H318.349C322.705 200.053 324.924 197.957 324.924 194.258Z" fill="#2C1D4D"/>
<path d="M337.548 198.409H350.617L349.918 201.902H336.89L335.246 210.451H351.233L350.535 213.944H330.602L335.904 186.655H355.836L355.179 190.148H339.151L337.548 198.409Z" fill="#2C1D4D"/>
<path d="M377.753 213.944L376.356 208.273H361.273L357.656 213.944H353.341L371.013 186.655H374.753L381.781 213.944H377.753ZM372.205 191.135H372.123L363.451 204.779H375.534L372.205 191.135Z" fill="#2C1D4D"/>
<path d="M400.792 186.244C404.655 186.244 408.313 187.189 410.327 189.039L409.505 193.108H409.299C407.738 190.847 404.244 189.738 400.751 189.738C393.806 189.738 388.668 194.957 388.668 201.944C388.668 207.286 392.408 210.862 398.039 210.862C401.614 210.862 404.244 209.629 406.546 207.327H406.751L405.847 212.054C403.71 213.492 401.409 214.355 397.669 214.355C389.737 214.355 384.723 209.341 384.723 202.149C384.723 193.025 391.545 186.244 400.792 186.244Z" fill="#2C1D4D"/>
<path d="M426.081 190.148L421.479 213.944H417.533L422.136 190.148H413.177L413.834 186.655H435.698L435.041 190.148H426.081Z" fill="#2C1D4D"/>
<path d="M450.714 186.244C458.44 186.244 463.495 191.258 463.495 198.491C463.495 207.492 456.673 214.355 447.673 214.355C439.905 214.355 434.891 209.341 434.891 202.108C434.891 193.108 441.754 186.244 450.714 186.244ZM450.508 189.738C443.85 189.738 438.837 195.039 438.837 201.985C438.837 207.286 442.412 210.862 447.878 210.862C454.454 210.862 459.509 205.56 459.509 198.738C459.509 193.354 456.015 189.738 450.508 189.738Z" fill="#2C1D4D"/>
<path d="M470.756 186.655H482.017C487.853 186.655 490.894 189.121 490.894 193.847C490.894 199.272 488.058 202.601 482.798 203.382L487.935 213.944H483.62L478.935 203.546H471.414L469.4 213.944H465.454L470.756 186.655ZM486.907 194.258C486.907 191.505 485.181 190.148 481.565 190.148H474.003L472.112 200.053H480.332C484.688 200.053 486.907 197.957 486.907 194.258Z" fill="#2C1D4D"/>
<path d="M118.571 205.178L165.976 177.808L175.845 183.453L175.8 194.823L128.394 222.192L118.525 216.547L118.571 205.178Z" stroke="#8B5CF6" stroke-width="6"/>
<path d="M128.394 177.808L175.8 205.178L175.846 216.547L165.976 222.192L118.571 194.823L118.525 183.453L128.394 177.808Z" stroke="#F43F5E" stroke-width="6"/>
<path fill-rule="evenodd" clip-rule="evenodd" d="M124.364 208.538L124.345 213.187L128.381 215.495L134.36 212.043L134.36 222.212L128.401 225.652L115.518 218.283L115.578 203.442L151.203 182.873L151.203 193.042L124.364 208.538ZM160.022 187.951L165.99 184.505L170.025 186.813L170.007 191.462L143.162 206.961L143.162 217.13L178.793 196.559L178.853 181.717L165.969 174.348L160.022 177.782L160.022 187.951Z" fill="#8B5CF6"/>
<path fill-rule="evenodd" clip-rule="evenodd" d="M128.381 184.505L124.345 186.813L124.364 191.462L130.343 194.914L121.536 199.999L115.578 196.559L115.518 181.717L128.401 174.348L164.027 194.916L155.22 200.001L128.381 184.505ZM164.038 205.092L170.007 208.538L170.025 213.187L165.99 215.495L139.145 199.996L130.339 205.081L165.969 225.652L178.853 218.283L178.793 203.442L172.845 200.008L164.038 205.092Z" fill="#F43F5E"/>
<path fill-rule="evenodd" clip-rule="evenodd" d="M151.202 175.967L147.185 173.627L143.169 175.967V182.871L134.362 177.787V170.906L147.185 163.434L160.009 170.906V212.043L151.202 206.959V175.967ZM151.202 217.142V224.033L147.185 226.373L143.169 224.033V193.035L134.362 187.951V229.094L147.185 236.566L160.009 229.094V222.226L151.202 217.142Z" fill="#0FA5E9"/>
</g>
<defs>
<clipPath id="clip0_218_9">
<rect width="600" height="400" fill="white"/>
</clipPath>
</defs>
</svg>
