<svg width="600" height="400" viewBox="0 0 600 400" fill="none" xmlns="http://www.w3.org/2000/svg">
<g clip-path="url(#clip0_214_739)">
<rect width="600" height="400" fill="white"/>
<rect width="600" height="400" fill="#03161D"/>
<path d="M225 175C225 147.386 247.386 125 275 125V175H225Z" fill="#055659"/>
<path d="M225 175C225 202.614 247.386 225 275 225V175H225Z" fill="white" fill-opacity="0.75"/>
<path d="M275 200C275 213.807 286.193 225 300 225C313.807 225 325 213.807 325 200C325 186.193 313.807 175 300 175C286.193 175 275 186.193 275 200Z" fill="#F06101"/>
<path d="M275 175H325V125H275V175Z" fill="#FDAB07"/>
<path d="M275 275H325V225H275V275Z" fill="#055659"/>
<path d="M375 225C375 197.386 352.614 175 325 175V225H375Z" fill="#055659"/>
<path d="M325 125H350C363.807 125 375 136.193 375 150C375 163.807 363.807 175 350 175H325V125Z" fill="#F06101"/>
<path d="M325 225H375C375 252.614 352.614 275 325 275V225Z" fill="white" fill-opacity="0.75"/>
<path d="M225 250C225 236.193 236.193 225 250 225H275V275H250C236.193 275 225 263.807 225 250Z" fill="#FDAB07"/>
</g>
<defs>
<clipPath id="clip0_214_739">
<rect width="600" height="400" fill="white"/>
</clipPath>
</defs>
</svg>
