<svg width="600" height="400" viewBox="0 0 600 400" fill="none" xmlns="http://www.w3.org/2000/svg">
<rect width="600" height="400" fill="white"/>
<path d="M163.187 180C151.135 180 144.259 186.062 144.259 194.323C144.259 201.852 148.996 205.716 161.329 207.982C167.844 209.248 169.923 210.381 169.923 212.38C169.923 214.91 167.525 216.443 162.588 216.443C156.731 216.443 152.454 214.844 148.936 209.781L143 217.842C147.337 222.639 152.794 225.303 163.187 225.303C173.781 225.303 181.776 220.375 181.776 211.78C181.776 204.051 177.039 200.187 164.986 198.121C158.25 196.921 156.192 195.59 156.192 193.324C156.192 190.793 158.65 188.926 163.387 188.926C168.984 188.926 172.721 190.993 175.64 195.39L182.115 187.927C177.039 182.265 171.442 180 163.187 180Z" fill="#243A58"/>
<path d="M223.289 224.638H236.281L220.551 198.521L235.482 180.666H222.75L207.02 200.187V180.666H195.567V224.638H207.02V212.246L212.356 205.784L223.289 224.638Z" fill="#243A58"/>
<path d="M259.852 180.666H248.394V224.638H259.852V180.666Z" fill="#243A58"/>
<path d="M287.709 215.778V180.666H276.256V224.638H309.755V215.778H287.709Z" fill="#243A58"/>
<path d="M334.479 215.778V180.666H323.026V224.638H356.525V215.778H334.479Z" fill="#243A58"/>
<path d="M446.344 180.666H424.498V224.638H438.09V210.047H446.344C457.937 210.047 464.133 204.916 464.133 195.656C464.133 185.797 457.937 180.666 446.344 180.666ZM444.146 200.453H438.09V190.594H444.146C448.543 190.594 450.482 192.193 450.482 195.522C450.482 198.854 448.543 200.453 444.146 200.453Z" fill="#22B8CE"/>
<path fill-rule="evenodd" clip-rule="evenodd" d="M411.606 180V206.229C411.606 219.378 404.553 225.885 390.514 225.885C383.753 225.885 378.596 224.361 375.074 221.299L398.129 198.244V206.539H403.865V187.77H385.094V193.505H393.389L371.116 215.778C369.987 213.122 369.42 209.94 369.42 206.229V180H411.606Z" fill="#22B8CF"/>
</svg>
