<svg width="600" height="400" viewBox="0 0 600 400" fill="none" xmlns="http://www.w3.org/2000/svg">
<g clip-path="url(#clip0_1_6)">
<rect width="600" height="400" fill="white"/>
<rect x="6.10352e-05" width="600" height="400" fill="#352B21"/>
<path d="M213.463 192.787C208.913 191.902 205.373 191.397 205.373 188.047C205.373 185.33 207.838 183.37 211.441 183.307C215.169 183.307 218.835 185.393 220.478 188.553C221.363 190.259 221.995 191.334 223.069 191.334C223.954 191.334 224.776 190.512 224.776 188.616C224.776 185.266 222.501 179.831 220.478 179.831C219.53 179.831 218.961 180.59 218.961 181.664V181.854C216.623 180.526 213.526 179.894 210.809 179.894C204.552 179.894 198.801 183.623 198.801 189.817C198.801 196.326 205.057 198.096 210.619 199.297C215.169 200.245 219.277 200.75 219.277 204.669C219.277 208.018 215.991 209.535 212.515 209.535C208.281 209.535 204.425 206.881 202.529 203.658C201.581 202.014 201.139 200.434 199.938 200.434C198.927 200.434 198.358 201.382 198.358 203.468C198.358 207.134 200.507 212.885 202.845 212.885C203.983 212.885 204.425 212 204.425 210.926V210.546C207.017 212.253 210.24 212.948 213.21 212.948C220.289 212.948 225.85 209.093 225.85 202.962C225.85 195.758 219.088 193.988 213.463 192.787Z" fill="white"/>
<path d="M235.774 212.379C240.641 212.379 243.737 211.81 243.737 210.041C243.737 208.777 242.537 208.461 240.072 208.271C239.377 207.955 239.25 205.806 239.25 201.635V179.262C239.25 174.775 239.377 171.236 239.377 169.024C239.377 166.749 238.997 165.548 237.165 165.548C235.395 165.548 230.845 166.559 228.38 167.76C227.495 168.202 227.116 168.708 227.116 169.403C227.116 170.288 228.064 170.983 231.413 171.173C232.172 171.552 232.298 175.218 232.298 178.125V201.635C232.298 206.059 232.235 207.955 231.477 208.271C229.075 208.398 227.811 208.777 227.811 210.041C227.811 211.747 230.655 212.379 235.774 212.379Z" fill="white"/>
<path d="M261.814 213.011C271.736 213.011 279.257 206.312 279.257 196.263C279.257 186.657 272.558 179.768 262.888 179.768C252.776 179.768 245.445 186.657 245.445 196.516C245.445 206.122 252.081 213.011 261.814 213.011ZM263.836 209.472C257.01 209.472 252.46 201.256 252.46 193.672C252.46 187.162 256.126 183.307 260.866 183.307C267.565 183.307 272.305 191.46 272.305 199.107C272.305 205.49 268.639 209.472 263.836 209.472Z" fill="white"/>
<path d="M326.162 180.4C321.801 180.4 318.831 181.158 318.831 182.738C318.831 183.876 320.221 184.318 323.065 184.508C323.634 185.203 323.128 187.794 322.496 190.006C321.169 194.746 318.831 200.94 316.619 205.617C314.849 201.635 312.574 195.568 310.931 190.512C309.983 187.794 309.477 185.393 309.92 184.634C312.448 184.508 313.838 184.066 313.838 182.802C313.838 181.222 311.12 180.4 306.128 180.4C301.072 180.4 298.164 181.222 298.164 182.802C298.164 183.939 299.239 184.508 301.135 184.634C301.956 185.393 301.956 185.709 303.094 188.616C303.41 189.501 303.852 190.512 304.232 191.65C302.715 196.074 300.376 201.382 298.101 205.743C296.142 201.762 293.361 195.315 291.781 190.512C290.896 187.794 290.328 185.266 290.77 184.634C293.172 184.508 294.372 184.066 294.372 182.802C294.372 181.222 291.592 180.4 286.599 180.4C281.1 180.4 278.256 181.158 278.256 182.802C278.256 183.939 279.457 184.508 281.48 184.698C282.238 185.14 282.554 185.835 283.692 188.742C285.777 193.798 290.012 204.858 292.097 208.84C293.424 211.494 294.436 212.695 296.142 212.695C297.848 212.695 298.923 211.558 300.376 208.65C302.399 204.542 304.232 200.624 306.001 196.453C307.771 201.193 309.604 206.312 310.804 208.84C312.068 211.558 313.206 212.695 314.912 212.695C316.682 212.695 317.693 211.558 318.957 208.777C320.727 204.922 323.824 197.338 326.731 189.374C327.805 186.657 328.437 185.014 329.575 184.571C331.534 184.318 332.545 183.939 332.545 182.675C332.545 181.285 329.954 180.4 326.162 180.4Z" fill="white"/>
<path d="M214.437 246.671C213.678 246.229 213.678 244.396 213.678 240.035V230.239C213.678 221.644 209.318 218.294 203.819 218.294C198.51 218.294 194.15 221.202 192.064 226.321C190.863 220.57 187.008 218.294 182.521 218.294C177.465 218.294 173.23 221.075 171.208 226.005V222.213C171.208 219.874 170.892 218.737 168.996 218.737C167.29 218.737 162.802 219.748 160.464 220.886C159.516 221.391 159.2 221.897 159.2 222.529C159.2 223.414 160.022 224.109 163.245 224.298C164.066 224.741 164.193 228.406 164.193 231.25V240.035C164.193 244.459 164.066 246.355 163.371 246.671C160.97 246.798 159.642 247.177 159.642 248.441C159.642 250.147 162.55 250.779 167.669 250.779C172.788 250.779 175.948 250.21 175.948 248.441C175.948 247.177 174.747 246.861 171.903 246.671C171.208 246.355 171.145 244.27 171.145 240.035V234.853C171.145 226.384 175.379 223.287 179.298 223.287C184.164 223.287 185.491 226.89 185.491 232.894V240.035C185.491 243.701 185.365 246.355 184.67 246.671C181.889 246.798 180.688 247.177 180.688 248.441C180.688 250.147 183.595 250.779 188.967 250.779C194.15 250.779 197.31 250.21 197.31 248.441C197.31 247.177 196.046 246.861 193.265 246.671C192.506 246.355 192.443 244.08 192.443 240.035V233.146C193.012 225.942 196.93 223.287 200.596 223.287C205.273 223.287 206.726 226.637 206.726 232.894V240.035C206.726 243.574 206.6 246.355 205.905 246.671C203.187 246.798 201.923 247.177 201.923 248.441C201.923 250.147 204.894 250.779 210.266 250.779C215.069 250.779 218.166 250.21 218.166 248.441C218.166 247.177 216.965 246.861 214.437 246.671Z" fill="white"/>
<path d="M235.725 251.411C245.648 251.411 253.169 244.712 253.169 234.663C253.169 225.057 246.469 218.168 236.8 218.168C226.688 218.168 219.357 225.057 219.357 234.916C219.357 244.522 225.993 251.411 235.725 251.411ZM237.748 247.872C230.922 247.872 226.372 239.656 226.372 232.072C226.372 225.562 230.037 221.707 234.777 221.707C241.477 221.707 246.217 229.86 246.217 237.507C246.217 243.89 242.551 247.872 237.748 247.872Z" fill="white"/>
<path d="M276.604 218.358C273.255 218.358 269.084 221.138 266.998 226.384V222.213C266.998 219.938 266.619 218.737 264.786 218.737C263.08 218.737 258.466 219.748 256.254 220.886C255.369 221.391 254.99 221.897 254.99 222.529C254.99 223.414 255.812 224.109 259.035 224.298C259.856 224.741 259.983 228.406 259.983 231.25V240.035C259.983 244.459 259.856 246.355 259.161 246.671C256.76 246.798 255.496 247.177 255.496 248.441C255.496 250.147 258.403 250.779 263.459 250.779C269.4 250.779 272.686 250.21 272.686 248.441C272.686 247.177 271.359 246.798 267.82 246.608C267.124 246.292 266.935 244.206 266.935 240.035V233.842C266.935 228.027 270.348 224.741 272.433 224.741C273.508 224.741 274.013 225.499 274.582 226.068C275.34 226.89 276.225 227.585 277.679 227.585C279.828 227.585 281.408 225.878 281.408 223.034C281.408 219.938 279.069 218.358 276.604 218.358Z" fill="white"/>
<path d="M316.443 246.671C315.748 246.355 315.748 244.838 315.748 240.035V230.239C315.748 221.644 311.071 218.294 305.383 218.294C300.201 218.294 295.84 221.075 293.754 225.942V222.213C293.754 219.874 293.375 218.737 291.542 218.737C289.836 218.737 285.349 219.685 283.01 220.886C282.062 221.391 281.746 221.897 281.746 222.529C281.746 223.414 282.568 224.109 285.791 224.298C286.613 224.741 286.739 228.343 286.739 231.187V240.035C286.739 244.459 286.613 246.355 285.918 246.671C283.516 246.798 282.189 247.177 282.189 248.441C282.189 250.147 285.096 250.779 290.152 250.779C295.334 250.779 298.494 250.21 298.494 248.441C298.494 247.177 297.294 246.861 294.45 246.671C293.754 246.355 293.691 244.27 293.691 240.035V234.853C293.691 226.51 298.115 223.287 302.223 223.287C306.837 223.287 308.796 226.194 308.796 232.894V240.035C308.796 243.448 308.67 246.355 307.911 246.671C305.194 246.798 303.93 247.177 303.93 248.441C303.93 250.147 306.837 250.779 312.209 250.779C317.075 250.779 320.235 250.21 320.235 248.441C320.235 247.177 318.971 246.861 316.443 246.671Z" fill="white"/>
<path d="M328.807 213.238C331.208 213.238 333.736 212.038 333.736 209.194C333.736 206.918 332.156 205.402 329.375 205.402C327.037 205.402 324.509 206.602 324.509 209.383C324.509 211.722 326.152 213.238 328.807 213.238ZM329.565 250.779C334.431 250.779 337.528 250.21 337.528 248.441C337.528 247.177 336.264 246.861 333.799 246.671C333.104 246.355 333.041 244.27 333.041 240.035V232.388C333.041 227.838 333.167 224.298 333.167 222.15C333.167 219.874 332.851 218.674 330.955 218.674C329.186 218.674 324.635 219.685 322.423 220.886C321.475 221.328 321.159 221.834 321.159 222.529C321.159 223.414 321.981 224.109 325.204 224.298C325.963 224.678 326.089 228.28 326.089 231.187V240.035C326.089 244.27 326.026 246.355 325.267 246.671C322.866 246.798 321.602 247.177 321.602 248.441C321.602 250.147 324.509 250.779 329.565 250.779Z" fill="white"/>
<path d="M373.412 246.671C372.717 246.355 372.717 244.838 372.717 240.035V230.239C372.717 221.644 368.04 218.294 362.352 218.294C357.17 218.294 352.809 221.075 350.723 225.942V222.213C350.723 219.874 350.344 218.737 348.511 218.737C346.805 218.737 342.318 219.685 339.979 220.886C339.031 221.391 338.715 221.897 338.715 222.529C338.715 223.414 339.537 224.109 342.76 224.298C343.582 224.741 343.708 228.343 343.708 231.187V240.035C343.708 244.459 343.582 246.355 342.886 246.671C340.485 246.798 339.158 247.177 339.158 248.441C339.158 250.147 342.065 250.779 347.121 250.779C352.303 250.779 355.463 250.21 355.463 248.441C355.463 247.177 354.262 246.861 351.418 246.671C350.723 246.355 350.66 244.27 350.66 240.035V234.853C350.66 226.51 355.084 223.287 359.192 223.287C363.806 223.287 365.765 226.194 365.765 232.894V240.035C365.765 243.448 365.638 246.355 364.88 246.671C362.162 246.798 360.898 247.177 360.898 248.441C360.898 250.147 363.806 250.779 369.178 250.779C374.044 250.779 377.204 250.21 377.204 248.441C377.204 247.177 375.94 246.861 373.412 246.671Z" fill="white"/>
<path d="M404.04 244.206C400.185 244.206 395.129 245.47 389.504 245.47C386.281 245.47 384.575 244.712 384.575 243.069C384.575 242.247 384.828 241.11 386.66 239.909C388.304 240.414 390.136 240.73 392.222 240.73C400.88 240.73 407.074 235.611 407.074 228.786C407.074 227.206 406.695 225.689 406.063 224.362C408.591 222.339 410.171 219.685 410.171 218.358C410.171 217.662 409.728 216.967 408.97 216.967C408.528 216.967 407.959 217.22 407.453 217.473C406.316 218.042 404.609 219.495 402.144 220.254C399.996 218.99 397.215 218.231 393.928 218.231C385.144 218.231 379.076 223.224 379.076 230.05C379.076 233.589 380.783 236.622 383.88 238.582C380.972 240.478 379.329 242.626 379.329 245.028C379.329 246.924 380.34 248.82 382.616 250.084C380.34 250.969 378.634 253.054 378.634 255.519C378.634 259.564 383.311 262.977 392.096 262.977C399.553 262.977 410.992 259.374 410.992 251.032C410.992 246.355 407.643 244.206 404.04 244.206ZM393.044 221.454C397.72 221.454 400.691 225.689 400.691 230.113C400.691 234.663 397.72 237.507 393.107 237.507C388.43 237.507 385.523 233.336 385.523 228.786C385.523 224.235 388.556 221.454 393.044 221.454ZM392.475 259.438C386.155 259.438 383.753 256.72 383.753 254.508C383.753 253.181 384.322 251.98 386.092 251.222C386.976 251.411 388.051 251.474 389.188 251.474C394.055 251.474 399.806 250.4 402.271 250.4C403.977 250.4 405.241 251.095 405.241 252.865C405.241 256.214 399.68 259.438 392.475 259.438Z" fill="white"/>
<path d="M427.286 231.187C422.735 230.302 419.196 229.797 419.196 226.447C419.196 223.73 421.661 221.77 425.263 221.707C428.992 221.707 432.658 223.793 434.301 226.953C435.186 228.659 435.818 229.734 436.892 229.734C437.777 229.734 438.598 228.912 438.598 227.016C438.598 223.666 436.323 218.231 434.301 218.231C433.353 218.231 432.784 218.99 432.784 220.064V220.254C430.446 218.926 427.349 218.294 424.631 218.294C418.374 218.294 412.623 222.023 412.623 228.217C412.623 234.726 418.88 236.496 424.442 237.697C428.992 238.645 433.1 239.15 433.1 243.069C433.1 246.418 429.814 247.935 426.338 247.935C422.103 247.935 418.248 245.281 416.352 242.058C415.404 240.414 414.962 238.834 413.761 238.834C412.75 238.834 412.181 239.782 412.181 241.868C412.181 245.534 414.33 251.285 416.668 251.285C417.806 251.285 418.248 250.4 418.248 249.326V248.946C420.839 250.653 424.062 251.348 427.033 251.348C434.111 251.348 439.673 247.493 439.673 241.362C439.673 234.158 432.91 232.388 427.286 231.187Z" fill="white"/>
<path d="M377.6 136.8C396.599 136.8 412 152.201 412 171.2C412 173.486 411.777 175.72 411.352 177.881C411.008 179.628 409.418 180.8 407.638 180.8H347.562C345.782 180.8 344.192 179.628 343.848 177.881C343.423 175.72 343.2 173.486 343.2 171.2C343.2 152.201 358.601 136.8 377.6 136.8Z" fill="url(#paint0_linear_1_6)"/>
<path d="M349.701 187.2C348.126 187.2 346.661 186.338 346.033 184.893C345.849 184.469 346.163 184 346.626 184H408.575C409.037 184 409.351 184.469 409.167 184.893C408.539 186.338 407.074 187.2 405.499 187.2H349.701Z" fill="url(#paint1_linear_1_6)"/>
<path d="M350.494 190.4C349.88 190.4 349.52 191.085 349.884 191.58C350.857 192.9 352.436 193.6 354.076 193.6H401.124C402.765 193.6 404.343 192.9 405.316 191.58C405.681 191.085 405.32 190.4 404.706 190.4H350.494Z" fill="url(#paint2_linear_1_6)"/>
<path d="M361.514 200C359.73 200 357.963 199.504 356.553 198.412C355.853 197.87 356.255 196.8 357.14 196.8H398.061C398.945 196.8 399.347 197.87 398.648 198.412C397.237 199.504 395.47 200 393.686 200H361.514Z" fill="url(#paint3_linear_1_6)"/>
<path d="M367.797 203.2C366.694 203.2 366.473 204.532 367.538 204.819C370.873 205.718 374.599 206.4 377.47 206.4C380.36 206.4 384.226 205.709 387.656 204.801C388.723 204.519 388.506 203.2 387.403 203.2H367.797Z" fill="url(#paint4_linear_1_6)"/>
</g>
<defs>
<linearGradient id="paint0_linear_1_6" x1="377.6" y1="136.8" x2="377.6" y2="205.6" gradientUnits="userSpaceOnUse">
<stop stop-color="#F5BC94"/>
<stop offset="1" stop-color="#F09453"/>
</linearGradient>
<linearGradient id="paint1_linear_1_6" x1="377.6" y1="136.8" x2="377.6" y2="205.6" gradientUnits="userSpaceOnUse">
<stop stop-color="#F5BC94"/>
<stop offset="1" stop-color="#F09453"/>
</linearGradient>
<linearGradient id="paint2_linear_1_6" x1="377.6" y1="136.8" x2="377.6" y2="205.6" gradientUnits="userSpaceOnUse">
<stop stop-color="#F5BC94"/>
<stop offset="1" stop-color="#F09453"/>
</linearGradient>
<linearGradient id="paint3_linear_1_6" x1="377.6" y1="136.8" x2="377.6" y2="205.6" gradientUnits="userSpaceOnUse">
<stop stop-color="#F5BC94"/>
<stop offset="1" stop-color="#F09453"/>
</linearGradient>
<linearGradient id="paint4_linear_1_6" x1="377.6" y1="136.8" x2="377.6" y2="205.6" gradientUnits="userSpaceOnUse">
<stop stop-color="#F5BC94"/>
<stop offset="1" stop-color="#F09453"/>
</linearGradient>
<clipPath id="clip0_1_6">
<rect width="600" height="400" fill="white"/>
</clipPath>
</defs>
</svg>
