<svg width="600" height="400" viewBox="0 0 600 400" fill="none" xmlns="http://www.w3.org/2000/svg">
<g clip-path="url(#clip0_214_723)">
<rect width="600" height="400" fill="white"/>
<rect width="600" height="400" fill="#2D1E3B"/>
<path d="M197.113 213.085C202.594 213.085 206.234 210.43 206.234 206.49C206.234 202.508 203.494 200.495 197.241 199.81C194.158 199.467 192.916 198.739 192.916 197.369C192.916 195.827 194.543 194.971 197.584 194.971C199.768 194.971 201.781 195.57 203.665 196.769L205.763 193.343C203.408 191.716 200.582 190.903 197.37 190.903C191.888 190.903 188.205 193.515 188.205 197.369C188.205 201.052 191.332 203.364 196.856 203.878C200.11 204.221 201.481 204.949 201.481 206.448C201.481 207.989 199.939 208.846 197.241 208.846C194.458 208.846 191.674 207.989 189.79 206.49L187.563 209.959C190.389 212.057 193.558 213.085 197.113 213.085Z" fill="white"/>
<path d="M219.767 212.871C221.522 212.871 222.893 212.571 224.52 211.843L223.192 207.989C222.379 208.375 221.394 208.632 220.537 208.632C218.568 208.632 217.583 207.433 217.583 205.291V195.485H223.664V191.416H217.583V185.378L212.829 185.892V191.416H208.847V195.485H212.829V205.291C212.829 210.345 215.399 212.871 219.767 212.871Z" fill="white"/>
<path d="M228.081 212.571H232.877V202.251C232.877 198.097 235.061 195.57 238.487 195.57C239.772 195.57 240.843 195.913 242.042 196.727L244.183 192.83C242.898 191.673 240.885 190.988 238.83 190.988C236.175 190.988 234.076 192.102 232.406 194.671L232.363 191.416H228.081V212.571Z" fill="white"/>
<path d="M256.588 213.171C260.228 213.171 263.612 211.758 265.71 209.488L262.798 206.662C261.513 207.989 259.115 208.846 256.717 208.846C252.991 208.846 250.422 206.876 250.036 203.792H266.952C267.637 195.87 263.526 190.988 256.075 190.988C249.522 190.988 245.112 195.442 245.112 201.994C245.112 208.76 249.608 213.171 256.588 213.171ZM250.079 200.067C250.679 196.941 252.863 195.142 256.203 195.142C259.715 195.142 262.027 197.069 262.37 200.067H250.079Z" fill="white"/>
<path d="M280.445 213.042C283.699 213.042 286.526 211.801 288.153 209.745L288.196 212.571H292.478V191.416H288.196L288.153 194.243C286.526 192.187 283.742 190.945 280.445 190.945C274.235 190.945 269.953 195.485 269.953 201.994C269.953 208.503 274.235 213.042 280.445 213.042ZM274.749 201.994C274.749 198.054 277.404 195.313 281.215 195.313C285.027 195.313 287.682 198.054 287.682 201.994C287.682 205.934 285.027 208.674 281.215 208.674C277.404 208.674 274.749 205.934 274.749 201.994Z" fill="white"/>
<path d="M298.297 212.571H303.093V200.838C303.093 197.54 305.235 195.313 308.361 195.313C311.23 195.313 312.814 197.198 312.814 200.581V212.571H317.611V200.838C317.611 197.54 319.709 195.313 322.878 195.313C325.747 195.313 327.289 197.198 327.289 200.581V212.571H332.085V200.195C332.085 194.457 328.702 190.988 323.263 190.988C319.966 190.988 317.397 192.23 315.726 194.714C314.399 192.401 311.872 190.988 308.875 190.988C306.22 190.988 304.164 191.93 302.622 193.9L302.58 191.416H298.297V212.571Z" fill="white"/>
<path d="M347.715 213.171C351.355 213.171 354.738 211.758 356.836 209.488L353.924 206.662C352.639 207.989 350.241 208.846 347.843 208.846C344.117 208.846 341.548 206.876 341.163 203.792H358.078C358.763 195.87 354.652 190.988 347.201 190.988C340.649 190.988 336.238 195.442 336.238 201.994C336.238 208.76 340.734 213.171 347.715 213.171ZM341.205 200.067C341.805 196.941 343.989 195.142 347.329 195.142C350.841 195.142 353.153 197.069 353.496 200.067H341.205Z" fill="white"/>
<path d="M362.449 212.571H367.246V202.251C367.246 198.097 369.43 195.57 372.856 195.57C374.14 195.57 375.211 195.913 376.41 196.727L378.551 192.83C377.266 191.673 375.254 190.988 373.198 190.988C370.543 190.988 368.445 192.102 366.775 194.671L366.732 191.416H362.449V212.571Z" fill="white"/>
<path d="M383.663 190.132V191.416H379.68V195.527H383.663V212.571H388.459V195.527H394.754V191.416H388.459V190.132C388.459 187.348 389.829 186.149 391.799 186.149C392.955 186.149 393.812 186.492 394.968 187.22L396.809 183.837C395.054 182.595 393.341 182.038 391.414 182.038C387.088 182.038 383.663 184.736 383.663 190.132Z" fill="white"/>
<path d="M406.897 213C409.809 213 412.293 211.929 414.091 209.831L414.134 212.571H418.416V191.416H413.62V202.551C413.62 206.105 411.265 208.674 407.753 208.674C404.67 208.674 402.786 206.533 402.786 202.808V191.416H397.989V203.107C397.989 209.145 401.501 213 406.897 213Z" fill="white"/>
<path d="M424.26 212.571H429.056V201.437C429.056 197.883 431.497 195.313 435.008 195.313C438.22 195.313 440.147 197.455 440.147 201.18V212.571H444.943V200.88C444.943 194.842 441.346 190.988 435.908 190.988C432.91 190.988 430.383 192.059 428.585 194.2L428.542 191.416H424.26V212.571Z" fill="white"/>
<path d="M459.475 213.042C462.815 213.042 465.641 211.801 467.269 209.745L467.312 212.571H471.594V182.595H466.798V193.686C465.128 191.973 462.515 190.945 459.475 190.945C453.479 190.945 449.069 195.313 449.069 201.994C449.069 208.674 453.479 213.042 459.475 213.042ZM453.865 201.994C453.865 198.054 456.52 195.313 460.331 195.313C464.143 195.313 466.798 198.054 466.798 201.994C466.798 205.934 464.143 208.674 460.331 208.674C456.52 208.674 453.865 205.934 453.865 201.994Z" fill="white"/>
<path d="M134.396 193.866C135.724 186.963 142.522 181.25 149.552 181.25L144.743 206.25H144.508C137.608 206.25 133.092 200.643 134.396 193.866Z" fill="#C084FC"/>
<path d="M149.552 181.25L150.755 175H163.484L162.282 181.25H175.011C173.683 188.154 166.907 193.75 159.877 193.75H147.147L149.552 181.25Z" fill="#9333EA"/>
<path d="M170.224 206.134C168.895 213.038 162.097 218.75 155.067 218.75L159.877 193.75L160.111 193.75C167.012 193.75 171.527 199.358 170.224 206.134Z" fill="#C084FC"/>
<path d="M155.067 218.75L153.865 225L141.135 225L142.338 218.75L129.609 218.75C130.937 211.847 137.712 206.25 144.743 206.25L157.472 206.25L155.067 218.75Z" fill="#9333EA"/>
</g>
<defs>
<clipPath id="clip0_214_723">
<rect width="600" height="400" fill="white"/>
</clipPath>
</defs>
</svg>
