<svg width="600" height="400" viewBox="0 0 600 400" fill="none" xmlns="http://www.w3.org/2000/svg">
<g clip-path="url(#clip0_1_3)">
<rect width="600" height="400" fill="white"/>
<rect width="600" height="400" fill="#FCFCFB"/>
<path fill-rule="evenodd" clip-rule="evenodd" d="M144.629 211.589L178.137 245.093H144.629V211.589ZM234.424 245.093H200.916L234.424 211.589V245.093ZM178.137 155.298L144.629 188.802V155.298H178.137ZM234.424 188.802L200.916 155.298H234.424V188.802Z" fill="#005C59"/>
<path fill-rule="evenodd" clip-rule="evenodd" d="M236.998 200.196L189.527 152.724L142.055 200.196L189.527 247.669L236.998 200.196ZM189.198 232.478L189.527 232.482C196.556 232.482 202.367 227.19 203.192 220.382H209.716V213.865C216.521 213.039 221.81 207.224 221.81 200.196C221.81 193.169 216.521 187.354 209.716 186.528V180.01H203.192C202.367 173.202 196.556 167.911 189.527 167.911C182.498 167.911 176.687 173.202 175.861 180.01H169.338V186.528C162.533 187.354 157.243 193.169 157.243 200.196C157.243 207.224 162.533 213.039 169.338 213.865V220.382H175.861C176.671 227.084 182.322 232.316 189.198 232.478Z" fill="#005C59"/>
<path d="M174.146 215.575V209.158H171.012C166.067 209.158 162.052 205.138 162.052 200.196C162.052 195.254 166.067 191.234 171.012 191.234H174.146V184.818H180.566V181.68C180.566 176.739 184.59 172.718 189.527 172.718C194.472 172.718 198.487 176.739 198.487 181.68V184.818H204.907V191.234H208.041C212.986 191.234 217.001 195.254 217.001 200.196C217.001 205.138 212.986 209.158 208.041 209.158H204.907V215.575H198.487V218.712C198.487 223.653 194.472 227.674 189.527 227.674C184.59 227.674 180.566 223.653 180.566 218.712V215.575H174.146Z" fill="#0E3D3B"/>
<path fill-rule="evenodd" clip-rule="evenodd" d="M193.019 191.738H197.992V196.71L201.494 200.208L197.992 203.706V208.654H193.044L189.526 212.169L186.016 208.654H181.043V203.682L177.541 200.184L181.043 196.686V191.738H185.99L189.509 188.223L193.019 191.738Z" fill="#0BB3AE"/>
<path fill-rule="evenodd" clip-rule="evenodd" d="M234.467 155.298C234.467 155.298 237.772 160.37 237.772 166.618C237.772 172.866 234.467 177.938 234.467 177.938C234.467 177.938 231.181 172.866 231.181 166.618C231.181 160.37 234.467 155.298 234.467 155.298Z" fill="#0BB3AE"/>
<path fill-rule="evenodd" clip-rule="evenodd" d="M234.418 155.327C234.418 155.327 229.346 158.631 223.098 158.631C216.85 158.631 211.778 155.327 211.778 155.327C211.778 155.327 216.85 152.04 223.098 152.04C229.346 152.04 234.418 155.327 234.418 155.327Z" fill="#0BB3AE"/>
<path fill-rule="evenodd" clip-rule="evenodd" d="M234.415 155.287C234.415 155.287 233.165 161.21 228.747 165.628C224.329 170.046 218.406 171.295 218.406 171.295C218.406 171.295 219.669 165.385 224.087 160.967C228.505 156.549 234.415 155.287 234.415 155.287Z" fill="#0BB3AE"/>
<path fill-rule="evenodd" clip-rule="evenodd" d="M144.645 245.093C144.645 245.093 141.34 240.021 141.34 233.773C141.34 227.525 144.645 222.453 144.645 222.453C144.645 222.453 147.931 227.525 147.931 233.773C147.931 240.021 144.645 245.093 144.645 245.093Z" fill="#0BB3AE"/>
<path fill-rule="evenodd" clip-rule="evenodd" d="M144.694 245.065C144.694 245.065 149.766 241.76 156.014 241.76C162.262 241.76 167.334 245.065 167.334 245.065C167.334 245.065 162.262 248.351 156.014 248.351C149.766 248.351 144.694 245.065 144.694 245.065Z" fill="#0BB3AE"/>
<path fill-rule="evenodd" clip-rule="evenodd" d="M144.697 245.105C144.697 245.105 145.947 239.181 150.365 234.763C154.783 230.345 160.706 229.096 160.706 229.096C160.706 229.096 159.443 235.006 155.025 239.424C150.607 243.842 144.697 245.105 144.697 245.105Z" fill="#0BB3AE"/>
<path fill-rule="evenodd" clip-rule="evenodd" d="M234.423 245.137C234.423 245.137 229.351 248.441 223.103 248.441C216.855 248.441 211.783 245.137 211.783 245.137C211.783 245.137 216.855 241.85 223.103 241.85C229.351 241.85 234.423 245.137 234.423 245.137Z" fill="#0BB3AE"/>
<path fill-rule="evenodd" clip-rule="evenodd" d="M234.395 245.087C234.395 245.087 231.09 240.015 231.09 233.767C231.09 227.519 234.395 222.447 234.395 222.447C234.395 222.447 237.681 227.519 237.681 233.767C237.681 240.015 234.395 245.087 234.395 245.087Z" fill="#0BB3AE"/>
<path fill-rule="evenodd" clip-rule="evenodd" d="M234.435 245.084C234.435 245.084 228.512 243.835 224.094 239.417C219.676 234.999 218.426 229.076 218.426 229.076C218.426 229.076 224.336 230.338 228.754 234.756C233.172 239.174 234.435 245.084 234.435 245.084Z" fill="#0BB3AE"/>
<path fill-rule="evenodd" clip-rule="evenodd" d="M144.629 155.255C144.629 155.255 149.701 151.95 155.949 151.95C162.197 151.95 167.269 155.255 167.269 155.255C167.269 155.255 162.197 158.541 155.949 158.541C149.701 158.541 144.629 155.255 144.629 155.255Z" fill="#0BB3AE"/>
<path fill-rule="evenodd" clip-rule="evenodd" d="M144.657 155.304C144.657 155.304 147.962 160.376 147.962 166.624C147.962 172.872 144.657 177.944 144.657 177.944C144.657 177.944 141.371 172.872 141.371 166.624C141.371 160.376 144.657 155.304 144.657 155.304Z" fill="#0BB3AE"/>
<path fill-rule="evenodd" clip-rule="evenodd" d="M144.617 155.307C144.617 155.307 150.54 156.556 154.958 160.974C159.376 165.392 160.626 171.316 160.626 171.316C160.626 171.316 154.716 170.053 150.298 165.635C145.88 161.217 144.617 155.307 144.617 155.307Z" fill="#0BB3AE"/>
<path d="M281.11 247.957C289.557 247.896 297.76 240.857 297.76 233.389C297.76 214.964 274.316 217.045 274.316 210.128C274.316 206.15 277.682 203.028 282.824 202.967C288.272 202.905 293.353 209.516 294.638 213.985H295.617L295.005 204.13C292.312 201.987 287.476 200.457 283.314 200.518C271.561 200.702 265.746 206.15 265.746 214.168C265.746 217.168 267.705 220.779 269.908 222.432C270.092 222.31 273.03 221.085 279.09 221.636C284.661 222.126 290.782 226.962 289.925 235.899C289.557 239.755 287.048 244.53 281.416 244.713C265.868 245.57 271.01 226.533 277.009 226.533C277.437 226.533 277.866 226.656 278.294 226.839C279.947 227.635 278.294 233.756 282.763 233.45C284.293 233.328 285.579 232.226 286.068 230.206C286.864 225.799 281.11 222.983 275.785 222.983C273.948 222.983 272.173 223.289 270.827 224.023C256.625 228.982 261.706 248.08 281.11 247.957Z" fill="#0E3D3B"/>
<path d="M299.026 217.841C300.189 218.27 300.801 218.453 302.209 218.392L302.148 231.491C302.086 238.408 303.8 240.183 309.738 240.183C311.819 240.183 316.716 239.265 319.96 233.695L319.287 232.96C317.389 235.654 315.125 236.266 314.023 236.266C311.574 236.266 310.901 235.654 310.901 233.022C310.901 227.819 310.962 216.005 310.962 216.005V215.454C317.389 211.597 326.938 206.333 334.59 206.333C337.895 206.333 340.834 207.374 342.976 209.822C343.588 210.496 344.262 210.74 345.118 210.74C346.526 210.74 348.179 209.822 349.097 208.292C350.75 205.782 348.975 203.028 346.526 201.62C344.751 200.518 342.67 200.151 340.344 200.151C330.795 200.151 317.94 207.925 310.962 212.577V204.864H309.065C306.371 210.19 303.066 216.617 298.965 215.454L299.026 217.841Z" fill="#0E3D3B"/>
<path d="M318.871 213.25C318.871 213.985 318.932 214.413 318.932 214.413L319.544 214.474C321.748 214.719 323.094 218.331 323.094 223.656V230.757C323.094 236.45 325.665 240.184 330.868 240.184C334.48 240.184 337.418 238.225 339.989 234.98V239.877H341.703L352.905 235.47C352.905 235.103 352.843 234.858 352.843 234.858L352.231 234.552C349.171 233.083 348.62 231.491 348.62 224.085V212.638H335.704V213.25C335.704 213.985 335.765 214.413 335.765 214.413L336.377 214.474C338.642 214.719 340.05 218.698 339.989 224.085V233.328C339.377 233.94 338.642 234.43 337.724 234.43C333.745 234.43 331.786 232.654 331.786 229.839V212.638H318.871V213.25Z" fill="#0E3D3B"/>
<path d="M364.832 240.183C367.526 240.183 370.464 238.531 372.851 235.837V239.877H374.565L385.767 235.47C385.767 235.103 385.706 234.858 385.706 234.858L385.094 234.552C382.033 233.083 381.543 231.491 381.543 224.085V199.845H379.768L368.628 204.252C368.628 204.619 368.689 204.864 368.689 204.864L369.24 205.17C372.056 206.517 372.729 207.986 372.851 213.862C371.505 212.944 369.913 212.332 368.199 212.332C359.079 212.332 353.325 218.453 353.325 228.186C353.325 235.531 357.793 240.183 364.832 240.183ZM362.384 224.88C362.384 218.637 364.465 214.719 367.771 214.719C369.913 214.719 371.688 215.76 372.851 217.474V234.123C372.117 234.552 370.954 234.858 369.607 234.858C365.2 234.858 362.384 230.94 362.384 224.88Z" fill="#0E3D3B"/>
<path d="M385.773 239.877H402.974V239.204C402.974 238.531 402.913 238.102 402.913 238.102L402.3 238.041C400.097 237.796 398.75 234.123 398.75 228.798V212.638H396.975L385.773 217.045C385.773 217.351 385.834 217.657 385.834 217.657L386.446 217.963C389.446 219.433 389.997 220.963 389.997 228.431C389.997 233.817 388.773 237.796 386.446 238.041L385.834 238.102C385.834 238.102 385.773 238.531 385.773 239.204V239.877ZM393.914 208.414C396.791 208.414 398.689 206.578 398.689 203.64C398.689 200.702 396.791 198.865 393.914 198.865C390.976 198.865 389.079 200.702 389.079 203.64C389.079 206.578 390.976 208.414 393.914 208.414Z" fill="#0E3D3B"/>
<path d="M418.911 240.183C428.399 240.183 434.398 234.736 434.398 226.227C434.398 217.78 428.399 212.332 418.911 212.332C409.423 212.332 403.424 217.78 403.424 226.227C403.424 234.736 409.423 240.183 418.911 240.183ZM412.851 226.227C412.851 218.943 415.238 214.291 418.911 214.291C422.645 214.291 425.032 218.943 425.032 226.227C425.032 233.511 422.645 238.225 418.911 238.225C415.238 238.225 412.851 233.511 412.851 226.227Z" fill="#0E3D3B"/>
<path d="M436.964 237.796C439.045 239.388 442.35 240.49 445.778 240.49C453.858 240.49 459 236.878 459 231.185C459 228.002 456.552 224.697 452.695 223.228C447.431 221.147 444.064 219.8 444.125 217.78C444.187 215.637 446.452 213.495 450.063 213.679C453.736 213.862 455.695 218.208 457.286 221.269H458.204L458.449 214.719C456.613 212.638 452.328 211.72 449.818 211.72C441.861 211.72 436.902 215.637 436.902 220.779C436.902 223.84 440.514 227.574 446.084 229.655C449.267 230.879 451.287 232.716 451.287 234.368C451.287 236.878 449.39 238.531 446.39 238.531C441.922 238.531 438.678 233.94 437.392 230.696C437.025 230.696 436.841 230.634 436.658 230.634L436.964 237.796Z" fill="#0E3D3B"/>
<path d="M269.519 174.784C271.233 175.335 272.886 175.519 274.416 175.519C281.088 175.519 285.128 170.928 284.149 166.153C283.782 164.256 282.068 163.46 280.538 163.766C274.049 165.052 278.334 172.213 276.62 172.764C272.029 174.233 271.539 168.969 272.029 165.297C272.58 161.073 276.62 157.217 284.027 157.767V157.829L287.516 157.951L287.638 182.375C287.638 187.7 286.23 191.373 284.027 191.618L283.415 191.679C283.415 191.679 283.353 192.107 283.353 192.781V193.454H301.533V192.781C301.533 192.107 301.472 191.679 301.472 191.679L300.86 191.618C298.656 191.373 297.31 187.7 297.31 182.375V157.584C303.431 157.523 308.511 160.277 311.266 164.746L312.062 166.031C312.062 166.031 312.429 166.092 312.858 166.092C312.429 163.154 312.001 159.298 311.572 156.421L311.388 155.197L284.333 155.258C260.399 154.34 258.501 170.867 269.519 174.784Z" fill="#0E3D3B"/>
<path d="M319.275 193.76C328.763 193.76 334.762 188.312 334.762 179.804C334.762 171.357 328.763 165.909 319.275 165.909C309.787 165.909 303.788 171.357 303.788 179.804C303.788 188.312 309.787 193.76 319.275 193.76ZM313.215 179.804C313.215 172.52 315.602 167.867 319.275 167.867C323.009 167.867 325.396 172.52 325.396 179.804C325.396 187.088 323.009 191.801 319.275 191.801C315.602 191.801 313.215 187.088 313.215 179.804Z" fill="#0E3D3B"/>
<path d="M357.058 190.822C357.058 199.881 363.056 202.881 364.709 203.983C366.913 205.329 369.79 206.003 372.605 206.003C374.075 206.003 375.421 205.819 376.768 205.513C379.828 204.778 381.971 202.82 381.481 199.698C381.236 197.923 379.461 196.882 377.686 196.882C376.768 196.882 375.85 197.188 375.176 197.861C373.707 199.453 371.687 202.452 368.565 201.473C366.056 200.616 365.872 195.168 365.872 193.148C365.872 192.536 365.75 191.067 365.75 185.986V175.09C365.75 169.459 363.975 165.909 359.139 165.909C354.119 165.909 350.202 168.174 348.672 170.316V166.215H346.896L335.756 170.622C335.756 170.989 335.817 171.234 335.817 171.234L336.368 171.54C339.428 173.009 339.979 174.54 339.979 182.007C339.979 187.394 338.755 191.373 336.368 191.618L335.817 191.679C335.817 191.679 335.756 192.107 335.756 192.781V193.454H352.712V191.679L352.161 191.618C349.957 191.373 348.672 187.7 348.672 182.375V172.703C350.263 170.5 351.732 169.581 353.018 169.581C355.527 169.581 357.058 173.07 357.058 176.009V190.822Z" fill="#0E3D3B"/>
<path d="M369.705 193.454H386.906V192.781C386.906 192.107 386.845 191.679 386.845 191.679L386.233 191.618C384.029 191.373 382.682 187.7 382.682 182.375V166.215H380.907L369.705 170.622C369.705 170.928 369.766 171.234 369.766 171.234L370.379 171.54C373.378 173.009 373.929 174.54 373.929 182.007C373.929 187.394 372.705 191.373 370.379 191.618L369.766 191.679C369.766 191.679 369.705 192.107 369.705 192.781V193.454ZM377.846 161.991C380.723 161.991 382.621 160.155 382.621 157.217C382.621 154.278 380.723 152.442 377.846 152.442C374.908 152.442 373.011 154.278 373.011 157.217C373.011 160.155 374.908 161.991 377.846 161.991Z" fill="#0E3D3B"/>
<path d="M387.775 181.212C387.775 188.863 393.101 193.76 401.548 193.76C405.71 193.76 412.505 191.434 415.382 185.558L414.402 184.701C413.056 187.7 409.995 189.047 408.465 189.169C400.568 189.781 396.957 184.334 396.957 177.845C396.957 172.03 399.344 168.357 403.139 168.357C405.404 168.357 406.934 169.52 407.118 171.479C407.363 174.111 409.016 175.764 411.464 175.764C413.79 175.764 415.321 174.295 415.321 171.907C415.014 168.235 410.607 165.909 404.057 165.909C394.08 165.909 387.775 171.846 387.775 181.212Z" fill="#0E3D3B"/>
</g>
<defs>
<clipPath id="clip0_1_3">
<rect width="600" height="400" fill="white"/>
</clipPath>
</defs>
</svg>
