<svg width="600" height="400" viewBox="0 0 600 400" fill="none" xmlns="http://www.w3.org/2000/svg">
<g clip-path="url(#clip0_215_771)">
<rect width="600" height="400" fill="white"/>
<rect width="600" height="400" fill="white"/>
<path d="M244.436 213.755L367.172 123.143L355.588 186.227L232.852 276.838L244.436 213.755Z" fill="#9293A5"/>
<path d="M244.412 213.774L387.827 191.465L350.165 227.964L376.244 254.548L232.828 276.857L244.412 213.774Z" fill="#1D3B63"/>
<path d="M223.756 145.452L367.172 123.143L355.588 186.226L212.173 208.536L249.835 172.036L223.756 145.452Z" fill="#D8113F"/>
<path d="M255.142 247.821C255.142 253.521 257.855 256.677 262.994 255.877C267.023 255.251 269.613 252.268 271.504 247.689L266.53 246.424C265.502 248.747 264.474 250.072 263.282 250.258C262.131 250.437 261.432 249.505 261.432 246.967C261.432 243.14 263.487 232.668 266.941 232.131C268.38 231.907 268.791 233.757 268.873 236.074L274.628 234.056C274.505 229.956 272.778 225.648 267.311 226.499C258.431 227.88 255.142 241.247 255.142 247.821Z" fill="white"/>
<path d="M290.301 251.13L290.466 223.354L283.313 224.467L271.391 254.072L277.598 253.106L279.243 248.357L284.71 247.507L284.422 252.045L290.301 251.13ZM285.162 241.945L281.175 242.565L285.779 229.617L285.162 241.945Z" fill="white"/>
<path d="M299.555 249.691L301.693 239.623L303.666 239.316C310.737 238.216 314.149 232.485 314.149 227.076C314.149 222.874 311.354 220.105 307.037 220.777L299.391 221.966L293.348 250.656L299.555 249.691ZM302.885 233.946L304.406 226.678L305.598 226.492C306.832 226.3 307.695 227.081 307.695 228.746C307.695 230.909 306.421 233.396 304.201 233.741L302.885 233.946Z" fill="white"/>
<path d="M326.76 245.459L327.952 239.782L321.251 240.824L322.525 234.76L328.939 233.762L330.131 228.085L323.759 229.076L324.91 223.488L331.57 222.452L332.803 216.769L319.894 218.777L313.851 247.467L326.76 245.459Z" fill="white"/>
<path d="M277.615 181.569L289.537 151.965L282.959 152.988L275.642 173.847L276.875 153.934L270.626 154.906L270.462 182.682L277.615 181.569Z" fill="white"/>
<path d="M288.017 171.173C288.017 176.373 290.484 180.067 295.869 179.229C304.584 177.873 308.038 164.605 308.038 157.99C308.038 152.789 305.53 149.019 300.186 149.85C291.429 151.213 288.017 164.557 288.017 171.173ZM301.707 158.85C301.707 162.719 299.569 173.078 296.157 173.609C294.8 173.82 294.307 172.441 294.307 170.319C294.307 166.408 296.404 156.014 299.816 155.483C301.172 155.272 301.707 156.687 301.707 158.85Z" fill="white"/>
<path d="M316.853 175.466L321.663 152.459L325.732 151.826L326.925 146.149L312.577 148.38L311.385 154.058L315.455 153.425L310.604 176.438L316.853 175.466Z" fill="white"/>
<path d="M337.686 172.225L338.878 166.548L332.177 167.59L333.452 161.526L339.865 160.528L341.057 154.851L334.685 155.842L335.836 150.254L342.496 149.218L343.729 143.535L330.82 145.543L324.777 174.233L337.686 172.225Z" fill="white"/>
<path fill-rule="evenodd" clip-rule="evenodd" d="M304.266 181.433L304.668 194.063L318.147 191.671L306.68 200.414L313.391 210.229L301.521 206.341L294.753 218.548L294.35 205.918L280.874 208.311L292.338 199.568L285.631 189.753L297.497 193.64L304.266 181.433Z" fill="white"/>
</g>
<defs>
<clipPath id="clip0_215_771">
<rect width="600" height="400" fill="white"/>
</clipPath>
</defs>
</svg>
