<svg width="600" height="400" viewBox="0 0 600 400" fill="none" xmlns="http://www.w3.org/2000/svg">
<g clip-path="url(#clip0_227_263)">
<rect width="600" height="400" fill="black"/>
<rect width="600" height="400" fill="black"/>
<path d="M145.727 186.165L139.211 207.349L132.203 186.165H123.098L133.899 218.321H143.272L149.788 197.272L156.26 218.321H165.677L176.478 186.165H167.641L160.589 207.349L154.118 186.165H145.727Z" fill="white"/>
<path d="M194.1 185.628C182.897 185.628 174.819 192.659 174.819 202.243C174.819 211.828 182.897 218.859 194.1 218.859C205.302 218.859 213.336 211.828 213.336 202.243C213.336 192.659 205.302 185.628 194.1 185.628ZM194.1 193.241C199.991 193.241 204.41 196.735 204.41 202.243C204.41 207.752 199.991 211.245 194.1 211.245C188.208 211.245 183.79 207.752 183.79 202.243C183.79 196.735 188.208 193.241 194.1 193.241Z" fill="white"/>
<path d="M225.05 207.662H233.754L240.627 218.321H250.669L242.903 206.722C247.277 205.154 249.955 201.661 249.955 196.914C249.955 190.017 244.823 186.165 237.012 186.165H216.303V218.321H225.05V207.662ZM225.05 200.721V193.51H236.566C239.645 193.51 241.341 194.854 241.341 197.138C241.341 199.288 239.645 200.721 236.566 200.721H225.05Z" fill="white"/>
<path d="M261.881 186.165H253.133V218.321H261.881V210.305L267.594 205.154L278.707 218.321H289.82L273.887 199.511L288.705 186.165H276.788L261.881 199.735V186.165Z" fill="white"/>
<path d="M331.044 218.321V207.08H350.905V199.825H331.044V193.6H353.449V186.165H322.474V218.321H331.044Z" fill="white"/>
<path d="M356.472 218.321H385.572V210.887H365.219V186.165H356.472V218.321Z" fill="white"/>
<path d="M404.399 185.628C393.196 185.628 385.118 192.659 385.118 202.243C385.118 211.828 393.196 218.859 404.399 218.859C415.602 218.859 423.635 211.828 423.635 202.243C423.635 192.659 415.602 185.628 404.399 185.628ZM404.399 193.241C410.29 193.241 414.709 196.735 414.709 202.243C414.709 207.752 410.29 211.245 404.399 211.245C398.507 211.245 394.089 207.752 394.089 202.243C394.089 196.735 398.507 193.241 404.399 193.241Z" fill="white"/>
<path d="M444.636 186.165L438.12 207.349L431.113 186.165H422.008L432.809 218.321H442.182L448.698 197.272L455.17 218.321H464.587L475.388 186.165H466.551L459.499 207.349L453.027 186.165H444.636Z" fill="white"/>
<path d="M300.58 189.821H307.535V192.72C307.535 194.802 306.711 196.8 305.243 198.272L300.307 203.226C298.839 204.698 296.849 205.525 294.774 205.525H291.885V198.546H300.58V189.821Z" fill="#FF6400"/>
<path d="M302.872 205.799C301.404 207.272 300.58 209.269 300.58 211.352V214.25H307.535V205.525H316.23V198.546H313.341C311.266 198.546 309.276 199.373 307.808 200.846L302.872 205.799Z" fill="#FF6400"/>
</g>
<defs>
<clipPath id="clip0_227_263">
<rect width="600" height="400" fill="white"/>
</clipPath>
</defs>
</svg>
